<mxfile host="Electron" agent="Mozilla/5.0 (X11; Linux x86_64) AppleWebKit/537.36 (KHTML, like Gecko) draw.io/26.1.1 Chrome/138.0.7204.100 Electron/37.2.2 Safari/537.36" version="26.1.1">
  <diagram name="Page-1" id="cSO_DhjBtIs-y8T3Yu-b">
    <mxGraphModel dx="721" dy="1030" grid="0" gridSize="10" guides="1" tooltips="1" connect="1" arrows="1" fold="1" page="0" pageScale="1" pageWidth="827" pageHeight="1169" background="#18181B" math="0" shadow="0">
      <root>
        <mxCell id="0" />
        <mxCell id="1" parent="0" />
        <mxCell id="tk96eruObW772T1n_iph-12" style="edgeStyle=orthogonalEdgeStyle;rounded=0;orthogonalLoop=1;jettySize=auto;html=1;fillColor=#d5e8d4;strokeColor=#F35E32;exitX=1;exitY=0.5;exitDx=0;exitDy=0;fontColor=#FFFFFF;endArrow=blockThin;endFill=1;" parent="1" source="tk96eruObW772T1n_iph-25" target="tk96eruObW772T1n_iph-20" edge="1">
          <mxGeometry relative="1" as="geometry" />
        </mxCell>
        <mxCell id="tk96eruObW772T1n_iph-17" style="edgeStyle=orthogonalEdgeStyle;rounded=0;orthogonalLoop=1;jettySize=auto;html=1;entryX=0;entryY=0.5;entryDx=0;entryDy=0;fillColor=#d5e8d4;strokeColor=#F35E32;exitX=1;exitY=0.5;exitDx=0;exitDy=0;fontColor=#FFFFFF;endArrow=blockThin;endFill=1;" parent="1" source="tk96eruObW772T1n_iph-25" target="tk96eruObW772T1n_iph-21" edge="1">
          <mxGeometry relative="1" as="geometry">
            <Array as="points">
              <mxPoint x="211" y="507" />
              <mxPoint x="211" y="648" />
            </Array>
          </mxGeometry>
        </mxCell>
        <mxCell id="tk96eruObW772T1n_iph-18" style="edgeStyle=orthogonalEdgeStyle;rounded=0;orthogonalLoop=1;jettySize=auto;html=1;entryX=0;entryY=0.5;entryDx=0;entryDy=0;fillColor=#d5e8d4;strokeColor=#F35E32;exitX=1;exitY=0.5;exitDx=0;exitDy=0;fontColor=#FFFFFF;endArrow=blockThin;endFill=1;" parent="1" source="tk96eruObW772T1n_iph-25" target="tk96eruObW772T1n_iph-19" edge="1">
          <mxGeometry relative="1" as="geometry">
            <Array as="points">
              <mxPoint x="211" y="507" />
              <mxPoint x="211" y="366" />
            </Array>
          </mxGeometry>
        </mxCell>
        <mxCell id="tk96eruObW772T1n_iph-37" style="edgeStyle=orthogonalEdgeStyle;rounded=0;orthogonalLoop=1;jettySize=auto;html=1;exitX=0.25;exitY=0;exitDx=0;exitDy=0;entryX=0.5;entryY=1;entryDx=0;entryDy=0;fillColor=#f8cecc;strokeColor=#2BEB8D;fontColor=#FFFFFF;endArrow=blockThin;endFill=1;dashed=1;" parent="1" source="tk96eruObW772T1n_iph-21" target="tk96eruObW772T1n_iph-23" edge="1">
          <mxGeometry relative="1" as="geometry" />
        </mxCell>
        <mxCell id="tk96eruObW772T1n_iph-27" style="edgeStyle=orthogonalEdgeStyle;rounded=0;orthogonalLoop=1;jettySize=auto;html=1;entryX=0;entryY=0.5;entryDx=0;entryDy=0;fillColor=#f8cecc;strokeColor=#2BEB8D;fontColor=#FFFFFF;endArrow=blockThin;endFill=1;dashed=1;" parent="1" source="tk96eruObW772T1n_iph-22" target="tk96eruObW772T1n_iph-26" edge="1">
          <mxGeometry relative="1" as="geometry">
            <Array as="points">
              <mxPoint x="522" y="366" />
              <mxPoint x="522" y="507" />
            </Array>
          </mxGeometry>
        </mxCell>
        <mxCell id="tk96eruObW772T1n_iph-28" style="edgeStyle=orthogonalEdgeStyle;rounded=0;orthogonalLoop=1;jettySize=auto;html=1;fillColor=#f8cecc;strokeColor=#2BEB8D;fontColor=#FFFFFF;endArrow=none;endFill=1;dashed=1;startFill=0;" parent="1" source="tk96eruObW772T1n_iph-23" edge="1">
          <mxGeometry relative="1" as="geometry">
            <mxPoint x="521" y="507" as="targetPoint" />
          </mxGeometry>
        </mxCell>
        <mxCell id="tk96eruObW772T1n_iph-29" style="edgeStyle=orthogonalEdgeStyle;rounded=0;orthogonalLoop=1;jettySize=auto;html=1;entryX=0;entryY=0.5;entryDx=0;entryDy=0;fillColor=#f8cecc;strokeColor=#2BEB8D;fontColor=#FFFFFF;endArrow=blockThin;endFill=1;dashed=1;" parent="1" source="tk96eruObW772T1n_iph-24" target="tk96eruObW772T1n_iph-26" edge="1">
          <mxGeometry relative="1" as="geometry" />
        </mxCell>
        <mxCell id="tk96eruObW772T1n_iph-41" style="edgeStyle=orthogonalEdgeStyle;rounded=0;orthogonalLoop=1;jettySize=auto;html=1;exitX=0.5;exitY=1;exitDx=0;exitDy=0;entryX=0.75;entryY=0;entryDx=0;entryDy=0;fillColor=#f8cecc;strokeColor=#2BEB8D;fontColor=#FFFFFF;endArrow=blockThin;endFill=1;dashed=1;" parent="1" source="tk96eruObW772T1n_iph-19" target="tk96eruObW772T1n_iph-23" edge="1">
          <mxGeometry relative="1" as="geometry" />
        </mxCell>
        <mxCell id="tk96eruObW772T1n_iph-42" style="edgeStyle=orthogonalEdgeStyle;rounded=0;orthogonalLoop=1;jettySize=auto;html=1;exitX=0;exitY=0.75;exitDx=0;exitDy=0;entryX=0.25;entryY=0;entryDx=0;entryDy=0;fillColor=#f8cecc;strokeColor=#2BEB8D;fontColor=#FFFFFF;endArrow=blockThin;endFill=1;dashed=1;" parent="1" source="tk96eruObW772T1n_iph-19" target="tk96eruObW772T1n_iph-24" edge="1">
          <mxGeometry relative="1" as="geometry">
            <Array as="points">
              <mxPoint x="244" y="590" />
              <mxPoint x="434" y="590" />
            </Array>
          </mxGeometry>
        </mxCell>
        <mxCell id="tk96eruObW772T1n_iph-44" style="edgeStyle=orthogonalEdgeStyle;rounded=0;orthogonalLoop=1;jettySize=auto;html=1;exitX=0;exitY=0.25;exitDx=0;exitDy=0;entryX=0.25;entryY=1;entryDx=0;entryDy=0;fillColor=#f8cecc;strokeColor=#2BEB8D;startArrow=none;startFill=0;fontColor=#FFFFFF;endArrow=blockThin;endFill=1;dashed=1;" parent="1" source="tk96eruObW772T1n_iph-21" target="tk96eruObW772T1n_iph-22" edge="1">
          <mxGeometry relative="1" as="geometry">
            <Array as="points">
              <mxPoint x="259" y="641" />
              <mxPoint x="259" y="408" />
              <mxPoint x="433" y="408" />
            </Array>
          </mxGeometry>
        </mxCell>
        <mxCell id="tk96eruObW772T1n_iph-51" style="edgeStyle=orthogonalEdgeStyle;rounded=0;orthogonalLoop=1;jettySize=auto;html=1;exitX=0.25;exitY=0;exitDx=0;exitDy=0;entryX=0.5;entryY=1;entryDx=0;entryDy=0;fillColor=#f8cecc;strokeColor=#2BEB8D;fontColor=#FFFFFF;endArrow=blockThin;endFill=1;dashed=1;" parent="1" source="tk96eruObW772T1n_iph-20" target="tk96eruObW772T1n_iph-22" edge="1">
          <mxGeometry relative="1" as="geometry">
            <Array as="points">
              <mxPoint x="448" y="417" />
            </Array>
          </mxGeometry>
        </mxCell>
        <mxCell id="tk96eruObW772T1n_iph-52" style="edgeStyle=orthogonalEdgeStyle;rounded=0;orthogonalLoop=1;jettySize=auto;html=1;exitX=0.25;exitY=1;exitDx=0;exitDy=0;entryX=0.75;entryY=0;entryDx=0;entryDy=0;fillColor=#f8cecc;strokeColor=#2BEB8D;fontColor=#FFFFFF;endArrow=blockThin;endFill=1;dashed=1;" parent="1" source="tk96eruObW772T1n_iph-20" target="tk96eruObW772T1n_iph-24" edge="1">
          <mxGeometry relative="1" as="geometry">
            <Array as="points">
              <mxPoint x="295" y="551" />
              <mxPoint x="464" y="551" />
            </Array>
          </mxGeometry>
        </mxCell>
        <mxCell id="RaU5KfkkpcU7UawoV4SE-11" value="&lt;h2 style=&quot;margin-top: 0px;&quot;&gt;&lt;span style=&quot;text-wrap-mode: nowrap;&quot;&gt;Network Resource Access Policies&lt;/span&gt;&lt;/h2&gt;&lt;p&gt;Resource:&amp;nbsp;&lt;b&gt;192.168.1.0/24&amp;nbsp;&lt;/b&gt;assigned to&amp;nbsp;&lt;b&gt;&lt;font style=&quot;color: rgb(43, 235, 141);&quot;&gt;Resource&#39;s Group&lt;/font&gt;&lt;/b&gt;&lt;br&gt;Routing Peers:&amp;nbsp;&lt;b&gt;&lt;font style=&quot;color: rgb(243, 94, 50);&quot;&gt;Router&#39;s Group&lt;/font&gt;&lt;/b&gt;&amp;nbsp;containing 3 Peers&lt;br&gt;&lt;font style=&quot;color: rgb(255, 255, 255);&quot;&gt;Access Policy 1:&lt;/font&gt;&lt;font&gt; &lt;font style=&quot;color: rgb(43, 235, 141);&quot;&gt;&lt;b style=&quot;&quot;&gt;User&#39;s Group&lt;/b&gt; &amp;gt; &lt;b style=&quot;&quot;&gt;Resource&#39;s Group&lt;/b&gt;&lt;/font&gt;&lt;/font&gt;&lt;br&gt;Access Policy 2: &lt;font style=&quot;color: rgb(243, 94, 50);&quot;&gt;&lt;b style=&quot;&quot;&gt;User&#39;s Group&lt;/b&gt; &amp;gt; &lt;b style=&quot;&quot;&gt;Router&#39;s Group&lt;/b&gt;&lt;/font&gt;&lt;/p&gt;" style="text;html=1;whiteSpace=wrap;overflow=hidden;rounded=0;fontColor=#FFFFFF;align=center;verticalAlign=middle;" parent="1" vertex="1">
          <mxGeometry x="148" y="187" width="422" height="119" as="geometry" />
        </mxCell>
        <mxCell id="tk96eruObW772T1n_iph-21" value="100.XX.0.3" style="text;html=1;align=center;verticalAlign=middle;whiteSpace=wrap;rounded=0;fontSize=10;fontColor=#FFFFFF;" parent="1" vertex="1">
          <mxGeometry x="281" y="633" width="60" height="30" as="geometry" />
        </mxCell>
        <mxCell id="tk96eruObW772T1n_iph-24" value="192.168.1.3" style="text;html=1;align=center;verticalAlign=middle;whiteSpace=wrap;rounded=0;fontSize=10;fontColor=#FFFFFF;" parent="1" vertex="1">
          <mxGeometry x="419" y="633.22" width="60" height="30" as="geometry" />
        </mxCell>
        <mxCell id="tk96eruObW772T1n_iph-35" style="edgeStyle=orthogonalEdgeStyle;rounded=0;orthogonalLoop=1;jettySize=auto;html=1;exitX=0.5;exitY=0;exitDx=0;exitDy=0;entryX=0.5;entryY=0;entryDx=0;entryDy=0;fillColor=#d5e8d4;strokeColor=#F35E32;fontColor=#FFFFFF;endArrow=blockThin;endFill=1;" parent="1" source="tk96eruObW772T1n_iph-21" target="tk96eruObW772T1n_iph-24" edge="1">
          <mxGeometry relative="1" as="geometry" />
        </mxCell>
        <mxCell id="tk96eruObW772T1n_iph-20" value="100.XX.0.2" style="text;html=1;align=center;verticalAlign=middle;whiteSpace=wrap;rounded=0;fontSize=10;fontColor=#FFFFFF;" parent="1" vertex="1">
          <mxGeometry x="280" y="492.48" width="60" height="29.999999999999982" as="geometry" />
        </mxCell>
        <mxCell id="tk96eruObW772T1n_iph-23" value="192.168.1.2" style="text;html=1;align=center;verticalAlign=middle;whiteSpace=wrap;rounded=0;fontSize=10;fontColor=#FFFFFF;" parent="1" vertex="1">
          <mxGeometry x="419" y="492" width="60" height="29.999999999999982" as="geometry" />
        </mxCell>
        <mxCell id="tk96eruObW772T1n_iph-34" style="edgeStyle=orthogonalEdgeStyle;rounded=0;orthogonalLoop=1;jettySize=auto;html=1;exitX=0.5;exitY=0;exitDx=0;exitDy=0;entryX=0.5;entryY=0;entryDx=0;entryDy=0;fillColor=#d5e8d4;strokeColor=#F35E32;fontColor=#FFFFFF;endArrow=blockThin;endFill=1;" parent="1" source="tk96eruObW772T1n_iph-20" target="tk96eruObW772T1n_iph-23" edge="1">
          <mxGeometry relative="1" as="geometry" />
        </mxCell>
        <mxCell id="kU3IDCsIoFBLPOvx1m8k-25" value="router-2" style="shape=image;verticalLabelPosition=bottom;verticalAlign=top;imageAspect=0;aspect=fixed;image=data:image/svg+xml,PHN2ZyB4bWxuczp4bGluaz0iaHR0cDovL3d3dy53My5vcmcvMTk5OS94bGluayIgeG1sbnM9Imh0dHA6Ly93d3cudzMub3JnLzIwMDAvc3ZnIiBmaWxsPSJub25lIiB2aWV3Qm94PSIwLjUgLTEuNSA2MyA3NS42NzQ0OTk1MTE3MTg3NSIgaGVpZ2h0PSI3NS42NzQ0OTk1MTE3MTg3NSIgd2lkdGg9IjYzIj4mI3hhOyAgICA8cGF0aCBzdHJva2UtbGluZWpvaW49InJvdW5kIiBzdHJva2UtbGluZWNhcD0icm91bmQiIHN0cm9rZS13aWR0aD0iMyIgc3Ryb2tlPSJ1cmwoI3BhaW50MF9saW5lYXJfMzMxOV85MTEzKSIgZD0iTTIgNDUuNDk0MUwzMi4wMTQ3IDU5LjA5NzlMNjIgNDUuNDk0MSIvPiYjeGE7ICAgIDxwYXRoIHN0cm9rZS1saW5lam9pbj0icm91bmQiIHN0cm9rZS1saW5lY2FwPSJyb3VuZCIgc3Ryb2tlLXdpZHRoPSIzIiBzdHJva2U9InVybCgjcGFpbnQxX2xpbmVhcl8zMzE5XzkxMTMpIiBkPSJNMTYgMjQuNUwyIDMxTDMyLjAxNDcgNDQuNjAzOEw2MiAzMUw0OS41IDI0LjUiLz4mI3hhOyAgICA8cGF0aCBzdHJva2UtbGluZWpvaW49InJvdW5kIiBzdHJva2UtbGluZWNhcD0icm91bmQiIHN0cm9rZS13aWR0aD0iMyIgc3Ryb2tlPSJ1cmwoI3BhaW50Ml9saW5lYXJfMzMxOV85MTEzKSIgZD0iTTIgNTkuMDk5NkwzMi4wMTQ3IDcyLjY3NDVMNjIgNTkuMDk5NiIvPiYjeGE7ICAgIDxyZWN0IGZpbGw9InVybCgjcGF0dGVybjBfMzMxOV85MTEzKSIgaGVpZ2h0PSIzMSIgd2lkdGg9IjQyIiB4PSIxMyIvPiYjeGE7ICAgIDxkZWZzPiYjeGE7ICAgICAgICA8cGF0dGVybiBoZWlnaHQ9IjEiIHdpZHRoPSIxIiBwYXR0ZXJuQ29udGVudFVuaXRzPSJvYmplY3RCb3VuZGluZ0JveCIgaWQ9InBhdHRlcm4wXzMzMTlfOTExMyI+JiN4YTsgICAgICAgICAgICA8dXNlIHRyYW5zZm9ybT0ibWF0cml4KDAuMDAwOTkyMDYzIDAgMCAwLjAwMTM0NDA5IC0wLjAwNzkzNjUxIDApIiB4bGluazpocmVmPSIjaW1hZ2UwXzMzMTlfOTExMyIvPiYjeGE7ICAgICAgICA8L3BhdHRlcm4+JiN4YTsgICAgICAgIDxsaW5lYXJHcmFkaWVudCBncmFkaWVudFVuaXRzPSJ1c2VyU3BhY2VPblVzZSIgeTI9IjU5LjA5NzkiIHgyPSIzMiIgeTE9IjQ1LjQ5NDEiIHgxPSIzMiIgaWQ9InBhaW50MF9saW5lYXJfMzMxOV85MTEzIj4mI3hhOyAgICAgICAgICAgIDxzdG9wIHN0b3AtY29sb3I9IiNGNjgzMzAiLz4mI3hhOyAgICAgICAgICAgIDxzdG9wIHN0b3AtY29sb3I9IiNGMzVFMzIiIG9mZnNldD0iMSIvPiYjeGE7ICAgICAgICA8L2xpbmVhckdyYWRpZW50PiYjeGE7ICAgICAgICA8bGluZWFyR3JhZGllbnQgZ3JhZGllbnRVbml0cz0idXNlclNwYWNlT25Vc2UiIHkyPSI0NC42MDM4IiB4Mj0iMzIiIHkxPSIzMSIgeDE9IjMyIiBpZD0icGFpbnQxX2xpbmVhcl8zMzE5XzkxMTMiPiYjeGE7ICAgICAgICAgICAgPHN0b3Agc3RvcC1jb2xvcj0iI0Y2ODMzMCIvPiYjeGE7ICAgICAgICAgICAgPHN0b3Agc3RvcC1jb2xvcj0iI0YzNUUzMiIgb2Zmc2V0PSIxIi8+JiN4YTsgICAgICAgIDwvbGluZWFyR3JhZGllbnQ+JiN4YTsgICAgICAgIDxsaW5lYXJHcmFkaWVudCBncmFkaWVudFVuaXRzPSJ1c2VyU3BhY2VPblVzZSIgeTI9IjcyLjY3NDUiIHgyPSIzMiIgeTE9IjU5LjA5OTYiIHgxPSIzMiIgaWQ9InBhaW50Ml9saW5lYXJfMzMxOV85MTEzIj4mI3hhOyAgICAgICAgICAgIDxzdG9wIHN0b3AtY29sb3I9IiNGNjgzMzAiLz4mI3hhOyAgICAgICAgICAgIDxzdG9wIHN0b3AtY29sb3I9IiNGMzVFMzIiIG9mZnNldD0iMSIvPiYjeGE7ICAgICAgICA8L2xpbmVhckdyYWRpZW50PiYjeGE7ICAgICAgICA8aW1hZ2UgeGxpbms6aHJlZj0iZGF0YTppbWFnZS9wbmc7YmFzZTY0LGlWQk9SdzBLR2dvQUFBQU5TVWhFVWdBQUJBQUFBQUxvQ0FZQUFBRG0yb2RXQUFBQUNYQklXWE1BQUN5T0FBQXNqZ0ZTbFRxbEFBQUFHWFJGV0hSVGIyWjBkMkZ5WlFCM2QzY3VhVzVyYzJOaGNHVXViM0pubSs0OEdnQUFJQUJKUkVGVWVKenMzWHVZbkhWOS8vL1grNTdkWkdaMkV3NEtDTFZWT1V1RWJFaXJQMDlmdFZYdzdOY0R0UGJndDYxdCtkbCtDNUVpaG1SM0daSUFVazhVYXlzZVdpbld0cURWcXFnVkQzaWdGT3BtWndOQk9ZaEFTRWl5U1hhejJkM1p3OXlmOSsrUEJINGNFcExkblozUFBUUFB4M1Y1WFpMc3pqeGhEek9mOTMzZm45c0VBQUFBNEpBTVgzbjZFYm5wNUxoMlM0NTExM0Z1NFZnek85NWR4MGs2VnRJSmtnNlBuQWtBVDJPdW15eDJCQUFBQUpBVlhsclNPWjYwbldTSm5XaXVFNFBaaWVaK29xUmZsWFNjcElXUkV3RmdOcVlUaGRQYllsY0FBQUFBOWVUWG5MaHdmTGpqTkV2c1JKTk9DcTRUVFhhaUZFNnF5SjVqa3VTU1N6TDN5TFVBVUJOL20rL1pjQThEQUFBQUFEU3RzZEt5NDNJNW5SYmtTeVJmTHRscGxkMTZrWmtXUHI3SWwvVEUvd2NBVFdiN1pLbzFrc1FBQUFBQUFBM1BQM3hHeDBSRlo3cmx1a3grdXN0UGwreEZrbmVHeHorS0JUNkExdU91bmlOSzVXR0pBUUFBQUFBYWpOOXdUbTcwNS9lZTJxWmt1U3NzbDlueXlvUitRNllGa212dlNmc3M5Z0ZBVXJsNDZrbWZrOHFTK00wSUFBQ0FqS3VVbHYrYXQ2VXZVZENMWlhxeHBPV1NPbUozQVVEV21kdXJDNzM5UDN6c256a0RBQUFBQUpreVZscDJuTFg1eTAxNmJRaDZoVnQ2R3Bmb0E4Q00zZkRFeGIvRUFBQUFBQUNSVFpST1A5NlR0bGNvOFplN2RKYmNuLy80Qm4wcytnRmdOaXFXNm9OUC9VTUdBQUFBQUtpcnNjdVhINXVrNmRsdWZyWmtyd3JTc1kvZmR3OEFNR2Z1OXRGaXFmL0JwLzQ1QXdBQUFBRE1LNy9obk56NHozL1JKUXR2TWVuTkN1bVpiakxPNlFlQWViRzVXRWcvdEwrLzRMY3VBQUFBYW03MDhoY2RrMHZiejNiek4wdDZuYVREWXpjQlFDc3cxKzhWZXN0ZjNPL2YxVHNHQUFBQXpXbjA4alBQc0JEZVlkTGJKWjBSdXdjQVd0QnRoZTd5eTgzMmYxRVZsd0FBQUFCZzF2YXNXYm9rTVR2SDNIOWJJWndhdXdjQVdsaVErWW9ETGY0bEJnQUFBQUNZQWIvaG5OekV2ZmUrMUlQT2tkazdKZjJLSkxickI0RElYTHF1bzN2Z2ptZjZHQVlBQUFBQWVFYnVzc3JhcnBjcDBlOVc3cm52dHlWN0ZoZVNBa0NtN0ZHU1czMndEK0pYTndBQUFQWnI4b3JscDFiVDlIZk05SHR5blJpN0J3QndJTDZ5MkROdzFjRStpak1BQUFBQThMaVJLMTc4ckZ4MTZwMW1laythcGk4M1NRZSttaFFBRUozcGdjTGlzYXNQNVVNWkFBQUFBTFE0THkxWlVHbHJmNXZKM3V2cDFHdGx5c1Z1QWdBY0duZjlsWjEvLytTaGZDeVhBQUFBQUxTb2lTdVduaHpTNUk4bC95TkpSOGZ1QVFETWxIMi8yTlAvVzRmNjBad0JBQUFBMEVMOG1oTVhWa1k2MytxdVB3dXBma3R5RGdnQlFHTktnMWRYek9RVEdBQUFBQUMwZ0QxcmxpN0ptYzZyN0xiZmwzUUVxMzRBYUhpZjZ1eTk4ODZaZkFJREFBQUFnQ2JsSlNXVHVXVy9HZVFYU0hxVHVQd1RBSnJGVURYTmxXYjZTUXdBQUFBQW1veGZkY3FpOGNuQ3U4ZE5LMHord3RnOUFJQWFjKzlkWE9yYk1kTlBZd0FBQUFEUUpDWktweDhmY20xL1ZwbnlQelBURWJGN0FBQzE1NjY3aThlMFhUdWJ6MlVBQUFBQTBPREcxeXg3cWN4WEJ1bk5raWV4ZXdBQTh5Zm5XbUhuOVUzUDVuTVpBQUFBQURTb3lycWxyM0MzRDByKzV0Z3RBSUM2K0dyKzB2TE5zLzFrQmdBQUFBQU54RXRLeHR2T2VKTjUwdTJ1RjhmdUFRRFV6VlFpWFR5WEIyQUFBQUFBMEFDOHRHVEJSTExnZHlvS2w1amJxYkY3QUFCMTV2NnhmTy9BZlhONUNBWUFBQUFBR2ViWExtOGYzMTc5NDRxUzFaTC9LbmZ5QTRCVzVGc0xJWC9sWEIrRkFRQUFBRUFHZVVsSnBhM3JuWlhCOUFxVG5TaDU3Q1FBUUNRbXJiTFM3U056ZlJ3R0FBQUFBQm5pTHF0YzN2V3VpbXV0WEtmRTdnRUF4R2JyODJuNXVwbzhVaTBlQkFBQUFITTNzWGJaYTRQOHJ5VXRpOTBDQU1nRU53K3ZLdlJ1K0hFdEhvd3pBQUFBQUNJYlgzUEdTMlRKUjRQODViRmJBQUNaOHNWYUxmNGxCZ0FBQUFEUlRGeXg5T1NRMmpwSjd4Sm5aZ0lBbnF4aWFXNVZMUitRQVFBQUFFQ2Q3UzR0T2JJOXQrRGlrUG9LU1F0ajl3QUFzc2RrVnhaS2ZRL1g4akVaQUFBQUFOU0psNVlzcU9UYTN5ZXBKUG5oc1hzQUFGbGxtL0pwOHRGYVB5b0RBQUFBZ0RvWVg3djBIUlhaeHlROUwzWUxBQ0RqUEZ4a3BmN3hXajhzMTVvQkFBRE1vNG0xWFNlNTYyL2M5SWJZTFFDQWhuQnJvYnY4U2pONXJSK1lNd0FBQUFEbWdaZVdGOGR6NmNWQldpbmpPbjhBd0NFSmJyWmlQaGIvRWdNQUFBQ0FtaHRiZDhaYktwNSt3ampkSHdBd0EyYjZiTEc3LzZmejlmZ01BQUFBQUdwa1ltM1hTVUgyS2JuL1p1d1dBRUJqTVdsM3RScDY1dk01R0FBQUFBRE1rWmRlM1ZiSkRmOUZrQzZYdkNOMkR3Q2c4Ymo1bWtXbERkdm44emtZQUFBQUFNekIySnFseXlvMi9CbEp5Mk8zQUFBYWxPbit3dUt4VDg3MzB6QUFBQUFBbUFVdkxTOVdjcUZYOG9zazVXTDNBQUFhbDdzdXNQUHZuNXp2NStFMmdBQUFBRE0wdXZiTTF5Y0tueEtiL0FFQTVzamszeTcwRE5UbFZyR2NBUUFBQUhDSXZMUzhXRW1xVjByaEw4V0JGQURBM0ZXcnJvdnE5V1FNQUFBQUFBN0IrTHF1bDFXVVhpZTNFMk8zQUFDYXhpY1c5UTVzck5lVE1RQUFBQUI0Qmw1NmRiNlMyMTJTYzYwL0FLQ21kazJuMCt2cStZUU1BQUFBQUE1ZzlQSXp6NmlFNGVzbG5SRzdCUURRWEZ5KzZyRFN4bDMxZkU0R0FBQUFBRS9oSlNVVGJWMHJQWVRMeFBzbEFFRHREUlJQT2ZtejBrQmRuNVFYTkFBQWdDY1l2ZnhGeDB4NCszWHVmbmJzRmdCQWN6SnBoWjE3WTFydjUyVUFBQUFBc00vWXVxNjNXZERuWFA2czJDMEFnS1oxWTZHbmZFdU1KMllBQUFBQVdwNlhYcDJ2SkVOWHljWHQvUUFBODhnbkxMV0xZejA3QXdBQUFORFNKdGVlK2NJSkRkOGcyWXRpdHdBQW1wdkxQbG9zbFIrTTlmeEpyQ2NHQUFDSWJYemQwcmNIaGR0Y1l2RVBBSmh2bTR2cDlJZGlCbkFHQUFBQWFEbGVlblZiSmJkN25kdy82TEZqQUFBdHdkeFhXbW5qYU5TR21FOE9BQUJRYitPbE01NnJYSEtEcEpmR2JnRUF0QXIvNzBMM3dNdk1GSFh1ekNVQUFBQ2daVlF1Vy9vYTVaS2Zpc1UvQUtCK1hLWUxZaS8rSlFZQUFBQ2dCYmpMS3V1V3JmVEV2aXZwbU5nOUFJRFc0ZEkvRmJzSDdvamRJYkVIQUFBQWFISmVlblYrZk4zd3RTWi9UK3dXQUVETEdWVnFxMkpIUElZQkFBQUFhRnJqNjViK1NzV0h2MkxTYjhSdUFRQzBIak83dkZqcTN4Szc0ekZjQWdBQUFKclMrTHF1bDhuMVU3SDRCd0RFWUhvZ1h6M3M2dGdaVDhRQUFBQUFOSjJ4TlYxL0l0Y1BKSHRPN0JZQVFLdnlpNngweTBUc2lpZGlBQUFBQUpxR3UyeHNiVmZKVEorUnRDQjJEd0NnVmRuM2k5MERYNGxkOFZUc0FRQUFBSnFDWDNQaXdzcTZ6bjh3NlhkanR3QUFXbG9hRW50LzdJajlZUUFBQUFBYTNzZ1ZMMzVXWmZmMFZ5Ui9aZXdXQUVETCsxVG42dlViWWtmc0R3TUFBQURRMENaS1o1NFlxbE0zeVhSeTdCWUFRTXNicXFhNVV1eUlBMkVBQUFBQUd0YjRtbVV2RFJhK0llbkkyQzBBQU1pc3RMalV0eU4yeG9Hd0NTQUFBR2hJRTVkMXZVN20zeEdMZndCQUJyajBzOEpSeWQvSDduZ21EQUFBQUVERHFheFordnNoMFUyU09tTzNBQUFnU1I3OC9YWmUzM1Rzam1mQ0FBQUFBRFNVOGJWZEY3alpkWkxhWTdjQUFMRFAxem92SGZqUDJCRUh3d0FBQUFBMEJIZlorSnBsSDVWMHRYZ1BBd0RJanFsRXVpaDJ4S0ZnRTBBQUFKQjU3ckxLdXE1UHlQd3ZZcmNBQVBBa3Jxdnp2ZVg3WW1jY0NnWUFBQUFnMC95R2MzTGo2Kzc3bkVuL0ozWUxBQUJQc1gxaVFlNksyQkdIeW1JSEFBQUFISWlYbGl5b0pHMWZsTms3WTdjQUFQQlU1djdlUXUvQVA4VHVPRlJjUHdjQUFETEpyemx4WVNWcHY0SEZQd0Fnby9yelllRHpzU05tZ2tzQUFBQkE1dmpIWGxxb2pJeC9YYWJmaXQwQ0FNQit1Sm1mYnlXRjJDRXp3UmtBQUFBZ1UveWFFeGRPakZXK0pEY1cvd0NBclBxWFF2ZkFUMkpIekJSbkFBQUFnTXp3MHBJRkU4UHRYM2JURzJPM0FBQndBQlV6V3hVN1lqWVlBQUFBZ0V6dzBwSUZsVno3bHlXOUtYWUxBQUFIWW1ZZktuVDNQeFM3WXphNEJBQUFBRVRuMTV5NGNDTFgvaFZKYjQ3ZEFnREFNM2c0WDAwK0VqdGl0aGdBQUFDQXFQeUdjM0tWM1ozWHV6anRId0NRY2VZWFc2bHZQSGJHYkRFQUFBQUEwYmpMeHUrNTkxcEo1OFJ1QVFEZ0lQNnJzSHJnaHRnUmM4RWVBQUFBSUpyS3VxNlBtdlRlMkIwQUFCeEVjTE1Mek9TeFErYUNBUUFBQUloaWJHM1hGWkxlSDdzREFJQ0RNZWx6eGU3K244YnVtQ3NHQU1BekdMN3k5Q01rYWVGazdqQlRtaWlYeTZXZUxKWWtTOExDeEswb1NhbTgwMHp0a3VTdXcrVXlTVzFtdnVpQUQrNDZYSmJZZ2Y3YTVJdGROdklNZjE5eCtjUUJIOTV0U0pJUzJZUW5YcEdrWk4rZkJmZUtLNWxRcnVxNWFSK1dwS3J5NDlXRkU1UEJGb1FqVi9idFBtQTNBTlRBK0xxdWkrUzZKSFlIQUFBSDQ5SklTS285c1R0cTRZQ0xENkNSN1ByUThzUHlFOU9MY3JtMlJhbFhGeWVXV3hUTWo3RGdpOXhza1VtZExsc2tEd1ZMTE85dWg4bDlnWnNXbVZTVXRGRFM0Wkl0a0x4VFVvZWtCWEgvcmFLYmxqUXFhVVR1RlptTlNiYmIzQ3R1R2pkcDJLWHh2WCtuWVNrWmQvZUtKZHJ0cnJIRWZLUWFOSlNFWktpb1pMaVJOMHNCVUZ2ajY1Yit0dHkrS1BZaUFnQTBCTHVvMk5QLzBkZ1Z0Y0FBQUpuZ0gzdHBvVEkrZm1RSTRjaWMybzRNNWtjazdrZDZZa2U2NjhqRS9BaDNPOUpOUjVqN0luZGJiR2FMSkY4azZmRFkvVGdrazVLRzVUNGtzeUZ6RGJ0cFNOS1FTOE1tRzlvN1ZBaERGalNVV3RpaGtCL3NPTzM1ZzNidWpXbnNlQUMxVVZtMzdIKzUrM2UwZC9BS0FFRFcvYUp3Mk9nU08vLyt5ZGdodGNBQUFEWG4xNXk0c0RMUzhld1FrbWUzV1RqR3pZNXkxN1BkN2RtSitURXVIU1haczB4K2hFdEhTbjZrWlBuWTNjZ3NselRvcmgxbUdwUnNxeFMybTVMQm9MQmRabHN0YUVkaTJyNXdRV1dyZmZDZVBiR0RBZXpmNUJYTFRrdFQvNG1rSTJLM0FBQndLRnorbG82ZWdXL0U3cWdWQmdBNEpQNnhseFltUjBhUERVbnVXSmtmSXlXLzRxNmpsZWc0YzMrMnBHZExPc3FsWTB4YUhMc1hyY3ducEdSUThrY2xiWkY4azZUTjV0b3NKWnZNZk12Q2pzSWpkdUZ0bGRpbFFDc1p1M3o1c1JiUzJ5UTlMM1lMQUFDSHdxWHZkdlNVWHhlN281WVlBTFE0THkwdlR1YW1mOVdESGFkYzhseVhIeVBYY1pLT2x2UmNsNDVPcE9OY09peDJLMUJqTzdWM01MQkppVFpMdGxrZU5xVkJXOXoweVBTQ3RrZllEQkdvRGIvcWxFV1ZxY0lQSlMyTDNRSUF3Q0dxcGtsWXRtajFocnRpaDlRU0E0QW05dGhSZStYYWpuZlhjVzdoV0xtT2s5bXhrbzZYZEp5azU0anZBK0FBZkVKbVc5ejFRR0o2d04wZmtOa0RIcElIaXNGK3hzYUd3TUg1dGN2Ykp3YkQxOTM5N05ndEFBQWNNdGZWeGQ1eTA5MnFsb1ZmZy9LU2tvck9PRTVKOGp4TDlIeTVmazJ5NThuOTE0TDBQRE05WDN0M3R3Y3dQMUpKajhqMGdNdCttYmcvNEdZUFNQYkx0RnA5WUZGcHcvYllnVUJzN3JMeGRWMmZNK21QWXJjQUFEQUR1NnE1QlNjdlhuWEh6dGdodGNZQUlNUEdTc3VPUzVMMEJDazVJZXhkMEwvQXBGL1QzdXNubnl2dHZlODhnRXdhbFhTL3BIdmQvZWVtNUdldWNFOHh0TjNEbVFOb0ZXTnJ1MG9tWFJxN0F3Q0FtWEMzOTNYMDluOHFkc2Q4WUFBUWtaZGUzVGFwbmIrbVhOdnhxZnZ4Wm5hODVNZHI3K241SjB0YUZEa1J3UHdZa25TM21UYTYrd051Zm5ldTZoc1hYbnJuTDgza3NlT0FXcWlzNmZwZE4zMUJ2TmNBQURTV0RZVlRUanF6V1c5RHpZdnlQUFBTOHVKWU1uV0NXZTRFazUxZzhoT0NkSUpKSjJqdmtmeTIySTBBc3NHbEVaUHVrZnpuWnZaemw5MlR1RzlZbUpaL1lTV0YySDNBb1JwZHMyeHBZdjVmNGxJMEFFQ0RTWUxPeWw5YXZqbDJ4M3hoQUZBRC91RXpPc1lyYmFkYTRpZWJ3Z2xCZG9LNW5TRDVDZHE3MFI0QXpNV1lwTHZNTkJCY0d4SVBHeW9MMmpkd2x3SmswY2dWTDM1V1c1aTZRNjdqWTdjQUFEQWo3bDh1OWc2OEszYkdmR0lBTUFQRFY1NStSUHQwKy9HSmZJbWJUcE44aVV5bnlmVjhTVW5zUGdBdDUxR1hOcHI3M2Fha3I2clExM25xeVQ5djFsUFdrSDFlZW5WYnBXMzRPM0s5Sm5ZTEFBQXpOSm1reVl2eXBmWDN4dzZaVHd3QW5zSkxTaVp5Wnp3dlZkc3BpYVdubWR1cExyMVFlLy8zck5oOUFIQVFZNUxmYVdZYlF0Q0FKU29YaW9WK3UvQzJTdXd3TkwveHRWMVhTN29nZGdjQUFEUGwwdVVkUGVYdTJCM3pyV1VIQUg3dDh2YkpSNmQrTlcyekplWjJtcGtkNzY0bGtwWks2b3pkQndBMWxMcnJIalB2azZ6UHpQdnkxZW9kVnRvNEZUc016YU95WnVudnU5bjFzVHNBQUpnNTMxcEk4NmRZNmZhUjJDWHpyU1VHQUdPbFpjZmxjam90eUpkSXZseXkweVM5U05MQzJHMEFFTW1ZcExMYyt4Ni9mS0JuNEc3dVFvRFpHTDI4cXlzSnVsVnMrZ2NBYUVCbTlwNUNkMzlMRExHYmFnRGdWNTJ5YUh5eTQrUkV2c1FWbHJ2WmFiYjNpUDVSc2RzQUlPdE0ydTNTWFpMOXhDMjkxUzNjMGJuNnJtMnh1NUJ0STFlOCtGbHQ2ZFQvU0hwQjdCWUFBR2JPLzd2UVBmQ3lWamtJMHBBREFDOHBtY3gxblJCa1M5M0Q2U1k3WFltV3l2VUNOZWkvRXdCa2t1bEJ1VzUxdDU4RWhSOXpsZ0NleUc4NEoxZTU1Nzd2U25wMTdCWUFBR2JCNWVHbHhkNE50OGNPcVpmTUw1YTl0R1RCZUxMd2RGazRNNUV0ZC9tWmtwYUkwd3dCSUlZZGN0MnF4SDhrNlNlRjZoSHJyWFJMTlhZVTRoaGJzL1F5TSt1TjNRRUF3R3k0ZEYxSFQva1BZM2ZVVTZZR0FIN3Q4dmJSYmRXVDI1UXNkNFhsTWx1Kzc1cjlmT3cyQU1CK2pVdnFmK3l5Z1dLMThNTlcyRUFIVW1YTnNsZTUrZmNrNVdLM0FBQXdDNk9lMmlrZHBmNHRzVVBxS2RvQWdNVStBRFNscXFRQnVkK3F4SDVTVFJaOGYvR3FPM2JHamtKdDdibGkyVkc1MU11U2pvdmRBZ0RBYkpocGRhRzdmRVhzam5xcnl3REFiemduTjNiZkw1WllDQytSL0NVbSszWHRQWTIvclI3UER3Q0lKa2k2VTY2YkUvT2JGM1lVZjJ3WDNsYUpIWVhaYzVkVjFuVjlWZEpiWTdjQUFEQkx2eXlraDU5bXBWc21Zb2ZVMjd3TUFNWXVYMzZzZlByWDVjbHlrNVpMZXJta0krYmp1UUFBRGFVcWFjQ2xiOGlUcnhmRCtuNHJLY1NPd3FFYlg3dnNyeVQvU093T0FBQm16OTlaN0JuNDk5Z1ZNY3g1QU9BZlBxTmpvcEw3ZFRkL3NXVC9qK1F2bHZUY0dyUUJBSnJmb09UZk05Zk5ucVEzRjd2djJoUTdDQWMydG03WnI1djdyWklXeEc0QkFHQldURDhvZHBkL00zWkdMRE1lQUl5V2Z1TTUxamI1RythNWwwditDa20vSWQ0SUFBQnF3ZlNBU2Q5MTZidVRWZDE4UktrOEhEc0plM2xwU1djbGFlK1Q2ZVRZTFFBQXpGSWFrdVRNenRYck44UU9pZVVaQndCZVVqTGFmc1pwU1pwN2hWbDRtV1N2a1BTQ09yVUJBRnBiVmJMYlRMbzV1SDJ6MkxOK3ZaazhkbFNyR2wvYjlRVkp2eGU3QXdDQTJUTHpUeFc2Qjk0WHV5T21KdzBBdktSa1BGbTYxQko3bFZ5dmtmUktjZTArQUNBYkhqSHpiNFEwK1ZyUkQvdEJLMjdjRTh2WXVxNjNtZXVyc1RzQUFKaURvV3FhTzNseHFXOUg3SkNZYlBUeXJxN0U5V29XL0FDQUJqSW0yWCthKzllcmJYYlRvbFg5ZzdHRG10VklhZm16MjNMcFhaS09pZDBDQU1Dc21WMVE3TzYvSm5aR2JHMzdGdjhmangwQ0FNQU1kRWorRGplOUk1ZDZHRi9iMWYvWW5RVTZldGYzeFk1ckptMjU5Ty9FNGg4QTBNQmMrbG54cU9UdlkzZGtnVW5TMk5xdUsweTZKSFlNQUFBMThFc3ozUndVdmxHc3B2OXBwWTFUc1lNYTFmaTZaZStXK3hkamR3QUFNQmRCeVJzNmU5Wi9PM1pIRmp5K0I4RDR1bVdma1B2L2pSa0RBRUNON1pMMExabDlwVkRNZjlNdXZLMFNPNmhSN0xsaTJWRzUxTytTZEhUc0ZnQUFaczN0NjhYZS9yZkd6c2lLeHdjQTdyTHhkVXMvWTdMM3hnd0NBR0NlVkNSOXo5eHV6QmZTTDlzSE5vekZEc3F5OGJYTHZpejVPMkozQUFBd0IxTkp6ay9QcnhxNE4zWklWano1TGdBM25KT3IzSFBmRnlXZEc2a0hBSUI2R0pkMGsxdTRuc3NFbnE2eXB1dDMzZlRQc1RzQUFKZ1QxMGVLdmVVUHhNN0lFbnZxSDNocHlZS0pwUDJyYm5wRGpDQUFBT3BzV1BLdnUvbU54YVBhdjIzbjlVM0hEb3JKUzBzNks3bjJleVFkRjdzRkFJQTUyRDdSbmp2NXlKVjl1Mk9IWk1uVEJnQ1M1S1hseFVvdS9aYWsvMVhuSGdBQVl0b2wrVTF1Zm1PeGV1UzNySFJMTlhaUXZZMnQ2YnJjVEt0aWR3QUFNQmNtKzVOQ1QvL25ZbmRrelg0SEFKTGtwWmNzcnVRbXZ5OXBlUjE3QUFESWlwMlNmN09WaGdHVnRXZTh3R1YzUzVhUDNRSUF3QnowRjlMeXIxdEpJWFpJMWh4d0FDRHQzUUU0U2YySEpyMndYa0VBQUdUUUkzTC9RcTR0dVg3aHF2NjdZOGZNRnpiK0F3QTBBek43VmFHNy8wZXhPN0xvR1FjQWtqUytidW12eU8zSGtsNVFoeDRBQURMTlhYZWIrVCtGSlAxODUrcTd0c1h1cVpYS1pVdGY0NGw5UDNZSEFBQno0LzlhN0JsNGQreUtyRHJvQUVDU0p0WXVQeUVvL1pIWUVBZ0FnTWVrTHYwZ2NicytINUl2V2FsdlBIYlFiTzI3QzlCNlNXZkViZ0VBWUE0cVp2YkNRbmYvUTdGRHN1cVFCZ0NTTkxIMmpGT0NraDlLT21ZZWV3QUFhRVREWnJvaEJQOVVSKzlBZit5WW1ScGIwL1huWnZwazdBNEFBT2JDcGNzNmVzcWwyQjFaZHNnREFFa2F2YnlyS3duNmdhVEQ1NmtIQUlCRzF5ZnArdWwwK3ZyRFNodDN4WTQ1bU9FclR6OWlRVFYzcjZSbngyNEJBR0FPSGlua3c2bjJnUTFqc1VPeUxKbkpCM2V1THBkbGVwTWsvcU1DQUxCL3l5VmQzWjVyMnp5K3R1dUdpYlhMWHVzK3M0RjdQUzJZVGtwaThROEFhSFJ1SDJEeGYzQ3pla015ZHRteU4xamlYNVcwb01ZOUFBQTBvM3RrL3VucGF2WHpXVG9yWUhMdG1TOU1GUVlrdGNkdUFRQmdEdjZyMEYxK2haazhka2pXemVnTWdNZDBYTnIvTFpuL2pxU212eWN5QUFBMWNJcmNQdHFlYTkveTJGa0JzWU1rS1NqOW1GajhBd0FhVzNEWENoYi9oMlpPcHlSVzFpeDdqNXYvbzJZNVNBQUFvRlc1OURPVFh6ZlZGajU5K0NWM0R0WDcrY2ZXTG51cnlmK2ozczhMQUVBdG1lbXpoZTd5bjhidWFCUnp2aVp4ZkczWEJaS3Vya0VMQUFDdGFJOUpYMGlVZkdKaHovcWYxZU1KdmJSa1FTVnB2MU9tayt2eGZBQUF6Sk05bnVSTzZWamQ5Mmpza0VZeDV5UDN4Wjd5MzVqWnBiV0lBUUNnQlMxeTZYMnB3dDNqYTd0K01yNnU2eHkvNFp6Y2ZENWhwYTE5Qll0L0FFQVRXTXZpZjJacXRpdngrSnF1cTJTNnVGYVBCd0JBeXpJOUlQZFBUNmZWejlSNjA4QTlwVE9PYnNzbDk3cDBXQzBmRndDQU92dEY0YkRSSlhiKy9aT3hReHBKemE3ZEwvU1VWNXJwMDdWNlBBQUFXcGJyZU1rKzFKNXJmMmg4WGRjbko2OVlmbXF0SGpwcHkxM0o0aDhBME9qY3d2dFovTTljVGU5TDdDVWxsVnpYRnlTOXU1YVBDd0JBaTNPWHZpY0wxM1IwYi9qNmJCOWtiTTNTWldiMlU3RjVMd0Nna1psL3I5ZzlrSWs3NmpTYW1nNEFKTW12WGQ1ZTJSYStMUE8zMVBxeEFRQ0F5dWIyOGZ3eHliL1llWDNUTS9uRThiWExmaVQ1SytjckRBQ0FPcWptY3JaMDRhcit1Mk9ITktLYUR3Q2t2YnNMVDdRdCtKcTduejBmanc4QUFQU29TNStlU25YMUVhWHk4TUUrdUhMWjB0ZDRZdCt2UnhnQUFQUG9iNG85NVJXeEl4clZ2QXdBSk1sTFN6b3J1ZmJ2U25ySmZEMEhBQUN0enFUZDd2NzNJWmRlM2JuNnJtMzcreGkvNFp6YytEMzNmZE9rcytyZEJ3QkFEZTJjVHFkUHJ2VUd1YTFrM3E0QnROTEcwWW4yM05tUyt1ZnJPUUFBYUhVdUhTYXpsVWxvZTNoODdkSi9tbGpiZGRKVFAyYmkzbnN2WWZFUEFHaDA3dXBsOFQ4MzgzWUd3R1AyWExIc3FGdzEvRWhtTmR2QkdBQUFIRkNROU9YVS9iSkZ2UU1ieDljdC9SVzUzU09wSTNZWUFBQ3o1YTY3aStId3BWYTZwUnE3cFpITit3QkFrc1pMWnp4WGJjbVA1WHArUFo0UEFBRElKZDJrYVZ1a2RuOVY3QmdBQU9ZaWtaK2Q3eG40VHV5T1JsZVhBWUFrVFpUT1BESGswaDlMOXB4NlBTY0FBSzNNSjZTd0taRjF1SkpuU1Zyb3NaTUFBSmdGKy9kaVQvODdZMWMwZzdyZEJ6aGZXbjkvOEhDV0pLN1pBQUNnRHNMMnZTL3pQbVpLTjVuQ0ZwTW02emI3QndDZ0ZxWVMrY3JZRWMyaWJnTUFTZXJzdmZOT2VYaWpwRDMxZkY0QUFGcE4yQzFwOGdsLzRQc0dBUTh6Q0FBQU5BNTNmU1RmVTc0dmRrZXpxT3NBUUpLS3ZSdHVONFgvdmZmRVJBQUFVR3NlVEw3cndDL3hEQUlBQUExaVd6RXN2Q3AyUkRPcCt3QkFrZ285Rzc3dlNuNWIwblNNNXdjQW9LbnRrblFJZXlRekNBQUFaSm01WFd5bDIwZGlkelNUS0FNQVNlcm82Zithek40dEtZM1ZBQUJBcy9GcEtRelBiREgvK0NCZ3E4a1p6UU1Bc3FFdkgvcS9FRHVpMlVRYkFFaFNzYnYveXliL1UrMjlWUkVBQUpnakgweG0vYXJxZTB6aG9VUmhtekdlQndERTVHYSt3a29Lc1VPYVRkUUJnQ1FWZWdiK1VkSUhZM2NBQU5Eb3ZDTDUyRndmUlBJUlUzZ3drZTh3T1crOUFBQjE1MThvZEEvOEpIWkZNNG8rQUpDa1lrLzV3KzYyTG5ZSEFBQU55Nld3dlhiWDhYdVF3dERlUVVBWU1zN1ZBd0RVeTdpbGJkMnhJNXBWSmdZQWt0VFIyOThqK1VkamR3QUEwSWg4dDBsVDg3Q1JYeXI1RGxQNllDSWZZUkFBQUpoZkpsMVJLUFU5SEx1aldXVm1BQ0JKaGU2QkQ1anBzN0U3QUFCb0tLa1Vkczd6YzFTbHNNMlVia3JrNDl3eEFBQXdMeDdPcDdtUHg0NW9acGthQUpqSjh5ZWY5UDlLOW0reFd3QUFhQlJocDBtaFRvdnlTU2xzTm9YTkNiY09CQURVbHRtRlZ1b2JqNTNSekRMNXl1M1hMbStmMko1KzFhVTN4bTRCQUNETGZGSUttMmEvOC8rY21HU0xYTW16WGNwRmVINEFRUE13L2FEWVhmN04yQm5OTGxObkFEekd6dXViem5jVTNpWHBoN0ZiQUFESU10OFI4YnI4ZlhjTVNCODBOZ29FQU14RkdvSzlQM1pFSzhqa0FFQ1M3TUxiS29WMDRWc2wvVFIyQ3dBQVdlU2psbzNyOFlQSmQ1akN3eVlmeTBBUEFLQ2htUGxuT252N0IySjN0SUxNRGdBa3lVcTNqMVRUM0J0TTJoaTdCUUNBVFBGOVIvOHp4S2RNWWN1Ky9RR21ZdGNBQUJyRWNEVkplbU5IdElwTUR3QWthWEdwYjBkSTdTeVpIb2pkQWdCQVZvUmhrMC9IcnRnL0g1ZlNoeE9GUVpPSDJEVUFnRXd6WGJab1ZmOWc3SXhXa2ZrQmdDUjFsUHEzV0RYM0drbmNEeElBZ0twSnU3SjE5UDlwWFBKaFUzZ3drZThSK3dNQUFKN08vZWVGbzNLZmpKM1JTaHBpQUNCSmhWTGZ3MG5PWHlkcFcrd1dBQUJpQ2p2Vk9FZldVeWxzVFJRMkovTEoyREVBZ0N4eFR5NjA4L295ZWo1YmMycVlBWUFrNVZjTjNCdmN6cFkwRkxzRkFJQW9Ka3cra3ZHai8vdmhsYjIzSytTeUFBREFQdC9vdUxUL1c3RWpXazFERFFBa3FiTzNmOERNM3lwcFBIWUxBQUIxNVZMWUVUdGlEdlpkRnVBUG1jVGRBZ0NnbFUwbENoZkZqbWhGRFRjQWtLUkM5OEJQRXRuYkpIRXlJUUNnWmZpb3lTdU52M0QycWluZHN2ZU9BZUxFVHdCb1BhNXI4ajBiN29tZDBZb2FjZ0FnU2ZtZS91KzY5RHVTcXJGYkFBQ1lieDZra0xIYi9zMlZqNW5DdzRsOHlOZ2tFQUJheC9hSkJibDFzU05hVmNNT0FDU3BvNmY4VlRQN1kwbGNUUWdBYUc1RDFwUy9saUZJQUFBZ0FFbEVRVlFqNzhjR0crbW1SSnFJWFFNQW1HOHVkUis1c205MzdJNVcxZEFEQUVrcWRQZGY3OUw1c1RzQUFKZzNWVk1ZYXE2ai8wOHpLYVdQSlBJZG5BMEFBRTJzWER6bHBIK0lIZEhLR240QUlFa2RQZVZQbXRRZHV3TUFnUGtRQmx0a1VleFNHREtGaHhKNUpYWU1BS0RXekcyRm5YdGpHcnVqbFRYRkFFQ1NDajNseXlXN0tuWUhBQUMxNUJXVGo4V3VxQytmbHNMbVJHRWJ0d3dFZ09aaC8xYm83ZjloN0lwVzF6UURBRWtxZFBkZll1YWZpdDBCQUVDdHRNelIvNmR5eVVkTS9sQWk1OGEvQU5Eb0twYjZ5dGdSYUxJQmdKazh2M3JnejEzNng5Z3RBQURNbGUrMmxyL2hyVmVsc0NWUjJKWklvY24zUVFDQUp1WFNYeGRLNVFkamQ2REpCZ0RTM2lGQThaU1QvbFRTbDJLM0FBQXdhMEVLTzFud1N0cDNOb0NVUG1SU2kxME9BUUJONEpGaVBudzRkZ1QyYXJvQmdDVFp1VGVtaGZUd1A1RDU5MkszQUFBd0cyR25TV3lUOUdSVktkMTNOZ0I3QXdCQWd6QzcyRDZ3Z2ZGdFJqVDFvUVV2TFM5V2N1SGJrcjh5ZGdzQUFJZktwNlR3Y05LYTEvNGZJbXR6MmJHUzVmbVBCQUFaZGx1aHUveHlNMTdSc3FJcHp3QjRqSlg2eGlmYWs3ZEl0ajUyQ3dBQWh5b01zdmcvR0srYXdpTW0zOUdpbXlRQ1FQWUZtYTlnOFo4dFRUMEFrS1FqVi9idFRuTjZ2VXMvaTkwQ0FNREIrSmhKN0hwL2FGd0tRNlowVXlLZmF1cVRHZ0dnNGJqWjU0dmRBM2ZFN3NDVE5mMEFRSklXcmVvZnREU2NKZE9Ec1ZzQUFEZ2dsM3hIN0lnR05DbUZUU1lmNW13QUFNaUlQYktrTzNZRW5xNGxCZ0NTVkN4dGVDUnhuU1g1MXRndEFBRHNqdzhiUjdKbkswaGgwQlMyc0hraUFFUm5XdGV4dXUvUjJCbDR1cFlaQUVoU3ZxZDhYL0J3bHFTZHNWc0FBSGlTVkFxN1dQelBsWStiMG9jUytTai9MUUVna2w4VUZvLytUZXdJN0Y5TERRQWtxYlAzemp0bC9rWkplMkszQUFEd21MRERKRzV0Vnh1cEZMYWF3aUNYQkFCQXZibnNRanYvL3NuWUhkaS9saDJQVnk1YitocFA5RTNKOHJGYkFBQXRibEpLTjdIei83eklTOGx6Z3F3OWRnZ0F0QUR6N3hXN0IxNGJPd01IMW5KbkFEeW1jT25BRHhMcGJaS1lUZ0VBb3VLMmYvTm9RdktIRXpubi9RSEFmRXREQ08rUEhZRm4xcklEQUVuSzl3eDhSMjUvS0xZTEFnQkU0cU1tcjhTdWFHNGVwTEExVWRqR29BVUE1by8vWFdmdm5YZkdyc0F6YStrQmdDUVZlL3YvMVV6dkZXOEpBQUQxRmlRZmJObXI4ZXJPUjZUMDRVU2FpbDBDQUUxbnFKcGJlRm5zQ0J4Y3l3OEFKS25RWGI1T1ppdGlkd0FBV2tzWU1uazFka1dMbVpMQ0pwUHZZZkFDQUxYaVVzL2lWWGR3cDdVR3dBQmduMkozL3pYdXZpWjJCd0NnUlZRbERiTUlqY0dES1d3MStYWXVDUUNBdVhMWDNjWDA4R3RqZCtEUThNN2pLY2JYZEgxWXBvdGlkd0FBbWx2WXlsSG9URmdvSmNkeWx3QUFtSzFFZm5hK1orQTdzVHR3YURnRDRDa0tQZVdMVGZwTTdBNEFRUFB5aWIyYi95RURKcVd3S1pHUDgvVUFnQmx6ZllYRmYyTmhBUEFVWnZMOEtTZTlUL0ovamQwQ0FHaE9QbWljZXA0bHFSUzJtTUlRWHhjQW1JR3B4UFRCMkJHWUdRWUErMkhuM3BnV2ptNTdqN2x1aXQwQ0FHZ3VZY1RrRXh4dHpoeVhmSWNwYkRONWlCMERBTm5uMGtmelBlWDdZbmRnWmhnQUhJQ2QxemVkN3l5Y0krbVcyQzBBZ09iZ3dlUTdXZnhubWU4eCthWkV6cTBDQWVDWmJDdW1DejhVT3dJenh3RGdHZGlGdDFVSzZjSzNTZnFmMkMwQWdDYXdTM3QzLzBlbStaVDJEZ0ZHWTVjQVFEYVphNldWYmgrSjNZR1pZd0J3RUZhNmZXUXkxVm1TeXJGYkFBQ055NnVtd0czL0dvWUhLV3hONUR2NG1nSEFrOW42ZkNqL1Urd0t6QTREZ0VOd1JLazg3RW51alpKK0Vic0ZBTkNZZkZCc01OZG9YQXBEcHZCb3d0Y09BUFp5czNDQmxjUnVLUTJLQWNBaDZsamQ5NmlzK2hwSkQ4VnVBUUEwRmg4M2J2dlh3SHhVU2pjbFVwV3ZJWUNXOTgrRjdvR2Z4STdBN0RFQW1JRmk5MTJiRXVsMWtyYkZiZ0VBTkFpWHdtRHNDTXpacEpRK2JOSms3QkFBaUdiYzB0enEyQkdZR3dZQU01VHZLZDhYa3VRc1NVT3hXd0FBMmVjakprMXg1TGdwcEZKNGhNMEJBYlFtTTcreVVPcDdPSFlINW9ZQndDeDBybDYvUVphOFVSSnZBUUFBQjVaS2dkditOWlhITndmazZ3cWdwZGltZkxYdFk3RXJNSGNNQUdhcDJMMyt2eTNZLzVaOEluWUxBQ0Nid2s2VDB0Z1ZxRG1Yd2k1VDJHWnNEZ2lnVlZ4b3BiN3gyQkdZTzhiWGN6UytidW5iNVhhRHBMYllMUUNBN1BCSktXeGk5L2htWjBVcE9UWndTQVZBTTd1MTBGMStwUm12YU0yQWw2czVLbllQZk1YYy8wamlWaGdBZ1A5ZjJNSFI0VmJnNDFKNE9KR3p6d09BNWhUY2t3dFkvRGNQQmdBMVVPZ2QrSUs3L2pKMkJ3QWdHM3hNMGpnTHdsYmgwMUo0eE9RVGZNMEJOQmVUZmFhamQzMWY3QTdVRGdPQUd1bm9MZitkU2F0aWR3QUFJblBKQjNsNWJUbXA1SnROR29zZEFnQzE0ZEpJbXJhVlluZWd0bmlIVWtPRm52S1ZjdjlRN0E0QVFEeGgyT1RUc1NzUWd3Y3BmVFJSR09GTUFBQ056K1NsenRML2JJM2RnZHBpQUZCanhkNkJTeVI5UEhZSEFDQ0Nxc2wzc2ZocmFTNzVkbE1ZNHZzQVFBTXozVjlJcTUrTW5ZSGFZd0F3RHdwcCtTTEpyNC9kQVFDb0w5OHB0b1RGM2lIQURsTVlaQWdBb0RGNWF1ZGJhZU5VN0E3VUhnT0FlV0FsaGNJcEovK1JwQnRqdHdBQTZtVENPUFViVCtMRHByQ1Z1MEVBYUN6bXVxbmowdjV2eGU3QS9HQUFNRS9zM0J2VFFqcjkrK2JpaHdjQW1wMUxZVWZzQ0dTUjd6R0Z6WWs4TUJ3QzBCQ216Y0pmeFk3QS9HRUFNSStzdEhFcUgzTHZrdXpIc1ZzQUFQUEhSMDFlWVlHSC9mT0tGRGFibE1ZdUFZQ0RjUHRFdm1mRFBiRXpNSDhZQU13eksvV05UN1FuYjVIRS9UTUJvQmx4OUIrSFlrSUtqNWhVWlZBRUlMTUdKNE92alIyQitjVUFvQTZPWE5tM084M1pHOXgxZCt3V0FFQnQrUzRXZFRnMFBtVktOM0diU0FEWjVLN3VJMHJsNGRnZG1GOE1BT3BrMGFyK1FRdmhiSmtlak4wQ0FLaVJLcmQ3d3d4VnBiQXBrZGhiRzBDMmxJdW5udlM1MkJHWWZ3d0E2cWhZMnZCSTRyblhTdG9TdXdVQU1IZGhVT3p3anBsTHBYU3pTVk1NandCa2c3bXRzSE52WktlU0ZzQUFvTTd5UFgyL1NKTnd0cVNkc1ZzQUFMUG5FeVlmWXdHSFdhcWEwa2RNbW93ZEFnQzZvZERiLzhQWUVhZ1BCZ0FSTEZxOTRhNlE2TFdTdU1ZR0FCcFVHT1QrN3BpalZFb2ZTZVFUc1VNQXRMQ0twZnBnN0FqVUR3T0FTRHBYbDhzeXZVblNXT3dXQU1ETStJaEpMTnBRQzBIeXpRbTNrUVFRaGNzL1VpaVZINHpkZ2ZwaEFCQlJzYnY4WDBuUTI4VUpnQURRTUR4SVlRZUxOZFNPQnlsc052azQzMWNBNm1wek1lOVh4WTVBZlRFQWlDeC9hZmxtdWI5SEVwdHVBRUFEOEYzR2IyelVua3RoaThsSFk0Y0FhQlZtK3FCOVlBTm5JN2NZUnMwWlVWblg5WC9jOVkvaWF3SUFtZVZUVW5nNDRkcC96QitUY3NjR3FTTjJDSUFtZDF1aHUveHlNMTdSV2cxbkFHUkVvYnQ4bldRWHhPNEFBQnhZMk1IR2Y1aG5McVdQSnV3UUJHQStCWm12WVBIZm1oZ0FaRWl4cC84VEpwVmlkd0FBbnM3SEpYSGJQOVREdmlFQUd3TUNtQTh1WFZmc0hyZ2pkZ2ZpWUFDUU1ZV2U4bVdTUGh5N0F3RHdCQzZGUVY0eVVVY3UrUlpqQ0FDZzF2WW95YTJPSFlGNGVEZVRRWVh1OGdmTjlPbllIUUNBdlh5M1NWT3hLOUJxUE96ZEdKQmJUZ0tvSGIrOFkzWGZvN0VyRUE4RGdBd3lrK2VyNWZkSi9xK3hXd0NnNVFWVDJCazdBaTByU09ubVJKcmtUQUFBYzJSNm9IRFkyTld4TXhBWEE0Q01zcEpDNGVpMjk1anJwdGd0QU5ES3dnNUpnY1VYSWdwU3V0bmtrN0ZEQURReWx5NjA4Ky9uTjBtTFl3Q1FZWFplMzNTK3MzQ09wRnRpdHdCQVM1cVNmSVRGUHpJZzNYczVnSE1wQ29CWnNlOTNkSmYvSTNZRjRtTUFrSEYyNFcyVlFqNjhXZEt0c1ZzQW9OV0U3ZHoyRHhsU05ZWE5KcCtPSFFLZ3dhVEJxeXRpUnlBYkdBQTBBUHZBaHJISlZHK1cxQis3QlFCYWhZK0tIZGlSUFZXVGIwNmtLdCtiQUE2UjJkOTM5dDU1Wit3TVpBTURnQVp4UktrOG5LYmg5WEwvZWV3V0FHaDZMdmtPWGlLUlRUNHRwVnRNQ3JGTEFEU0FvV28xdVN4MkJMS0RkemNOWkZGcHczWWw2Vm1TSG9yZEFnRE5MQXh4bWpVeWJuTGZMUUs1UkFYQU0zSHZYVnpxMnhFN0E5bkJBS0RCRkx2djJwUW9uQzFwZSt3V0FHaEtWVWxEbkY2TjdQT0tLV3pqZXhYQS9ybnI3c0l4YmRmRzdrQzJNQUJvUVBtZURmZUVKSG1kcEYyeFd3Q2cyWVFkSnVmVWFqUUkzMk43TjZzRWdLZHc5d3Z0dkQ3T1o4T1RNQUJvVUoycjEyK1FoemRLR28zZEFnRE53aWNrSDJVeGhjYml1MDJCczFZQVBKSHJQem92SGZqUDJCbklIZ1lBRGF6WXUrRjJVM2piM3Jlc0FJQTVjY2tIdWFZYWpjbDNtc0x1MkJVQU1tSXFhZk9MWTBjZ214Z0FOTGhDejRidnU1TGYxdDZyVmdFQXN4VDJtSHlDbzZob1VDNzVZTUlaTEFBazJjZnpxd2J1alYyQmJHSUEwQVE2ZXZxL1pxWS9GRGNFQW9CWjhTRDVEaFpPYUhBdWhXMG1yL0M5RExTd2JSUHR5Wld4STVCZERBQ2FSS0c3L004bS94Tng4aW9Bek53dWs5TFlFVUFOQkNsc2tYd3FkZ2lBR0V4K3laRXIrN2dnQ0FmRUFLQ0pGSG9HL2xHbWxiRTdBS0NSZU5VVWhqbGlpaVlTVEw0bFlhZ0Z0QnhibjA4SHJvdGRnV3hqQU5Ca2l0M2x2M2JYRmJFN0FLQlIrS0E0ZHdwTng2ZWw4Q2liV2dJdHhNM1RGVmJpa21BOE13WUFUYWlqdDd4YWJoK0wzUUVBV2VmanhxWnBhRnBlTVlYdGZIOERMZUtMaGQ0TlA0NGRnZXhqQU5Da0NqMzlGN244YzdFN0FDQ3pYQXBzL0ljbTV5T21zSXZ2YzZESlZTek5yWW9kZ2NiQUFLQkptY21McDV4OG5xUWJZcmNBUUJiNWJwTW1ZMWNBODg5M21Yd1BRd0NnV1puWmh3cWx2b2RqZDZBeE1BQm9ZbmJ1aldraG5mNERrNzRadXdVQU1pVVZSMFhST2x3SzIwMCt3ZmM4MEh4c1U3NmFmQ1IyQlJvSEE0QW1aNldOVS9tT3dyc2svU2gyQ3dCa1JkakZEdWxvTVdIZnBvQlZoZ0JBVS9Gd2taWDZ4bU5ub0hFd0FHZ0JkdUZ0bFluMjNGc2xXeCs3QlFCaTh5bkp1VU15V2xGVlNyZEl6aDdoUUxPNHRkQXpjR1BzQ0RRV0JnQXQ0c2lWZmJ1cmFYSzJ1KzZPM1FJQU1ZWEJoRnVqb1hWTm1ud3J0d2NFbWtCd3N4Vm0vRFJqWmhnQXRKREZwYjRkbHZoWmtuNFp1d1VBWXZCUmt6aFJFaTNPeDB6T0hoaEFRelBUWnp1NiszOGF1d09OaHdGQWl5bDJEMnhPbEh1ZHBDMnhXd0Nncmx6eW5TeDZBRWtLUXlZZmpWMEJZRFpjR2ttcjdaZkc3a0JqWWdEUWd2STlmYjlJY3Y0YVNkdGl0d0JBdllRaGswL0ZyZ0F5d2lYZmxzaTVGU2JRY016OHNzN1MvMnlOM1lIR3hBQ2dSZVZYRGR3YkVyMWUwbERzRmdDWWQ2bmtReHo5QjU3SWcrUmJqVTBCZ1VaaXVyK3dlT3lUc1RQUXVCZ0F0TERPMWVXeTNONGthU3gyQ3dETUo5OWhFb3NjNEdsOHl1VGIyQmdUYUJSdVdtSG4zOCs1TzVnMUJnQXRydGpiZjFzUzlIWkovQ0lCMEp3bVRXR0VvLy9BZ2ZqbzNrdGtBR1NiUzkvdFdGMitLWFlIR2hzREFDaC9hZmxteVg1ZlVocTdCUUJxTFF6R0xnQ3l6M2VhTk00UUFNaXdhbkJmRVRzQ2pZOEJBQ1JKeFo3K0w1bmJINHVUWkFFMEVkOGplWVZGRFhBbzBrY2xuNDVkQWVBQVByR29kMkJqN0FnMFBnWUFlRnlodC8rZjVINUI3QTRBcUlrZ2haMjh6QUdITEpqQ293bUhBb0RzMlRXZFRxK0xIWUhtd0RzalBFbXhkK0J2VGRZYnV3TUE1c3FIVE9Kb0pqQXprMUlZNU8waGtDVXVYM1ZZYWVPdTJCMW9EdnlHeDlNVWV2clh5dlhYc1RzQVlOYXFiR29HekphUFNNN0dtVUFtbUxTeG1CN3h1ZGdkYUI0TUFMQmZoWjd5U3BOZEc3c0RBR1lqN0RCdWF3Yk1RZGh1M0I4SXlJYi9hNlZicXJFajBEd1lBR0Mvek9UNXRQL1BKWDB4ZGdzQXpJUlhKQi9sNkNVd0p5NmxXeE1HYVVCY1h5cjBsRytKSFlIbXdnQUFCMlFsaGNMUnVUK1UyOWRqdHdEQW9RbzdXTFFBTlRFbGhVR0dhVUFjUG1FS0Y4ZXVRUE5oQUlCblpPZjFUUmZDMUx2TTdEOWp0d0RBd2ZpSVNST3hLNERtNGJ0TnZpZDJCZEI2M0pPUEZIbzIvREoyQjVvUEF3QWNsSlUyVHVXcnlUc2svU1IyQ3dBY2lBZFQyTW5SU3FEV3d2WkV6aDAxZ0hyYVhBeFRWOFdPUUhOaUFJQkRZcVcrOFluMjNKc2w5Y2R1QVlEOThWMlMyQ1lKcUwwZ2hVZTV0QWFvRjNOZmFhV05vN0U3MEp3NFZJSVoyWFBGc3FOeTFmQWptWjBhdXdVQUh1UFRVbmlJQlFvd241SWpYUFpzZnNpQStlWC9YZWdlZUprWnIyaVlINXdCZ0JsWnRLcC9VTUZmSjlPRHNWc0E0REUreUczL2dQa1doazAreHJFallCNjVUQmV3K01kOFlnQ0FHU3VXTmp5U1ZKUFhTWG8wZGdzQStMaFlsQUQxNEZMWVpseHFBOHdUTjExWDdCNjRJM1lIbWhzREFNeEt2clQrL3VEcDJaSjJ4VzRCME1KY0NqdFkvQU4xazBwaEsyZmNBUE5nVkZWYkhUc0N6WThCQUdhdHMvZk9PMlhKbXlTeFNRbUFLSHkzU1pNTUFJQjY4b3JKaC9tNUEyckpwQ3M2U3YxYlluZWcrVEVBd0p3VXU5Zi90d1YvcStUY2VSdEFmUVZUMk1VaUJJZ2g3R1Q0QnRTTTZZRjhldmpIWTJlZ05UQUF3SndWTGgzNGdadWZLNG03QkFPb203QkRVaHE3QW1oUkxxWGJ4S1VBUUUzNFJWYTZoWU5wcUFzR0FLaUpqdTROWDVmWnU4WGJjUUQxTUNYNUNFY2ZnYWdtVFdHSW4wTmdidXo3eGU2QnI4U3VRT3RnQUlDYUtYYjNmOWxjZnlLT0J3Q1laNEhiL2dHWjRMdE1tb3hkQVRTc05DVDIvdGdSYUMwTUFGQlRoZDd5NXlYeGl3ekF2UEZSeWNjNTZnaGtna3RoYThKQURwaWRUM1d1WHI4aGRnUmFDd01BMUZ5eHAvdzM3cll1ZGdlQUp1U1M3K0NsQzhnU241SjhKME01WUlhR3FtbXVGRHNDcllkM1VaZ1hIYjM5UFpKL05IWUhnT1lTaGt6T2RxTkE1b1FoazFkaVZ3Q054QzVkWE9yYkVic0NyWWNCQU9aTm9YdmdBMjc2Zk93T0FFMGlsY1NHWTBCbStiWkVIdmdaQlE3R3BaOFZqazQrRmJzRHJZa0JBT2FObWJ4NDhrbC9JdG0veFc0QjBQakNqa1FlWWxjQU9CQ2ZscHpqbWNCQnVaSUw3Yncrem1kREZBd0FNSy9zM0J2VHd0SEpINWpycHRndEFCcllwT1Fqc1NNQUhJeVBtRFFXdXdMSXRLOTE5cXovZHV3SXRDNEdBSmgzZGw3ZmRMNnpjSTZrSDhadUFkQ0FYQXJiT2EwWWFBZ3VwZHM1V3djNGdLa2s1eCtJSFlIV3hnQUFkV0VYM2xZcHBBdmZLdW1uc1ZzQU5CWWZsWHlDQVFEUU1LcmNGUURZTDlmVitWVUQ5OGJPUUd0akFJQzZzZEx0STlVMDl3YVROc1p1QWRBWVBFaGhrSmNxb05INHNNa25ZbGNBbWJKOVlrSHVpdGdSQU8rcVVGZUxTMzA3MHFUNlc1THVpZDBDb0FFTTJkN2Qvd0UwbkxBOWtUeDJCWkFONW43SmtTdjdkc2Z1QUJnQW9PNDZWOSsxemRMY1daSWVqdDBDSUx0OGV1Kzl4UUUwcUVrcERQTXpERWpxejRlQno4ZU9BQ1FHQUlpa1VPcDdPS2ZrOVpJR1k3Y0F5Q2JmWVJ3OUJCcWM3ekk1Tnp0RGl6TVBGMWhKYkkySlRHQUFnR2dXOXF6L1dYQjduYVNoMkMwQXNzVXJKaC9seUNIUThJTGsyeGptb2FYOVM2RjN3NDlqUndDUFlRQ0FxRHA3K3dmazlpWkpvN0ZiQUdTRVMyR1F4VC9RTEJqb29ZVlZ6T3lTMkJIQUV6RUFRSFRGM3Y3YkV0bmJKVTNHYmdFUW40OFl2dzJBSmhNRzJkQVRyY2VrcXdyZC9RL0Y3Z0NlaUFFQU1pSGYwLzlkbDM1SFVqVjJDNENJVWlsdy8zQ2crYVQ3OXZVQVdzY2orWHo0U093STRLa1lBQ0F6T25yS1h6V3pQNWJZSkFWb1ZXRVhSd21CWmhWR1RENGV1d0tvRS9PTDdBTWJ4bUpuQUUvRkFBQ1pVdWp1djk1ZGZ4bTdBMEQ5K1pUa3V6bENDRFF6MzU2d0lTQmF3WDhWVmcvY0VEc0MyQjhHQU1pY2p0N3kzNW5VSGJzRFFIMkZRUllHUUxQemFTa01NK2hEVXd0dWRvRVpyMmpJSmdZQXlLUkNUL2x5eWE2SzNRR2dQbnpVSkU0TkJscUM3elIyL0VIVE10TS9kSFQzL3pSMkIzQWdEQUNRV1lYdS9rdk0vRk94T3dETU05KzNJQURRR2x3S2JBaUk1clFuV0s0M2RnVHdUQmdBSUxQTTVQblZBMy91WnY4UXV3WEEvUEZoazAvRnJnQlFUNzdINUpYWUZVQ05tZFowck81N05IWUc4RXdZQUNEVHpPVEZrMC84TTBsZml0MENZQjZrKzNiK0I5QnkyUGNEVGVZWGhjV2puNGdkQVJ3TUF3QmtucDE3WTFwSXAzL1A1TitPM1FLZ3RzSU80OGFmUUt1YWxId2tkZ1JRR3k1ZlllZmZQeG03QXpnWUJnQm9DRmJhT0pWUDI5NHAyWTlqdHdDb2tVbVQ3K0hvUDlES3dnNlQwdGdWd055NDlOMk9ub0Z2eE80QURnVURBRFFNSy9XTlQ3UW5iNUZzZmV3V0FITVhCbzNUZjRGV0Y0ekxnTkRvcWlFSjc0OGRBUndxQmdCb0tFZXU3TnVkNXZSNmwzNFd1d1hBN1BrZXNRRVlBRW1TN3phSkU2ZlJxRngvdTJqMWhydGlad0NIaWdFQUdzNmlWZjJEbG9helpIb3dkZ3VBV1FoUzJNbkxENEI5bkRPQzBMQjJWZHNXcklzZEFjd0U3OERRa0lxbERZOGtyck1rM3hxN0JjRE0rSkJKMDdFckFHU0pWMHcreXFVQWFDenV0bnJ4cWp0Mnh1NEFab0lCQUJwV3ZxZDhYNXI0NnlUeGl4ZG9GRlZUR09KTlBvQ25DenM0Q3dDTnc2U054WERZWjJOM0FEUEZBQUFOYmRIcURYZkovSTJTOXNSdUFYQnd2TUVIY0VCVktRd3pJRVJqc0tEM1crbVdhdXdPWUtZWUFLRGhGYnNIN3BEckRaTEdZcmNBT0RDZmtIdzBkZ1dBTFBOZDNCWVFEY0Q5eS9sTHl6Zkh6Z0JtZ3dFQW1rS3h0M3hySW4rSDJFY1l5S3l3UGVIb1A0Qm5Gc1JsUXNpNnlTVGtWc2FPQUdhTEFRQ2FScjVuNER1Uy82NDRkZ0JrVHRndHhuTUFEb2tQbThTSjFjZ29sejZTTDYyL1AzWUhNRnNNQU5CVWlqMEQvMjZtOTRyampFQm1lREQ1TGw1dUFCd2lsOEpPemdKQUZ2bldZcnJ3cjJOWEFIUEJPekkwblVKMytUcVpyWWpkQVdDZlhlSm9Ib0FaOFJHVEpoa0NJRnZNa291dGRQdEk3QTVnTGhnQW9Da1Z1L3V2Y2ZjMXNUdUFWdWZUN09vTllIWlNidktMYk9uTFYvdi9PWFlFTUZjTUFOQzBPbm9ITHBYcjZ0Z2RRQ3R6YnZzSFlMYkdURjZKSFFGSWtsd2Uvc0pLQ3JGRGdMbGlBSUNtVnVncFgyalNaMkozQUszSUs1S1BjdlFmd095RlFlNGVndmhjdXI3WXUrSDIyQjFBTFRBQVFGTXprK2RQT2VsOWt2OXI3QmFncGJnVXRyUDRCekJIazVLUDhic0VVWTBxdFV0aVJ3QzF3Z0FBVGMvT3ZURXRITjMySG5QZEZMc0ZhQlcrMjZRcDNyUURtRHN1SlVKTVpycXlvOVMvSlhZSFVDc01BTkFTN0x5KzZYeG40UnhKdDhSdUFacGVLZ1UyN3dKUUl6Njk3NjRBUVAzOU1sODkvR094STRCYVlnQ0FsbUVYM2xZcExLaThWZEwveEc0Qm1sbllhVkxnelRxQTJnbTdUR3kvaHZyemk2eDB5MFRzQ3FDV0dBQ2dwZGdINzlrem1lb3NTZVhZTFVBejh2K1B2VHNQaytzczc3ei91NS9xcmFvM2RjdElzZ1NURFhBbUJ0dkNrOHlRdkpPTEpUWm1od0FPU1NDQkNZbXpBYll4eHRqZGNsbVNWNHd0UStJWlNKaE15RHFZbDBrbSswTEdnVEFPbUZaM0M4d2VFck1GTE5tU0xLbTdwZTQ2OS93aFE3eElWaTlWZFovbCsva3YyRlovcjF4MmRkV3Z6bm5PVWI2cEE5QUJTNUlmNHJVRlhXVDZQNDNKMlE5Rlp3RHR4Z0NBeWhscnpoeG90YkxuU2ZwOGRBdFFOdHlyQzZCVHN2dDVmVUhYdERKTEYwZEhBSjNBQUlCS0dtN3V1VSsyZEo2a2U2TmJnTEx3d3lhZjR4czZBQjNTNGdvamRJZEo3eDI2YXZlZTZBNmdFeGdBVUZtTmlVOS90VmFyWFNEcHZ1Z1dvUEQ4b1cvL0FhQ0RzZ2ZFVlFEb3RQMkxyZHEyNkFpZ1V4Z0FVR245VjA1OUxrdnBQRW43bzF1QUlzc09tSHd4dWdKQTZTMFpWd0dnMDY0WmFVN3RpNDRBT29VQkFKVTNkTlh1UGJMMEFrbUhvMXVBUWxveTZRSGVrQVBvRHE0Q1FLZTQ5Tm42aHRydDBSMUFKekVBQUpJYUU3di8wVEo3bWVRODZnVllvZXgreVhrOEY0QnU0U29BZElnclhXb1hUWEU5RzBxTkFRQjRTUDNxNlErNzJhc2xMVVczQUlYQlkvOEFCT0FxQUxTZDI1OE1UZTcreStnTW9OTVlBSUNIR1p5WStXTnpmNzBrdnM4RVRzV2xiQzhmL2dFRTRDb0F0TmV4MUpOZEZoMEJkQU1EQVBBbzlXMnp2K3V1TjBaM0FIbm5oeVNmNXcwNGdCaGNCWUEydW0zZ3l0a3ZSRWNBM2NBQUFKekE0TGFaMjJXNkpMb0R5QzJYc3Z2NUZRSWcwSkxKSDR5T1FBbmN0OUJidXpZNkF1Z1czcjBCSjlHWW1Oa2w5eHVpTzRBODhnZU0weklBaE12Mko2NEN3SnE0NjZyeEs2WU9SbmNBM2NJQUFEeU94cmJadDh2RTQyQ0FoMXN5WmZ1NTlCOUFEaXhLZnBqWEk2emFkT1A3bi9KYjBSRkFOekVBQUtkUXYycm1WMTMrdnVnT0lDK3l2Y1kzYmdCeUk5dlBheEpXeDh3dXRndnZhRVYzQU4zRUFBQ2NncG04Y2NaVEw1SjBSM1FMRU0zblRYNGt1Z0lBSHVZb0I1SmlOZndQNnhQVEg0bXVBTHFOQVFCWUJydndqbGE5dGZnYWMvMUZkQXNRaVcvL0FlU1I3NDh1UU1ITW02VXJvaU9BQ0F3QXdESlo4NTVqQTFudGxaSjlOTG9GaU9BSEpSMk5yZ0NBeC9JNWs0NXlGUUNXeDZXYjZoUFQ5MFozQUJFWUFJQVZzT2JVM0VKdmVyR2txZWdXb0tzeUh2c0hJTjh5cmdMQThueXRNWkM5SXpvQ2lNSzdPV0NGeHErWU9yalVxbDNncnM5RXR3RGRrajFnRXNja0FjZ3hQMnpTWW5RRmNzL3RyZmJXUFp4bWc4cmlXaWxnbGVaMm5yMUZiaCtWOUQzUkxVQW4rVEVwK3dyUDJnYVFmemJtU3FmeFlvV1R1cXMrTWZNalp2eEdRM1Z4QlFDd1NvMkoyYThuMWM2VDlJM29GcUNUc3IxOCtBZFFFQWU1V2drbmxibnJ6WHo0UjlVeEFBQnJNREE1OVUrdGxEMVAwdjNSTFVBbitCR1Q1cUlyQUdCNVBKT3lnMXpnaXNkeStXOE5icHU1TzdvRGlNWUFBS3pSOEZWN1B1MnU1N3YwWUhRTDBGWXUrYjdvQ0FCWUdUOWdVaFpkZ1p3NXBOUXpHUjBCNUFFREFOQUdnOXRtN2piVDh5VnhxQXhLd3crWS9CamZwQUVvbUpia2gzanR3aVBzR0x4cTZsK2pJNEE4WUFBQTJxUXhNZk4vVTZhWGl5ZWxvd3hhRDUzOER3QUY1QWVNczB2d2JmOVVIejM4cnVnSUlDOFlBSUEyR3JoNjVtOWsvcE9TbHFKYmdMWEk3dWNTV2dERjVjY2tYNGl1UUI2NFpaZlltNzdFbHpQQVF4Z0FnRFpyVE16K0x6TzlRWHg4UWxFZGxmeEJ2djBIVUd4K2dOZXh5alAvOE9ERW5qK0p6Z0R5aEFFQTZJRDZ4TXh2eS8zTjBSM0FhdkRZUHdCbDRFZE16dlY0VmJiVU1yODRPZ0xJR3dZQW9FTWEyMlovemFSbWRBZXdFbjdZNVBQUkZRRFFCaTZKUndKV2wvdnR3MWZ0K1hSMEJwQTNEQUJBQjlVblo2NlI5STdvRG1CWk1zbjM4bVlaUUhsa0J6a01zS0llV09ycDN4NGRBZVFSQXdEUVlmV0ptYmVaNmIzUkhjQ3BaUHU1WEJaQXliU09YOW1FYW5IWDVNaVZuN2cvdWdQSUl3WUFvTVBNNUFOTE03OGs2UStpVzRDVFdwTEVnVmtBU29qREFLdkZYWjlwWk92NDRnVTRDUVlBb0F1c3FheStvZmF6a3Y0MHVnVTRrV3lmeVhsdUJZQVM4Z1ZKUEJLd01tcm1sMWp6VHE1bkEwNkNBUURvRXJ0b2FySGVXbnlGbWYxVmRBdndjTDdBSmJJQXlzMDVETEFpN0VNRGs3Ti9IVjBCNUJrREFOQkYxcnpuMk1CUytuRkpINHR1QWI3TjkzSklGb0J5eXc2YjFJcXVRSWNkUy9Jcm9pT0F2R01BQUxyTW1sTnpSMXQ2a2FUcDZCWWdlOURrQzN3ekJxRGtNc2tmNUxXdXpGeDY1OERrekJlak80QzhZd0FBQXEvczZwNEFBQ0FBU1VSQlZJdzFadzYwV3RrRmN2OWNkQXVxeXpPVDM4OGJZZ0RWd0NNQlMrMWJqVmIvRGRFUlFCRXdBQUJCaHB0NzdsTnFuUy9wM3VnV1ZOUURPbjc2UHdCVXdhTGtjNHllWldTbXQxbno0dzlHZHdCRndBQUFCR3BNZlBxclNUcFA4bTlHdDZCYWZNbVU4V2dzQUJYamZFUXNvNm1CcFpuZmlZNEFpb0lCQUFnMk1Ebnp4Y3l6ODNYOCsxaWdLemo0RDBBVitSRU9BeXdaTi9PTHJTa2VaQXNzRXdNQWtBTkQyejcxS1huMkFrbUhvMXRRZmo1bmN2NU5BMUJGem1HQTVlSy9XNStZL1lmb0NxQklHQUNBbkdoczIvTnhVL2JTNDA5bEJ6ckVwV3h2ZEFRQXhHRUFLSTA1YS9WTVJFY0FSY01BQU9SSWZYTFAzN25acThYUmJPZ1FQeWpwR0c5K0FWU1hIeE9QUHkwQms2NnJONmUrRXQwQkZBMERBSkF6Z3hNemYyeW0xMG5jejRZMmEwblpBN3pzQXdDSEFSYmVWd1phdFZ1akk0QWk0cDBna0VQMWlabmZNL2tieERGdGFLUHNmZzYvQWdCSjBpRU9RaTAwczB1dE9UVVhuUUVVRVFNQWtGUDF5ZG5ma25SSmRBZkt3WTl5M3lzQWZKdG5raC9tTmJHZy9xRisxZlNIb2lPQW9tSUFBSEtzTVRsem03dXVpKzVBOFdYNytMWUxBQjZPMndBS3FaVzUvYW9adjlHQTFXSUFBSEp1Y052TVZYSzdKYm9EeGVXSFRacmpteTRBZURpZk4vbGlkQVZXd3N4L1kyamI5R3gwQjFCa0RBQkFBZFFucHk5eitmdWlPMUJBTHZrK1B2d0R3R080anA4RmdLSTRzSlRTdHVnSW9PZ1lBSUFDTUpNM3puanFSWkkrRU4yQ1lzbjI4dzBYQUp4TWRwRGJvd3JEZE0zd2xkTjdvek9Bb21NQUFBckNMcnlqVlc4dHZ0YWtQNDl1UVVFc21iU2ZiN2NBNEtTV2p0OEtnSnh6LzF6OUNiVmZqODRBeW9BQkFDZ1FhOTV6YkdDdy9rcEpINGx1UWY3NS9jZFB1Z1lBbkJ4UFNNay85M1NwWFRURjlXeEFHekFBQUFWamw5NDF2OUJiZTRsa3U2TmJrR01McG93M3RRQndTbjZZc1RUUHpQVm5nMWRQLzBWMEIxQVdEQUJBQVkxZk1YVndxWldlNTY3UFJMY2doMXpLOWtWSEFFQkJ1S1FqREtZNXRXaVd2U1U2QWlnVEJnQ2dvRWFhVS9zcytma3lmVG02QmZuaWg0MTdXZ0ZnQmZ4UWRBRk96TjgxTUxubjg5RVZRSmt3QUFBRjFwaVkvYm90MVo0dDZTdlJMY2lKVE1wNDdCOEFySWpQbWRTS3JzQ2ozSGUwWlR1akk0Q3lZUUFBQ3E3ZW5QcEtxdmw1a3I0VjNZSjR2dCtrcGVnS0FDZ1lsNXpiQUhMRnBZbXg1c3lCNkE2Z2JCZ0FnQklZdUhMMkM1bmI4eVR0ajI1Qm9DVlR4bVAvQUdCVi9NSG9BanpNVE9PTXAvejM2QWlnakJnQWdKSVkyalk5SzdjWFNqb1MzWUlZMlQ0ZFA4d0tBTEJpUHM4VlZIbGhiaGZiaFhkd1V3YlFBUXdBUUlrMHRrM2ZsV1F2azNRMHVnWGQ1UXNtUDh5My93Q3dGcnlPNW9IOXovcTI2YitQcmdES2lnRUFLSm1CeWVtL2RlblY0bnVNU3NudU03NzlCNEExOGtNTUFNSG1yZVZYUkVjQVpjWUFBSlRRNE9UTUg1bmJ6MG5Lb2x2UWVmNmdjYzBIQUxTQkwwaStHRjFSWGU3K2pucHo1bCtpTzRBeVl3QUFTcXErYmZyOU1yc2t1Z09kNVR6MkR3RGFpdHNBd255OVVmZWJvaU9Bc21NQUFFcXNNVEg5THBOdGkrNUE1L2dEUExzYUFOcUoyd0JpbU90eWUrc2VEaklHT293QkFDaTUrdVQwRHJsWTFFdklGeVUvd0J0VkFHaXJvNUtPUlVkVXpsMERrek4vRUIwQlZBRURBRkFCOWNtWks4ejh2MFYzb0wyeXZSejhCd0Nkd0ZVQVhaWEovR0l6ZnFNQjNjQUFBRlNBbVh4Z2FmWlhKUDErZEF2YVpFN1NFZDZnQWtBbitPSG9ndXB3cy8vUm1KajlSSFFIVUJVTUFFQkZXRk5aL1l5bi9JeWtEMGEzWUkxY2F1M2w1UnNBT3NXUG1aemJBTHJoa0N4TlJFY0FWY0k3U0tCQzdNSTdXdlhXNGsrYjJWOUZ0MkQxL0tCeGZ5b0FkSmh6bFZYbm1YWU9YalgxcjlFWlFKVXdBQUFWWTgxN2pnMHNwUitYOUEvUkxWaUZ6SlRkSHgwQkFCWEFiUUNkWmZweWZlVHdiZEVaUU5Vd0FBQVZaTTJwdVlYZTJvc2syeDNkZ3BYSjlrbksrRllLQURyTmo1cTBGRjFSWGk1ZGFtLzYwdEhvRHFCcUdBQ0FpaHEvWXVwZ3E2WUw1UDY1NkJZczAxSEpIK1REUHdCMGhVdk9VK2s3eFA1dWNHTG1qNk1yZ0NwaUFBQXFiUGpLNmIzSy9EeVovaVc2QmFmR1kvOEFvTHV5dzd4VjdvQlc1a3NYUjBjQVZjV3JHbEJ4amVhZXJ5WFgrWksrRmQyQ2svTkRKcC9uMjM4QTZLcDV5YlBvaUxMeDI0ZTJmZXBUMFJWQVZURUFBTkRBNU13WE0yK2RKK21CNkJhY2dFdStqdy8vQU5CMUxvbW5BYlRUL3FWYS96WFJFVUNWTVFBQWtDUU5iZnZVcDJUK2ZFbUhvbHZ3U05sK2szTVFGUUNFNEhHQTdlUFM1TWlWbitCWk5rQWdCZ0FBMzlHWW1QMkVaZjVTeVJlaVcvQ1FKVW43ZWZNSkFGSDhpRGgvcFEzYzlabEdhOTE3b2p1QXFtTUFBUEFJOWF0bi8wK1c2V1dTamtXM1FNcjJHZmVmQWtDa1RKekIwZ1kxODB1c2VTZlhzd0hCR0FBQVBNYlExYk4vSmJPZmt0U0ticWt5WDVEOE1HODZBU0NhSDQ0dUtMdy9HcGljL2V2b0NBQU1BQUJPb2pFeC9mK2I2dzNpd3NjWUxqbVAvUU9BWFBBanZCNnZ3YkVrWFI0ZEFlQTRCZ0FBSjFYZk52TS9aTWF6ZWdOa2gweSt3TGYvQUpBTFMrTEd1TlZ5djJWZ2N1YUwwUmtBam1NQUFQQzRHaFBUNzNMNWp1aU9LdkZNOHZ2NThBOEFlY0l0V2F2eXJYbzJjSDEwQklCL3d3QUE0SlFHSjJlM1NmN082STdLMkcvSHYyMENBT1NHejBVWEZJKzVyckRteHgrTTdnRHdieGdBQUN4TGZXTDJyV2I2emVpT3N2TWxVOFpqL3dBZ2QzekJPQnAzUld6M1FEYnovdWdLQUkvRUFBQmdXY3prQTA5OXlpOUsrbUIwUzVuNVhuSFFGQURrbE04eDBDNlRtMlZ2dHFaNGtDMlFNd3dBQUpiTkxyeWpWZDlRK3lsei9WbDBTeG41bkhHUEtRRGtHYmNCTE5mdjFTZG0veUU2QXNCak1RQUFXQkc3YUdweFlLaitLa2wvSDkxU0tpNWwrL2p3RHdCNWxzM3hPTUJsbUxkVzdhcm9DQUFueGdBQVlNWHMwcnZtNjYzK2wwajZaSFJMV2ZoQms0NUdWd0FBSHRlU3BFWEcyc2Rqc3V2cnphbXZSSGNBT0RFR0FBQ3JZczJQUDdqVXFqM2ZwSHVpV3dxdkpXVVA4SVlTQUlyQWowUVg1Smw5ZGFDVmVHb1FrR01NQUFCV2JhUTV0VytwbFQxSDB1ZWpXNG9zZXlCeHNqUUFGQVFIQVQ0Tzg3ZFljNHFURW9BY1l3QUFzQ2JEelQzM1dhdDJ2cVI3bzF1S3lJOUpmakM2QWdDd1hENHZPV2ZibjhqSDZsZk44S1FnSU9jWUFBQ3NXYjA1OVpVa25TZnBXOUV0UlpQdDVVQXBBQ2dVbDJ3K09pSjNNdmYwWmpOK293RjV4d0FBb0MwR0ptZSttTGs5VDlMKzZKYWk4TU9TdUpRVUFBb240N1g3RVV6Mkc0UGJkazlGZHdBNE5RWUFBRzB6dEcxNlZtNHZsSFE0dWlYM1hQTDdlUWtHZ0VKaUFQZ09seDVzdFhxYTBSMEFsb2QzbndEYXFyRnQrcTRrZTdsNHFOM2p5dmFiL0ZoMEJRQmdOZnlZNUl2UkZmbGc4dVpROCs1dlJuY0FXQjRHQUFCdE56QTUvYmVTLzVTT1B6RVpqOWFTZkQvZkhnRkFvYzN6T2k3VGwrcXRwVitQemdDd2ZBd0FBRHFpTVRuN0lYTi92U1RPU240VTMyZjhmd1VBQ3M2UFJCZkVjOWViclhrUDE3TUJCY0lBQUtCajZ0dG1mOWRkYjR6dXlKV2pwdXhCdmpVQ2dLTHppai90M2sxL016ZzU4K2ZSSFFCV2hnRUFRRWNOYnB1NTNVeFhSWGZrZ2t2WjN1Z0lBRUJiWkNZZHEreWd1MWp6aklFZktDQUdBQUFkVjUrWXVVNnlHNk03b3ZsaGszUFBLQUNVaHM5SEZ3UnhlL2ZBNUo3UFIyY0FXRGtHQUFCZDBaaWN2a0t1WGRFZFlUSXB1NThQL3dCUUpsN054d0h1UFpyNWp1Z0lBS3ZEQUFDZ2ErcVRNNWU2MlgrUDdvamdCMHppa1ZFQVVDbytMOG1qSzdyTFhSTmp6WmtEMFIwQVZvY0JBRURYbU1rYlQzM3lMMGk2STdxbHE1WjQ3QjhBbEZKTDhtcU51ek9ONzMvSys2SWpBS3dlQXdDQXJySUw3MmpWVzR1dk1mbGZScmQwUzdiUDVEejJEd0RLcVVMbkFKamJ4WGJoSGEzb0RnQ3J4d0FBb091c2VjK3hnVmJQS3lUN2FIUkxwL244OGNQL0FBRGw1UE9WZVR0OVIzM2I5TjlIUndCWW04cThZZ0hJRjJ0T3pTMzBwaGRMdGp1NnBaT3lmYWx5OTRjQ1FKWDRYSFJCTi9pQ3RYUjVkQVdBdFdNQUFCQm0vSXFwZzYyYUxuRHBzOUV0bmVBSFRWcUlyZ0FBZEZSTDhtUFJFWjNsMGp2cXpabC9pZTRBc0hZTUFBQkNEVjg1dmRkczZYbVM3bzF1YVNmUGpNZitBVUJWekpmNjlmN3JqUUcvTVRvQ1FIc3dBQUFJMTVqNDlGZVRhcytWOUsvUkxlM2lEMGppbUNRQXFBUXY4VUdBWm5xYnZYWFBrZWdPQU8zQkFBQWdGd1ltcC82cGxiTHpKZDBmM2JKV3ZpajVnVkovR3dRQWVCZ3Y3eFVBZHcxY05mUDcwUkVBMm9jQkFFQnVERisxNTlNeWY0R2tROUV0YStGN2pZUC9BS0JLbGlSZkt0MElrTW44WWpOK293Rmx3Z0FBSUZjYUU3T2ZrT3Y1a2dwNXVhSFBTWDZrZEc4Q0FRQ25VTGFuQWJqcC9ZMkoyVTlFZHdCb0x3WUFBTG5UMkRienNTVC9jVWxIbzF0V3hDWGZ5OHNxQUZSU3VjNEJPS3dsdXlvNkFrRDc4VTRWUUM0TlRNNyt0ZVEvSldrcHVtVzUvSUNWL2xGUUFJQ1RXQ2pQMVY5bWR1MWdjL29iMFIwQTJvOEJBRUJ1TlNablAyU21ONmdJZDlSbnBteC9lZDc4QVFCV3hoZFZqcWUvbUw0OHNEUzZLem9EUUdjd0FBREl0ZnJFekc5TDl1Ym9qbFBKOWxrNTN2Z0JBRmJISlIwdC9oRHNycmRZODg2RjZBNEFuY0VBQUNEM0dwUFQ3M2JwbXVpT2t6b20rWVBSRVFDQWFGbmhQemJiM3cxT3p2eFJkQVdBem1FQUFGQUlnNU16VGJsdWp1NDRrWXpIL2dFQUpQbDhvYThBYUdXK2RIRjBCSURPWWdBQVVCajF5Wm5MemZUZTZJNkg4OE9TenhYNkRSOEFvRjBXdkxpRHNObC9IZHIycVU5Rlp3RG9MQVlBQUlWaEpoOVltdmtseWY4d3VrWFM4Y2YrN2VObEZBRHdrTXpraFhsMnpTUHNYMXBLK2IzVkRrRGI4TTRWUUtGWVUxbDlROC9QU1ByVDZKWnN2eDAvOVJrQWdHOHI0dU1BM2JlTk5LZjJSV2NBNkR3R0FBQ0ZZeGROTGRZSDZ4ZEt1ak1zb2lXSngvNEJBQjdGQ3pZQXVQVForc2FlOTBSM0FPZ09CZ0FBaFdTWDNqVmY3NXQvaWFTN0kzNSt0aS9KczRpZkRBREl0WVZpSFFMZ21WOWlGMDF4UFJ0UUVRd0FBQXJMM3ZiNVEwZGJPbC9TVERkL3JpOUlmcWliUHhFQVVCUit0RUJQaG5IOThkRFZzMzhWblFHZ2V4Z0FBQlRhV0hQbVFLdVZQVS9TNTd2eUExMXlIdnNIQURnWmwveG9kTVN5SEVzOWZubDBCSUR1WWdBQVVIakR6VDMzeVpiT2szUnZwMytXSHk3ZS9aMEFnQzRyeE84SnUzWGd5dGt2UkZjQTZDNEdBQUNsMEpqNDlGZVRkSjdrMyt6VXovQk15dmJ5c2drQWVId0ZHSXEvdGRDYnJvK09BTkI5dkpNRlVCb0Rrek5mekZMdGVaSWU2TWdQMkcvSFQvOEhBT0R4ek9mN1BqR1R2MzM4aXFtRDBSMEF1bzhCQUVDcERGMjFlNDhzdlZEUzRYYit1YjRvWlR6MkR3Q3dETDVrMGxKdWYyZE1EN1JtZnpzNkFrQU1CZ0FBcGRPWTJQMlBsdG5ManAvWDN4NitqNFAvQUFBcmNDeVh2elRjUEh1ek5jV0RiSUdLWWdBQVVFcjFxNmMvN0dhdmxyUzAxai9MNTAxK09MZmY1QUFBY2lqTDV6a0FmMURmdHVlajBSRUE0akFBQUNpdHdZbVpQemIzMTB0citLYkRwV3h2THQvRUFRRHk3Rmp1Zm5mTW05bVYwUkVBWWpFQUFDaTErcmJaMzNYWEcxZjd6L3VESmhYamVjNEFnRHpKMmU4T003dWhQakhkOGNmbEFzZzNCZ0FBcFRlNGJlWjJtUzVaOFQvWWtyTDdjL2NORGdDZ0FIeFJPVG83eHI0NnNKUnVqcTRBRUk4QkFFQWxOQ1ptZHJtMG9tY2Vady93MkQ4QXdDcTU1RWR6TWlKN2RwazFwK2FpTXdERVl3QUFVQm1Ea3pOWFNycDFPWCt2SDVQOFlFN2V1QUVBaXVsWWRJQWs2V1AxeWRrN29pTUE1QU1EQUlCS3FVL012TVhsN3p2VjM1ZnRUVG02ZEJNQVVFVHRleGp0cW1WdWRyRVp2OUVBSE1jQUFLQlN6T1NOTTU1NmthU1RmaHZpaDAzaVFra0F3Rm9GUHduQXBQY05Ua3gvTWpRQ1FLNHdBQUNvSEx2d2psYTl0ZmdhYy8zRlkvNmlTODdCZndDQWRvaDlFc0NoVnF0M1cyZ0JnTnhoQUFCUVNkYTg1OWhBVm51bHBJODgvSC9QRHBnOEgvZHNBZ0FLenJPSG5nWVF3cTRaYXQ3OXphaWZEaUNmR0FBQVZKWTFwK2JxcmY0WFM1cVNKTFVrZjRCdi93RUFiYlFROEh2RjlLWDY2S0ZmNi80UEJwQjNEQUFBS3MyYUgzOXdxVlc3d0YyZjhmdVRsRVVYQVFCS0plQ3FNamRkYkcvNlV1d05DQUJ5aVFFQVFPV05OS2YyS2ZPM09RZi9BUURhekx2OE1keWx2eDI4YXViUHV2dFRBUlFGQXdDQXluT1hXUzFkYmxzeXFTZTZCZ0JRSm42MHE3Y0FMR1h1RjNmekJ3SW9GZ1lBQUpXM3NPT2NuNVQ4UDF1dlZOdmlVdUp4eVFDQU5sbVMxT3JhVDN2MzhMYlplN3IyMHdBVURnTUFnRXJ6VzU1WmQ5TjEzL2tmK2x4cGkyU01BQUNBTnVuU2JRQVBMTFlXZDNibEp3RW9MQVlBQUpVMmQzanVDa25mOWZEL3pRWmN0bGtTRHdRQUFMVERzYzcvUW5HM3EwYWI5enpROFI4RW9OQVlBQUJVMXR6T3B6M0p6QzQ3MFYrenVpdHRka1lBQU1DYWVZZWZCR0RTUFkxczlEYzcrMU1BbEFFREFJRHE4cDZiSlRWTzlwZXQ0VXFiR0FFQUFHdlU2UUVnMHlYV3ZIT3BzejhGUUJrd0FBQ29wTG50NS95SXBGZWQ2dSt6SVpkdFlBUUFBS3llZC9ZV2dBOE9YRDN6TjUzOEFRREtnd0VBUU9WNFUwbW1YVnJteC9vMDRrcW5jU2dnQUdDVld1clFrd0I4d1pSZDNvay9HVUE1TVFBQXFKeTVkTTRiSlAySGxmd3p0czZWeGhrQkFBQ3I0NHNkK0RNOTNWeWYzUFBQN2YrVEFaUVZBd0NBU3ZFYnp4ZzI4MnRXODgvYWVwZU5NUUlBQUZhdUE3Y0JmTDJSSGJ1eDNYOG9nSEpqQUFCUUtmUEhCcTZXYk5OcS8vbTAzbVdqakFBQWdKV3hOaDhFYU81WFdQT2V3KzM5VXdHVUhjZGFBYWlNaGVZem5welZzazlMNmwvVEgrUlM5cTBrUDlTZUxnQkErZG1nbERabmJmclQvQi9yRTdNL2JDWVdhUUFyd2hVQUFDckRVN1pMYS8zd0wwa21wWTJaYkpEM1hRQ0FaV3JmR1FBdTk0djU4QTlnTlJnQUFGVEN3bzZ0UCthbUY3YnREelFwYlhKWm5mZGZBSUJUODBXcEhSL1pYWHAvWTl1ZWo2LzlUd0pRUlF3QUFFclBtOC9xY2ZtdXR2L0JTYkxOM281ckNnQUFaZWVTci8wY2dNTnEyWlZ0cUFGUVVRd0FBRXB2dnJiL2pTNmQyWWsvMjVKVWUyTEdDQUFBT0xVMTNnWmcwbldEemVsdnRDY0dRQlV4QUFBb3RZUE5NOGNsbStqb0QwbFNiVXNtNitOMkFBREF5YTNwVVlDbUx3KzAxdDNhdmhvQVZjUUFBS0RVK21wOTEwa2E3L2dQcWtscGk2VGVqdjhrQUVCUnJla1dBTC9NbW5jdXRDc0ZRRFh4R0VBQXBYVm8rOWxuMXN4bUpQVjA2MmY2b3BSOXphUWxYbDRCQUk4eUlOV2V0SnBIQWRyZk5TYW5uOXYySGdDVnd4VUFBRW9ySmJ0VlhmendMMG5XSzlVMnUxVHI1azhGQUJTQkhkTnFuZ1RReXBKZDB2NGFBRlhFQUFDZ2xPWjJiSDJsdWM0TCtlSDlVdHJzTWw1aEFRQVA0NW1rMWdyL0lkTjdocTdhdmFjVFBRQ3FoN2VuQUVySG04OGFrUHlteUFZYmNObm1qQnV0QUFDUDRJc3Irc1d3ZjJtcGRuV25XZ0JVRHdNQWdOSlo2TmwvbWFUdmllNnd1cFEyTVFJQUFCNW1jUVgzQUpnMVI1cFQrem9YQTZCcUdBQUFsTXJjenJPM3VOdmJvanUrellha3RKSEhBd0lBanZObEhoTHIwbWZyVDBqL3RjTTVBQ3FHQVFCQXViamRJR2tvT3VQaGJOaVZOakFDQUFBa0xTN3ZiM09sUysyaXFXWCszUUN3UEF3QUFFcGpidWN6L3BPa240N3VPQkViZGRscGpBQUFVSG5MT3dQZ2Z3OU43djdMVHFjQXFCNEdBQUNsNEM2VFo3Y3B4M2ZjcHpGWEdtY0VBSUFxODFPZkFYQXMxZnl0M1dnQlVEME1BQUJLWWVIYWMzNUcwZzlGZDV5S3JYZlpPa1lBQUtpc0paTWU3OWVBYTlmQWxiTmY2Rm9QZ0VwaEFBQlFlTjQ4YzhoZDEwVjNMRmM2elpWR0dBRUFvS3A4NmFSLzZiNkZ2bHBoZnA4QktCNEdBQUNGTjFmcnZWTFM1dWlPWlRQSk5yaHNtQkVBQUtySVRuSU9nTW11SEw5aTZtQ1hjd0JVQ0FNQWdFSmJhRDc5ZTAxK1NYVEhpdGxEandkc1JJY0FBTHJ0Sk9jQVRBKzBwbityMnkwQXFvVUJBRUNoWmFsMnMyUUQwUjJyWWxKdGN5YXJjeVVBQUZUS0NhNEFNTE9McmFrc29BWkFoVEFBQUNpcytSMW5QVWVtbDBkM3JJbEphYk5ML2RFaEFJQnU4Y2NPQUg5UW41aitTRVFMZ0dwaEFBQlFTUDZCVjlWYzZkYm9qclpJVW0xTEptTUVBSUJLOE1WSC9KL3padmIyb0JRQUZjTUFBS0NRNWo3L3hWK1VkRlowUjl2VXBMUTVrL1ZHaHdBQU91NWhad0NZZEdOOVl2cmV3Qm9BRmNJQUFLQndEbHovOURHVG10RWRiZGNqMlpaTXFrV0hBQUE2S2pNOWRMZi8xd1lHc3B1RGF3QlVDQU1BZ01McFcwclhTRG90dXFNVHJGZXFiWEZHQUFBb3UwVko1cGZaVy9jY2lVNEJVQjBuZmdncEFPVFUwUjNQK1BjdFpiT1N5bjJ4L0ZHcDliVWt6b01HZ0hKS0cvMGJqWnVtbjJnbUhnVURvR3U0QWdCQW9XUnEzYUt5Zi9pWHBQN2pad0x3S2cwQUpaWDB0M3o0QjlCdHZMVUVVQmhIZG14OWljc3VpTzdvRnF0TDZYVG5XaTBBS0prMDdLMmpZK2xOMFIwQXFvY0JBRUFoZVBQTVBuTi9SM1JIdDFuRGxUWXhBZ0JBV1ZoeXBUSGJPWDdGMU1Ib0ZnRFZ3d0FBb0JEbWUzb3ZsdW1wMFIwUmJNaVZOakFDQUVBcGpPbkJnWjdkMjZNekFGUVRBd0NBM0R2VVBHdUR1YTZNN29oa0k2NTBHaWNDQWtDUldZK3JaMTEyb1RVNTRoVkFEQVlBQUxtWGVtclh1elFhM1JITjFrbTJudk9pQUtDdzF2czlBMWZQL2xWMEJvRHFZZ0FBa0d0SHRwKzkxZHhmRjkyUkYybmNsY1lZQVFDZ2FLenVYaHUxRjBaM0FLZzJCZ0FBdVdhV2JoT3ZWWTlnNjEwMndnZ0FBSVZoVWpwTmYxaWZtTDQzT2dWQXRmR21Ha0J1emUzYytwT1MvK2ZvanR3eEtXMTAyWEIwQ0FCZ09kS29qdFY3MHh1aU93Q0FBUUJBTHZrdHo2ekwvZnJvamp4TEd6UFpJRmNDQUVDdTFhUnMxTjVxemFtNTZCUUFZQUFBa0V0elIrYmZKdW03b2p0eXphUzB5V1YxUmdBQXlDc2I4MzFEMjZmZUhkMEJBQklEQUlBY21tdWU5VVNUTG92dUtJUWsyV2FYRFRBQ0FFRGVXTCtVUm5wZWFpWmVwQUhrQWdNQWdQeXAxVzZXTkJpZFVSU1dwTFRGcFg3ZVh3SkFucVIxMmNjYnpidi9iM1FIQUh3YkF3Q0FYSm5iZWM0UFMzNWhkRWZoSkttMnhXVjkwU0VBQUVsS1E1NjF4dXpGMFIwQThIQU1BQUJ5dzV0S2N0MG15YUpiQ3FuMjBKVUF2ZEVoQUZCeEptbWR2MmY0eXVtOTBTa0E4SEFNQUFCeVk2NTJ6czlKK2cvUkhZWFc0MHBiTXFrV0hRSUExWlhXK1h6anUycHZqdTRBZ0VkakFBQ1FDMzdqR2NNbTN4N2RVUWJXSzlXZTZGTGlUQUFBNkxvZVZ4cTFuN2VMcGhhalV3RGcwUmdBQU9UQy9OSDZOc2syUlhlVVJwOHJiVGwrUUNBQW9IdlNPdDFiMzc3Nzk2STdBT0JFZUdzSUlOekNqbk8vVDZZM1JuZVVqUTI0N0hUblJBVUE2SlorVjg5cHgxNFFuUUVBSjhNQUFDQmNwdFl1U2YzUkhXVmtEVmM2UFdNRUFJQk9NOG5HOWJmOVY5N3ptZWdVQURnWkJnQUFvUloyYlAweFNTK0s3aWd6RzVUU1JzNERBSUJPc2tHMWpvMmxWMFozQU1EallRQUFFTWFieitweCthM1JIVlZnd3k3YnlPMEFBTkFSU2JKUnYzNzhpcW1EMFNrQThIZ1lBQUNFbWU4NThLc3VQUzI2b3lyU2lDdXQ1MG9BQUdnM1c2ZERqZjdwcTZNN0FPQlVHQUFBaERqWVBITmNyb25vanFxeE1WY2Fad1FBZ0xicGNmV3N5MTV0VFdYUktRQndLZ3dBQUVMMDlmUmNLMmw5ZEVjVjJYcVhqVEVDQUVBN3BISDc3RUJ6NXMrak93QmdPUmdBQUhUZG9lMW5uK2x1YjRqdXFMSzAzcFZHb3lzQW9PQUdYS25mbngrZEFRREx4UUFBb090U3Nsc2w5VVIzVkpwSjlvUk1Oc1NWQUFDd1dyVnh1Nk4rN2ZTOTBSMEFzRndNQUFDNmFtN24xbGVZNjd6b0RrZ3lLVzF5YVpBUkFBQldLbzFvc1Q1Z3I0dnVBSUNWWUFBQTBEWCtyaWYzUzM1RGRBY2V4cVRhSnBmVm8wTUFvRGdzU1RhcXk2MDVOUmZkQWdBcndRQUFvR3NXRGc1ZEp0ZVRvenZ3S0VteXpaazBFQjBDQU1WZ1kzNS9mZWZ1MjZJN0FHQ2xHQUFBZE1YaDVnOXV5cVRMb3p0d1lwYWsydVpNMWg5ZEFnRDVacjJTRGVuRlp1TCtLUUNGd3dBQW9DdFM3ZGhOSm8xRWQrQngxS1MwT1pQMThKNFdBRTRtamZ2ZGpSM1RkMFYzQU1CcU1BQUE2TGk1bmMvNFQ1SzlKcm9EeTlBanBTYzV6MmdBZ0JOcHVDOE5waGRFWndEQWFqRUFBT2dvZDVrODJ5WEpvbHV3VEQxUzJwSkpYQWtBQVAvR0pJM3B2U1BOcVgzUktRQ3dXZ3dBQURwcVljZlcxMHI2ajlFZFdCbnJrMnFiWGFwRmx3QkFQdGlJRm9hK083MHh1Z01BMW9JQkFFREhlUFBNSVRlL1Byb0RxOVQvMEprQS9LWUFVSFUxcWJYT0w3S0xwaGFqVXdCZ0xYaGJCNkJqNWxMdjJ5VnRqdTdBNnRtQVpLZG4zTUFCb05Kc1BQdmE2STdwOTBkM0FNQmFNUUFBNklqNUhXZDlqNWxmR3QyQnRiT0dsRFk1SXdDQWF1cVRlc2Q3bmgrZEFRRHR3QUFBb0NOY3RadVBmMytNTXJBaFY5cVlSV2NBUU5mWnVIKzQvNnBQZmpxNkF3RGFnUUVBUU52TlgzUDJzeVgvOGVnT3RKY05TK2tKUEJrQVFIV2tJYldPamFkWFJIY0FRTHN3QUFCb0svL0FxMnFlYkZkMEJ6ckQxcmxzUFNNQWdBb3dLWTFsTjQ1Zk1YVXdPZ1VBMm9VQkFFQmJ6WDN1aXhkSk9pdTZBNTJUeGwxcGpCRUFRTG1sZFg1NG9IZG1Ncm9EQU5xSkFRQkEyeHk0L3Vsalpyb211Z09kWit0ZE5ocGRBUUFkMGlOcHRQVlQxaFNIbndBb0ZRWUFBRzNUdDVpYWtrNkw3a0FYbUpRMlpMSmhyZ1FBVUQ2MU1mL0M0UFk5ZnhMZEFRRHR4Z0FBb0MyTzduakd2NWZaTDBWM29MdlNScGNOUlZjQVFCc05TRGJzejR2T0FJQk9ZQUFBMEJhWldyZEk2bzN1UUplWmxEWmxVb01yQVFDVVF4cnpEOVdiTS84UzNRRUFuY0FBQUdETmp1dzg2OFV1dXlDNkEwRk1xbTEyV1owUkFFQ3gyWWd2TmVycHRkRWRBTkFwREFBQTFzU2JaL1pabG02TzdrQXdrOUptbHdZWUFRQVVreVVwcmRNVjFweWFpMjRCZ0U1aEFBQ3dKdk8xM2pmTDlOVG9EdVJBZXVoS2dMN29FQUJZaFhXNnY3RnorcDNSR1FEUVNRd0FBRmJ0VVBPc0RTWmRGZDJCSEtsSmFVc202NGtPQVlEbHN4NVhHazR2amU0QWdFNWpBQUN3YXFsbTE3bkUwK0R4U0QyU1BURTcvaHh0QUNnQUc5ZnV4bzVQZml5NkF3QTZqUUVBd0tvYzJYNzJWcE85UHJvRCtXUzlVbTJMUzRrekFRRGttOVhkVzBPSngvNEJxQVFHQUFDclltYTd4R3NJSGsrZksyMlJqQkVBUUY2WnBQWDZyWkhtMUw3b0ZBRG9CdDY4QTFpeHVlMWJYeTNwUjZNN2tIODI0TExOT3Y0bUd3QnlKbzFvWWZDNzBpOUdkd0JBdHpBQUFGZ1J2K1daZFpuZkVOMkI0ckM2SDM5RUlDTUFnRHlwU1JwTnYyb1hUUzFHcHdCQXR6QUFBRmlSdVNQemI1UDBYZEVkS0JacnVOS21qQkVBUUc2a3NlenJnenMvK2I3b0RnRG9KZ1lBQU1zMjF6enJpU1pkRnQyQllySWh5VFp3SlFDQUhPaVhlamJVbmgrZEFRRGR4Z0FBWVBscTlnNUpnOUVaS0s0MDRrcW5jU2dnZ0ZpMU1mOUkveFZUbjRydUFJQnVZd0FBc0N4ek84LzVZY2wrSXJvRHhXZnJYR21jRVFCQURCdFV0akNlWGhMZEFRQVJHQUFBbkpJM2xlVGFKUzdlUnB2WWVwZU5NUUlBNkRLVDBycnNsdkVycGc1R3B3QkFCQVlBQUtjMGw4NzVMNUorTUxvRDVaTFd1MnlVRVFCQTk2UjFPbEx2bjNsYmRBY0FGMFhEMVFBQUc0cEpSRUZVUkdFQUFQQzQvTVl6aHMyMFBib0RKV1JTZW9MTGhoa0JBSFJCajh1R1d6OWpUV1hSS1FBUWhRRUF3T09hUDFhZmxIUjZkQWRLeXFTMDBXV0RqQUFBT2l1TjZVdU5uYk1maXU0QWdFZ01BQUJPYW1ISHVkOG42VTNSSFNnNWs5SW1sOVdqUXdDVVZyK3JOcnowdk9nTUFJakdBQURncERMUGJwWFVIOTJCQ2tpU2JjNzR0dzFBKzVtVTF1bFBCcHFmK25KMENnQkVZd0FBY0VMejEyeDlyc3hmSE4yQjZyQWsxYlprVWw5MENZQXlzU0ZmYWd5bVYwZDNBRUFlTUFBQWVBeHZQcXRIeVhkRmQ2Q0NhbEx0aVptc2p6TUJBTFJCa21vam1yVG0xRngwQ2dEa0FRTUFnTWVZcngzNEZaZWVGdDJCaXFwSmFZdEx2ZEVoQUlyT1JuMS8vZnJwRzZJN0FDQXZHQUFBUE1MQjVwbmpraWFqTzFCeFBWTGFra2s5WEFrQVlKVjZYTFd4bnBkRlp3QkFuakFBQUhpRXZscnZUa25yb3pzQTY1VnFtMTJxUlpjQUtLSTBydGw2OCs2UFJIY0FRSjR3QUFENGpxUFhiZjBCbDM0K3VnUDRqbjRwYmM1ay9MWUNzQUkyNEo0TnRjNlA3Z0NBdk9FdEZZRHZXR3I1clpKNm9qdUFoN01CeVU3UEpJc3VBVkFVYVZ5L085emNjMTkwQndEa0RRTUFBRW5TM0k2emY5d2t2aTFCTGxsRFNwc1lBUUNjV2hyeG8vWHZTVDhYM1FFQWVjUUFBRURlUExOUE1rNUpScTdaa0pRMmNpZ2dnSk96SkdXai9pYTdhR294dWdVQThvZ0JBSUFXZW5vdmsvU1U2QTdnVkd6WWxUWXdBZ0E0aVRILzV2QzFNKytOemdDQXZHSUFBQ3J1OExWUDI1aTUzaGJkQVN5WGpicHNQU01BZ0VleVhxbHZUQmRFZHdCQW5qRUFBQlZuV2M5TkpvMUVkd0Fya2NaZGFad1JBTUREak91amZkdW1aNk16QUNEUEdBQ0FDanV5L1Jubm12U2E2QTVnTld5OXk4WVlBUUJJMWxBMk9OajdvdWdPQU1nN0JnQ2dvdHhsWnRsdDRuVUFCWmJXdTlJSUl3QlFhU2FsOGRadDF2ejRnOUVwQUpCM3ZQRUhLbXBoeDliWFN2cVI2QTVnVFV5eURTNGJaZ1FBcXNwR2ZLN2VOM3RaZEFjQUZBRURBRkJCM2p5MzRhYWQwUjFBVzloRGp3ZHNSSWNBNkxyazhoRi9uVFdWUmFjQVFCRXdBQUFWTkZkclhTbjVrNkk3Z0xZeHFiWTVrOVc1RWdDb0VodjNmeDYrZHVhTzZBNEFLQW9HQUtCaTVuZWM5VDBtZjB0MEI5QjJKcVhOTHZWSGh3RG9pajZwWjZSK2ZuUUdBQlFKQXdCUU1lNzJEc2tHb2p1QWpraFNiVXNtNjRzT0FkQnBhYjMrYktCNTE1ZWlPd0NnU0JnQWdBcVp2K2JzWjh2c0ZkRWRRRWZWcExRbGsvVkdod0RvRkJ2U1VxTSs4c3JvRGdBb0dnWUFvQ0w4QTYrcWViSmJvenVBcnVpUmJFc205VVNIQUdnN2szeTRkWTAxNzF5SVRnR0FvbUVBQUNwaTd2TmYrZ1ZKWjBkM0FOMWl2Vkp0czB1MTZCSUE3V1NqZm1ENHhsbWVaQU1BcThBQUFGVEFnZXVmUG1ieTdkRWRRTmYxdTlKbWx5V2VEZ0NVUW85VUcvZVhSMmNBUUZFeEFBQVYwTGRVdTFyU2FkRWRRQVFiY05sbWwvRWJEeWk4TkpaOXV0NmN1VE82QXdDS2lyZERRTWtkdmU3Yzc1ZjB5OUVkUUNTclMzYTZTeFpkQW1DMXJOODlHODZlRzkwQkFFWEdBQUNVWExiVXVrVVM1NkdqOHF6aFNwc1lBWUJDTWtsai92dkR6VDMzUmFjQVFKRXhBQUFsZG1USDJTOXkwL09qTzRDOHNDRlgyc0FJQUJSTkd2WmpnOTlYZTMxMEJ3QVVIUU1BVUZMZVBMUFBaRGRIZHdCNVl5T3VkRm9XblFGZ21TeEoyWkJmWWhkTkxVYTNBRURSTVFBQUpUWGYwL3NtU1dkRWR3QjVaT3VrTk02VEFZQWlzSFgrcmVFYlptNlA3Z0NBTW1BQUFFcm9VUE9zRGVhYWlPNEE4c3pXdTlJWUl3Q1FaOWJqNm0ya0YwUjNBRUJaTUFBQUpkVFRrNjUxYVRTNkE4ZzdXKyt5RVVZQUlLOXNYSGYxWFRlMU83b0RBTXFDQVFBb21TUGJ6OTdxTGc1S0FwYkRwTFRSWmNQUklRQWV6UnFlTlliNkxvanVBSUF5WVFBQVNzYk1ka21xUlhjQVJaSTJackpCcmdRQWNzT2t0RTYzVy9QakQwYW5BRUNaTUFBQUpUSzM4K3lma1BTajBSMUE0WmlVTnJtc3pnZ0E1SUdOK0h4OVlQck4wUjBBVURZTUFFQkorQzNQckV0MlEzUUhVRmhKc3MwdUcyQUVBRUxWSkkzbzU2d3BudGNKQUczR0FBQ1V4TUtSK2N2bCt1N29EcURJTEVscGkwdjlqQUJBRkZ1WDNUdDA3ZlFmUkhjQVFCa3hBQUFsTU5jODY0a3V2VFc2QXlpRkpOVzJ1S3lQRVFEb3VqNnBaMFB2YzZJekFLQ3NHQUNBTXFpbG15UU5SbWNBcFZHVDBoWkp2ZEVoUUxXa2RmcnJnYmZmL2VYb0RnQW9Ld1lBb09EbXRtOTlwcVJYUjNjQXBkUGpTbHN5bnFrQmRJa05xdFVZR25scGRBY0FsQmtEQUZCZzNsU1MrVzJTTExvRktDUHJsV3BiTWlseE93RFFVU2JWeHJLZDFyeHpJVG9GQU1xTUFRQW9zSVhhMXRkTCtzSG9EcURVK284ZkRHajh4Z1E2eGtiOHdmcDFNODNvRGdBb085N09BQVhsTjU0eDdQSWQwUjFBRmRpQVpLYzcxOW9BblZDVE5PYXZqTTRBZ0NwZ0FBQUthdjVZZlZMUzZkRWRRRlZZdzVWT3p4Z0JnSFliODg4T2JaLzVtK2dNQUtnQ0JnQ2dnQloyblB0OWt0NFUzUUZValExS2FTUG5BUUR0WXYzdU5uS014LzRCUUpjd0FBQUZsS2wxaTZUKzZBNmdpbXpZWlJ1NUhRQllNNU5zblg5d3FIblBONk5UQUtBcUdBQ0FncG0vWnV0ekpiMGt1Z09vc2pUaVN1dTVFZ0JZQ3h2MHhjYVRhejhkM1FFQVZjSUFBQlNJTjUvVm82UmJvenNBU0RibVN1T01BTUNxSkNrTitlVjIwZFJpZEFvQVZBa0RBRkFnOHowSGY5bmxUNC91QUhDY3JYZlpHQ01Bc0ZJMm9yMk5tMloyUlhjQVFOVXdBQUFGY2JCNTVyamN0MFYzQUhpa3RONlZScU1yZ0FMcGtkS2d2VGc2QXdDcWlBRUFLSWplbnQ0ZGt0Wkhkd0I0RkpQc0NabHNpQ3NCZ09WSVkzNTM0L3FwajBkM0FFQVZNUUFBQlhEMHVxMC9JTmN2UkhjQU9BbVQwaWFYR3RFaFFMN1pnTHd4N09kSGR3QkFWVEVBQUFXdzFQSmJKZlZFZHdCNEhDYlZObWV5ZW5RSWtGKzFVWCt2TldjT1JIY0FRRlV4QUFBNU43Zno3SmVieExjbFFCR1laSnN6cVQ4NkJNaWZOT0lMQTRQVHZ4emRBUUJWeGdBQTVKZzN6K3lUMjQzUkhRQ1d6NUpVMjVMSkdBR0E3N0RrOGlGN2d6V1ZSYmNBUUpVeEFBQTV0bERyZll1a3AwUjNBRmlobXBRMlo3TGU2QkFnSDJ5ZGZYWG9odDIvRjkwQkFGWEhBQURrMU9Gcm43WXhrNjZJN2dDd1NqMlNiY21rV25RSUVLeFhxbTFvL1ZoMEJnQ0FBUURJTGN0NmJqUnBKTG9Ed09wWnI1U2VtRWs5UENJUTFXWGovdUdCSzJlL0VOMEJBR0FBQUhMcHlQWm5uR3ZTYTZNN0FLeWQ5VW0xemM2VkFLaW1ockxCd2RFWFJXY0FBSTVqQUFCeXhsMW1sdTBTLzMwQzVkSC8wSmtBL0ZlTktqSEpodjBtYTk2NUVKMENBRGpPb2dNQVBOTDh6cTJ2ZGZmM1IzY0FhRCtmTTJYZk1JazdBbEFGNjNSbytGMjd1WlVOQUhLRTd5S0FIUEhtdVExMzN4bmRBYUF6ck9GS201ejVIZVdYWE5uUTRrOUVad0FBSG9rQkFNaVJ1WlM5WGRLL2krNEEwRGsyNUVvYmVSUTZ5czNHL0F1ajEzM3FMNkk3QUFDUHhBQUE1TVRjenFjOXljd3ZqZTRBMEhrMkxLVU4zQWVBY3JJK3VZME9QanU2QXdEd1dBd0FRRjU0enkyU0d0RVpBTHJEUmwyMm5oRUE1V1ByOUVlRHpZOTlJN29EQVBCWURBQkFEc3p2UFB2L2svU0s2QTRBM1pYR1hXbU1FUURsWVVOYWJBeU5YQmpkQVFBNE1RWUFJSmczbGR4dGx6Z1dES2drVysreVVVWUFsSUJKR3M2dXRPYWRTOUVwQUlBVFl3QUFnczJscmI4ZzZkem9EZ0JCN1BoNUFEYk1DSUJpczNXNmYrakdtWnVqT3dBQUo4Y0FBQVRhM3p4bm5abHZqKzRBRUM5dGRObFFkQVd3U2oxU0d0S0xvak1BQUkrUEFRQUkxSjkwdGFRblJIY0F5QUdUMHFaTWFuQWxBSW9uamZydXhyVzcvekc2QXdEdytCZ0FnQ0JIcnp2MysyWDZsZWdPQURsaVVtMnp5K3FNQUNnTzYzZHZqUHB6b3pzQUFLZkdBQUFFeVpaYXQwanFqZTRBa0RNbXBjMHU5VE1Db0FCTThqRzl6NW96QjZKVEFBQ254cW5qUUlBajE1N3pRc3YwcDlFZEFIS3NKV1ZmUy9KajBTSEF5ZG13THd6KzJuVERUQ3hXQUZBQVhBRUFkSm0vNTl4ZXkvVE82QTRBT1ZlVDBwWk0xaE1kQXB5WUphbHZSTC9BaDM4QUtBNEdBS0RMNXUvTDNpVHBqT2dPQUFYUUk5a1RNNGtSQUhrMDZ0L291Mzc2ZDZJekFBREx4d0FBZE5HaDVsa2JKSitJN2dCUUhOWXIxYmE0bFBpU0ZmbGhQYTdleGdBSC93RkF3VEFBQUYzVVUwczdKYTJMN2dCUU1IMnV0RVV5UmdEa3hiait2di82dXo0WG5RRUFXQmtHQUtCTERsOTd6amt1L1pmb0RnREZaQU11Mnl5TzcwVzh1bWVEUTZNWFJHY0FBRmFPQVFEb2twUnBsNlJhZEFlQTRySzZLMjF5UmdERU1hazJwbmRZODg2RjZCUUF3TXJ4RmdMb2dybnRaMThvcy84WjNRR2dIUHl3bEgwemliUFgwVzFwMUE4UHZudDZPTG9EQUxBNlhBRUFkSmpmOHN5Nmt0MFkzUUdnUEd4SXNnMWNDWUF1cTBrYXluNHlPZ01Bc0hvTUFFQ0hMY3d0dkZXdTc0N3VBRkF1YWNTVlR1TVNBSFJQR3ZWL0dyeCs5aytqT3dBQXE4Y0FBSFRRM002enQ3ajc1ZEVkQU1ySjFyblNPQ01BdXFCUHN0TjZuaDJkQVFCWUd3WUFvSlBjYnBJMEdKMEJvTHhzdmN2R0dBSFFXYlV4LzkrTmlidS9HdDBCQUZnYkJnQ2dRK2EyYjMybUpPNlZCTkJ4YWIzTFJoZ0IwQmsycUtYNjRPZ3JvanNBQUd2SEFBQjBnRGVWWkw1TEhORUZvQnRNU2h0Y05zd0lnRFl6cVRhNnRNMmFkeTVGcHdBQTFvNEJBT2lBaFhUMjZ5VDlVSFFIZ0FveEtXMTAyU0FqQU5ySFJueC8vWVk5MTBkM0FBRGFnd0VBYURPLzhZeGhOOXNaM1FHZ2dreEttMXhXanc1QktkU2tiSjI5TkRvREFOQStEQUJBbTgwZnJVOUlPajI2QTBCRkpjazJaOUpBZEFpS3prWjl6OGlPM1IrTjdnQUF0QThEQU5CR0M4Mm5mNjlNYjQ3dUFGQnRscVRhNWt6cWl5NUJZZlc3RDY0N3htUC9BS0JrR0FDQU5zcFM3UlpKL2RFZEFLQ2FWTnZpc2o3T0JNREtwWFgrTzlhODU0SG9EZ0JBZTNGQ09kQW04enZPZW80cmZUaTZBd0FlWVVscWZUVkpuT0dPWmJJaFB6cjQ2OU4xTTdFZUFVREpjQVVBMEFiK2dWZlZwTnF1NkE0QWVJd2VLVzNKcEI0K3kyRVprbFFiOFYvbHd6OEFsQk1EQU5BRzg1Ly8waSs3L09uUkhRQndJdFluMVRhN1ZJc3VRZDZsVWYxci9ZYVozNHp1QUFCMEJnTUFzRVlIcm4vNm1PUlhSM2NBd09QcWw5TG1UTVp2ZnB4TWo5VFRtODZQemdBQWRBNXZBNEExNmx1cTdaQzBQcm9EQUU3RkJpUTdQZU1FSUp4UUdzMCsxbi96Sno4ZDNRRUE2QndHQUdBTmpsNjM5UWNrWFJUZEFRRExaUTBwYlhKR0FEeUMxWlUxbnJUdnZPZ09BRUJuTVFBQWE3RFU4bHNsOVVSM0FNQksySkFyYmVTTU4veWJOSmE5Mnk3OTJueDBCd0NnczlqL2dWVTZzdU9jbDVuMHY2STdBR0MxL0tBcHU0KzNBbFdYUnZ6STRLOU5EMFYzQUFBNmp5c0FnRlh3NXBsOUp0MFUzUUVBYTJHakxsdlBsUUJWWnNtVk5mUzY2QTRBUUhjd0FBQ3JzTkRUZDZta3AwUjNBTUJhcFhGWEdtTUVxQ29iMVQ4UDN6VDl3ZWdPQUVCM01BQUFLM1Q0MnFkdHpOemZIdDBCQU8xaTYxMDJ5Z2hRT2IxU2VwS2VIWjBCQU9nZUJnQmdoY3g3YmpCcEpMb0RBTnJHcFBRRVZ4cGhCS2dTSC9NL3IxODJmVzkwQndDZ2V4Z0FnQlU0Y3UxWnp6RFh6MFIzQUVEYm1XUWJYRGJNQ0ZBRlZsZHJlR2owcGRFZEFJRHVZZ0FBbHNsZFpsbTZUZngzQTZDc1RNY2ZEOWlJRGtGSG1XU2oybW5OTzVlaVV3QUEzY1d6ZjRCbG10OSs5bXZjN0hlaU93Q2c0MXpLdm03eWVkNG1sSkdOK29HaGQwK1BSWGNBQUxxUGJ6S0JaZkJibmxsM3MydWpPd0NnSzB4S20xMGE0SGFBMGtrdURldVYwUmtBZ0JnTUFNQXl6QjJaZTd1a2Z4ZmRBUUJkazZUYVpwZjFSWWVnbld3czNUTjAzZlNIb3pzQUFERVlBSUJUbU52NXRDZVo3QzNSSFFEUWRUVXBiY2xrdmRFaGFBZnJrdzhtUFN1NkF3QVFod0VBT0JYdmVhYzRFZ3RBVmZWSXRpV1RlcUpEc0ZacHhEOWc3NXphRjkwQkFJakQ2VDdBNDVqYmZzNlB5UFJSOGQ4S2dLbzdhbXA5M2FSV2RBaFd3d2I5Mk9EdDB3Tm00bUFIQUtnd3JnQUFUc0tiU2pMZEpqNzhBNERVNzBxYlhaYjQvRmc0SnZVTXAwdjQ4QThBWUFBQVRtS3VkdmJQU3pvM3VnTUE4c0lHWExaRk10NDlGSXF0ODI4TjNEUjFlM1FIQUNBZXY4S0JFL0RtZnh3eHFSbmRBUUI1WXdNdU85MjVOcW9vYXBMNmVpNkl6Z0FBNUFNREFIQUM4N1dqVGNrMlJYY0FRQjVadzVVMk1RSVVRVnFYZlh6b0hYZlBSSGNBQVBLQkFRQjRsSVhtTTU0czZWZWlPd0FnejJ6SWxUWXdBdVNaOVh2VytQNzduaFBkQVFESUR3WUE0Rkc4bHQwbXFTKzZBd0R5emtaYzZiUXNPZ01uWXBLTjJIK3ppNzR4RjUwQ0FNZ1BkbnZnWVJhdU9lZThMT212b3pzQW9FajhmbFAyQUc4cGNtVlk4OE8vdnJzUm5RRUF5QmV1QUFBZTR1ODV0emRMZW5kMEJ3QVVqYTEzMlJoUG1Nc0xTMUp0WGZhejBSMEFnUHhoQUFBZU1yOTM2WTJTem9qdUFJQWlTdXRkTnNJSWtBdWovcFhHdFROM1JHY0FBUEtIQVFDUWRPaTZyVStRMjJSMEJ3QVVsa2xwbzh1R28wT3F6WHFsMm1uRHo0cnVBQURrRXdNQUlLa244NTJTMWtWM0FFRFJwWTJaYkpBckFjS3M4NytwVDM3a242TXpBQUQ1eEFDQXlqdDg3VG5udU92bm9qc0FvQlJNU3B0Y1ZtY0U2RGFycXpVNFBQcUM2QTRBUUg0eEFLRHlVcVpka21yUkhRQlFHa215elM0YllBVG9HcE5zMUsrejVwMUwwU2tBZ1B6aW1UMm90TG1kNTd4S3JnOUVkd0JBS1dWUzYydEpPaG9kVWdFai91RHdyMDJQUm1jQUFQS05Ld0JRV2Q1ODFvQ2ttNkk3QUtDMGtsVGJrc242dUJLZ28ycFN6MURyNWRFWkFJRDhZd0JBWlMzVURyNVZydStPN2dDQVVxdEphWXVrM3VpUThxcXQwK2ZxTit6NXUrZ09BRUQrTVFDZ2t1WjJucjNGNVcrTDdnQ0FTdWh4cFMwWnA2MTBnUFhKNjAvd0g0M3VBQUFVQXdNQXFzbnRSa21EMFJrQVVCWFdlL3gyQUNWdUIyaW5OS1lQMnBYVGU2TTdBQURGd0NHQXFKeTU3VnVmS2ZPUGlYLy9BYURyZkVIeXJ5ZDVGbDFTZkRhb3hjSGJkL2ViaVZVRkFMQXNYQUdBU3ZHbWtzeDNpUS8vQUJEQ0JpVGJuUEVxdkZZbXBSRi9DeC8rQVFBcndRQ0FTbG1vbmYyemtuNG91Z01BcXN6cVVqcWRFV0F0MHFqdmJkdzQvZTdvRGdCQXNUQUFvREw4eGpPR1hYWnRkQWNBUUxKQktXM2t5K3RWcVVtTHc3MHZpTTRBQUJRUEF3QXFZLzVZNHlwSnAwZDNBQUNPczJGWDJzQUlzRkpwblUrdHUvWVRuNHp1QUFBVUR3TUFLbUdoK2ZUdmxmemk2QTRBd0NQWnFDdWR4Z2l3YlAzdWpkRmp6NHJPQUFBVUV3TUFLaUdyMWQ0cHFUKzZBd0R3V0RibVNtT01BTXVSMXZsdldQT2V3OUVkQUlCaTR2Z2RsTjc4anJPZTQwb2ZqdTRBQUR5K2JLL0pEL0RXNUdSc1NBdER0Kyt1UjNjQUFJcUxLd0JRYXY2QlY5V2sycTdvRGdEQXFhWFRYR2swdXVML3RYZDNJWExkWlJ6SGY4Ly9UUFpsZGw2U1RVMlQzYlNVVXJ3d1Rib05nb3BnaTdYb1ZiMHFDQ0o2WVZHUkZ0OUFRcFN1NlNZMUlZMnBKSzNnaFNERml5cW9JTjZJZUZGSmtacHNTaXRhSzcyeGFTTWlhVWwzZHZPeS84ZUw5cUxFMk94dVp2WTU1OHozY3hlUzNma0dCbWJPYjg0NVUxSkpLdHJMRDBSbkFBQ3FqUUVBdGJiNHQ3OS94ZVU3b3pzQUFDdGdrcjB2eTlwY0RuQWw2K1F6NHdlZmZ5cTZBd0JRYlF3QXFLMDNIdDI1U1dZUFIzY0FBRmJCM3ZsNndHWjBTSWswcE54cDNCT2RBUUNvUGdZQTFOYkljbU9mcEJ1aU93QUFxMlJTTVpWbFhPMHVTYkt1L3RDWisvTkwwUjBBZ09wakFFQXRYVGh3NXdmay9xWG9EZ0RBR3Bsa1Uzbm92Ny9GeGoxUGRDOThLcm9EQUZBUERBQ29wWngxUk5LRzZBNEF3TnBaa29ycExCdmlFU0IxOGlHYi9jdkY2QTRBUUQzd1hUdW9uWVc1bVUrYjYxZlJIUUNBUHJrczVWZVQvRkoweVBxeXRzNjNqcC9xUkhjQUFPcURNd0JRS3o2N1k4U3lEa1YzQUFENnFDSFpkSmFLNkpCMWxGdzJtajhUblFFQXFCY0dBTlRLWXRINHVrenZqKzRBQVBTWGJaRFNkaCtlRWFDcmx5ZU9uUDV0ZEFZQW9GNFlBRkFiYisyLy9VYVQ3WW51QUFBTWhvMjRpdWxjKzNjdnRzRzl0V1hwcnVnT0FFRDkxUHdsRk1QRWN1TlJsN3JSSFFDQUFScVYwbFNXMWZnZGpIZjkxN2IzcjY5SGR3QUE2b2ViQUtJV0Z2YnYybTA1UFNkR0xRQVlDdDR6NWRkTTh1aVMvckttTGs4OGVXckVyRzcvTXdCQUdYQ3doTXB6bDFrdWpvcm5Nd0FNRFd1NjBsYXYxMGNaSnVWMjNzdkJQd0JnVU9yMHNva2h0VGczODFsM1BSWGRBUUJZZjM1ZXltZnJzZjlheC8vVE9qWi9RM1FIQUtDKzZ2R0tpYUhsUno0eTdxNEQwUjBBZ0JqV2x0S1dHbnhnbmx4NW9uRmZkQVlBb040WUFGQnB2WVhlSGtrM1IzY0FBT0pZMTJXVDFSNEJiS09lN3h4ODdrUjBCd0NnM2hnQVVGbTl1ZHR2TXRrM296c0FBUEhTWmxmYVZNMFJ3RWJrRTZPSnIvMERBQXdjQXdDcXl4dUhKVFdqTXdBQTVXQ2JYZGF0M2doZ1hmK3BIVHo1Wm5RSEFLRCt1QWtnS3FtM2IrYWpNajBqbnNNQWdDdmtzMGwrUHJwaVphemxGMXBQekk5RmR3QUFoZ05uQUtCeWZGWkpwcVBpNEI4QWNCWHB4aXlicU1DWkFDWloyeCtNemdBQURBOEdBRlJPTDgxOFVkSUhvenNBQUNWbFV0cm1VclBjSTBEcStHc1RCMC8vT0xvREFEQThHQUJRS1Q3N29ZNlpmeSs2QXdCUWNpWVZVeTRiTCtrSTBIRGwwZkZQUm1jQUFJWUxBd0FxWlRGZGZGaXlyZEVkQUlBS01DbE51VFJhdmhHZzJLaG4yb2RQdkJqZEFRQVlMZ3dBcUl5bDJkMjN5ZnlyMFIwQWdBcEpVakh0c3BIb2tIY1o5VHgreS9sN296TUFBTU9IQVFDVjRVVitYTkpvZEFjQW9HSUtLVTFuV1NNNlJHL2YrSy9yUDdTSC9uRWhPZ1VBTUh5NGl6b3FZZW1ST3orUjViK0w3Z0FBVkpkZmt2SS9rN1FjMTJCdFgyZ2RuMi9GRlFBQWhobG5BS0QwZlBidWhzdVBSbmNBQUtyTk5rakZkcGRTMEQwQlRFcmo5cm1ZQndjQWdBRUFGYkJZbkh2UXBSM1JIUUNBR2hoeHBXbkpBa2FBMU0ydk5BK2YrdVc2UHpBQUFPOWdBRUNwdlRtN1kxS3k3MFIzQUFEcXc4WmN0azNyZXlGa1EycE9qdDYxam84SUFNRC9ZQUJBcVkwVUl3Y2tUVVozQUFEcXhacXV0QzJ2MndpUU51WGYyT3lmWGwyZlJ3TUE0T3E0Q1NCSzYveStPM1lVWnFjbGxlRyt6UUNBR3ZLM3BIdzJTUU84SXNDYWZubml5ZmtSczBFK0NnQUExOFlaQUNpdHd1eVlPUGdIQUF5UXRTVGI0b1A3U01Ta29xM3ZjdkFQQUNnRHpnQkFLZlhtWnU2WDYrbm9EZ0RBY1BBM1RQbmYvWDliWk8xOHJuWDhOSmV5QVFCS2dUTUFVRG8rZS9lWXBFUFJIUUNBNFdFYlhXbXl6eC9TSnltUEZmZjE5NWNDQUxCMkRBQW9uYVhHdVcvSmRVdDBCd0JndU5obWwyM3Ezd2hnWGIzWWVlemtIL3YyQ3dFQXVFNE1BQ2lWM3R3ZDArNzI3ZWdPQU1Cd1NwdGQxcm4rRWNBMnVFOXN2ZlN4UGlRQkFOQTNEQUFvRjdmdlMycEZad0FBaHBSSmFZdkwydGM1QW5UOVo3Ym5oWFA5aVFJQW9EKzRDU0JLb3plMys4UHlmRUk4THdFQTBWeGFmdDJraGRXL0pGblRMN1orTkQ4NmdDb0FBSzRMWndDZ0ZOeGw4dnk0T1BnSEFKU0JTY1ZXbDQydi91ZXNaUThOcEFrQWdPdkV3UlpLWVhIZnpCZmM5SlBvRGdBQTNzMnpsTThrYVdtRlA5RHhmN1dQelc4ZGFCUUFBR3ZFR1FBSTU3TTdXbTdhSDkwQkFNQ1ZMRW5GVkpaR1Z2Q1BDK25TUkxwMzRGRUFBS3dSQXdEQ0xhYkdYa2xUMFIwQUFGeFZJUlhiczZ6eDNqY0dURjEvZHZMZ3lSZldxUW9BZ0ZWakFFQ29wZG1kdDhyMHRlZ09BQURlVXlHbG0xeHFYUDJ2YlZTNWVmTnQ5Nnh2RkFBQXE4TUFnRkE1RlljbEc0dnVBQURnbWhwU21zN1NWYzRFU0cwL2J0LzQrV0pBRlFBQUs4Wk5BQkZtOFpGZEgzZWwzMGQzQUFDd0toZWs1VE5KV243N2o5WlNyL1hFcVluWUtBQUFybzB6QUJEQ243Ni9jS1VmUkhjQUFMQnFvMUtheXJJa0tVbHAzRDhmblFRQXdFcjhueXZaZ01IcXZmVHlsMDNhRmQwQkFNQmEySmhrMjF5KzRLODBIenY5aStnZUFBQlc0cis4MWk0amJlODFqQUFBQUFCSlJVNUVya0pnZ2c9PSIgcHJlc2VydmVBc3BlY3RSYXRpbz0ibm9uZSIgaGVpZ2h0PSI3NDQiIHdpZHRoPSIxMDI0IiBpZD0iaW1hZ2UwXzMzMTlfOTExMyIvPiYjeGE7ICAgIDwvZGVmcz4mI3hhOzwvc3ZnPg==;fontColor=#FFFFFF;spacingTop=-6;" parent="1" vertex="1">
          <mxGeometry x="364" y="483" width="29.009999999999984" height="34.99999999999998" as="geometry" />
        </mxCell>
        <mxCell id="tk96eruObW772T1n_iph-19" value="100.XX.0.1" style="text;html=1;align=center;verticalAlign=middle;whiteSpace=wrap;rounded=0;fontSize=10;fontColor=#FFFFFF;" parent="1" vertex="1">
          <mxGeometry x="279" y="351" width="60" height="30" as="geometry" />
        </mxCell>
        <mxCell id="tk96eruObW772T1n_iph-22" value="192.168.1.1" style="text;html=1;align=center;verticalAlign=middle;whiteSpace=wrap;rounded=0;fontSize=10;fontColor=#FFFFFF;" parent="1" vertex="1">
          <mxGeometry x="418" y="351" width="60" height="30" as="geometry" />
        </mxCell>
        <mxCell id="tk96eruObW772T1n_iph-33" style="edgeStyle=orthogonalEdgeStyle;rounded=0;orthogonalLoop=1;jettySize=auto;html=1;exitX=0.5;exitY=0;exitDx=0;exitDy=0;entryX=0.5;entryY=0;entryDx=0;entryDy=0;fillColor=#d5e8d4;strokeColor=#F35E32;fontColor=#FFFFFF;endArrow=blockThin;endFill=1;" parent="1" source="tk96eruObW772T1n_iph-19" target="tk96eruObW772T1n_iph-22" edge="1">
          <mxGeometry relative="1" as="geometry" />
        </mxCell>
        <mxCell id="kU3IDCsIoFBLPOvx1m8k-11" value="router-1" style="shape=image;verticalLabelPosition=bottom;verticalAlign=top;imageAspect=0;aspect=fixed;image=data:image/svg+xml,PHN2ZyB4bWxuczp4bGluaz0iaHR0cDovL3d3dy53My5vcmcvMTk5OS94bGluayIgeG1sbnM9Imh0dHA6Ly93d3cudzMub3JnLzIwMDAvc3ZnIiBmaWxsPSJub25lIiB2aWV3Qm94PSIwLjUgLTEuNSA2MyA3NS42NzQ0OTk1MTE3MTg3NSIgaGVpZ2h0PSI3NS42NzQ0OTk1MTE3MTg3NSIgd2lkdGg9IjYzIj4mI3hhOyAgICA8cGF0aCBzdHJva2UtbGluZWpvaW49InJvdW5kIiBzdHJva2UtbGluZWNhcD0icm91bmQiIHN0cm9rZS13aWR0aD0iMyIgc3Ryb2tlPSJ1cmwoI3BhaW50MF9saW5lYXJfMzMxOV85MTEzKSIgZD0iTTIgNDUuNDk0MUwzMi4wMTQ3IDU5LjA5NzlMNjIgNDUuNDk0MSIvPiYjeGE7ICAgIDxwYXRoIHN0cm9rZS1saW5lam9pbj0icm91bmQiIHN0cm9rZS1saW5lY2FwPSJyb3VuZCIgc3Ryb2tlLXdpZHRoPSIzIiBzdHJva2U9InVybCgjcGFpbnQxX2xpbmVhcl8zMzE5XzkxMTMpIiBkPSJNMTYgMjQuNUwyIDMxTDMyLjAxNDcgNDQuNjAzOEw2MiAzMUw0OS41IDI0LjUiLz4mI3hhOyAgICA8cGF0aCBzdHJva2UtbGluZWpvaW49InJvdW5kIiBzdHJva2UtbGluZWNhcD0icm91bmQiIHN0cm9rZS13aWR0aD0iMyIgc3Ryb2tlPSJ1cmwoI3BhaW50Ml9saW5lYXJfMzMxOV85MTEzKSIgZD0iTTIgNTkuMDk5NkwzMi4wMTQ3IDcyLjY3NDVMNjIgNTkuMDk5NiIvPiYjeGE7ICAgIDxyZWN0IGZpbGw9InVybCgjcGF0dGVybjBfMzMxOV85MTEzKSIgaGVpZ2h0PSIzMSIgd2lkdGg9IjQyIiB4PSIxMyIvPiYjeGE7ICAgIDxkZWZzPiYjeGE7ICAgICAgICA8cGF0dGVybiBoZWlnaHQ9IjEiIHdpZHRoPSIxIiBwYXR0ZXJuQ29udGVudFVuaXRzPSJvYmplY3RCb3VuZGluZ0JveCIgaWQ9InBhdHRlcm4wXzMzMTlfOTExMyI+JiN4YTsgICAgICAgICAgICA8dXNlIHRyYW5zZm9ybT0ibWF0cml4KDAuMDAwOTkyMDYzIDAgMCAwLjAwMTM0NDA5IC0wLjAwNzkzNjUxIDApIiB4bGluazpocmVmPSIjaW1hZ2UwXzMzMTlfOTExMyIvPiYjeGE7ICAgICAgICA8L3BhdHRlcm4+JiN4YTsgICAgICAgIDxsaW5lYXJHcmFkaWVudCBncmFkaWVudFVuaXRzPSJ1c2VyU3BhY2VPblVzZSIgeTI9IjU5LjA5NzkiIHgyPSIzMiIgeTE9IjQ1LjQ5NDEiIHgxPSIzMiIgaWQ9InBhaW50MF9saW5lYXJfMzMxOV85MTEzIj4mI3hhOyAgICAgICAgICAgIDxzdG9wIHN0b3AtY29sb3I9IiNGNjgzMzAiLz4mI3hhOyAgICAgICAgICAgIDxzdG9wIHN0b3AtY29sb3I9IiNGMzVFMzIiIG9mZnNldD0iMSIvPiYjeGE7ICAgICAgICA8L2xpbmVhckdyYWRpZW50PiYjeGE7ICAgICAgICA8bGluZWFyR3JhZGllbnQgZ3JhZGllbnRVbml0cz0idXNlclNwYWNlT25Vc2UiIHkyPSI0NC42MDM4IiB4Mj0iMzIiIHkxPSIzMSIgeDE9IjMyIiBpZD0icGFpbnQxX2xpbmVhcl8zMzE5XzkxMTMiPiYjeGE7ICAgICAgICAgICAgPHN0b3Agc3RvcC1jb2xvcj0iI0Y2ODMzMCIvPiYjeGE7ICAgICAgICAgICAgPHN0b3Agc3RvcC1jb2xvcj0iI0YzNUUzMiIgb2Zmc2V0PSIxIi8+JiN4YTsgICAgICAgIDwvbGluZWFyR3JhZGllbnQ+JiN4YTsgICAgICAgIDxsaW5lYXJHcmFkaWVudCBncmFkaWVudFVuaXRzPSJ1c2VyU3BhY2VPblVzZSIgeTI9IjcyLjY3NDUiIHgyPSIzMiIgeTE9IjU5LjA5OTYiIHgxPSIzMiIgaWQ9InBhaW50Ml9saW5lYXJfMzMxOV85MTEzIj4mI3hhOyAgICAgICAgICAgIDxzdG9wIHN0b3AtY29sb3I9IiNGNjgzMzAiLz4mI3hhOyAgICAgICAgICAgIDxzdG9wIHN0b3AtY29sb3I9IiNGMzVFMzIiIG9mZnNldD0iMSIvPiYjeGE7ICAgICAgICA8L2xpbmVhckdyYWRpZW50PiYjeGE7ICAgICAgICA8aW1hZ2UgeGxpbms6aHJlZj0iZGF0YTppbWFnZS9wbmc7YmFzZTY0LGlWQk9SdzBLR2dvQUFBQU5TVWhFVWdBQUJBQUFBQUxvQ0FZQUFBRG0yb2RXQUFBQUNYQklXWE1BQUN5T0FBQXNqZ0ZTbFRxbEFBQUFHWFJGV0hSVGIyWjBkMkZ5WlFCM2QzY3VhVzVyYzJOaGNHVXViM0pubSs0OEdnQUFJQUJKUkVGVWVKenMzWHVZbkhWOS8vL1grNTdkWkdaMkV3NEtDTFZWT1V1RWJFaXJQMDlmdFZYdzdOY0R0UGJndDYxdCtkbCtDNUVpaG1SM0daSUFVazhVYXlzZVdpbld0cURWcXFnVkQzaWdGT3BtWndOQk9ZaEFTRWl5U1hhejJkM1p3OXlmOSsrUEJINGNFcExkblozUFBUUFB4M1Y1WFpMc3pqeGhEek9mOTMzZm45c0VBQUFBNEpBTVgzbjZFYm5wNUxoMlM0NTExM0Z1NFZnek85NWR4MGs2VnRJSmtnNlBuQWtBVDJPdW15eDJCQUFBQUpBVlhsclNPWjYwbldTSm5XaXVFNFBaaWVaK29xUmZsWFNjcElXUkV3RmdOcVlUaGRQYllsY0FBQUFBOWVUWG5MaHdmTGpqTkV2c1JKTk9DcTRUVFhhaUZFNnF5SjVqa3VTU1N6TDN5TFVBVUJOL20rL1pjQThEQUFBQUFEU3RzZEt5NDNJNW5SYmtTeVJmTHRscGxkMTZrWmtXUHI3SWwvVEUvd2NBVFdiN1pLbzFrc1FBQUFBQUFBM1BQM3hHeDBSRlo3cmx1a3grdXN0UGwreEZrbmVHeHorS0JUNkExdU91bmlOSzVXR0pBUUFBQUFBYWpOOXdUbTcwNS9lZTJxWmt1U3NzbDlueXlvUitRNllGa212dlNmc3M5Z0ZBVXJsNDZrbWZrOHFTK00wSUFBQ0FqS3VVbHYrYXQ2VXZVZENMWlhxeHBPV1NPbUozQVVEV21kdXJDNzM5UDN6c256a0RBQUFBQUpreVZscDJuTFg1eTAxNmJRaDZoVnQ2R3Bmb0E4Q00zZkRFeGIvRUFBQUFBQUNSVFpST1A5NlR0bGNvOFplN2RKYmNuLy80Qm4wcytnRmdOaXFXNm9OUC9VTUdBQUFBQUtpcnNjdVhINXVrNmRsdWZyWmtyd3JTc1kvZmR3OEFNR2Z1OXRGaXFmL0JwLzQ1QXdBQUFBRE1LNy9obk56NHozL1JKUXR2TWVuTkN1bVpiakxPNlFlQWViRzVXRWcvdEwrLzRMY3VBQUFBYW03MDhoY2RrMHZiejNiek4wdDZuYVREWXpjQlFDc3cxKzhWZXN0ZjNPL2YxVHNHQUFBQXpXbjA4alBQc0JEZVlkTGJKWjBSdXdjQVd0QnRoZTd5eTgzMmYxRVZsd0FBQUFCZzF2YXNXYm9rTVR2SDNIOWJJWndhdXdjQVdsaVErWW9ETGY0bEJnQUFBQUNZQWIvaG5OekV2ZmUrMUlQT2tkazdKZjJLSkxickI0RElYTHF1bzN2Z2ptZjZHQVlBQUFBQWVFYnVzc3JhcnBjcDBlOVc3cm52dHlWN0ZoZVNBa0NtN0ZHU1czMndEK0pYTndBQUFQWnI4b3JscDFiVDlIZk05SHR5blJpN0J3QndJTDZ5MkROdzFjRStpak1BQUFBQThMaVJLMTc4ckZ4MTZwMW1laythcGk4M1NRZSttaFFBRUozcGdjTGlzYXNQNVVNWkFBQUFBTFE0THkxWlVHbHJmNXZKM3V2cDFHdGx5c1Z1QWdBY0duZjlsWjEvLytTaGZDeVhBQUFBQUxTb2lTdVduaHpTNUk4bC95TkpSOGZ1QVFETWxIMi8yTlAvVzRmNjBad0JBQUFBMEVMOG1oTVhWa1k2MytxdVB3dXBma3R5RGdnQlFHTktnMWRYek9RVEdBQUFBQUMwZ0QxcmxpN0ptYzZyN0xiZmwzUUVxMzRBYUhpZjZ1eTk4ODZaZkFJREFBQUFnQ2JsSlNXVHVXVy9HZVFYU0hxVHVQd1RBSnJGVURYTmxXYjZTUXdBQUFBQW1veGZkY3FpOGNuQ3U4ZE5LMHord3RnOUFJQWFjKzlkWE9yYk1kTlBZd0FBQUFEUUpDWktweDhmY20xL1ZwbnlQelBURWJGN0FBQzE1NjY3aThlMFhUdWJ6MlVBQUFBQTBPREcxeXg3cWN4WEJ1bk5raWV4ZXdBQTh5Zm5XbUhuOVUzUDVuTVpBQUFBQURTb3lycWxyM0MzRDByKzV0Z3RBSUM2K0dyKzB2TE5zLzFrQmdBQUFBQU54RXRLeHR2T2VKTjUwdTJ1RjhmdUFRRFV6VlFpWFR5WEIyQUFBQUFBMEFDOHRHVEJSTExnZHlvS2w1amJxYkY3QUFCMTV2NnhmTy9BZlhONUNBWUFBQUFBR2ViWExtOGYzMTc5NDRxUzFaTC9LbmZ5QTRCVzVGc0xJWC9sWEIrRkFRQUFBRUFHZVVsSnBhM3JuWlhCOUFxVG5TaDU3Q1FBUUNRbXJiTFM3U056ZlJ3R0FBQUFBQm5pTHF0YzN2V3VpbXV0WEtmRTdnRUF4R2JyODJuNXVwbzhVaTBlQkFBQUFITTNzWGJaYTRQOHJ5VXRpOTBDQU1nRU53K3ZLdlJ1K0hFdEhvd3pBQUFBQUNJYlgzUEdTMlRKUjRQODViRmJBQUNaOHNWYUxmNGxCZ0FBQUFEUlRGeXg5T1NRMmpwSjd4Sm5aZ0lBbnF4aWFXNVZMUitRQVFBQUFFQ2Q3UzR0T2JJOXQrRGlrUG9LU1F0ajl3QUFzc2RrVnhaS2ZRL1g4akVaQUFBQUFOU0psNVlzcU9UYTN5ZXBKUG5oc1hzQUFGbGxtL0pwOHRGYVB5b0RBQUFBZ0RvWVg3djBIUlhaeHlROUwzWUxBQ0RqUEZ4a3BmN3hXajhzMTVvQkFBRE1vNG0xWFNlNTYyL2M5SWJZTFFDQWhuQnJvYnY4U2pONXJSK1lNd0FBQUFEbWdaZVdGOGR6NmNWQldpbmpPbjhBd0NFSmJyWmlQaGIvRWdNQUFBQ0FtaHRiZDhaYktwNSt3ampkSHdBd0EyYjZiTEc3LzZmejlmZ01BQUFBQUdwa1ltM1hTVUgyS2JuL1p1d1dBRUJqTVdsM3RScDY1dk01R0FBQUFBRE1rWmRlM1ZiSkRmOUZrQzZYdkNOMkR3Q2c4Ymo1bWtXbERkdm44emtZQUFBQUFNekIySnFseXlvMi9CbEp5Mk8zQUFBYWxPbit3dUt4VDg3MzB6QUFBQUFBbUFVdkxTOVdjcUZYOG9zazVXTDNBQUFhbDdzdXNQUHZuNXp2NStFMmdBQUFBRE0wdXZiTTF5Y0tueEtiL0FFQTVzamszeTcwRE5UbFZyR2NBUUFBQUhDSXZMUzhXRW1xVjByaEw4V0JGQURBM0ZXcnJvdnE5V1FNQUFBQUFBN0IrTHF1bDFXVVhpZTNFMk8zQUFDYXhpY1c5UTVzck5lVE1RQUFBQUI0Qmw1NmRiNlMyMTJTYzYwL0FLQ21kazJuMCt2cStZUU1BQUFBQUE1ZzlQSXp6NmlFNGVzbG5SRzdCUURRWEZ5KzZyRFN4bDMxZkU0R0FBQUFBRS9oSlNVVGJWMHJQWVRMeFBzbEFFRHREUlJQT2ZtejBrQmRuNVFYTkFBQWdDY1l2ZnhGeDB4NCszWHVmbmJzRmdCQWN6SnBoWjE3WTFydjUyVUFBQUFBc00vWXVxNjNXZERuWFA2czJDMEFnS1oxWTZHbmZFdU1KMllBQUFBQVdwNlhYcDJ2SkVOWHljWHQvUUFBODhnbkxMV0xZejA3QXdBQUFORFNKdGVlK2NJSkRkOGcyWXRpdHdBQW1wdkxQbG9zbFIrTTlmeEpyQ2NHQUFDSWJYemQwcmNIaGR0Y1l2RVBBSmh2bTR2cDlJZGlCbkFHQUFBQWFEbGVlblZiSmJkN25kdy82TEZqQUFBdHdkeFhXbW5qYU5TR21FOE9BQUJRYitPbE01NnJYSEtEcEpmR2JnRUF0QXIvNzBMM3dNdk1GSFh1ekNVQUFBQ2daVlF1Vy9vYTVaS2Zpc1UvQUtCK1hLWUxZaS8rSlFZQUFBQ2dCYmpMS3V1V3JmVEV2aXZwbU5nOUFJRFc0ZEkvRmJzSDdvamRJYkVIQUFBQWFISmVlblYrZk4zd3RTWi9UK3dXQUVETEdWVnFxMkpIUElZQkFBQUFhRnJqNjViK1NzV0h2MkxTYjhSdUFRQzBIak83dkZqcTN4Szc0ekZjQWdBQUFKclMrTHF1bDhuMVU3SDRCd0RFWUhvZ1h6M3M2dGdaVDhRQUFBQUFOSjJ4TlYxL0l0Y1BKSHRPN0JZQVFLdnlpNngweTBUc2lpZGlBQUFBQUpxR3UyeHNiVmZKVEorUnRDQjJEd0NnVmRuM2k5MERYNGxkOFZUc0FRQUFBSnFDWDNQaXdzcTZ6bjh3NlhkanR3QUFXbG9hRW50LzdJajlZUUFBQUFBYTNzZ1ZMMzVXWmZmMFZ5Ui9aZXdXQUVETCsxVG42dlViWWtmc0R3TUFBQURRMENaS1o1NFlxbE0zeVhSeTdCWUFRTXNicXFhNVV1eUlBMkVBQUFBQUd0YjRtbVV2RFJhK0llbkkyQzBBQU1pc3RMalV0eU4yeG9Hd0NTQUFBR2hJRTVkMXZVN20zeEdMZndCQUJyajBzOEpSeWQvSDduZ21EQUFBQUVERHFheFordnNoMFUyU09tTzNBQUFnU1I3OC9YWmUzM1Rzam1mQ0FBQUFBRFNVOGJWZEY3alpkWkxhWTdjQUFMRFAxem92SGZqUDJCRUh3d0FBQUFBMEJIZlorSnBsSDVWMHRYZ1BBd0RJanFsRXVpaDJ4S0ZnRTBBQUFKQjU3ckxLdXE1UHlQd3ZZcmNBQVBBa3Jxdnp2ZVg3WW1jY0NnWUFBQUFnMC95R2MzTGo2Kzc3bkVuL0ozWUxBQUJQc1gxaVFlNksyQkdIeW1JSEFBQUFISWlYbGl5b0pHMWZsTms3WTdjQUFQQlU1djdlUXUvQVA4VHVPRlJjUHdjQUFETEpyemx4WVNWcHY0SEZQd0Fnby9yelllRHpzU05tZ2tzQUFBQkE1dmpIWGxxb2pJeC9YYWJmaXQwQ0FNQit1Sm1mYnlXRjJDRXp3UmtBQUFBZ1UveWFFeGRPakZXK0pEY1cvd0NBclBxWFF2ZkFUMkpIekJSbkFBQUFnTXp3MHBJRkU4UHRYM2JURzJPM0FBQndBQlV6V3hVN1lqWVlBQUFBZ0V6dzBwSUZsVno3bHlXOUtYWUxBQUFIWW1ZZktuVDNQeFM3WXphNEJBQUFBRVRuMTV5NGNDTFgvaFZKYjQ3ZEFnREFNM2c0WDAwK0VqdGl0aGdBQUFDQXFQeUdjM0tWM1ozWHV6anRId0NRY2VZWFc2bHZQSGJHYkRFQUFBQUEwYmpMeHUrNTkxcEo1OFJ1QVFEZ0lQNnJzSHJnaHRnUmM4RWVBQUFBSUpyS3VxNlBtdlRlMkIwQUFCeEVjTE1Mek9TeFErYUNBUUFBQUloaWJHM1hGWkxlSDdzREFJQ0RNZWx6eGU3K244YnVtQ3NHQU1BekdMN3k5Q01rYWVGazdqQlRtaWlYeTZXZUxKWWtTOExDeEswb1NhbTgwMHp0a3VTdXcrVXlTVzFtdnVpQUQrNDZYSmJZZ2Y3YTVJdGROdklNZjE5eCtjUUJIOTV0U0pJUzJZUW5YcEdrWk4rZkJmZUtLNWxRcnVxNWFSK1dwS3J5NDlXRkU1UEJGb1FqVi9idFBtQTNBTlRBK0xxdWkrUzZKSFlIQUFBSDQ5SklTS285c1R0cTRZQ0xENkNSN1ByUThzUHlFOU9MY3JtMlJhbFhGeWVXV3hUTWo3RGdpOXhza1VtZExsc2tEd1ZMTE85dWg4bDlnWnNXbVZTVXRGRFM0Wkl0a0x4VFVvZWtCWEgvcmFLYmxqUXFhVVR1RlptTlNiYmIzQ3R1R2pkcDJLWHh2WCtuWVNrWmQvZUtKZHJ0cnJIRWZLUWFOSlNFWktpb1pMaVJOMHNCVUZ2ajY1Yit0dHkrS1BZaUFnQTBCTHVvMk5QLzBkZ1Z0Y0FBQUpuZ0gzdHBvVEkrZm1RSTRjaWMybzRNNWtjazdrZDZZa2U2NjhqRS9BaDNPOUpOUjVqN0luZGJiR2FMSkY4azZmRFkvVGdrazVLRzVUNGtzeUZ6RGJ0cFNOS1FTOE1tRzlvN1ZBaERGalNVV3RpaGtCL3NPTzM1ZzNidWpXbnNlQUMxVVZtMzdIKzUrM2UwZC9BS0FFRFcvYUp3Mk9nU08vLyt5ZGdodGNBQUFEWG4xNXk0c0RMUzhld1FrbWUzV1RqR3pZNXkxN1BkN2RtSitURXVIU1haczB4K2hFdEhTbjZrWlBuWTNjZ3NselRvcmgxbUdwUnNxeFMybTVMQm9MQmRabHN0YUVkaTJyNXdRV1dyZmZDZVBiR0RBZXpmNUJYTFRrdFQvNG1rSTJLM0FBQndLRnorbG82ZWdXL0U3cWdWQmdBNEpQNnhseFltUjBhUERVbnVXSmtmSXlXLzRxNmpsZWc0YzMrMnBHZExPc3FsWTB4YUhMc1hyY3ducEdSUThrY2xiWkY4azZUTjV0b3NKWnZNZk12Q2pzSWpkdUZ0bGRpbFFDc1p1M3o1c1JiUzJ5UTlMM1lMQUFDSHdxWHZkdlNVWHhlN281WVlBTFE0THkwdlR1YW1mOVdESGFkYzhseVhIeVBYY1pLT2x2UmNsNDVPcE9OY09peDJLMUJqTzdWM01MQkppVFpMdGxrZU5xVkJXOXoweVBTQ3RrZllEQkdvRGIvcWxFV1ZxY0lQSlMyTDNRSUF3Q0dxcGtsWXRtajFocnRpaDlRU0E0QW05dGhSZStYYWpuZlhjVzdoV0xtT2s5bXhrbzZYZEp5azU0anZBK0FBZkVKbVc5ejFRR0o2d04wZmtOa0RIcElIaXNGK3hzYUd3TUg1dGN2Ykp3YkQxOTM5N05ndEFBQWNNdGZWeGQ1eTA5MnFsb1ZmZy9LU2tvck9PRTVKOGp4TDlIeTVmazJ5NThuOTE0TDBQRE05WDN0M3R3Y3dQMUpKajhqMGdNdCttYmcvNEdZUFNQYkx0RnA5WUZGcHcvYllnVUJzN3JMeGRWMmZNK21QWXJjQUFEQUR1NnE1QlNjdlhuWEh6dGdodGNZQUlNUEdTc3VPUzVMMEJDazVJZXhkMEwvQXBGL1QzdXNubnl2dHZlODhnRXdhbFhTL3BIdmQvZWVtNUdldWNFOHh0TjNEbVFOb0ZXTnJ1MG9tWFJxN0F3Q0FtWEMzOTNYMDluOHFkc2Q4WUFBUWtaZGUzVGFwbmIrbVhOdnhxZnZ4Wm5hODVNZHI3K241SjB0YUZEa1J3UHdZa25TM21UYTYrd051Zm5ldTZoc1hYbnJuTDgza3NlT0FXcWlzNmZwZE4zMUJ2TmNBQURTV0RZVlRUanF6V1c5RHpZdnlQUFBTOHVKWU1uV0NXZTRFazUxZzhoT0NkSUpKSjJqdmtmeTIySTBBc3NHbEVaUHVrZnpuWnZaemw5MlR1RzlZbUpaL1lTV0YySDNBb1JwZHMyeHBZdjVmNGxJMEFFQ0RTWUxPeWw5YXZqbDJ4M3hoQUZBRC91RXpPc1lyYmFkYTRpZWJ3Z2xCZG9LNW5TRDVDZHE3MFI0QXpNV1lwTHZNTkJCY0d4SVBHeW9MMmpkd2x3SmswY2dWTDM1V1c1aTZRNjdqWTdjQUFEQWo3bDh1OWc2OEszYkdmR0lBTUFQRFY1NStSUHQwKy9HSmZJbWJUcE44aVV5bnlmVjhTVW5zUGdBdDUxR1hOcHI3M2Fha3I2clExM25xeVQ5djFsUFdrSDFlZW5WYnBXMzRPM0s5Sm5ZTEFBQXpOSm1reVl2eXBmWDN4dzZaVHd3QW5zSkxTaVp5Wnp3dlZkc3BpYVdubWR1cExyMVFlLy8zck5oOUFIQVFZNUxmYVdZYlF0Q0FKU29YaW9WK3UvQzJTdXd3TkwveHRWMVhTN29nZGdjQUFEUGwwdVVkUGVYdTJCM3pyV1VIQUg3dDh2YkpSNmQrTlcyekplWjJtcGtkNzY0bGtwWks2b3pkQndBMWxMcnJIalB2azZ6UHpQdnkxZW9kVnRvNEZUc016YU95WnVudnU5bjFzVHNBQUpnNTMxcEk4NmRZNmZhUjJDWHpyU1VHQUdPbFpjZmxjam90eUpkSXZseXkweVM5U05MQzJHMEFFTW1ZcExMYyt4Ni9mS0JuNEc3dVFvRFpHTDI4cXlzSnVsVnMrZ2NBYUVCbTlwNUNkMzlMRExHYmFnRGdWNTJ5YUh5eTQrUkV2c1FWbHJ2WmFiYjNpUDVSc2RzQUlPdE0ydTNTWFpMOXhDMjkxUzNjMGJuNnJtMnh1NUJ0STFlOCtGbHQ2ZFQvU0hwQjdCWUFBR2JPLzd2UVBmQ3lWamtJMHBBREFDOHBtY3gxblJCa1M5M0Q2U1k3WFltV3l2VUNOZWkvRXdCa2t1bEJ1VzUxdDU4RWhSOXpsZ0NleUc4NEoxZTU1Nzd2U25wMTdCWUFBR2JCNWVHbHhkNE50OGNPcVpmTUw1YTl0R1RCZUxMd2RGazRNNUV0ZC9tWmtwYUkwd3dCSUlZZGN0MnF4SDhrNlNlRjZoSHJyWFJMTlhZVTRoaGJzL1F5TSt1TjNRRUF3R3k0ZEYxSFQva1BZM2ZVVTZZR0FIN3Q4dmJSYmRXVDI1UXNkNFhsTWx1Kzc1cjlmT3cyQU1CK2pVdnFmK3l5Z1dLMThNTlcyRUFIVW1YTnNsZTUrZmNrNVdLM0FBQXdDNk9lMmlrZHBmNHRzVVBxS2RvQWdNVStBRFNscXFRQnVkK3F4SDVTVFJaOGYvR3FPM2JHamtKdDdibGkyVkc1MU11U2pvdmRBZ0RBYkpocGRhRzdmRVhzam5xcnl3REFiemduTjNiZkw1WllDQytSL0NVbSszWHRQWTIvclI3UER3Q0lKa2k2VTY2YkUvT2JGM1lVZjJ3WDNsYUpIWVhaYzVkVjFuVjlWZEpiWTdjQUFEQkx2eXlraDU5bXBWc21Zb2ZVMjd3TUFNWXVYMzZzZlByWDVjbHlrNVpMZXJta0krYmp1UUFBRGFVcWFjQ2xiOGlUcnhmRCtuNHJLY1NPd3FFYlg3dnNyeVQvU093T0FBQm16OTlaN0JuNDk5Z1ZNY3g1QU9BZlBxTmpvcEw3ZFRkL3NXVC9qK1F2bHZUY0dyUUJBSnJmb09UZk05Zk5ucVEzRjd2djJoUTdDQWMydG03WnI1djdyWklXeEc0QkFHQldURDhvZHBkL00zWkdMRE1lQUl5V2Z1TTUxamI1RythNWwwditDa20vSWQ0SUFBQnF3ZlNBU2Q5MTZidVRWZDE4UktrOEhEc0plM2xwU1djbGFlK1Q2ZVRZTFFBQXpGSWFrdVRNenRYck44UU9pZVVaQndCZVVqTGFmc1pwU1pwN2hWbDRtV1N2a1BTQ09yVUJBRnBiVmJMYlRMbzV1SDJ6MkxOK3ZaazhkbFNyR2wvYjlRVkp2eGU3QXdDQTJUTHpUeFc2Qjk0WHV5T21KdzBBdktSa1BGbTYxQko3bFZ5dmtmUktjZTArQUNBYkhqSHpiNFEwK1ZyUkQvdEJLMjdjRTh2WXVxNjNtZXVyc1RzQUFKaURvV3FhTzNseHFXOUg3SkNZYlBUeXJxN0U5V29XL0FDQUJqSW0yWCthKzllcmJYYlRvbFg5ZzdHRG10VklhZm16MjNMcFhaS09pZDBDQU1Dc21WMVE3TzYvSm5aR2JHMzdGdjhmangwQ0FNQU1kRWorRGplOUk1ZDZHRi9iMWYvWW5RVTZldGYzeFk1ckptMjU5Ty9FNGg4QTBNQmMrbG54cU9UdlkzZGtnVW5TMk5xdUsweTZKSFlNQUFBMThFc3ozUndVdmxHc3B2OXBwWTFUc1lNYTFmaTZaZStXK3hkamR3QUFNQmRCeVJzNmU5Wi9PM1pIRmp5K0I4RDR1bVdma1B2L2pSa0RBRUNON1pMMExabDlwVkRNZjlNdXZLMFNPNmhSN0xsaTJWRzUxTytTZEhUc0ZnQUFaczN0NjhYZS9yZkd6c2lLeHdjQTdyTHhkVXMvWTdMM3hnd0NBR0NlVkNSOXo5eHV6QmZTTDlzSE5vekZEc3F5OGJYTHZpejVPMkozQUFBd0IxTkp6ay9QcnhxNE4zWklWano1TGdBM25KT3IzSFBmRnlXZEc2a0hBSUI2R0pkMGsxdTRuc3NFbnE2eXB1dDMzZlRQc1RzQUFKZ1QxMGVLdmVVUHhNN0lFbnZxSDNocHlZS0pwUDJyYm5wRGpDQUFBT3BzV1BLdnUvbU54YVBhdjIzbjlVM0hEb3JKUzBzNks3bjJleVFkRjdzRkFJQTUyRDdSbmp2NXlKVjl1Mk9IWk1uVEJnQ1M1S1hseFVvdS9aYWsvMVhuSGdBQVl0b2wrVTF1Zm1PeGV1UzNySFJMTlhaUXZZMnQ2YnJjVEt0aWR3QUFNQmNtKzVOQ1QvL25ZbmRrelg0SEFKTGtwWmNzcnVRbXZ5OXBlUjE3QUFESWlwMlNmN09WaGdHVnRXZTh3R1YzUzVhUDNRSUF3QnowRjlMeXIxdEpJWFpJMWh4d0FDRHQzUUU0U2YySEpyMndYa0VBQUdUUUkzTC9RcTR0dVg3aHF2NjdZOGZNRnpiK0F3QTBBek43VmFHNy8wZXhPN0xvR1FjQWtqUytidW12eU8zSGtsNVFoeDRBQURMTlhYZWIrVCtGSlAxODUrcTd0c1h1cVpYS1pVdGY0NGw5UDNZSEFBQno0LzlhN0JsNGQreUtyRHJvQUVDU0p0WXVQeUVvL1pIWUVBZ0FnTWVrTHYwZ2NicytINUl2V2FsdlBIYlFiTzI3QzlCNlNXZkViZ0VBWUE0cVp2YkNRbmYvUTdGRHN1cVFCZ0NTTkxIMmpGT0NraDlLT21ZZWV3QUFhRVREWnJvaEJQOVVSKzlBZit5WW1ScGIwL1huWnZwazdBNEFBT2JDcGNzNmVzcWwyQjFaZHNnREFFa2F2YnlyS3duNmdhVEQ1NmtIQUlCRzF5ZnArdWwwK3ZyRFNodDN4WTQ1bU9FclR6OWlRVFYzcjZSbngyNEJBR0FPSGlua3c2bjJnUTFqc1VPeUxKbkpCM2V1THBkbGVwTWsvcU1DQUxCL3l5VmQzWjVyMnp5K3R1dUdpYlhMWHVzK3M0RjdQUzJZVGtwaThROEFhSFJ1SDJEeGYzQ3pla015ZHRteU4xamlYNVcwb01ZOUFBQTBvM3RrL3VucGF2WHpXVG9yWUhMdG1TOU1GUVlrdGNkdUFRQmdEdjZyMEYxK2haazhka2pXemVnTWdNZDBYTnIvTFpuL2pxU212eWN5QUFBMWNJcmNQdHFlYTkveTJGa0JzWU1rS1NqOW1GajhBd0FhVzNEWENoYi9oMlpPcHlSVzFpeDdqNXYvbzJZNVNBQUFvRlc1OURPVFh6ZlZGajU5K0NWM0R0WDcrY2ZXTG51cnlmK2ozczhMQUVBdG1lbXpoZTd5bjhidWFCUnp2aVp4ZkczWEJaS3Vya0VMQUFDdGFJOUpYMGlVZkdKaHovcWYxZU1KdmJSa1FTVnB2MU9tayt2eGZBQUF6Sk05bnVSTzZWamQ5Mmpza0VZeDV5UDN4Wjd5MzVqWnBiV0lBUUNnQlMxeTZYMnB3dDNqYTd0K01yNnU2eHkvNFp6Y2ZENWhwYTE5Qll0L0FFQVRXTXZpZjJacXRpdngrSnF1cTJTNnVGYVBCd0JBeXpJOUlQZFBUNmZWejlSNjA4QTlwVE9PYnNzbDk3cDBXQzBmRndDQU92dEY0YkRSSlhiKy9aT3hReHBKemE3ZEwvU1VWNXJwMDdWNlBBQUFXcGJyZU1rKzFKNXJmMmg4WGRjbko2OVlmbXF0SGpwcHkxM0o0aDhBME9qY3d2dFovTTljVGU5TDdDVWxsVnpYRnlTOXU1YVBDd0JBaTNPWHZpY0wxM1IwYi9qNmJCOWtiTTNTWldiMlU3RjVMd0Nna1psL3I5ZzlrSWs3NmpTYW1nNEFKTW12WGQ1ZTJSYStMUE8zMVBxeEFRQ0F5dWIyOGZ3eHliL1llWDNUTS9uRThiWExmaVQ1SytjckRBQ0FPcWptY3JaMDRhcit1Mk9ITktLYUR3Q2t2YnNMVDdRdCtKcTduejBmanc4QUFQU29TNStlU25YMUVhWHk4TUUrdUhMWjB0ZDRZdCt2UnhnQUFQUG9iNG85NVJXeEl4clZ2QXdBSk1sTFN6b3J1ZmJ2U25ySmZEMEhBQUN0enFUZDd2NzNJWmRlM2JuNnJtMzcreGkvNFp6YytEMzNmZE9rcytyZEJ3QkFEZTJjVHFkUHJ2VUd1YTFrM3E0QnROTEcwWW4yM05tUyt1ZnJPUUFBYUhVdUhTYXpsVWxvZTNoODdkSi9tbGpiZGRKVFAyYmkzbnN2WWZFUEFHaDA3dXBsOFQ4MzgzWUd3R1AyWExIc3FGdzEvRWhtTmR2QkdBQUFIRkNROU9YVS9iSkZ2UU1ieDljdC9SVzUzU09wSTNZWUFBQ3o1YTY3aStId3BWYTZwUnE3cFpITit3QkFrc1pMWnp4WGJjbVA1WHArUFo0UEFBRElKZDJrYVZ1a2RuOVY3QmdBQU9ZaWtaK2Q3eG40VHV5T1JsZVhBWUFrVFpUT1BESGswaDlMOXB4NlBTY0FBSzNNSjZTd0taRjF1SkpuU1Zyb3NaTUFBSmdGKy9kaVQvODdZMWMwZzdyZEJ6aGZXbjkvOEhDV0pLN1pBQUNnRHNMMnZTL3pQbVpLTjVuQ0ZwTW02emI3QndDZ0ZxWVMrY3JZRWMyaWJnTUFTZXJzdmZOT2VYaWpwRDMxZkY0QUFGcE4yQzFwOGdsLzRQc0dBUTh6Q0FBQU5BNTNmU1RmVTc0dmRrZXpxT3NBUUpLS3ZSdHVONFgvdmZmRVJBQUFVR3NlVEw3cndDL3hEQUlBQUExaVd6RXN2Q3AyUkRPcCt3QkFrZ285Rzc3dlNuNWIwblNNNXdjQW9LbnRrblFJZXlRekNBQUFaSm01WFd5bDIwZGlkelNUS0FNQVNlcm82Zithek40dEtZM1ZBQUJBcy9GcEtRelBiREgvK0NCZ3E4a1p6UU1Bc3FFdkgvcS9FRHVpMlVRYkFFaFNzYnYveXliL1UrMjlWUkVBQUpnakgweG0vYXJxZTB6aG9VUmhtekdlQndERTVHYSt3a29Lc1VPYVRkUUJnQ1FWZWdiK1VkSUhZM2NBQU5Eb3ZDTDUyRndmUlBJUlUzZ3drZTh3T1crOUFBQjE1MThvZEEvOEpIWkZNNG8rQUpDa1lrLzV3KzYyTG5ZSEFBQU55Nld3dlhiWDhYdVF3dERlUVVBWU1zN1ZBd0RVeTdpbGJkMnhJNXBWSmdZQWt0VFIyOThqK1VkamR3QUEwSWg4dDBsVDg3Q1JYeXI1RGxQNllDSWZZUkFBQUpoZkpsMVJLUFU5SEx1aldXVm1BQ0JKaGU2QkQ1anBzN0U3QUFCb0tLa1Vkczd6YzFTbHNNMlVia3JrNDl3eEFBQXdMeDdPcDdtUHg0NW9acGthQUpqSjh5ZWY5UDlLOW0reFd3QUFhQlJocDBtaFRvdnlTU2xzTm9YTkNiY09CQURVbHRtRlZ1b2JqNTNSekRMNXl1M1hMbStmMko1KzFhVTN4bTRCQUNETGZGSUttMmEvOC8rY21HU0xYTW16WGNwRmVINEFRUE13L2FEWVhmN04yQm5OTGxObkFEekd6dXViem5jVTNpWHBoN0ZiQUFESU10OFI4YnI4ZlhjTVNCODBOZ29FQU14RkdvSzlQM1pFSzhqa0FFQ1M3TUxiS29WMDRWc2wvVFIyQ3dBQVdlU2psbzNyOFlQSmQ1akN3eVlmeTBBUEFLQ2htUGxuT252N0IySjN0SUxNRGdBa3lVcTNqMVRUM0J0TTJoaTdCUUNBVFBGOVIvOHp4S2RNWWN1Ky9RR21ZdGNBQUJyRWNEVkplbU5IdElwTUR3QWthWEdwYjBkSTdTeVpIb2pkQWdCQVZvUmhrMC9IcnRnL0g1ZlNoeE9GUVpPSDJEVUFnRXd6WGJab1ZmOWc3SXhXa2ZrQmdDUjFsUHEzV0RYM0drbmNEeElBZ0twSnU3SjE5UDlwWFBKaFUzZ3drZThSK3dNQUFKN08vZWVGbzNLZmpKM1JTaHBpQUNCSmhWTGZ3MG5PWHlkcFcrd1dBQUJpQ2p2Vk9FZldVeWxzVFJRMkovTEoyREVBZ0N4eFR5NjA4L295ZWo1YmMycVlBWUFrNVZjTjNCdmN6cFkwRkxzRkFJQW9Ka3cra3ZHai8vdmhsYjIzSytTeUFBREFQdC9vdUxUL1c3RWpXazFERFFBa3FiTzNmOERNM3lwcFBIWUxBQUIxNVZMWUVUdGlEdlpkRnVBUG1jVGRBZ0NnbFUwbENoZkZqbWhGRFRjQWtLUkM5OEJQRXRuYkpIRXlJUUNnWmZpb3lTdU52M0QycWluZHN2ZU9BZUxFVHdCb1BhNXI4ajBiN29tZDBZb2FjZ0FnU2ZtZS91KzY5RHVTcXJGYkFBQ1lieDZra0xIYi9zMlZqNW5DdzRsOHlOZ2tFQUJheC9hSkJibDFzU05hVmNNT0FDU3BvNmY4VlRQN1kwbGNUUWdBYUc1RDFwUy9saUZJQUFBZ0FFbEVRVlFqNzhjR0crbW1SSnFJWFFNQW1HOHVkUis1c205MzdJNVcxZEFEQUVrcWRQZGY3OUw1c1RzQUFKZzNWVk1ZYXE2ai8wOHpLYVdQSlBJZG5BMEFBRTJzWER6bHBIK0lIZEhLR240QUlFa2RQZVZQbXRRZHV3TUFnUGtRQmx0a1VleFNHREtGaHhKNUpYWU1BS0RXekcyRm5YdGpHcnVqbFRYRkFFQ1NDajNseXlXN0tuWUhBQUMxNUJXVGo4V3VxQytmbHNMbVJHRWJ0d3dFZ09aaC8xYm83ZjloN0lwVzF6UURBRWtxZFBkZll1YWZpdDBCQUVDdHRNelIvNmR5eVVkTS9sQWk1OGEvQU5Eb0twYjZ5dGdSYUxJQmdKazh2M3JnejEzNng5Z3RBQURNbGUrMmxyL2hyVmVsc0NWUjJKWklvY24zUVFDQUp1WFNYeGRLNVFkamQ2REpCZ0RTM2lGQThaU1QvbFRTbDJLM0FBQXdhMEVLTzFud1N0cDNOb0NVUG1SU2kxME9BUUJONEpGaVBudzRkZ1QyYXJvQmdDVFp1VGVtaGZUd1A1RDU5MkszQUFBd0cyR25TV3lUOUdSVktkMTNOZ0I3QXdCQWd6QzcyRDZ3Z2ZGdFJqVDFvUVV2TFM5V2N1SGJrcjh5ZGdzQUFJZktwNlR3Y05LYTEvNGZJbXR6MmJHUzVmbVBCQUFaZGx1aHUveHlNMTdSc3FJcHp3QjRqSlg2eGlmYWs3ZEl0ajUyQ3dBQWh5b01zdmcvR0srYXdpTW0zOUdpbXlRQ1FQWUZtYTlnOFo4dFRUMEFrS1FqVi9idFRuTjZ2VXMvaTkwQ0FNREIrSmhKN0hwL2FGd0tRNlowVXlLZmF1cVRHZ0dnNGJqWjU0dmRBM2ZFN3NDVE5mMEFRSklXcmVvZnREU2NKZE9Ec1ZzQUFEZ2dsM3hIN0lnR05DbUZUU1lmNW13QUFNaUlQYktrTzNZRW5xNGxCZ0NTVkN4dGVDUnhuU1g1MXRndEFBRHNqdzhiUjdKbkswaGgwQlMyc0hraUFFUm5XdGV4dXUvUjJCbDR1cFlaQUVoU3ZxZDhYL0J3bHFTZHNWc0FBSGlTVkFxN1dQelBsWStiMG9jUytTai9MUUVna2w4VUZvLytUZXdJN0Y5TERRQWtxYlAzemp0bC9rWkplMkszQUFEd21MRERKRzV0Vnh1cEZMYWF3aUNYQkFCQXZibnNRanYvL3NuWUhkaS9saDJQVnk1YitocFA5RTNKOHJGYkFBQXRibEpLTjdIei83eklTOGx6Z3F3OWRnZ0F0QUR6N3hXN0IxNGJPd01IMW5KbkFEeW1jT25BRHhMcGJaS1lUZ0VBb3VLMmYvTm9RdktIRXpubi9RSEFmRXREQ08rUEhZRm4xcklEQUVuSzl3eDhSMjUvS0xZTEFnQkU0cU1tcjhTdWFHNGVwTEExVWRqR29BVUE1by8vWFdmdm5YZkdyc0F6YStrQmdDUVZlL3YvMVV6dkZXOEpBQUQxRmlRZmJObXI4ZXJPUjZUMDRVU2FpbDBDQUUxbnFKcGJlRm5zQ0J4Y3l3OEFKS25RWGI1T1ppdGlkd0FBV2tzWU1uazFka1dMbVpMQ0pwUHZZZkFDQUxYaVVzL2lWWGR3cDdVR3dBQmduMkozL3pYdXZpWjJCd0NnUlZRbERiTUlqY0dES1d3MStYWXVDUUNBdVhMWDNjWDA4R3RqZCtEUThNN2pLY2JYZEgxWXBvdGlkd0FBbWx2WXlsSG9URmdvSmNkeWx3QUFtSzFFZm5hK1orQTdzVHR3YURnRDRDa0tQZVdMVGZwTTdBNEFRUFB5aWIyYi95RURKcVd3S1pHUDgvVUFnQmx6ZllYRmYyTmhBUEFVWnZMOEtTZTlUL0ovamQwQ0FHaE9QbWljZXA0bHFSUzJtTUlRWHhjQW1JR3B4UFRCMkJHWUdRWUErMkhuM3BnV2ptNTdqN2x1aXQwQ0FHZ3VZY1RrRXh4dHpoeVhmSWNwYkRONWlCMERBTm5uMGtmelBlWDdZbmRnWmhnQUhJQ2QxemVkN3l5Y0krbVcyQzBBZ09iZ3dlUTdXZnhubWU4eCthWkV6cTBDQWVDWmJDdW1DejhVT3dJenh3RGdHZGlGdDFVSzZjSzNTZnFmMkMwQWdDYXdTM3QzLzBlbStaVDJEZ0ZHWTVjQVFEYVphNldWYmgrSjNZR1pZd0J3RUZhNmZXUXkxVm1TeXJGYkFBQ055NnVtd0czL0dvWUhLV3hONUR2NG1nSEFrOW42ZkNqL1Urd0t6QTREZ0VOd1JLazg3RW51alpKK0Vic0ZBTkNZZkZCc01OZG9YQXBEcHZCb3d0Y09BUFp5czNDQmxjUnVLUTJLQWNBaDZsamQ5NmlzK2hwSkQ4VnVBUUEwRmg4M2J2dlh3SHhVU2pjbFVwV3ZJWUNXOTgrRjdvR2Z4STdBN0RFQW1JRmk5MTJiRXVsMWtyYkZiZ0VBTkFpWHdtRHNDTXpacEpRK2JOSms3QkFBaUdiYzB0enEyQkdZR3dZQU01VHZLZDhYa3VRc1NVT3hXd0FBMmVjakprMXg1TGdwcEZKNGhNMEJBYlFtTTcreVVPcDdPSFlINW9ZQndDeDBybDYvUVphOFVSSnZBUUFBQjVaS2dkditOWlhITndmazZ3cWdwZGltZkxYdFk3RXJNSGNNQUdhcDJMMyt2eTNZLzVaOEluWUxBQ0Nid2s2VDB0Z1ZxRG1Yd2k1VDJHWnNEZ2lnVlZ4b3BiN3gyQkdZTzhiWGN6UytidW5iNVhhRHBMYllMUUNBN1BCSktXeGk5L2htWjBVcE9UWndTQVZBTTd1MTBGMStwUm12YU0yQWw2czVLbllQZk1YYy8wamlWaGdBZ1A5ZjJNSFI0VmJnNDFKNE9KR3p6d09BNWhUY2t3dFkvRGNQQmdBMVVPZ2QrSUs3L2pKMkJ3QWdHM3hNMGpnTHdsYmgwMUo0eE9RVGZNMEJOQmVUZmFhamQzMWY3QTdVRGdPQUd1bm9MZitkU2F0aWR3QUFJblBKQjNsNWJUbXA1SnROR29zZEFnQzE0ZEpJbXJhVlluZWd0bmlIVWtPRm52S1ZjdjlRN0E0QVFEeGgyT1RUc1NzUWd3Y3BmVFJSR09GTUFBQ056K1NsenRML2JJM2RnZHBpQUZCanhkNkJTeVI5UEhZSEFDQ0Nxc2wzc2ZocmFTNzVkbE1ZNHZzQVFBTXozVjlJcTUrTW5ZSGFZd0F3RHdwcCtTTEpyNC9kQVFDb0w5OHB0b1RGM2lIQURsTVlaQWdBb0RGNWF1ZGJhZU5VN0E3VUhnT0FlV0FsaGNJcEovK1JwQnRqdHdBQTZtVENPUFViVCtMRHByQ1Z1MEVBYUN6bXVxbmowdjV2eGU3QS9HQUFNRS9zM0J2VFFqcjkrK2JpaHdjQW1wMUxZVWZzQ0dTUjd6R0Z6WWs4TUJ3QzBCQ216Y0pmeFk3QS9HRUFNSStzdEhFcUgzTHZrdXpIc1ZzQUFQUEhSMDFlWVlHSC9mT0tGRGFibE1ZdUFZQ0RjUHRFdm1mRFBiRXpNSDhZQU13eksvV05UN1FuYjVIRS9UTUJvQmx4OUIrSFlrSUtqNWhVWlZBRUlMTUdKNE92alIyQitjVUFvQTZPWE5tM084M1pHOXgxZCt3V0FFQnQrUzRXZFRnMFBtVktOM0diU0FEWjVLN3VJMHJsNGRnZG1GOE1BT3BrMGFyK1FRdmhiSmtlak4wQ0FLaVJLcmQ3d3d4VnBiQXBrZGhiRzBDMmxJdW5udlM1MkJHWWZ3d0E2cWhZMnZCSTRyblhTdG9TdXdVQU1IZGhVT3p3anBsTHBYU3pTVk1NandCa2c3bXRzSE52WktlU0ZzQUFvTTd5UFgyL1NKTnd0cVNkc1ZzQUFMUG5FeVlmWXdHSFdhcWEwa2RNbW93ZEFnQzZvZERiLzhQWUVhZ1BCZ0FSTEZxOTRhNlE2TFdTdU1ZR0FCcFVHT1QrN3BpalZFb2ZTZVFUc1VNQXRMQ0twZnBnN0FqVUR3T0FTRHBYbDhzeXZVblNXT3dXQU1ETStJaEpMTnBRQzBIeXpRbTNrUVFRaGNzL1VpaVZINHpkZ2ZwaEFCQlJzYnY4WDBuUTI4VUpnQURRTUR4SVlRZUxOZFNPQnlsc052azQzMWNBNm1wek1lOVh4WTVBZlRFQWlDeC9hZmxtdWI5SEVwdHVBRUFEOEYzR2IyelVua3RoaThsSFk0Y0FhQlZtK3FCOVlBTm5JN2NZUnMwWlVWblg5WC9jOVkvaWF3SUFtZVZUVW5nNDRkcC96QitUY3NjR3FTTjJDSUFtZDF1aHUveHlNMTdSV2cxbkFHUkVvYnQ4bldRWHhPNEFBQnhZMk1IR2Y1aG5McVdQSnV3UUJHQStCWm12WVBIZm1oZ0FaRWl4cC84VEpwVmlkd0FBbnM3SEpYSGJQOVREdmlFQUd3TUNtQTh1WFZmc0hyZ2pkZ2ZpWUFDUU1ZV2U4bVdTUGh5N0F3RHdCQzZGUVY0eVVVY3UrUlpqQ0FDZzF2WW95YTJPSFlGNGVEZVRRWVh1OGdmTjlPbllIUUNBdlh5M1NWT3hLOUJxUE96ZEdKQmJUZ0tvSGIrOFkzWGZvN0VyRUE4RGdBd3lrK2VyNWZkSi9xK3hXd0NnNVFWVDJCazdBaTByU09ubVJKcmtUQUFBYzJSNm9IRFkyTld4TXhBWEE0Q01zcEpDNGVpMjk1anJwdGd0QU5ES3dnNUpnY1VYSWdwU3V0bmtrN0ZEQURReWx5NjA4Ky9uTjBtTFl3Q1FZWFplMzNTK3MzQ09wRnRpdHdCQVM1cVNmSVRGUHpJZzNYczVnSE1wQ29CWnNlOTNkSmYvSTNZRjRtTUFrSEYyNFcyVlFqNjhXZEt0c1ZzQW9OV0U3ZHoyRHhsU05ZWE5KcCtPSFFLZ3dhVEJxeXRpUnlBYkdBQTBBUHZBaHJISlZHK1cxQis3QlFCYWhZK0tIZGlSUFZXVGIwNmtLdCtiQUE2UjJkOTM5dDU1Wit3TVpBTURnQVp4UktrOG5LYmg5WEwvZWV3V0FHaDZMdmtPWGlLUlRUNHRwVnRNQ3JGTEFEU0FvV28xdVN4MkJMS0RkemNOWkZGcHczWWw2Vm1TSG9yZEFnRE5MQXh4bWpVeWJuTGZMUUs1UkFYQU0zSHZYVnpxMnhFN0E5bkJBS0RCRkx2djJwUW9uQzFwZSt3V0FHaEtWVWxEbkY2TjdQT0tLV3pqZXhYQS9ybnI3c0l4YmRmRzdrQzJNQUJvUVBtZURmZUVKSG1kcEYyeFd3Q2cyWVFkSnVmVWFqUUkzMk43TjZzRWdLZHc5d3Z0dkQ3T1o4T1RNQUJvVUoycjEyK1FoemRLR28zZEFnRE53aWNrSDJVeGhjYml1MDJCczFZQVBKSHJQem92SGZqUDJCbklIZ1lBRGF6WXUrRjJVM2piM3Jlc0FJQTVjY2tIdWFZYWpjbDNtc0x1MkJVQU1tSXFhZk9MWTBjZ214Z0FOTGhDejRidnU1TGYxdDZyVmdFQXN4VDJtSHlDbzZob1VDNzVZTUlaTEFBazJjZnpxd2J1alYyQmJHSUEwQVE2ZXZxL1pxWS9GRGNFQW9CWjhTRDVEaFpPYUhBdWhXMG1yL0M5RExTd2JSUHR5Wld4STVCZERBQ2FSS0c3L004bS94Tng4aW9Bek53dWs5TFlFVUFOQkNsc2tYd3FkZ2lBR0V4K3laRXIrN2dnQ0FmRUFLQ0pGSG9HL2xHbWxiRTdBS0NSZU5VVWhqbGlpaVlTVEw0bFlhZ0Z0QnhibjA4SHJvdGRnV3hqQU5Ca2l0M2x2M2JYRmJFN0FLQlIrS0E0ZHdwTng2ZWw4Q2liV2dJdHhNM1RGVmJpa21BOE13WUFUYWlqdDd4YWJoK0wzUUVBV2VmanhxWnBhRnBlTVlYdGZIOERMZUtMaGQ0TlA0NGRnZXhqQU5Da0NqMzlGN244YzdFN0FDQ3pYQXBzL0ljbTV5T21zSXZ2YzZESlZTek5yWW9kZ2NiQUFLQkptY21McDV4OG5xUWJZcmNBUUJiNWJwTW1ZMWNBODg5M21Yd1BRd0NnV1puWmh3cWx2b2RqZDZBeE1BQm9ZbmJ1aldraG5mNERrNzRadXdVQU1pVVZSMFhST2x3SzIwMCt3ZmM4MEh4c1U3NmFmQ1IyQlJvSEE0QW1aNldOVS9tT3dyc2svU2gyQ3dCa1JkakZEdWxvTVdIZnBvQlZoZ0JBVS9Gd2taWDZ4bU5ub0hFd0FHZ0JkdUZ0bFluMjNGc2xXeCs3QlFCaTh5bkp1VU15V2xGVlNyZEl6aDdoUUxPNHRkQXpjR1BzQ0RRV0JnQXQ0c2lWZmJ1cmFYSzJ1KzZPM1FJQU1ZWEJoRnVqb1hWTm1ud3J0d2NFbWtCd3N4Vm0vRFJqWmhnQXRKREZwYjRkbHZoWmtuNFp1d1VBWXZCUmt6aFJFaTNPeDB6T0hoaEFRelBUWnp1NiszOGF1d09OaHdGQWl5bDJEMnhPbEh1ZHBDMnhXd0Nncmx6eW5TeDZBRWtLUXlZZmpWMEJZRFpjR2ttcjdaZkc3a0JqWWdEUWd2STlmYjlJY3Y0YVNkdGl0d0JBdllRaGswL0ZyZ0F5d2lYZmxzaTVGU2JRY016OHNzN1MvMnlOM1lIR3hBQ2dSZVZYRGR3YkVyMWUwbERzRmdDWWQ2bmtReHo5QjU3SWcrUmJqVTBCZ1VaaXVyK3dlT3lUc1RQUXVCZ0F0TERPMWVXeTNONGthU3gyQ3dETUo5OWhFb3NjNEdsOHl1VGIyQmdUYUJSdVdtSG4zOCs1TzVnMUJnQXRydGpiZjFzUzlIWkovQ0lCMEp3bVRXR0VvLy9BZ2ZqbzNrdGtBR1NiUzkvdFdGMitLWFlIR2hzREFDaC9hZmxteVg1ZlVocTdCUUJxTFF6R0xnQ3l6M2VhTk00UUFNaXdhbkJmRVRzQ2pZOEJBQ1JKeFo3K0w1bmJINHVUWkFFMEVkOGplWVZGRFhBbzBrY2xuNDVkQWVBQVByR29kMkJqN0FnMFBnWUFlRnlodC8rZjVINUI3QTRBcUlrZ2haMjh6QUdITEpqQ293bUhBb0RzMlRXZFRxK0xIWUhtd0RzalBFbXhkK0J2VGRZYnV3TUE1c3FIVE9Kb0pqQXprMUlZNU8waGtDVXVYM1ZZYWVPdTJCMW9EdnlHeDlNVWV2clh5dlhYc1RzQVlOYXFiR29HekphUFNNN0dtVUFtbUxTeG1CN3h1ZGdkYUI0TUFMQmZoWjd5U3BOZEc3c0RBR1lqN0RCdWF3Yk1RZGh1M0I4SXlJYi9hNlZicXJFajBEd1lBR0Mvek9UNXRQL1BKWDB4ZGdzQXpJUlhKQi9sNkNVd0p5NmxXeE1HYVVCY1h5cjBsRytKSFlIbXdnQUFCMlFsaGNMUnVUK1UyOWRqdHdEQW9RbzdXTFFBTlRFbGhVR0dhVUFjUG1FS0Y4ZXVRUE5oQUlCblpPZjFUUmZDMUx2TTdEOWp0d0RBd2ZpSVNST3hLNERtNGJ0TnZpZDJCZEI2M0pPUEZIbzIvREoyQjVvUEF3QWNsSlUyVHVXcnlUc2svU1IyQ3dBY2lBZFQyTW5SU3FEV3d2WkV6aDAxZ0hyYVhBeFRWOFdPUUhOaUFJQkRZcVcrOFluMjNKc2w5Y2R1QVlEOThWMlMyQ1lKcUwwZ2hVZTV0QWFvRjNOZmFhV05vN0U3MEp3NFZJSVoyWFBGc3FOeTFmQWptWjBhdXdVQUh1UFRVbmlJQlFvd241SWpYUFpzZnNpQStlWC9YZWdlZUprWnIyaVlINXdCZ0JsWnRLcC9VTUZmSjlPRHNWc0E0REUreUczL2dQa1doazAreHJFallCNjVUQmV3K01kOFlnQ0FHU3VXTmp5U1ZKUFhTWG8wZGdzQStMaFlsQUQxNEZMWVpseHFBOHdUTjExWDdCNjRJM1lIbWhzREFNeEt2clQrL3VEcDJaSjJ4VzRCME1KY0NqdFkvQU4xazBwaEsyZmNBUE5nVkZWYkhUc0N6WThCQUdhdHMvZk9PMlhKbXlTeFNRbUFLSHkzU1pNTUFJQjY4b3JKaC9tNUEyckpwQ3M2U3YxYlluZWcrVEVBd0p3VXU5Zi90d1YvcStUY2VSdEFmUVZUMk1VaUJJZ2g3R1Q0QnRTTTZZRjhldmpIWTJlZ05UQUF3SndWTGgzNGdadWZLNG03QkFPb203QkRVaHE3QW1oUkxxWGJ4S1VBUUUzNFJWYTZoWU5wcUFzR0FLaUpqdTROWDVmWnU4WGJjUUQxTUNYNUNFY2ZnYWdtVFdHSW4wTmdidXo3eGU2QnI4U3VRT3RnQUlDYUtYYjNmOWxjZnlLT0J3Q1laNEhiL2dHWjRMdE1tb3hkQVRTc05DVDIvdGdSYUMwTUFGQlRoZDd5NXlYeGl3ekF2UEZSeWNjNTZnaGtna3RoYThKQURwaWRUM1d1WHI4aGRnUmFDd01BMUZ5eHAvdzM3cll1ZGdlQUp1U1M3K0NsQzhnU241SjhKME01WUlhR3FtbXVGRHNDcllkM1VaZ1hIYjM5UFpKL05IWUhnT1lTaGt6T2RxTkE1b1FoazFkaVZ3Q054QzVkWE9yYkVic0NyWWNCQU9aTm9YdmdBMjc2Zk93T0FFMGlsY1NHWTBCbStiWkVIdmdaQlE3R3BaOFZqazQrRmJzRHJZa0JBT2FObWJ4NDhrbC9JdG0veFc0QjBQakNqa1FlWWxjQU9CQ2ZscHpqbWNCQnVaSUw3Yncrem1kREZBd0FNSy9zM0J2VHd0SEpINWpycHRndEFCcllwT1Fqc1NNQUhJeVBtRFFXdXdMSXRLOTE5cXovZHV3SXRDNEdBSmgzZGw3ZmRMNnpjSTZrSDhadUFkQ0FYQXJiT2EwWWFBZ3VwZHM1V3djNGdLa2s1eCtJSFlIV3hnQUFkV0VYM2xZcHBBdmZLdW1uc1ZzQU5CWWZsWHlDQVFEUU1LcmNGUURZTDlmVitWVUQ5OGJPUUd0akFJQzZzZEx0STlVMDl3YVROc1p1QWRBWVBFaGhrSmNxb05INHNNa25ZbGNBbWJKOVlrSHVpdGdSQU8rcVVGZUxTMzA3MHFUNlc1THVpZDBDb0FFTTJkN2Qvd0UwbkxBOWtUeDJCWkFONW43SmtTdjdkc2Z1QUJnQW9PNDZWOSsxemRMY1daSWVqdDBDSUx0OGV1Kzl4UUUwcUVrcERQTXpERWpxejRlQno4ZU9BQ1FHQUlpa1VPcDdPS2ZrOVpJR1k3Y0F5Q2JmWVJ3OUJCcWM3ekk1Tnp0RGl6TVBGMWhKYkkySlRHQUFnR2dXOXF6L1dYQjduYVNoMkMwQXNzVXJKaC9seUNIUThJTGsyeGptb2FYOVM2RjN3NDlqUndDUFlRQ0FxRHA3K3dmazlpWkpvN0ZiQUdTRVMyR1F4VC9RTEJqb29ZVlZ6T3lTMkJIQUV6RUFRSFRGM3Y3YkV0bmJKVTNHYmdFUW40OFl2dzJBSmhNRzJkQVRyY2VrcXdyZC9RL0Y3Z0NlaUFFQU1pSGYwLzlkbDM1SFVqVjJDNENJVWlsdy8zQ2crYVQ3OXZVQVdzY2orWHo0U093STRLa1lBQ0F6T25yS1h6V3pQNWJZSkFWb1ZXRVhSd21CWmhWR1RENGV1d0tvRS9PTDdBTWJ4bUpuQUUvRkFBQ1pVdWp1djk1ZGZ4bTdBMEQ5K1pUa3V6bENDRFF6MzU2d0lTQmF3WDhWVmcvY0VEc0MyQjhHQU1pY2p0N3kzNW5VSGJzRFFIMkZRUllHUUxQemFTa01NK2hEVXd0dWRvRVpyMmpJSmdZQXlLUkNUL2x5eWE2SzNRR2dQbnpVSkU0TkJscUM3elIyL0VIVE10TS9kSFQzL3pSMkIzQWdEQUNRV1lYdS9rdk0vRk94T3dETU05KzNJQURRR2x3S2JBaUk1clFuV0s0M2RnVHdUQmdBSUxQTTVQblZBMy91WnY4UXV3WEEvUEZoazAvRnJnQlFUNzdINUpYWUZVQ05tZFowck81N05IWUc4RXdZQUNEVHpPVEZrMC84TTBsZml0MENZQjZrKzNiK0I5QnkyUGNEVGVZWGhjV2puNGdkQVJ3TUF3QmtucDE3WTFwSXAzL1A1TitPM1FLZ3RzSU80OGFmUUt1YWxId2tkZ1JRR3k1ZlllZmZQeG03QXpnWUJnQm9DRmJhT0pWUDI5NHAyWTlqdHdDb2tVbVQ3K0hvUDlES3dnNlQwdGdWd055NDlOMk9ub0Z2eE80QURnVURBRFFNSy9XTlQ3UW5iNUZzZmV3V0FITVhCbzNUZjRGV0Y0ekxnTkRvcWlFSjc0OGRBUndxQmdCb0tFZXU3TnVkNXZSNmwzNFd1d1hBN1BrZXNRRVlBRW1TN3phSkU2ZlJxRngvdTJqMWhydGlad0NIaWdFQUdzNmlWZjJEbG9helpIb3dkZ3VBV1FoUzJNbkxENEI5bkRPQzBMQjJWZHNXcklzZEFjd0U3OERRa0lxbERZOGtyck1rM3hxN0JjRE0rSkJKMDdFckFHU0pWMHcreXFVQWFDenV0bnJ4cWp0Mnh1NEFab0lCQUJwV3ZxZDhYNXI0NnlUeGl4ZG9GRlZUR09KTlBvQ25DenM0Q3dDTnc2U054WERZWjJOM0FEUEZBQUFOYmRIcURYZkovSTJTOXNSdUFYQnd2TUVIY0VCVktRd3pJRVJqc0tEM1crbVdhdXdPWUtZWUFLRGhGYnNIN3BEckRaTEdZcmNBT0RDZmtIdzBkZ1dBTFBOZDNCWVFEY0Q5eS9sTHl6Zkh6Z0JtZ3dFQW1rS3h0M3hySW4rSDJFY1l5S3l3UGVIb1A0Qm5Gc1JsUXNpNnlTVGtWc2FPQUdhTEFRQ2FScjVuNER1Uy82NDRkZ0JrVHRndHhuTUFEb2tQbThTSjFjZ29sejZTTDYyL1AzWUhNRnNNQU5CVWlqMEQvMjZtOTRyampFQm1lREQ1TGw1dUFCd2lsOEpPemdKQUZ2bldZcnJ3cjJOWEFIUEJPekkwblVKMytUcVpyWWpkQVdDZlhlSm9Ib0FaOFJHVEpoa0NJRnZNa291dGRQdEk3QTVnTGhnQW9Da1Z1L3V2Y2ZjMXNUdUFWdWZUN09vTllIWlNidktMYk9uTFYvdi9PWFlFTUZjTUFOQzBPbm9ITHBYcjZ0Z2RRQ3R6YnZzSFlMYkdURjZKSFFGSWtsd2Uvc0pLQ3JGRGdMbGlBSUNtVnVncFgyalNaMkozQUszSUs1S1BjdlFmd095RlFlNGVndmhjdXI3WXUrSDIyQjFBTFRBQVFGTXprK2RQT2VsOWt2OXI3QmFncGJnVXRyUDRCekJIazVLUDhic0VVWTBxdFV0aVJ3QzF3Z0FBVGMvT3ZURXRITjMySG5QZEZMc0ZhQlcrMjZRcDNyUURtRHN1SlVKTVpycXlvOVMvSlhZSFVDc01BTkFTN0x5KzZYeG40UnhKdDhSdUFacGVLZ1UyN3dKUUl6Njk3NjRBUVAzOU1sODkvR094STRCYVlnQ0FsbUVYM2xZcExLaThWZEwveEc0Qm1sbllhVkxnelRxQTJnbTdUR3kvaHZyemk2eDB5MFRzQ3FDV0dBQ2dwZGdINzlrem1lb3NTZVhZTFVBejh2K1B2VHNQaytzczc3ei91NS9xcmFvM2RjdElzZ1NURFhBbUJ0dkNrOHlRdkpPTEpUWm1od0FPU1NDQkNZbXpBYll4eHRqZGNsbVNWNHd0UStJWlNKaE15RHFZbDBrbSswTEdnVEFPbUZaM0M4d2VFck1GTE5tU0xLbTdwZTQ2OS93aFE3eElWaTlWZFovbCsva3YyRlovcjF4MmRkV3Z6bm5PVWI2cEE5QUJTNUlmNHJVRlhXVDZQNDNKMlE5Rlp3RHR4Z0NBeWhscnpoeG90YkxuU2ZwOGRBdFFOdHlyQzZCVHN2dDVmVUhYdERKTEYwZEhBSjNBQUlCS0dtN3V1VSsyZEo2a2U2TmJnTEx3d3lhZjR4czZBQjNTNGdvamRJZEo3eDI2YXZlZTZBNmdFeGdBVUZtTmlVOS90VmFyWFNEcHZ1Z1dvUEQ4b1cvL0FhQ0RzZ2ZFVlFEb3RQMkxyZHEyNkFpZ1V4Z0FVR245VjA1OUxrdnBQRW43bzF1QUlzc09tSHd4dWdKQTZTMFpWd0dnMDY0WmFVN3RpNDRBT29VQkFKVTNkTlh1UGJMMEFrbUhvMXVBUWxveTZRSGVrQVBvRHE0Q1FLZTQ5Tm42aHRydDBSMUFKekVBQUpJYUU3di8wVEo3bWVRODZnVllvZXgreVhrOEY0QnU0U29BZElnclhXb1hUWEU5RzBxTkFRQjRTUDNxNlErNzJhc2xMVVczQUlYQlkvOEFCT0FxQUxTZDI1OE1UZTcreStnTW9OTVlBSUNIR1p5WStXTnpmNzBrdnM4RVRzV2xiQzhmL2dFRTRDb0F0TmV4MUpOZEZoMEJkQU1EQVBBbzlXMnp2K3V1TjBaM0FIbm5oeVNmNXcwNGdCaGNCWUEydW0zZ3l0a3ZSRWNBM2NBQUFKekE0TGFaMjJXNkpMb0R5QzJYc3Z2NUZRSWcwSkxKSDR5T1FBbmN0OUJidXpZNkF1Z1czcjBCSjlHWW1Oa2w5eHVpTzRBODhnZU0weklBaE12Mko2NEN3SnE0NjZyeEs2WU9SbmNBM2NJQUFEeU94cmJadDh2RTQyQ0FoMXN5WmZ1NTlCOUFEaXhLZnBqWEk2emFkT1A3bi9KYjBSRkFOekVBQUtkUXYycm1WMTMrdnVnT0lDK3l2Y1kzYmdCeUk5dlBheEpXeDh3dXRndnZhRVYzQU4zRUFBQ2NncG04Y2NaVEw1SjBSM1FMRU0zblRYNGt1Z0lBSHVZb0I1SmlOZndQNnhQVEg0bXVBTHFOQVFCWUJydndqbGE5dGZnYWMvMUZkQXNRaVcvL0FlU1I3NDh1UU1ITW02VXJvaU9BQ0F3QXdESlo4NTVqQTFudGxaSjlOTG9GaU9BSEpSMk5yZ0NBeC9JNWs0NXlGUUNXeDZXYjZoUFQ5MFozQUJFWUFJQVZzT2JVM0VKdmVyR2txZWdXb0tzeUh2c0hJTjh5cmdMQThueXRNWkM5SXpvQ2lNSzdPV0NGeHErWU9yalVxbDNncnM5RXR3RGRrajFnRXNja0FjZ3hQMnpTWW5RRmNzL3RyZmJXUFp4bWc4cmlXaWxnbGVaMm5yMUZiaCtWOUQzUkxVQW4rVEVwK3dyUDJnYVFmemJtU3FmeFlvV1R1cXMrTWZNalp2eEdRM1Z4QlFDd1NvMkoyYThuMWM2VDlJM29GcUNUc3IxOCtBZFFFQWU1V2drbmxibnJ6WHo0UjlVeEFBQnJNREE1OVUrdGxEMVAwdjNSTFVBbitCR1Q1cUlyQUdCNVBKT3lnMXpnaXNkeStXOE5icHU1TzdvRGlNWUFBS3pSOEZWN1B1MnU1N3YwWUhRTDBGWXUrYjdvQ0FCWUdUOWdVaFpkZ1p3NXBOUXpHUjBCNUFFREFOQUdnOXRtN2piVDh5VnhxQXhLd3crWS9CamZwQUVvbUpia2gzanR3aVBzR0x4cTZsK2pJNEE4WUFBQTJxUXhNZk4vVTZhWGl5ZWxvd3hhRDUzOER3QUY1QWVNczB2d2JmOVVIejM4cnVnSUlDOFlBSUEyR3JoNjVtOWsvcE9TbHFKYmdMWEk3dWNTV2dERjVjY2tYNGl1UUI2NFpaZlltNzdFbHpQQVF4Z0FnRFpyVE16K0x6TzlRWHg4UWxFZGxmeEJ2djBIVUd4K2dOZXh5alAvOE9ERW5qK0p6Z0R5aEFFQTZJRDZ4TXh2eS8zTjBSM0FhdkRZUHdCbDRFZE16dlY0VmJiVU1yODRPZ0xJR3dZQW9FTWEyMlovemFSbWRBZXdFbjdZNVBQUkZRRFFCaTZKUndKV2wvdnR3MWZ0K1hSMEJwQTNEQUJBQjlVblo2NlI5STdvRG1CWk1zbjM4bVlaUUhsa0J6a01zS0llV09ycDN4NGRBZVFSQXdEUVlmV0ptYmVaNmIzUkhjQ3BaUHU1WEJaQXliU09YOW1FYW5IWDVNaVZuN2cvdWdQSUl3WUFvTVBNNUFOTE03OGs2UStpVzRDVFdwTEVnVmtBU29qREFLdkZYWjlwWk92NDRnVTRDUVlBb0F1c3FheStvZmF6a3Y0MHVnVTRrV3lmeVhsdUJZQVM4Z1ZKUEJLd01tcm1sMWp6VHE1bkEwNkNBUURvRXJ0b2FySGVXbnlGbWYxVmRBdndjTDdBSmJJQXlzMDVETEFpN0VNRGs3Ti9IVjBCNUJrREFOQkYxcnpuMk1CUytuRkpINHR1QWI3TjkzSklGb0J5eXc2YjFJcXVRSWNkUy9Jcm9pT0F2R01BQUxyTW1sTnpSMXQ2a2FUcDZCWWdlOURrQzN3ekJxRGtNc2tmNUxXdXpGeDY1OERrekJlak80QzhZd0FBQXEvczZwNEFBQ0FBU1VSQlZJdzFadzYwV3RrRmN2OWNkQXVxeXpPVDM4OGJZZ0RWd0NNQlMrMWJqVmIvRGRFUlFCRXdBQUJCaHB0NzdsTnFuUy9wM3VnV1ZOUURPbjc2UHdCVXdhTGtjNHllWldTbXQxbno0dzlHZHdCRndBQUFCR3BNZlBxclNUcFA4bTlHdDZCYWZNbVU4V2dzQUJYamZFUXNvNm1CcFpuZmlZNEFpb0lCQUFnMk1Ebnp4Y3l6ODNYOCsxaWdLemo0RDBBVitSRU9BeXdaTi9PTHJTa2VaQXNzRXdNQWtBTkQyejcxS1huMkFrbUhvMXRRZmo1bmN2NU5BMUJGem1HQTVlSy9XNStZL1lmb0NxQklHQUNBbkdoczIvTnhVL2JTNDA5bEJ6ckVwV3h2ZEFRQXhHRUFLSTA1YS9WTVJFY0FSY01BQU9SSWZYTFAzN25acThYUmJPZ1FQeWpwR0c5K0FWU1hIeE9QUHkwQms2NnJONmUrRXQwQkZBMERBSkF6Z3hNemYyeW0xMG5jejRZMmEwblpBN3pzQXdDSEFSYmVWd1phdFZ1akk0QWk0cDBna0VQMWlabmZNL2tieERGdGFLUHNmZzYvQWdCSjBpRU9RaTAwczB1dE9UVVhuUUVVRVFNQWtGUDF5ZG5ma25SSmRBZkt3WTl5M3lzQWZKdG5raC9tTmJHZy9xRisxZlNIb2lPQW9tSUFBSEtzTVRsem03dXVpKzVBOFdYNytMWUxBQjZPMndBS3FaVzUvYW9adjlHQTFXSUFBSEp1Y052TVZYSzdKYm9EeGVXSFRacmpteTRBZURpZk4vbGlkQVZXd3N4L1kyamI5R3gwQjFCa0RBQkFBZFFucHk5eitmdWlPMUJBTHZrK1B2d0R3R080anA4RmdLSTRzSlRTdHVnSW9PZ1lBSUFDTUpNM3puanFSWkkrRU4yQ1lzbjI4dzBYQUp4TWRwRGJvd3JEZE0zd2xkTjdvek9Bb21NQUFBckNMcnlqVlc4dHZ0YWtQNDl1UVVFc21iU2ZiN2NBNEtTV2p0OEtnSnh6LzF6OUNiVmZqODRBeW9BQkFDZ1FhOTV6YkdDdy9rcEpINGx1UWY3NS9jZFB1Z1lBbkJ4UFNNay85M1NwWFRURjlXeEFHekFBQUFWamw5NDF2OUJiZTRsa3U2TmJrR01McG93M3RRQndTbjZZc1RUUHpQVm5nMWRQLzBWMEIxQVdEQUJBQVkxZk1YVndxWldlNTY3UFJMY2doMXpLOWtWSEFFQkJ1S1FqREtZNXRXaVd2U1U2QWlnVEJnQ2dvRWFhVS9zcytma3lmVG02QmZuaWg0MTdXZ0ZnQmZ4UWRBRk96TjgxTUxubjg5RVZRSmt3QUFBRjFwaVkvYm90MVo0dDZTdlJMY2lKVE1wNDdCOEFySWpQbWRTS3JzQ2ozSGUwWlR1akk0Q3lZUUFBQ3E3ZW5QcEtxdmw1a3I0VjNZSjR2dCtrcGVnS0FDZ1lsNXpiQUhMRnBZbXg1c3lCNkE2Z2JCZ0FnQklZdUhMMkM1bmI4eVR0ajI1Qm9DVlR4bVAvQUdCVi9NSG9BanpNVE9PTXAvejM2QWlnakJnQWdKSVkyalk5SzdjWFNqb1MzWUlZMlQ0ZFA4d0tBTEJpUHM4VlZIbGhiaGZiaFhkd1V3YlFBUXdBUUlrMHRrM2ZsV1F2azNRMHVnWGQ1UXNtUDh5My93Q3dGcnlPNW9IOXovcTI2YitQcmdES2lnRUFLSm1CeWVtL2RlblY0bnVNU3NudU03NzlCNEExOGtNTUFNSG1yZVZYUkVjQVpjWUFBSlRRNE9UTUg1bmJ6MG5Lb2x2UWVmNmdjYzBIQUxTQkwwaStHRjFSWGU3K2pucHo1bCtpTzRBeVl3QUFTcXErYmZyOU1yc2t1Z09kNVR6MkR3RGFpdHNBd255OVVmZWJvaU9Bc21NQUFFcXNNVEg5THBOdGkrNUE1L2dEUExzYUFOcUoyd0JpbU90eWUrc2VEaklHT293QkFDaTUrdVQwRHJsWTFFdklGeVUvd0J0VkFHaXJvNUtPUlVkVXpsMERrek4vRUIwQlZBRURBRkFCOWNtWks4ejh2MFYzb0wyeXZSejhCd0Nkd0ZVQVhaWEovR0l6ZnFNQjNjQUFBRlNBbVh4Z2FmWlhKUDErZEF2YVpFN1NFZDZnQWtBbitPSG9ndXB3cy8vUm1KajlSSFFIVUJVTUFFQkZXRk5aL1l5bi9JeWtEMGEzWUkxY2F1M2w1UnNBT3NXUG1aemJBTHJoa0N4TlJFY0FWY0k3U0tCQzdNSTdXdlhXNGsrYjJWOUZ0MkQxL0tCeGZ5b0FkSmh6bFZYbm1YWU9YalgxcjlFWlFKVXdBQUFWWTgxN2pnMHNwUitYOUEvUkxWaUZ6SlRkSHgwQkFCWEFiUUNkWmZweWZlVHdiZEVaUU5Vd0FBQVZaTTJwdVlYZTJvc2syeDNkZ3BYSjlrbksrRllLQURyTmo1cTBGRjFSWGk1ZGFtLzYwdEhvRHFCcUdBQ0FpaHEvWXVwZ3E2WUw1UDY1NkJZczAxSEpIK1REUHdCMGhVdk9VK2s3eFA1dWNHTG1qNk1yZ0NwaUFBQXFiUGpLNmIzSy9EeVovaVc2QmFmR1kvOEFvTHV5dzd4VjdvQlc1a3NYUjBjQVZjV3JHbEJ4amVhZXJ5WFgrWksrRmQyQ2svTkRKcC9uMjM4QTZLcDV5YlBvaUxMeDI0ZTJmZXBUMFJWQVZURUFBTkRBNU13WE0yK2RKK21CNkJhY2dFdStqdy8vQU5CMUxvbW5BYlRUL3FWYS96WFJFVUNWTVFBQWtDUU5iZnZVcDJUK2ZFbUhvbHZ3U05sK2szTVFGUUNFNEhHQTdlUFM1TWlWbitCWk5rQWdCZ0FBMzlHWW1QMkVaZjVTeVJlaVcvQ1FKVW43ZWZNSkFGSDhpRGgvcFEzYzlabEdhOTE3b2p1QXFtTUFBUEFJOWF0bi8wK1c2V1dTamtXM1FNcjJHZmVmQWtDa1RKekIwZ1kxODB1c2VTZlhzd0hCR0FBQVBNYlExYk4vSmJPZmt0U0ticWt5WDVEOE1HODZBU0NhSDQ0dUtMdy9HcGljL2V2b0NBQU1BQUJPb2pFeC9mK2I2dzNpd3NjWUxqbVAvUU9BWFBBanZCNnZ3YkVrWFI0ZEFlQTRCZ0FBSjFYZk52TS9aTWF6ZWdOa2gweSt3TGYvQUpBTFMrTEd1TlZ5djJWZ2N1YUwwUmtBam1NQUFQQzRHaFBUNzNMNWp1aU9LdkZNOHZ2NThBOEFlY0l0V2F2eXJYbzJjSDEwQklCL3d3QUE0SlFHSjJlM1NmN082STdLMkcvSHYyMENBT1NHejBVWEZJKzVyckRteHgrTTdnRHdieGdBQUN4TGZXTDJyV2I2emVpT3N2TWxVOFpqL3dBZ2QzekJPQnAzUld6M1FEYnovdWdLQUkvRUFBQmdXY3prQTA5OXlpOUsrbUIwUzVuNVhuSFFGQURrbE04eDBDNlRtMlZ2dHFaNGtDMlFNd3dBQUpiTkxyeWpWZDlRK3lsei9WbDBTeG41bkhHUEtRRGtHYmNCTE5mdjFTZG0veUU2QXNCak1RQUFXQkc3YUdweFlLaitLa2wvSDkxU0tpNWwrL2p3RHdCNWxzM3hPTUJsbUxkVzdhcm9DQUFueGdBQVlNWHMwcnZtNjYzK2wwajZaSFJMV2ZoQms0NUdWd0FBSHRlU3BFWEcyc2Rqc3V2cnphbXZSSGNBT0RFR0FBQ3JZczJQUDdqVXFqM2ZwSHVpV3dxdkpXVVA4SVlTQUlyQWowUVg1Smw5ZGFDVmVHb1FrR01NQUFCV2JhUTV0VytwbFQxSDB1ZWpXNG9zZXlCeHNqUUFGQVFIQVQ0Tzg3ZFljNHFURW9BY1l3QUFzQ2JEelQzM1dhdDJ2cVI3bzF1S3lJOUpmakM2QWdDd1hENHZPV2ZibjhqSDZsZk44S1FnSU9jWUFBQ3NXYjA1OVpVa25TZnBXOUV0UlpQdDVVQXBBQ2dVbDJ3K09pSjNNdmYwWmpOK293RjV4d0FBb0MwR0ptZSttTGs5VDlMKzZKYWk4TU9TdUpRVUFBb240N1g3RVV6Mkc0UGJkazlGZHdBNE5RWUFBRzB6dEcxNlZtNHZsSFE0dWlYM1hQTDdlUWtHZ0VKaUFQZ09seDVzdFhxYTBSMEFsb2QzbndEYXFyRnQrcTRrZTdsNHFOM2p5dmFiL0ZoMEJRQmdOZnlZNUl2UkZmbGc4dVpROCs1dlJuY0FXQjRHQUFCdE56QTUvYmVTLzVTT1B6RVpqOWFTZkQvZkhnRkFvYzN6T2k3VGwrcXRwVitQemdDd2ZBd0FBRHFpTVRuN0lYTi92U1RPU240VTMyZjhmd1VBQ3M2UFJCZkVjOWViclhrUDE3TUJCY0lBQUtCajZ0dG1mOWRkYjR6dXlKV2pwdXhCdmpVQ2dLTHppai90M2sxL016ZzU4K2ZSSFFCV2hnRUFRRWNOYnB1NTNVeFhSWGZrZ2t2WjN1Z0lBRUJiWkNZZHEreWd1MWp6aklFZktDQUdBQUFkVjUrWXVVNnlHNk03b3ZsaGszUFBLQUNVaHM5SEZ3UnhlL2ZBNUo3UFIyY0FXRGtHQUFCZDBaaWN2a0t1WGRFZFlUSXB1NThQL3dCUUpsN054d0h1UFpyNWp1Z0lBS3ZEQUFDZ2ErcVRNNWU2MlgrUDdvamdCMHppa1ZFQVVDbytMOG1qSzdyTFhSTmp6WmtEMFIwQVZvY0JBRURYbU1rYlQzM3lMMGk2STdxbHE1WjQ3QjhBbEZKTDhtcU51ek9ONzMvSys2SWpBS3dlQXdDQXJySUw3MmpWVzR1dk1mbGZScmQwUzdiUDVEejJEd0RLcVVMbkFKamJ4WGJoSGEzb0RnQ3J4d0FBb091c2VjK3hnVmJQS3lUN2FIUkxwL244OGNQL0FBRGw1UE9WZVR0OVIzM2I5TjlIUndCWW04cThZZ0hJRjJ0T3pTMzBwaGRMdGp1NnBaT3lmYWx5OTRjQ1FKWDRYSFJCTi9pQ3RYUjVkQVdBdFdNQUFCQm0vSXFwZzYyYUxuRHBzOUV0bmVBSFRWcUlyZ0FBZEZSTDhtUFJFWjNsMGp2cXpabC9pZTRBc0hZTUFBQkNEVjg1dmRkczZYbVM3bzF1YVNmUGpNZitBVUJWekpmNjlmN3JqUUcvTVRvQ1FIc3dBQUFJMTVqNDlGZVRhcytWOUsvUkxlM2lEMGppbUNRQXFBUXY4VUdBWm5xYnZYWFBrZWdPQU8zQkFBQWdGd1ltcC82cGxiTHpKZDBmM2JKV3ZpajVnVkovR3dRQWVCZ3Y3eFVBZHcxY05mUDcwUkVBMm9jQkFFQnVERisxNTlNeWY0R2tROUV0YStGN2pZUC9BS0JLbGlSZkt0MElrTW44WWpOK293Rmx3Z0FBSUZjYUU3T2ZrT3Y1a2dwNXVhSFBTWDZrZEc4Q0FRQ25VTGFuQWJqcC9ZMkoyVTlFZHdCb0x3WUFBTG5UMkRienNTVC9jVWxIbzF0V3hDWGZ5OHNxQUZSU3VjNEJPS3dsdXlvNkFrRDc4VTRWUUM0TlRNNyt0ZVEvSldrcHVtVzUvSUNWL2xGUUFJQ1RXQ2pQMVY5bWR1MWdjL29iMFIwQTJvOEJBRUJ1TlNablAyU21ONmdJZDlSbnBteC9lZDc4QVFCV3hoZFZqcWUvbUw0OHNEUzZLem9EUUdjd0FBREl0ZnJFekc5TDl1Ym9qbFBKOWxrNTN2Z0JBRmJISlIwdC9oRHNycmRZODg2RjZBNEFuY0VBQUNEM0dwUFQ3M2JwbXVpT2t6b20rWVBSRVFDQWFGbmhQemJiM3cxT3p2eFJkQVdBem1FQUFGQUlnNU16VGJsdWp1NDRrWXpIL2dFQUpQbDhvYThBYUdXK2RIRjBCSURPWWdBQVVCajF5Wm5MemZUZTZJNkg4OE9TenhYNkRSOEFvRjBXdkxpRHNObC9IZHIycVU5Rlp3RG9MQVlBQUlWaEpoOVltdmtseWY4d3VrWFM4Y2YrN2VObEZBRHdrTXpraFhsMnpTUHNYMXBLK2IzVkRrRGI4TTRWUUtGWVUxbDlROC9QU1ByVDZKWnN2eDAvOVJrQWdHOHI0dU1BM2JlTk5LZjJSV2NBNkR3R0FBQ0ZZeGROTGRZSDZ4ZEt1ak1zb2lXSngvNEJBQjdGQ3pZQXVQVForc2FlOTBSM0FPZ09CZ0FBaFdTWDNqVmY3NXQvaWFTN0kzNSt0aS9KczRpZkRBREl0WVZpSFFMZ21WOWlGMDF4UFJ0UUVRd0FBQXJMM3ZiNVEwZGJPbC9TVERkL3JpOUlmcWliUHhFQVVCUit0RUJQaG5IOThkRFZzMzhWblFHZ2V4Z0FBQlRhV0hQbVFLdVZQVS9TNTd2eUExMXlIdnNIQURnWmwveG9kTVN5SEVzOWZubDBCSUR1WWdBQVVIakR6VDMzeVpiT2szUnZwMytXSHk3ZS9aMEFnQzRyeE84SnUzWGd5dGt2UkZjQTZDNEdBQUNsMEpqNDlGZVRkSjdrMyt6VXovQk15dmJ5c2drQWVId0ZHSXEvdGRDYnJvK09BTkI5dkpNRlVCb0Rrek5mekZMdGVaSWU2TWdQMkcvSFQvOEhBT0R4ek9mN1BqR1R2MzM4aXFtRDBSMEF1bzhCQUVDcERGMjFlNDhzdlZEUzRYYit1YjRvWlR6MkR3Q3dETDVrMGxKdWYyZE1EN1JtZnpzNkFrQU1CZ0FBcGRPWTJQMlBsdG5ManAvWDN4NitqNFAvQUFBcmNDeVh2elRjUEh1ek5jV0RiSUdLWWdBQVVFcjFxNmMvN0dhdmxyUzAxai9MNTAxK09MZmY1QUFBY2lqTDV6a0FmMURmdHVlajBSRUE0akFBQUNpdHdZbVpQemIzMTB0citLYkRwV3h2THQvRUFRRHk3Rmp1Zm5mTW05bVYwUkVBWWpFQUFDaTErcmJaMzNYWEcxZjd6L3VESmhYamVjNEFnRHpKMmU4T003dWhQakhkOGNmbEFzZzNCZ0FBcFRlNGJlWjJtUzVaOFQvWWtyTDdjL2NORGdDZ0FIeFJPVG83eHI0NnNKUnVqcTRBRUk4QkFFQWxOQ1ptZHJtMG9tY2Vady93MkQ4QXdDcTU1RWR6TWlKN2RwazFwK2FpTXdERVl3QUFVQm1Ea3pOWFNycDFPWCt2SDVQOFlFN2V1QUVBaXVsWWRJQWs2V1AxeWRrN29pTUE1QU1EQUlCS3FVL012TVhsN3p2VjM1ZnRUVG02ZEJNQVVFVHRleGp0cW1WdWRyRVp2OUVBSE1jQUFLQlN6T1NOTTU1NmthU1RmaHZpaDAzaVFra0F3Rm9GUHduQXBQY05Ua3gvTWpRQ1FLNHdBQUNvSEx2d2psYTl0ZmdhYy8zRlkvNmlTODdCZndDQWRvaDlFc0NoVnF0M1cyZ0JnTnhoQUFCUVNkYTg1OWhBVm51bHBJODgvSC9QRHBnOEgvZHNBZ0FLenJPSG5nWVF3cTRaYXQ3OXphaWZEaUNmR0FBQVZKWTFwK2JxcmY0WFM1cVNKTFVrZjRCdi93RUFiYlFROEh2RjlLWDY2S0ZmNi80UEJwQjNEQUFBS3MyYUgzOXdxVlc3d0YyZjhmdVRsRVVYQVFCS0plQ3FNamRkYkcvNlV1d05DQUJ5aVFFQVFPV05OS2YyS2ZPM09RZi9BUURhekx2OE1keWx2eDI4YXViUHV2dFRBUlFGQXdDQXluT1hXUzFkYmxzeXFTZTZCZ0JRSm42MHE3Y0FMR1h1RjNmekJ3SW9GZ1lBQUpXM3NPT2NuNVQ4UDF1dlZOdmlVdUp4eVFDQU5sbVMxT3JhVDN2MzhMYlplN3IyMHdBVURnTUFnRXJ6VzU1WmQ5TjEzL2tmK2x4cGkyU01BQUNBTnVuU2JRQVBMTFlXZDNibEp3RW9MQVlBQUpVMmQzanVDa25mOWZEL3pRWmN0bGtTRHdRQUFMVERzYzcvUW5HM3EwYWI5enpROFI4RW9OQVlBQUJVMXR6T3B6M0p6QzQ3MFYrenVpdHRka1lBQU1DYWVZZWZCR0RTUFkxczlEYzcrMU1BbEFFREFJRHE4cDZiSlRWTzlwZXQ0VXFiR0FFQUFHdlU2UUVnMHlYV3ZIT3BzejhGUUJrd0FBQ29wTG50NS95SXBGZWQ2dSt6SVpkdFlBUUFBS3llZC9ZV2dBOE9YRDN6TjUzOEFRREtnd0VBUU9WNFUwbW1YVnJteC9vMDRrcW5jU2dnQUdDVld1clFrd0I4d1pSZDNvay9HVUE1TVFBQXFKeTVkTTRiSlAySGxmd3p0czZWeGhrQkFBQ3I0NHNkK0RNOTNWeWYzUFBQN2YrVEFaUVZBd0NBU3ZFYnp4ZzI4MnRXODgvYWVwZU5NUUlBQUZhdUE3Y0JmTDJSSGJ1eDNYOG9nSEpqQUFCUUtmUEhCcTZXYk5OcS8vbTAzbVdqakFBQWdKV3hOaDhFYU81WFdQT2V3KzM5VXdHVUhjZGFBYWlNaGVZem5welZzazlMNmwvVEgrUlM5cTBrUDlTZUxnQkErZG1nbERabmJmclQvQi9yRTdNL2JDWVdhUUFyd2hVQUFDckRVN1pMYS8zd0wwa21wWTJaYkpEM1hRQ0FaV3JmR1FBdTk0djU4QTlnTlJnQUFGVEN3bzZ0UCthbUY3YnREelFwYlhKWm5mZGZBSUJUODBXcEhSL1pYWHAvWTl1ZWo2LzlUd0pRUlF3QUFFclBtOC9xY2ZtdXR2L0JTYkxOM281ckNnQUFaZWVTci8wY2dNTnEyWlZ0cUFGUVVRd0FBRXB2dnJiL2pTNmQyWWsvMjVKVWUyTEdDQUFBT0xVMTNnWmcwbldEemVsdnRDY0dRQlV4QUFBb3RZUE5NOGNsbStqb0QwbFNiVXNtNitOMkFBREF5YTNwVVlDbUx3KzAxdDNhdmhvQVZjUUFBS0RVK21wOTEwa2E3L2dQcWtscGk2VGVqdjhrQUVCUnJla1dBTC9NbW5jdXRDc0ZRRFh4R0VBQXBYVm8rOWxuMXN4bUpQVjA2MmY2b3BSOXphUWxYbDRCQUk4eUlOV2V0SnBIQWRyZk5TYW5uOXYySGdDVnd4VUFBRW9ySmJ0VlhmendMMG5XSzlVMnUxVHI1azhGQUJTQkhkTnFuZ1RReXBKZDB2NGFBRlhFQUFDZ2xPWjJiSDJsdWM0TCtlSDlVdHJzTWw1aEFRQVA0NW1rMWdyL0lkTjdocTdhdmFjVFBRQ3FoN2VuQUVySG04OGFrUHlteUFZYmNObm1qQnV0QUFDUDRJc3Irc1d3ZjJtcGRuV25XZ0JVRHdNQWdOSlo2TmwvbWFUdmllNnd1cFEyTVFJQUFCNW1jUVgzQUpnMVI1cFQrem9YQTZCcUdBQUFsTXJjenJPM3VOdmJvanUrellha3RKSEhBd0lBanZObEhoTHIwbWZyVDBqL3RjTTVBQ3FHQVFCQXViamRJR2tvT3VQaGJOaVZOakFDQUFBa0xTN3ZiM09sUysyaXFXWCszUUN3UEF3QUFFcGpidWN6L3BPa240N3VPQkViZGRscGpBQUFVSG5MT3dQZ2Z3OU43djdMVHFjQXFCNEdBQUNsNEM2VFo3Y3B4M2ZjcHpGWEdtY0VBSUFxODFPZkFYQXMxZnl0M1dnQlVEME1BQUJLWWVIYWMzNUcwZzlGZDV5S3JYZlpPa1lBQUtpc0paTWU3OWVBYTlmQWxiTmY2Rm9QZ0VwaEFBQlFlTjQ4YzhoZDEwVjNMRmM2elpWR0dBRUFvS3A4NmFSLzZiNkZ2bHBoZnA4QktCNEdBQUNGTjFmcnZWTFM1dWlPWlRQSk5yaHNtQkVBQUtySVRuSU9nTW11SEw5aTZtQ1hjd0JVQ0FNQWdFSmJhRDc5ZTAxK1NYVEhpdGxEandkc1JJY0FBTHJ0Sk9jQVRBKzBwbityMnkwQXFvVUJBRUNoWmFsMnMyUUQwUjJyWWxKdGN5YXJjeVVBQUZUS0NhNEFNTE9McmFrc29BWkFoVEFBQUNpcytSMW5QVWVtbDBkM3JJbEphYk5ML2RFaEFJQnU4Y2NPQUg5UW41aitTRVFMZ0dwaEFBQlFTUDZCVjlWYzZkYm9qclpJVW0xTEptTUVBSUJLOE1WSC9KL3padmIyb0JRQUZjTUFBS0NRNWo3L3hWK1VkRlowUjl2VXBMUTVrL1ZHaHdBQU91NWhad0NZZEdOOVl2cmV3Qm9BRmNJQUFLQndEbHovOURHVG10RWRiZGNqMlpaTXFrV0hBQUE2S2pNOWRMZi8xd1lHc3B1RGF3QlVDQU1BZ01McFcwclhTRG90dXFNVHJGZXFiWEZHQUFBb3UwVko1cGZaVy9jY2lVNEJVQjBuZmdncEFPVFUwUjNQK1BjdFpiT1N5bjJ4L0ZHcDliVWt6b01HZ0hKS0cvMGJqWnVtbjJnbUhnVURvR3U0QWdCQW9XUnEzYUt5Zi9pWHBQN2pad0x3S2cwQUpaWDB0M3o0QjlCdHZMVUVVQmhIZG14OWljc3VpTzdvRnF0TDZYVG5XaTBBS0prMDdLMmpZK2xOMFIwQXFvY0JBRUFoZVBQTVBuTi9SM1JIdDFuRGxUWXhBZ0JBV1ZoeXBUSGJPWDdGMU1Ib0ZnRFZ3d0FBb0JEbWUzb3ZsdW1wMFIwUmJNaVZOakFDQUVBcGpPbkJnWjdkMjZNekFGUVRBd0NBM0R2VVBHdUR1YTZNN29oa0k2NTBHaWNDQWtDUldZK3JaMTEyb1RVNTRoVkFEQVlBQUxtWGVtclh1elFhM1JITjFrbTJudk9pQUtDdzF2czlBMWZQL2xWMEJvRHFZZ0FBa0d0SHRwKzkxZHhmRjkyUkYybmNsY1lZQVFDZ2FLenVYaHUxRjBaM0FLZzJCZ0FBdVdhV2JoT3ZWWTlnNjEwMndnZ0FBSVZoVWpwTmYxaWZtTDQzT2dWQXRmR21Ha0J1emUzYytwT1MvK2ZvanR3eEtXMTAyWEIwQ0FCZ09kS29qdFY3MHh1aU93Q0FBUUJBTHZrdHo2ekwvZnJvamp4TEd6UFpJRmNDQUVDdTFhUnMxTjVxemFtNTZCUUFZQUFBa0V0elIrYmZKdW03b2p0eXphUzB5V1YxUmdBQXlDc2I4MzFEMjZmZUhkMEJBQklEQUlBY21tdWU5VVNUTG92dUtJUWsyV2FYRFRBQ0FFRGVXTCtVUm5wZWFpWmVwQUhrQWdNQWdQeXAxVzZXTkJpZFVSU1dwTFRGcFg3ZVh3SkFucVIxMmNjYnpidi9iM1FIQUh3YkF3Q0FYSm5iZWM0UFMzNWhkRWZoSkttMnhXVjkwU0VBQUVsS1E1NjF4dXpGMFIwQThIQU1BQUJ5dzV0S2N0MG15YUpiQ3FuMjBKVUF2ZEVoQUZCeEptbWR2MmY0eXVtOTBTa0E4SEFNQUFCeVk2NTJ6czlKK2cvUkhZWFc0MHBiTXFrV0hRSUExWlhXK1h6anUycHZqdTRBZ0VkakFBQ1FDMzdqR2NNbTN4N2RVUWJXSzlXZTZGTGlUQUFBNkxvZVZ4cTFuN2VMcGhhalV3RGcwUmdBQU9UQy9OSDZOc2syUlhlVVJwOHJiVGwrUUNBQW9IdlNPdDFiMzc3Nzk2STdBT0JFZUdzSUlOekNqbk8vVDZZM1JuZVVqUTI0N0hUblJBVUE2SlorVjg5cHgxNFFuUUVBSjhNQUFDQmNwdFl1U2YzUkhXVmtEVmM2UFdNRUFJQk9NOG5HOWJmOVY5N3ptZWdVQURnWkJnQUFvUloyYlAweFNTK0s3aWd6RzVUU1JzNERBSUJPc2tHMWpvMmxWMFozQU1EallRQUFFTWFieitweCthM1JIVlZnd3k3YnlPMEFBTkFSU2JKUnYzNzhpcW1EMFNrQThIZ1lBQUNFbWU4NThLc3VQUzI2b3lyU2lDdXQ1MG9BQUdnM1c2ZERqZjdwcTZNN0FPQlVHQUFBaERqWVBITmNyb25vanFxeE1WY2Fad1FBZ0xicGNmV3N5MTV0VFdYUktRQndLZ3dBQUVMMDlmUmNLMmw5ZEVjVjJYcVhqVEVDQUVBN3BISDc3RUJ6NXMrak93QmdPUmdBQUhUZG9lMW5uK2x1YjRqdXFMSzAzcFZHb3lzQW9PQUdYS25mbngrZEFRREx4UUFBb090U3Nsc2w5VVIzVkpwSjlvUk1Oc1NWQUFDd1dyVnh1Nk4rN2ZTOTBSMEFzRndNQUFDNmFtN24xbGVZNjd6b0RrZ3lLVzF5YVpBUkFBQldLbzFvc1Q1Z3I0dnVBSUNWWUFBQTBEWCtyaWYzUzM1RGRBY2V4cVRhSnBmVm8wTUFvRGdzU1RhcXk2MDVOUmZkQWdBcndRQUFvR3NXRGc1ZEp0ZVRvenZ3S0VteXpaazBFQjBDQU1WZ1kzNS9mZWZ1MjZJN0FHQ2xHQUFBZE1YaDVnOXV5cVRMb3p0d1lwYWsydVpNMWg5ZEFnRDVacjJTRGVuRlp1TCtLUUNGd3dBQW9DdFM3ZGhOSm8xRWQrQngxS1MwT1pQMThKNFdBRTRtamZ2ZGpSM1RkMFYzQU1CcU1BQUE2TGk1bmMvNFQ1SzlKcm9EeTlBanBTYzV6MmdBZ0JOcHVDOE5waGRFWndEQWFqRUFBT2dvZDVrODJ5WEpvbHV3VEQxUzJwSkpYQWtBQVAvR0pJM3B2U1BOcVgzUktRQ3dXZ3dBQURwcVljZlcxMHI2ajlFZFdCbnJrMnFiWGFwRmx3QkFQdGlJRm9hK083MHh1Z01BMW9JQkFFREhlUFBNSVRlL1Byb0RxOVQvMEprQS9LWUFVSFUxcWJYT0w3S0xwaGFqVXdCZ0xYaGJCNkJqNWxMdjJ5VnRqdTdBNnRtQVpLZG4zTUFCb05Kc1BQdmE2STdwOTBkM0FNQmFNUUFBNklqNUhXZDlqNWxmR3QyQnRiT0dsRFk1SXdDQWF1cVRlc2Q3bmgrZEFRRHR3QUFBb0NOY3RadVBmMytNTXJBaFY5cVlSV2NBUU5mWnVIKzQvNnBQZmpxNkF3RGFnUUVBUU52TlgzUDJzeVgvOGVnT3RKY05TK2tKUEJrQVFIV2tJYldPamFkWFJIY0FRTHN3QUFCb0svL0FxMnFlYkZkMEJ6ckQxcmxzUFNNQWdBb3dLWTFsTjQ1Zk1YVXdPZ1VBMm9VQkFFQmJ6WDN1aXhkSk9pdTZBNTJUeGwxcGpCRUFRTG1sZFg1NG9IZG1Ncm9EQU5xSkFRQkEyeHk0L3Vsalpyb211Z09kWit0ZE5ocGRBUUFkMGlOcHRQVlQxaFNIbndBb0ZRWUFBRzNUdDVpYWtrNkw3a0FYbUpRMlpMSmhyZ1FBVUQ2MU1mL0M0UFk5ZnhMZEFRRHR4Z0FBb0MyTzduakd2NWZaTDBWM29MdlNScGNOUlZjQVFCc05TRGJzejR2T0FJQk9ZQUFBMEJhWldyZEk2bzN1UUplWmxEWmxVb01yQVFDVVF4cnpEOVdiTS84UzNRRUFuY0FBQUdETmp1dzg2OFV1dXlDNkEwRk1xbTEyV1owUkFFQ3gyWWd2TmVycHRkRWRBTkFwREFBQTFzU2JaL1pabG02TzdrQXdrOUptbHdZWUFRQVVreVVwcmRNVjFweWFpMjRCZ0U1aEFBQ3dKdk8xM2pmTDlOVG9EdVJBZXVoS2dMN29FQUJZaFhXNnY3RnorcDNSR1FEUVNRd0FBRmJ0VVBPc0RTWmRGZDJCSEtsSmFVc202NGtPQVlEbHN4NVhHazR2amU0QWdFNWpBQUN3YXFsbTE3bkUwK0R4U0QyU1BURTcvaHh0QUNnQUc5ZnV4bzVQZml5NkF3QTZqUUVBd0tvYzJYNzJWcE85UHJvRCtXUzlVbTJMUzRrekFRRGttOVhkVzBPSngvNEJxQVFHQUFDclltYTd4R3NJSGsrZksyMlJqQkVBUUY2WnBQWDZyWkhtMUw3b0ZBRG9CdDY4QTFpeHVlMWJYeTNwUjZNN2tIODI0TExOT3Y0bUd3QnlKbzFvWWZDNzBpOUdkd0JBdHpBQUFGZ1J2K1daZFpuZkVOMkI0ckM2SDM5RUlDTUFnRHlwU1JwTnYyb1hUUzFHcHdCQXR6QUFBRmlSdVNQemI1UDBYZEVkS0JacnVOS21qQkVBUUc2a3NlenJnenMvK2I3b0RnRG9KZ1lBQU1zMjF6enJpU1pkRnQyQllySWh5VFp3SlFDQUhPaVhlamJVbmgrZEFRRGR4Z0FBWVBscTlnNUpnOUVaS0s0MDRrcW5jU2dnZ0ZpMU1mOUkveFZUbjRydUFJQnVZd0FBc0N4ek84LzVZY2wrSXJvRHhXZnJYR21jRVFCQURCdFV0akNlWGhMZEFRQVJHQUFBbkpJM2xlVGFKUzdlUnB2WWVwZU5NUUlBNkRLVDBycnNsdkVycGc1R3B3QkFCQVlBQUtjMGw4NzVMNUorTUxvRDVaTFd1MnlVRVFCQTk2UjFPbEx2bjNsYmRBY0FGMFhEMVFBQUc0cEpSRUZVUkdFQUFQQzQvTVl6aHMyMFBib0RKV1JTZW9MTGhoa0JBSFJCajh1R1d6OWpUV1hSS1FBUWhRRUF3T09hUDFhZmxIUjZkQWRLeXFTMDBXV0RqQUFBT2l1TjZVdU5uYk1maXU0QWdFZ01BQUJPYW1ISHVkOG42VTNSSFNnNWs5SW1sOVdqUXdDVVZyK3JOcnowdk9nTUFJakdBQURncERMUGJwWFVIOTJCQ2tpU2JjNzR0dzFBKzVtVTF1bFBCcHFmK25KMENnQkVZd0FBY0VMejEyeDlyc3hmSE4yQjZyQWsxYlprVWw5MENZQXlzU0ZmYWd5bVYwZDNBRUFlTUFBQWVBeHZQcXRIeVhkRmQ2Q0NhbEx0aVptc2p6TUJBTFJCa21vam1yVG0xRngwQ2dEa0FRTUFnTWVZcngzNEZaZWVGdDJCaXFwSmFZdEx2ZEVoQUlyT1JuMS8vZnJwRzZJN0FDQXZHQUFBUE1MQjVwbmpraWFqTzFCeFBWTGFra2s5WEFrQVlKVjZYTFd4bnBkRlp3QkFuakFBQUhpRXZscnZUa25yb3pzQTY1VnFtMTJxUlpjQUtLSTBydGw2OCs2UFJIY0FRSjR3QUFENGpxUFhiZjBCbDM0K3VnUDRqbjRwYmM1ay9MWUNzQUkyNEo0TnRjNlA3Z0NBdk9FdEZZRHZXR3I1clpKNm9qdUFoN01CeVU3UEpJc3VBVkFVYVZ5L085emNjMTkwQndEa0RRTUFBRW5TM0k2emY5d2t2aTFCTGxsRFNwc1lBUUNjV2hyeG8vWHZTVDhYM1FFQWVjUUFBRURlUExOUE1rNUpScTdaa0pRMmNpZ2dnSk96SkdXai9pYTdhR294dWdVQThvZ0JBSUFXZW5vdmsvU1U2QTdnVkd6WWxUWXdBZ0E0aVRILzV2QzFNKytOemdDQXZHSUFBQ3J1OExWUDI1aTUzaGJkQVN5WGpicHNQU01BZ0VleVhxbHZUQmRFZHdCQW5qRUFBQlZuV2M5TkpvMUVkd0Fya2NaZGFad1JBTUREak91amZkdW1aNk16QUNEUEdBQ0FDanV5L1Jubm12U2E2QTVnTld5OXk4WVlBUUJJMWxBMk9OajdvdWdPQU1nN0JnQ2dvdHhsWnRsdDRuVUFCWmJXdTlJSUl3QlFhU2FsOGRadDF2ejRnOUVwQUpCM3ZQRUhLbXBoeDliWFN2cVI2QTVnVFV5eURTNGJaZ1FBcXNwR2ZLN2VOM3RaZEFjQUZBRURBRkJCM2p5MzRhYWQwUjFBVzloRGp3ZHNSSWNBNkxyazhoRi9uVFdWUmFjQVFCRXdBQUFWTkZkclhTbjVrNkk3Z0xZeHFiWTVrOVc1RWdDb0VodjNmeDYrZHVhTzZBNEFLQW9HQUtCaTVuZWM5VDBtZjB0MEI5QjJKcVhOTHZWSGh3RG9pajZwWjZSK2ZuUUdBQlFKQXdCUU1lNzJEc2tHb2p1QWpraFNiVXNtNjRzT0FkQnBhYjMrYktCNTE1ZWlPd0NnU0JnQWdBcVp2K2JzWjh2c0ZkRWRRRWZWcExRbGsvVkdod0RvRkJ2U1VxTSs4c3JvRGdBb0dnWUFvQ0w4QTYrcWViSmJvenVBcnVpUmJFc205VVNIQUdnN2szeTRkWTAxNzF5SVRnR0FvbUVBQUNwaTd2TmYrZ1ZKWjBkM0FOMWl2Vkp0czB1MTZCSUE3V1NqZm1ENHhsbWVaQU1BcThBQUFGVEFnZXVmUG1ieTdkRWRRTmYxdTlKbWx5V2VEZ0NVUW85VUcvZVhSMmNBUUZFeEFBQVYwTGRVdTFyU2FkRWRRQVFiY05sbWwvRWJEeWk4TkpaOXV0NmN1VE82QXdDS2lyZERRTWtkdmU3Yzc1ZjB5OUVkUUNTclMzYTZTeFpkQW1DMXJOODlHODZlRzkwQkFFWEdBQUNVWExiVXVrVVM1NkdqOHF6aFNwc1lBWUJDTWtsai92dkR6VDMzUmFjQVFKRXhBQUFsZG1USDJTOXkwL09qTzRDOHNDRlgyc0FJQUJSTkd2WmpnOTlYZTMxMEJ3QVVIUU1BVUZMZVBMUFBaRGRIZHdCNVl5T3VkRm9XblFGZ21TeEoyWkJmWWhkTkxVYTNBRURSTVFBQUpUWGYwL3NtU1dkRWR3QjVaT3VrTk02VEFZQWlzSFgrcmVFYlptNlA3Z0NBTW1BQUFFcm9VUE9zRGVhYWlPNEE4c3pXdTlJWUl3Q1FaOWJqNm0ya0YwUjNBRUJaTUFBQUpkVFRrNjUxYVRTNkE4ZzdXKyt5RVVZQUlLOXNYSGYxWFRlMU83b0RBTXFDQVFBb21TUGJ6OTdxTGc1S0FwYkRwTFRSWmNQUklRQWV6UnFlTlliNkxvanVBSUF5WVFBQVNzYk1ka21xUlhjQVJaSTJackpCcmdRQWNzT2t0RTYzVy9QakQwYW5BRUNaTUFBQUpUSzM4K3lma1BTajBSMUE0WmlVTnJtc3pnZ0E1SUdOK0h4OVlQck4wUjBBVURZTUFFQkorQzNQckV0MlEzUUhVRmhKc3MwdUcyQUVBRUxWSkkzbzU2d3BudGNKQUczR0FBQ1V4TUtSK2N2bCt1N29EcURJTEVscGkwdjlqQUJBRkZ1WDNUdDA3ZlFmUkhjQVFCa3hBQUFsTU5jODY0a3V2VFc2QXlpRkpOVzJ1S3lQRVFEb3VqNnBaMFB2YzZJekFLQ3NHQUNBTXFpbG15UU5SbWNBcFZHVDBoWkp2ZEVoUUxXa2RmcnJnYmZmL2VYb0RnQW9Ld1lBb09EbXRtOTlwcVJYUjNjQXBkUGpTbHN5bnFrQmRJa05xdFVZR25scGRBY0FsQmtEQUZCZzNsU1MrVzJTTExvRktDUHJsV3BiTWlseE93RFFVU2JWeHJLZDFyeHpJVG9GQU1xTUFRQW9zSVhhMXRkTCtzSG9EcURVK284ZkRHajh4Z1E2eGtiOHdmcDFNODNvRGdBb085N09BQVhsTjU0eDdQSWQwUjFBRmRpQVpLYzcxOW9BblZDVE5PYXZqTTRBZ0NwZ0FBQUthdjVZZlZMUzZkRWRRRlZZdzVWT3p4Z0JnSFliODg4T2JaLzVtK2dNQUtnQ0JnQ2dnQloyblB0OWt0NFUzUUZValExS2FTUG5BUUR0WXYzdU5uS014LzRCUUpjd0FBQUZsS2wxaTZUKzZBNmdpbXpZWlJ1NUhRQllNNU5zblg5d3FIblBONk5UQUtBcUdBQ0FncG0vWnV0ekpiMGt1Z09vc2pUaVN1dTVFZ0JZQ3h2MHhjYVRhejhkM1FFQVZjSUFBQlNJTjUvVm82UmJvenNBU0RibVN1T01BTUNxSkNrTitlVjIwZFJpZEFvQVZBa0RBRkFnOHowSGY5bmxUNC91QUhDY3JYZlpHQ01Bc0ZJMm9yMk5tMloyUlhjQVFOVXdBQUFGY2JCNTVyamN0MFYzQUhpa3RONlZScU1yZ0FMcGtkS2d2VGc2QXdDcWlBRUFLSWplbnQ0ZGt0Wkhkd0I0RkpQc0NabHNpQ3NCZ09WSVkzNTM0L3FwajBkM0FFQVZNUUFBQlhEMHVxMC9JTmN2UkhjQU9BbVQwaWFYR3RFaFFMN1pnTHd4N09kSGR3QkFWVEVBQUFXdzFQSmJKZlZFZHdCNEhDYlZObWV5ZW5RSWtGKzFVWCt2TldjT1JIY0FRRlV4QUFBNU43Zno3SmVieExjbFFCR1laSnN6cVQ4NkJNaWZOT0lMQTRQVHZ4emRBUUJWeGdBQTVKZzN6K3lUMjQzUkhRQ1d6NUpVMjVMSkdBR0E3N0RrOGlGN2d6V1ZSYmNBUUpVeEFBQTV0bERyZll1a3AwUjNBRmlobXBRMlo3TGU2QkFnSDJ5ZGZYWG9odDIvRjkwQkFGWEhBQURrMU9Gcm43WXhrNjZJN2dDd1NqMlNiY21rV25RSUVLeFhxbTFvL1ZoMEJnQ0FBUURJTGN0NmJqUnBKTG9Ed09wWnI1U2VtRWs5UENJUTFXWGovdUdCSzJlL0VOMEJBR0FBQUhMcHlQWm5uR3ZTYTZNN0FLeWQ5VW0xemM2VkFLaW1ockxCd2RFWFJXY0FBSTVqQUFCeXhsMW1sdTBTLzMwQzVkSC8wSmtBL0ZlTktqSEpodjBtYTk2NUVKMENBRGpPb2dNQVBOTDh6cTJ2ZGZmM1IzY0FhRCtmTTJYZk1JazdBbEFGNjNSbytGMjd1WlVOQUhLRTd5S0FIUEhtdVExMzN4bmRBYUF6ck9GS201ejVIZVdYWE5uUTRrOUVad0FBSG9rQkFNaVJ1WlM5WGRLL2krNEEwRGsyNUVvYmVSUTZ5czNHL0F1ajEzM3FMNkk3QUFDUHhBQUE1TVRjenFjOXljd3ZqZTRBMEhrMkxLVU4zQWVBY3JJK3VZME9QanU2QXdEd1dBd0FRRjU0enkyU0d0RVpBTHJEUmwyMm5oRUE1V1ByOUVlRHpZOTlJN29EQVBCWURBQkFEc3p2UFB2L2svU0s2QTRBM1pYR1hXbU1FUURsWVVOYWJBeU5YQmpkQVFBNE1RWUFJSmczbGR4dGx6Z1dES2drVysreVVVWUFsSUJKR3M2dXRPYWRTOUVwQUlBVFl3QUFnczJscmI4ZzZkem9EZ0JCN1BoNUFEYk1DSUJpczNXNmYrakdtWnVqT3dBQUo4Y0FBQVRhM3p4bm5abHZqKzRBRUM5dGRObFFkQVd3U2oxU0d0S0xvak1BQUkrUEFRQUkxSjkwdGFRblJIY0F5QUdUMHFaTWFuQWxBSW9uamZydXhyVzcvekc2QXdEdytCZ0FnQ0JIcnp2MysyWDZsZWdPQURsaVVtMnp5K3FNQUNnTzYzZHZqUHB6b3pzQUFLZkdBQUFFeVpaYXQwanFqZTRBa0RNbXBjMHU5VE1Db0FCTThqRzl6NW96QjZKVEFBQ254cW5qUUlBajE1N3pRc3YwcDlFZEFIS3NKV1ZmUy9KajBTSEF5ZG13THd6KzJuVERUQ3hXQUZBQVhBRUFkSm0vNTl4ZXkvVE82QTRBT1ZlVDBwWk0xaE1kQXB5WUphbHZSTC9BaDM4QUtBNEdBS0RMNXUvTDNpVHBqT2dPQUFYUUk5a1RNNGtSQUhrMDZ0L291Mzc2ZDZJekFBREx4d0FBZE5HaDVsa2JKSitJN2dCUUhOWXIxYmE0bFBpU0ZmbGhQYTdleGdBSC93RkF3VEFBQUYzVVUwczdKYTJMN2dCUU1IMnV0RVV5UmdEa3hiait2di82dXo0WG5RRUFXQmtHQUtCTERsOTd6amt1L1pmb0RnREZaQU11Mnl5TzcwVzh1bWVEUTZNWFJHY0FBRmFPQVFEb2twUnBsNlJhZEFlQTRySzZLMjF5UmdERU1hazJwbmRZODg2RjZCUUF3TXJ4RmdMb2dybnRaMThvcy84WjNRR2dIUHl3bEgwemliUFgwVzFwMUE4UHZudDZPTG9EQUxBNlhBRUFkSmpmOHN5Nmt0MFkzUUdnUEd4SXNnMWNDWUF1cTBrYXluNHlPZ01Bc0hvTUFFQ0hMY3d0dkZXdTc0N3VBRkF1YWNTVlR1TVNBSFJQR3ZWL0dyeCs5aytqT3dBQXE4Y0FBSFRRM002enQ3ajc1ZEVkQU1ySjFyblNPQ01BdXFCUHN0TjZuaDJkQVFCWUd3WUFvSlBjYnBJMEdKMEJvTHhzdmN2R0dBSFFXYlV4LzkrTmlidS9HdDBCQUZnYkJnQ2dRK2EyYjMybUpPNlZCTkJ4YWIzTFJoZ0IwQmsycUtYNjRPZ3JvanNBQUd2SEFBQjBnRGVWWkw1TEhORUZvQnRNU2h0Y05zd0lnRFl6cVRhNnRNMmFkeTVGcHdBQTFvNEJBT2lBaFhUMjZ5VDlVSFFIZ0FveEtXMTAyU0FqQU5ySFJueC8vWVk5MTBkM0FBRGFnd0VBYURPLzhZeGhOOXNaM1FHZ2dreEttMXhXanc1QktkU2tiSjI5TkRvREFOQStEQUJBbTgwZnJVOUlPajI2QTBCRkpjazJaOUpBZEFpS3prWjl6OGlPM1IrTjdnQUF0QThEQU5CR0M4Mm5mNjlNYjQ3dUFGQnRscVRhNWt6cWl5NUJZZlc3RDY0N3htUC9BS0JrR0FDQU5zcFM3UlpKL2RFZEFLQ2FWTnZpc2o3T0JNREtwWFgrTzlhODU0SG9EZ0JBZTNGQ09kQW04enZPZW80cmZUaTZBd0FlWVVscWZUVkpuT0dPWmJJaFB6cjQ2OU4xTTdFZUFVREpjQVVBMEFiK2dWZlZwTnF1NkE0QWVJd2VLVzNKcEI0K3kyRVprbFFiOFYvbHd6OEFsQk1EQU5BRzg1Ly8waSs3L09uUkhRQndJdFluMVRhN1ZJc3VRZDZsVWYxci9ZYVozNHp1QUFCMEJnTUFzRVlIcm4vNm1PUlhSM2NBd09QcWw5TG1UTVp2ZnB4TWo5VFRtODZQemdBQWRBNXZBNEExNmx1cTdaQzBQcm9EQUU3RkJpUTdQZU1FSUp4UUdzMCsxbi96Sno4ZDNRRUE2QndHQUdBTmpsNjM5UWNrWFJUZEFRRExaUTBwYlhKR0FEeUMxWlUxbnJUdnZPZ09BRUJuTVFBQWE3RFU4bHNsOVVSM0FNQksySkFyYmVTTU4veWJOSmE5Mnk3OTJueDBCd0NnczlqL2dWVTZzdU9jbDVuMHY2STdBR0MxL0tBcHU0KzNBbFdYUnZ6STRLOU5EMFYzQUFBNmp5c0FnRlh3NXBsOUp0MFUzUUVBYTJHakxsdlBsUUJWWnNtVk5mUzY2QTRBUUhjd0FBQ3JzTkRUZDZta3AwUjNBTUJhcFhGWEdtTUVxQ29iMVQ4UDN6VDl3ZWdPQUVCM01BQUFLM1Q0MnFkdHpOemZIdDBCQU8xaTYxMDJ5Z2hRT2IxU2VwS2VIWjBCQU9nZUJnQmdoY3g3YmpCcEpMb0RBTnJHcFBRRVZ4cGhCS2dTSC9NL3IxODJmVzkwQndDZ2V4Z0FnQlU0Y3UxWnp6RFh6MFIzQUVEYm1XUWJYRGJNQ0ZBRlZsZHJlR2owcGRFZEFJRHVZZ0FBbHNsZFpsbTZUZngzQTZDc1RNY2ZEOWlJRGtGSG1XU2oybW5OTzVlaVV3QUEzY1d6ZjRCbG10OSs5bXZjN0hlaU93Q2c0MXpLdm03eWVkNG1sSkdOK29HaGQwK1BSWGNBQUxxUGJ6S0JaZkJibmxsM3MydWpPd0NnSzB4S20xMGE0SGFBMGtrdURldVYwUmtBZ0JnTUFNQXl6QjJaZTd1a2Z4ZmRBUUJkazZUYVpwZjFSWWVnbld3czNUTjAzZlNIb3pzQUFERVlBSUJUbU52NXRDZVo3QzNSSFFEUWRUVXBiY2xrdmRFaGFBZnJrdzhtUFN1NkF3QVFod0VBT0JYdmVhYzRFZ3RBVmZWSXRpV1RlcUpEc0ZacHhEOWc3NXphRjkwQkFJakQ2VDdBNDVqYmZzNlB5UFJSOGQ4S2dLbzdhbXA5M2FSV2RBaFd3d2I5Mk9EdDB3Tm00bUFIQUtnd3JnQUFUc0tiU2pMZEpqNzhBNERVNzBxYlhaYjQvRmc0SnZVTXAwdjQ4QThBWUFBQVRtS3VkdmJQU3pvM3VnTUE4c0lHWExaRk10NDlGSXF0ODI4TjNEUjFlM1FIQUNBZXY4S0JFL0RtZnh3eHFSbmRBUUI1WXdNdU85MjVOcW9vYXBMNmVpNkl6Z0FBNUFNREFIQUM4N1dqVGNrMlJYY0FRQjVadzVVMk1RSVVRVnFYZlh6b0hYZlBSSGNBQVBLQkFRQjRsSVhtTTU0czZWZWlPd0FnejJ6SWxUWXdBdVNaOVh2VytQNzduaFBkQVFESUR3WUE0Rkc4bHQwbXFTKzZBd0R5emtaYzZiUXNPZ01uWXBLTjJIK3ppNzR4RjUwQ0FNZ1BkbnZnWVJhdU9lZThMT212b3pzQW9FajhmbFAyQUc4cGNtVlk4OE8vdnJzUm5RRUF5QmV1QUFBZTR1ODV0emRMZW5kMEJ3QVVqYTEzMlJoUG1Nc0xTMUp0WGZhejBSMEFnUHhoQUFBZU1yOTM2WTJTem9qdUFJQWlTdXRkTnNJSWtBdWovcFhHdFROM1JHY0FBUEtIQVFDUWRPaTZyVStRMjJSMEJ3QVVsa2xwbzh1R28wT3F6WHFsMm1uRHo0cnVBQURrRXdNQUlLa244NTJTMWtWM0FFRFJwWTJaYkpBckFjS3M4NytwVDM3a242TXpBQUQ1eEFDQXlqdDg3VG5udU92bm9qc0FvQlJNU3B0Y1ZtY0U2RGFycXpVNFBQcUM2QTRBUUg0eEFLRHlVcVpka21yUkhRQlFHa215elM0YllBVG9HcE5zMUsrejVwMUwwU2tBZ1B6aW1UMm90TG1kNTd4S3JnOUVkd0JBS1dWUzYydEpPaG9kVWdFai91RHdyMDJQUm1jQUFQS05Ld0JRV2Q1ODFvQ2ttNkk3QUtDMGtsVGJrc242dUJLZ28ycFN6MURyNWRFWkFJRDhZd0JBWlMzVURyNVZydStPN2dDQVVxdEphWXVrM3VpUThxcXQwK2ZxTit6NXUrZ09BRUQrTVFDZ2t1WjJucjNGNVcrTDdnQ0FTdWh4cFMwWnA2MTBnUFhKNjAvd0g0M3VBQUFVQXdNQXFzbnRSa21EMFJrQVVCWFdlL3gyQUNWdUIyaW5OS1lQMnBYVGU2TTdBQURGd0NHQXFKeTU3VnVmS2ZPUGlYLy9BYURyZkVIeXJ5ZDVGbDFTZkRhb3hjSGJkL2ViaVZVRkFMQXNYQUdBU3ZHbWtzeDNpUS8vQUJEQ0JpVGJuUEVxdkZZbXBSRi9DeC8rQVFBcndRQ0FTbG1vbmYyemtuNG91Z01BcXN6cVVqcWRFV0F0MHFqdmJkdzQvZTdvRGdCQXNUQUFvREw4eGpPR1hYWnRkQWNBUUxKQktXM2t5K3RWcVVtTHc3MHZpTTRBQUJRUEF3QXFZLzVZNHlwSnAwZDNBQUNPczJGWDJzQUlzRkpwblUrdHUvWVRuNHp1QUFBVUR3TUFLbUdoK2ZUdmxmemk2QTRBd0NQWnFDdWR4Z2l3YlAzdWpkRmp6NHJPQUFBVUV3TUFLaUdyMWQ0cHFUKzZBd0R3V0RibVNtT01BTXVSMXZsdldQT2V3OUVkQUlCaTR2Z2RsTjc4anJPZTQwb2ZqdTRBQUR5K2JLL0pEL0RXNUdSc1NBdER0Kyt1UjNjQUFJcUxLd0JRYXY2QlY5V2sycTdvRGdEQXFhWFRYR2swdXVML3RYZDNJWExkWlJ6SGY4Ly9UUFpsZGw2U1RVMlQzYlNVVXJ3d1Rib05nb3BnaTdYb1ZiMHFDQ0o2WVZHUkZ0OUFRcFN1NlNZMUlZMnBKSzNnaFNERml5cW9JTjZJZUZGSmtacHNTaXRhSzcyeGFTTWlhVWwzZHZPeS84ZUw5cUxFMk94dVp2WTU1OHozY3hlUzNma0dCbWJPYjg0NVUxSkpLdHJMRDBSbkFBQ3FqUUVBdGJiNHQ3OS94ZVU3b3pzQUFDdGdrcjB2eTlwY0RuQWw2K1F6NHdlZmZ5cTZBd0JRYlF3QXFLMDNIdDI1U1dZUFIzY0FBRmJCM3ZsNndHWjBTSWswcE54cDNCT2RBUUNvUGdZQTFOYkljbU9mcEJ1aU93QUFxMlJTTVpWbFhPMHVTYkt1L3RDWisvTkwwUjBBZ09wakFFQXRYVGh3NXdmay9xWG9EZ0RBR3Bsa1Uzbm92Ny9GeGoxUGRDOThLcm9EQUZBUERBQ29wWngxUk5LRzZBNEF3TnBaa29ycExCdmlFU0IxOGlHYi9jdkY2QTRBUUQzd1hUdW9uWVc1bVUrYjYxZlJIUUNBUHJrczVWZVQvRkoweVBxeXRzNjNqcC9xUkhjQUFPcURNd0JRS3o2N1k4U3lEa1YzQUFENnFDSFpkSmFLNkpCMWxGdzJtajhUblFFQXFCY0dBTlRLWXRINHVrenZqKzRBQVBTWGJaRFNkaCtlRWFDcmx5ZU9uUDV0ZEFZQW9GNFlBRkFiYisyLy9VYVQ3WW51QUFBTWhvMjRpdWxjKzNjdnRzRzl0V1hwcnVnT0FFRDkxUHdsRk1QRWN1TlJsN3JSSFFDQUFScVYwbFNXMWZnZGpIZjkxN2IzcjY5SGR3QUE2b2ViQUtJV0Z2YnYybTA1UFNkR0xRQVlDdDR6NWRkTTh1aVMvckttTGs4OGVXckVyRzcvTXdCQUdYQ3doTXB6bDFrdWpvcm5Nd0FNRFd1NjBsYXYxMGNaSnVWMjNzdkJQd0JnVU9yMHNva2h0VGczODFsM1BSWGRBUUJZZjM1ZXltZnJzZjlheC8vVE9qWi9RM1FIQUtDKzZ2R0tpYUhsUno0eTdxNEQwUjBBZ0JqV2x0S1dHbnhnbmx4NW9uRmZkQVlBb040WUFGQnB2WVhlSGtrM1IzY0FBT0pZMTJXVDFSNEJiS09lN3h4ODdrUjBCd0NnM2hnQVVGbTl1ZHR2TXRrM296c0FBUEhTWmxmYVZNMFJ3RWJrRTZPSnIvMERBQXdjQXdDcXl4dUhKVFdqTXdBQTVXQ2JYZGF0M2doZ1hmK3BIVHo1Wm5RSEFLRCt1QWtnS3FtM2IrYWpNajBqbnNNQWdDdmtzMGwrUHJwaVphemxGMXBQekk5RmR3QUFoZ05uQUtCeWZGWkpwcVBpNEI4QWNCWHB4aXlicU1DWkFDWloyeCtNemdBQURBOEdBRlJPTDgxOFVkSUhvenNBQUNWbFV0cm1VclBjSTBEcStHc1RCMC8vT0xvREFEQThHQUJRS1Q3N29ZNlpmeSs2QXdCUWNpWVZVeTRiTCtrSTBIRGwwZkZQUm1jQUFJWUxBd0FxWlRGZGZGaXlyZEVkQUlBS01DbE51VFJhdmhHZzJLaG4yb2RQdkJqZEFRQVlMZ3dBcUl5bDJkMjN5ZnlyMFIwQWdBcEpVakh0c3BIb2tIY1o5VHgreS9sN296TUFBTU9IQVFDVjRVVitYTkpvZEFjQW9HSUtLVTFuV1NNNlJHL2YrSy9yUDdTSC9uRWhPZ1VBTUh5NGl6b3FZZW1ST3orUjViK0w3Z0FBVkpkZmt2SS9rN1FjMTJCdFgyZ2RuMi9GRlFBQWhobG5BS0QwZlBidWhzdVBSbmNBQUtyTk5rakZkcGRTMEQwQlRFcmo5cm1ZQndjQWdBRUFGYkJZbkh2UXBSM1JIUUNBR2hoeHBXbkpBa2FBMU0ydk5BK2YrdVc2UHpBQUFPOWdBRUNwdlRtN1kxS3k3MFIzQUFEcXc4WmN0azNyZXlGa1EycE9qdDYxam84SUFNRC9ZQUJBcVkwVUl3Y2tUVVozQUFEcXhacXV0QzJ2MndpUU51WGYyT3lmWGwyZlJ3TUE0T3E0Q1NCSzYveStPM1lVWnFjbGxlRyt6UUNBR3ZLM3BIdzJTUU84SXNDYWZubml5ZmtSczBFK0NnQUExOFlaQUNpdHd1eVlPUGdIQUF5UXRTVGI0b1A3U01Ta29xM3ZjdkFQQUNnRHpnQkFLZlhtWnU2WDYrbm9EZ0RBY1BBM1RQbmYvWDliWk8xOHJuWDhOSmV5QVFCS2dUTUFVRG8rZS9lWXBFUFJIUUNBNFdFYlhXbXl6eC9TSnltUEZmZjE5NWNDQUxCMkRBQW9uYVhHdVcvSmRVdDBCd0JndU5obWwyM3Ezd2hnWGIzWWVlemtIL3YyQ3dFQXVFNE1BQ2lWM3R3ZDArNzI3ZWdPQU1Cd1NwdGQxcm4rRWNBMnVFOXN2ZlN4UGlRQkFOQTNEQUFvRjdmdlMycEZad0FBaHBSSmFZdkwydGM1QW5UOVo3Ym5oWFA5aVFJQW9EKzRDU0JLb3plMys4UHlmRUk4THdFQTBWeGFmdDJraGRXL0pGblRMN1orTkQ4NmdDb0FBSzRMWndDZ0ZOeGw4dnk0T1BnSEFKU0JTY1ZXbDQydi91ZXNaUThOcEFrQWdPdkV3UlpLWVhIZnpCZmM5SlBvRGdBQTNzMnpsTThrYVdtRlA5RHhmN1dQelc4ZGFCUUFBR3ZFR1FBSTU3TTdXbTdhSDkwQkFNQ1ZMRW5GVkpaR1Z2Q1BDK25TUkxwMzRGRUFBS3dSQXdEQ0xhYkdYa2xUMFIwQUFGeFZJUlhiczZ6eDNqY0dURjEvZHZMZ3lSZldxUW9BZ0ZWakFFQ29wZG1kdDhyMHRlZ09BQURlVXlHbG0xeHFYUDJ2YlZTNWVmTnQ5Nnh2RkFBQXE4TUFnRkE1RlljbEc0dnVBQURnbWhwU21zN1NWYzRFU0cwL2J0LzQrV0pBRlFBQUs4Wk5BQkZtOFpGZEgzZWwzMGQzQUFDd0toZWs1VE5KV243N2o5WlNyL1hFcVluWUtBQUFybzB6QUJEQ243Ni9jS1VmUkhjQUFMQnFvMUtheXJJa0tVbHAzRDhmblFRQXdFcjhueXZaZ01IcXZmVHlsMDNhRmQwQkFNQmEySmhrMjF5KzRLODBIenY5aStnZUFBQlc0cis4MWk0amJlODFqQUFBQUFCSlJVNUVya0pnZ2c9PSIgcHJlc2VydmVBc3BlY3RSYXRpbz0ibm9uZSIgaGVpZ2h0PSI3NDQiIHdpZHRoPSIxMDI0IiBpZD0iaW1hZ2UwXzMzMTlfOTExMyIvPiYjeGE7ICAgIDwvZGVmcz4mI3hhOzwvc3ZnPg==;fontColor=#FFFFFF;spacingTop=-6;" parent="1" vertex="1">
          <mxGeometry x="364" y="344" width="29.01" height="35" as="geometry" />
        </mxCell>
        <mxCell id="kU3IDCsIoFBLPOvx1m8k-26" value="router-3" style="shape=image;verticalLabelPosition=bottom;verticalAlign=top;imageAspect=0;aspect=fixed;image=data:image/svg+xml,PHN2ZyB4bWxuczp4bGluaz0iaHR0cDovL3d3dy53My5vcmcvMTk5OS94bGluayIgeG1sbnM9Imh0dHA6Ly93d3cudzMub3JnLzIwMDAvc3ZnIiBmaWxsPSJub25lIiB2aWV3Qm94PSIwLjUgLTEuNSA2MyA3NS42NzQ0OTk1MTE3MTg3NSIgaGVpZ2h0PSI3NS42NzQ0OTk1MTE3MTg3NSIgd2lkdGg9IjYzIj4mI3hhOyAgICA8cGF0aCBzdHJva2UtbGluZWpvaW49InJvdW5kIiBzdHJva2UtbGluZWNhcD0icm91bmQiIHN0cm9rZS13aWR0aD0iMyIgc3Ryb2tlPSJ1cmwoI3BhaW50MF9saW5lYXJfMzMxOV85MTEzKSIgZD0iTTIgNDUuNDk0MUwzMi4wMTQ3IDU5LjA5NzlMNjIgNDUuNDk0MSIvPiYjeGE7ICAgIDxwYXRoIHN0cm9rZS1saW5lam9pbj0icm91bmQiIHN0cm9rZS1saW5lY2FwPSJyb3VuZCIgc3Ryb2tlLXdpZHRoPSIzIiBzdHJva2U9InVybCgjcGFpbnQxX2xpbmVhcl8zMzE5XzkxMTMpIiBkPSJNMTYgMjQuNUwyIDMxTDMyLjAxNDcgNDQuNjAzOEw2MiAzMUw0OS41IDI0LjUiLz4mI3hhOyAgICA8cGF0aCBzdHJva2UtbGluZWpvaW49InJvdW5kIiBzdHJva2UtbGluZWNhcD0icm91bmQiIHN0cm9rZS13aWR0aD0iMyIgc3Ryb2tlPSJ1cmwoI3BhaW50Ml9saW5lYXJfMzMxOV85MTEzKSIgZD0iTTIgNTkuMDk5NkwzMi4wMTQ3IDcyLjY3NDVMNjIgNTkuMDk5NiIvPiYjeGE7ICAgIDxyZWN0IGZpbGw9InVybCgjcGF0dGVybjBfMzMxOV85MTEzKSIgaGVpZ2h0PSIzMSIgd2lkdGg9IjQyIiB4PSIxMyIvPiYjeGE7ICAgIDxkZWZzPiYjeGE7ICAgICAgICA8cGF0dGVybiBoZWlnaHQ9IjEiIHdpZHRoPSIxIiBwYXR0ZXJuQ29udGVudFVuaXRzPSJvYmplY3RCb3VuZGluZ0JveCIgaWQ9InBhdHRlcm4wXzMzMTlfOTExMyI+JiN4YTsgICAgICAgICAgICA8dXNlIHRyYW5zZm9ybT0ibWF0cml4KDAuMDAwOTkyMDYzIDAgMCAwLjAwMTM0NDA5IC0wLjAwNzkzNjUxIDApIiB4bGluazpocmVmPSIjaW1hZ2UwXzMzMTlfOTExMyIvPiYjeGE7ICAgICAgICA8L3BhdHRlcm4+JiN4YTsgICAgICAgIDxsaW5lYXJHcmFkaWVudCBncmFkaWVudFVuaXRzPSJ1c2VyU3BhY2VPblVzZSIgeTI9IjU5LjA5NzkiIHgyPSIzMiIgeTE9IjQ1LjQ5NDEiIHgxPSIzMiIgaWQ9InBhaW50MF9saW5lYXJfMzMxOV85MTEzIj4mI3hhOyAgICAgICAgICAgIDxzdG9wIHN0b3AtY29sb3I9IiNGNjgzMzAiLz4mI3hhOyAgICAgICAgICAgIDxzdG9wIHN0b3AtY29sb3I9IiNGMzVFMzIiIG9mZnNldD0iMSIvPiYjeGE7ICAgICAgICA8L2xpbmVhckdyYWRpZW50PiYjeGE7ICAgICAgICA8bGluZWFyR3JhZGllbnQgZ3JhZGllbnRVbml0cz0idXNlclNwYWNlT25Vc2UiIHkyPSI0NC42MDM4IiB4Mj0iMzIiIHkxPSIzMSIgeDE9IjMyIiBpZD0icGFpbnQxX2xpbmVhcl8zMzE5XzkxMTMiPiYjeGE7ICAgICAgICAgICAgPHN0b3Agc3RvcC1jb2xvcj0iI0Y2ODMzMCIvPiYjeGE7ICAgICAgICAgICAgPHN0b3Agc3RvcC1jb2xvcj0iI0YzNUUzMiIgb2Zmc2V0PSIxIi8+JiN4YTsgICAgICAgIDwvbGluZWFyR3JhZGllbnQ+JiN4YTsgICAgICAgIDxsaW5lYXJHcmFkaWVudCBncmFkaWVudFVuaXRzPSJ1c2VyU3BhY2VPblVzZSIgeTI9IjcyLjY3NDUiIHgyPSIzMiIgeTE9IjU5LjA5OTYiIHgxPSIzMiIgaWQ9InBhaW50Ml9saW5lYXJfMzMxOV85MTEzIj4mI3hhOyAgICAgICAgICAgIDxzdG9wIHN0b3AtY29sb3I9IiNGNjgzMzAiLz4mI3hhOyAgICAgICAgICAgIDxzdG9wIHN0b3AtY29sb3I9IiNGMzVFMzIiIG9mZnNldD0iMSIvPiYjeGE7ICAgICAgICA8L2xpbmVhckdyYWRpZW50PiYjeGE7ICAgICAgICA8aW1hZ2UgeGxpbms6aHJlZj0iZGF0YTppbWFnZS9wbmc7YmFzZTY0LGlWQk9SdzBLR2dvQUFBQU5TVWhFVWdBQUJBQUFBQUxvQ0FZQUFBRG0yb2RXQUFBQUNYQklXWE1BQUN5T0FBQXNqZ0ZTbFRxbEFBQUFHWFJGV0hSVGIyWjBkMkZ5WlFCM2QzY3VhVzVyYzJOaGNHVXViM0pubSs0OEdnQUFJQUJKUkVGVWVKenMzWHVZbkhWOS8vL1grNTdkWkdaMkV3NEtDTFZWT1V1RWJFaXJQMDlmdFZYdzdOY0R0UGJndDYxdCtkbCtDNUVpaG1SM0daSUFVazhVYXlzZVdpbld0cURWcXFnVkQzaWdGT3BtWndOQk9ZaEFTRWl5U1hhejJkM1p3OXlmOSsrUEJINGNFcExkblozUFBUUFB4M1Y1WFpMc3pqeGhEek9mOTMzZm45c0VBQUFBNEpBTVgzbjZFYm5wNUxoMlM0NTExM0Z1NFZnek85NWR4MGs2VnRJSmtnNlBuQWtBVDJPdW15eDJCQUFBQUpBVlhsclNPWjYwbldTSm5XaXVFNFBaaWVaK29xUmZsWFNjcElXUkV3RmdOcVlUaGRQYllsY0FBQUFBOWVUWG5MaHdmTGpqTkV2c1JKTk9DcTRUVFhhaUZFNnF5SjVqa3VTU1N6TDN5TFVBVUJOL20rL1pjQThEQUFBQUFEU3RzZEt5NDNJNW5SYmtTeVJmTHRscGxkMTZrWmtXUHI3SWwvVEUvd2NBVFdiN1pLbzFrc1FBQUFBQUFBM1BQM3hHeDBSRlo3cmx1a3grdXN0UGwreEZrbmVHeHorS0JUNkExdU91bmlOSzVXR0pBUUFBQUFBYWpOOXdUbTcwNS9lZTJxWmt1U3NzbDlueXlvUitRNllGa212dlNmc3M5Z0ZBVXJsNDZrbWZrOHFTK00wSUFBQ0FqS3VVbHYrYXQ2VXZVZENMWlhxeHBPV1NPbUozQVVEV21kdXJDNzM5UDN6c256a0RBQUFBQUpreVZscDJuTFg1eTAxNmJRaDZoVnQ2R3Bmb0E4Q00zZkRFeGIvRUFBQUFBQUNSVFpST1A5NlR0bGNvOFplN2RKYmNuLy80Qm4wcytnRmdOaXFXNm9OUC9VTUdBQUFBQUtpcnNjdVhINXVrNmRsdWZyWmtyd3JTc1kvZmR3OEFNR2Z1OXRGaXFmL0JwLzQ1QXdBQUFBRE1LNy9obk56NHozL1JKUXR2TWVuTkN1bVpiakxPNlFlQWViRzVXRWcvdEwrLzRMY3VBQUFBYW03MDhoY2RrMHZiejNiek4wdDZuYVREWXpjQlFDc3cxKzhWZXN0ZjNPL2YxVHNHQUFBQXpXbjA4alBQc0JEZVlkTGJKWjBSdXdjQVd0QnRoZTd5eTgzMmYxRVZsd0FBQUFCZzF2YXNXYm9rTVR2SDNIOWJJWndhdXdjQVdsaVErWW9ETGY0bEJnQUFBQUNZQWIvaG5OekV2ZmUrMUlQT2tkazdKZjJLSkxickI0RElYTHF1bzN2Z2ptZjZHQVlBQUFBQWVFYnVzc3JhcnBjcDBlOVc3cm52dHlWN0ZoZVNBa0NtN0ZHU1czMndEK0pYTndBQUFQWnI4b3JscDFiVDlIZk05SHR5blJpN0J3QndJTDZ5MkROdzFjRStpak1BQUFBQThMaVJLMTc4ckZ4MTZwMW1laythcGk4M1NRZSttaFFBRUozcGdjTGlzYXNQNVVNWkFBQUFBTFE0THkxWlVHbHJmNXZKM3V2cDFHdGx5c1Z1QWdBY0duZjlsWjEvLytTaGZDeVhBQUFBQUxTb2lTdVduaHpTNUk4bC95TkpSOGZ1QVFETWxIMi8yTlAvVzRmNjBad0JBQUFBMEVMOG1oTVhWa1k2MytxdVB3dXBma3R5RGdnQlFHTktnMWRYek9RVEdBQUFBQUMwZ0QxcmxpN0ptYzZyN0xiZmwzUUVxMzRBYUhpZjZ1eTk4ODZaZkFJREFBQUFnQ2JsSlNXVHVXVy9HZVFYU0hxVHVQd1RBSnJGVURYTmxXYjZTUXdBQUFBQW1veGZkY3FpOGNuQ3U4ZE5LMHord3RnOUFJQWFjKzlkWE9yYk1kTlBZd0FBQUFEUUpDWktweDhmY20xL1ZwbnlQelBURWJGN0FBQzE1NjY3aThlMFhUdWJ6MlVBQUFBQTBPREcxeXg3cWN4WEJ1bk5raWV4ZXdBQTh5Zm5XbUhuOVUzUDVuTVpBQUFBQURTb3lycWxyM0MzRDByKzV0Z3RBSUM2K0dyKzB2TE5zLzFrQmdBQUFBQU54RXRLeHR2T2VKTjUwdTJ1RjhmdUFRRFV6VlFpWFR5WEIyQUFBQUFBMEFDOHRHVEJSTExnZHlvS2w1amJxYkY3QUFCMTV2NnhmTy9BZlhONUNBWUFBQUFBR2ViWExtOGYzMTc5NDRxUzFaTC9LbmZ5QTRCVzVGc0xJWC9sWEIrRkFRQUFBRUFHZVVsSnBhM3JuWlhCOUFxVG5TaDU3Q1FBUUNRbXJiTFM3U056ZlJ3R0FBQUFBQm5pTHF0YzN2V3VpbXV0WEtmRTdnRUF4R2JyODJuNXVwbzhVaTBlQkFBQUFITTNzWGJaYTRQOHJ5VXRpOTBDQU1nRU53K3ZLdlJ1K0hFdEhvd3pBQUFBQUNJYlgzUEdTMlRKUjRQODViRmJBQUNaOHNWYUxmNGxCZ0FBQUFEUlRGeXg5T1NRMmpwSjd4Sm5aZ0lBbnF4aWFXNVZMUitRQVFBQUFFQ2Q3UzR0T2JJOXQrRGlrUG9LU1F0ajl3QUFzc2RrVnhaS2ZRL1g4akVaQUFBQUFOU0psNVlzcU9UYTN5ZXBKUG5oc1hzQUFGbGxtL0pwOHRGYVB5b0RBQUFBZ0RvWVg3djBIUlhaeHlROUwzWUxBQ0RqUEZ4a3BmN3hXajhzMTVvQkFBRE1vNG0xWFNlNTYyL2M5SWJZTFFDQWhuQnJvYnY4U2pONXJSK1lNd0FBQUFEbWdaZVdGOGR6NmNWQldpbmpPbjhBd0NFSmJyWmlQaGIvRWdNQUFBQ0FtaHRiZDhaYktwNSt3ampkSHdBd0EyYjZiTEc3LzZmejlmZ01BQUFBQUdwa1ltM1hTVUgyS2JuL1p1d1dBRUJqTVdsM3RScDY1dk01R0FBQUFBRE1rWmRlM1ZiSkRmOUZrQzZYdkNOMkR3Q2c4Ymo1bWtXbERkdm44emtZQUFBQUFNekIySnFseXlvMi9CbEp5Mk8zQUFBYWxPbit3dUt4VDg3MzB6QUFBQUFBbUFVdkxTOVdjcUZYOG9zazVXTDNBQUFhbDdzdXNQUHZuNXp2NStFMmdBQUFBRE0wdXZiTTF5Y0tueEtiL0FFQTVzamszeTcwRE5UbFZyR2NBUUFBQUhDSXZMUzhXRW1xVjByaEw4V0JGQURBM0ZXcnJvdnE5V1FNQUFBQUFBN0IrTHF1bDFXVVhpZTNFMk8zQUFDYXhpY1c5UTVzck5lVE1RQUFBQUI0Qmw1NmRiNlMyMTJTYzYwL0FLQ21kazJuMCt2cStZUU1BQUFBQUE1ZzlQSXp6NmlFNGVzbG5SRzdCUURRWEZ5KzZyRFN4bDMxZkU0R0FBQUFBRS9oSlNVVGJWMHJQWVRMeFBzbEFFRHREUlJQT2ZtejBrQmRuNVFYTkFBQWdDY1l2ZnhGeDB4NCszWHVmbmJzRmdCQWN6SnBoWjE3WTFydjUyVUFBQUFBc00vWXVxNjNXZERuWFA2czJDMEFnS1oxWTZHbmZFdU1KMllBQUFBQVdwNlhYcDJ2SkVOWHljWHQvUUFBODhnbkxMV0xZejA3QXdBQUFORFNKdGVlK2NJSkRkOGcyWXRpdHdBQW1wdkxQbG9zbFIrTTlmeEpyQ2NHQUFDSWJYemQwcmNIaGR0Y1l2RVBBSmh2bTR2cDlJZGlCbkFHQUFBQWFEbGVlblZiSmJkN25kdy82TEZqQUFBdHdkeFhXbW5qYU5TR21FOE9BQUJRYitPbE01NnJYSEtEcEpmR2JnRUF0QXIvNzBMM3dNdk1GSFh1ekNVQUFBQ2daVlF1Vy9vYTVaS2Zpc1UvQUtCK1hLWUxZaS8rSlFZQUFBQ2dCYmpMS3V1V3JmVEV2aXZwbU5nOUFJRFc0ZEkvRmJzSDdvamRJYkVIQUFBQWFISmVlblYrZk4zd3RTWi9UK3dXQUVETEdWVnFxMkpIUElZQkFBQUFhRnJqNjViK1NzV0h2MkxTYjhSdUFRQzBIak83dkZqcTN4Szc0ekZjQWdBQUFKclMrTHF1bDhuMVU3SDRCd0RFWUhvZ1h6M3M2dGdaVDhRQUFBQUFOSjJ4TlYxL0l0Y1BKSHRPN0JZQVFLdnlpNngweTBUc2lpZGlBQUFBQUpxR3UyeHNiVmZKVEorUnRDQjJEd0NnVmRuM2k5MERYNGxkOFZUc0FRQUFBSnFDWDNQaXdzcTZ6bjh3NlhkanR3QUFXbG9hRW50LzdJajlZUUFBQUFBYTNzZ1ZMMzVXWmZmMFZ5Ui9aZXdXQUVETCsxVG42dlViWWtmc0R3TUFBQURRMENaS1o1NFlxbE0zeVhSeTdCWUFRTXNicXFhNVV1eUlBMkVBQUFBQUd0YjRtbVV2RFJhK0llbkkyQzBBQU1pc3RMalV0eU4yeG9Hd0NTQUFBR2hJRTVkMXZVN20zeEdMZndCQUJyajBzOEpSeWQvSDduZ21EQUFBQUVERHFheFordnNoMFUyU09tTzNBQUFnU1I3OC9YWmUzM1Rzam1mQ0FBQUFBRFNVOGJWZEY3alpkWkxhWTdjQUFMRFAxem92SGZqUDJCRUh3d0FBQUFBMEJIZlorSnBsSDVWMHRYZ1BBd0RJanFsRXVpaDJ4S0ZnRTBBQUFKQjU3ckxLdXE1UHlQd3ZZcmNBQVBBa3Jxdnp2ZVg3WW1jY0NnWUFBQUFnMC95R2MzTGo2Kzc3bkVuL0ozWUxBQUJQc1gxaVFlNksyQkdIeW1JSEFBQUFISWlYbGl5b0pHMWZsTms3WTdjQUFQQlU1djdlUXUvQVA4VHVPRlJjUHdjQUFETEpyemx4WVNWcHY0SEZQd0Fnby9yelllRHpzU05tZ2tzQUFBQkE1dmpIWGxxb2pJeC9YYWJmaXQwQ0FNQit1Sm1mYnlXRjJDRXp3UmtBQUFBZ1UveWFFeGRPakZXK0pEY1cvd0NBclBxWFF2ZkFUMkpIekJSbkFBQUFnTXp3MHBJRkU4UHRYM2JURzJPM0FBQndBQlV6V3hVN1lqWVlBQUFBZ0V6dzBwSUZsVno3bHlXOUtYWUxBQUFIWW1ZZktuVDNQeFM3WXphNEJBQUFBRVRuMTV5NGNDTFgvaFZKYjQ3ZEFnREFNM2c0WDAwK0VqdGl0aGdBQUFDQXFQeUdjM0tWM1ozWHV6anRId0NRY2VZWFc2bHZQSGJHYkRFQUFBQUEwYmpMeHUrNTkxcEo1OFJ1QVFEZ0lQNnJzSHJnaHRnUmM4RWVBQUFBSUpyS3VxNlBtdlRlMkIwQUFCeEVjTE1Mek9TeFErYUNBUUFBQUloaWJHM1hGWkxlSDdzREFJQ0RNZWx6eGU3K244YnVtQ3NHQU1BekdMN3k5Q01rYWVGazdqQlRtaWlYeTZXZUxKWWtTOExDeEswb1NhbTgwMHp0a3VTdXcrVXlTVzFtdnVpQUQrNDZYSmJZZ2Y3YTVJdGROdklNZjE5eCtjUUJIOTV0U0pJUzJZUW5YcEdrWk4rZkJmZUtLNWxRcnVxNWFSK1dwS3J5NDlXRkU1UEJGb1FqVi9idFBtQTNBTlRBK0xxdWkrUzZKSFlIQUFBSDQ5SklTS285c1R0cTRZQ0xENkNSN1ByUThzUHlFOU9MY3JtMlJhbFhGeWVXV3hUTWo3RGdpOXhza1VtZExsc2tEd1ZMTE85dWg4bDlnWnNXbVZTVXRGRFM0Wkl0a0x4VFVvZWtCWEgvcmFLYmxqUXFhVVR1RlptTlNiYmIzQ3R1R2pkcDJLWHh2WCtuWVNrWmQvZUtKZHJ0cnJIRWZLUWFOSlNFWktpb1pMaVJOMHNCVUZ2ajY1Yit0dHkrS1BZaUFnQTBCTHVvMk5QLzBkZ1Z0Y0FBQUpuZ0gzdHBvVEkrZm1RSTRjaWMybzRNNWtjazdrZDZZa2U2NjhqRS9BaDNPOUpOUjVqN0luZGJiR2FMSkY4azZmRFkvVGdrazVLRzVUNGtzeUZ6RGJ0cFNOS1FTOE1tRzlvN1ZBaERGalNVV3RpaGtCL3NPTzM1ZzNidWpXbnNlQUMxVVZtMzdIKzUrM2UwZC9BS0FFRFcvYUp3Mk9nU08vLyt5ZGdodGNBQUFEWG4xNXk0c0RMUzhld1FrbWUzV1RqR3pZNXkxN1BkN2RtSitURXVIU1haczB4K2hFdEhTbjZrWlBuWTNjZ3NselRvcmgxbUdwUnNxeFMybTVMQm9MQmRabHN0YUVkaTJyNXdRV1dyZmZDZVBiR0RBZXpmNUJYTFRrdFQvNG1rSTJLM0FBQndLRnorbG82ZWdXL0U3cWdWQmdBNEpQNnhseFltUjBhUERVbnVXSmtmSXlXLzRxNmpsZWc0YzMrMnBHZExPc3FsWTB4YUhMc1hyY3ducEdSUThrY2xiWkY4azZUTjV0b3NKWnZNZk12Q2pzSWpkdUZ0bGRpbFFDc1p1M3o1c1JiUzJ5UTlMM1lMQUFDSHdxWHZkdlNVWHhlN281WVlBTFE0THkwdlR1YW1mOVdESGFkYzhseVhIeVBYY1pLT2x2UmNsNDVPcE9OY09peDJLMUJqTzdWM01MQkppVFpMdGxrZU5xVkJXOXoweVBTQ3RrZllEQkdvRGIvcWxFV1ZxY0lQSlMyTDNRSUF3Q0dxcGtsWXRtajFocnRpaDlRU0E0QW05dGhSZStYYWpuZlhjVzdoV0xtT2s5bXhrbzZYZEp5azU0anZBK0FBZkVKbVc5ejFRR0o2d04wZmtOa0RIcElIaXNGK3hzYUd3TUg1dGN2Ykp3YkQxOTM5N05ndEFBQWNNdGZWeGQ1eTA5MnFsb1ZmZy9LU2tvck9PRTVKOGp4TDlIeTVmazJ5NThuOTE0TDBQRE05WDN0M3R3Y3dQMUpKajhqMGdNdCttYmcvNEdZUFNQYkx0RnA5WUZGcHcvYllnVUJzN3JMeGRWMmZNK21QWXJjQUFEQUR1NnE1QlNjdlhuWEh6dGdodGNZQUlNUEdTc3VPUzVMMEJDazVJZXhkMEwvQXBGL1QzdXNubnl2dHZlODhnRXdhbFhTL3BIdmQvZWVtNUdldWNFOHh0TjNEbVFOb0ZXTnJ1MG9tWFJxN0F3Q0FtWEMzOTNYMDluOHFkc2Q4WUFBUWtaZGUzVGFwbmIrbVhOdnhxZnZ4Wm5hODVNZHI3K241SjB0YUZEa1J3UHdZa25TM21UYTYrd051Zm5ldTZoc1hYbnJuTDgza3NlT0FXcWlzNmZwZE4zMUJ2TmNBQURTV0RZVlRUanF6V1c5RHpZdnlQUFBTOHVKWU1uV0NXZTRFazUxZzhoT0NkSUpKSjJqdmtmeTIySTBBc3NHbEVaUHVrZnpuWnZaemw5MlR1RzlZbUpaL1lTV0YySDNBb1JwZHMyeHBZdjVmNGxJMEFFQ0RTWUxPeWw5YXZqbDJ4M3hoQUZBRC91RXpPc1lyYmFkYTRpZWJ3Z2xCZG9LNW5TRDVDZHE3MFI0QXpNV1lwTHZNTkJCY0d4SVBHeW9MMmpkd2x3SmswY2dWTDM1V1c1aTZRNjdqWTdjQUFEQWo3bDh1OWc2OEszYkdmR0lBTUFQRFY1NStSUHQwKy9HSmZJbWJUcE44aVV5bnlmVjhTVW5zUGdBdDUxR1hOcHI3M2Fha3I2clExM25xeVQ5djFsUFdrSDFlZW5WYnBXMzRPM0s5Sm5ZTEFBQXpOSm1reVl2eXBmWDN4dzZaVHd3QW5zSkxTaVp5Wnp3dlZkc3BpYVdubWR1cExyMVFlLy8zck5oOUFIQVFZNUxmYVdZYlF0Q0FKU29YaW9WK3UvQzJTdXd3TkwveHRWMVhTN29nZGdjQUFEUGwwdVVkUGVYdTJCM3pyV1VIQUg3dDh2YkpSNmQrTlcyekplWjJtcGtkNzY0bGtwWks2b3pkQndBMWxMcnJIalB2azZ6UHpQdnkxZW9kVnRvNEZUc016YU95WnVudnU5bjFzVHNBQUpnNTMxcEk4NmRZNmZhUjJDWHpyU1VHQUdPbFpjZmxjam90eUpkSXZseXkweVM5U05MQzJHMEFFTW1ZcExMYyt4Ni9mS0JuNEc3dVFvRFpHTDI4cXlzSnVsVnMrZ2NBYUVCbTlwNUNkMzlMRExHYmFnRGdWNTJ5YUh5eTQrUkV2c1FWbHJ2WmFiYjNpUDVSc2RzQUlPdE0ydTNTWFpMOXhDMjkxUzNjMGJuNnJtMnh1NUJ0STFlOCtGbHQ2ZFQvU0hwQjdCWUFBR2JPLzd2UVBmQ3lWamtJMHBBREFDOHBtY3gxblJCa1M5M0Q2U1k3WFltV3l2VUNOZWkvRXdCa2t1bEJ1VzUxdDU4RWhSOXpsZ0NleUc4NEoxZTU1Nzd2U25wMTdCWUFBR2JCNWVHbHhkNE50OGNPcVpmTUw1YTl0R1RCZUxMd2RGazRNNUV0ZC9tWmtwYUkwd3dCSUlZZGN0MnF4SDhrNlNlRjZoSHJyWFJMTlhZVTRoaGJzL1F5TSt1TjNRRUF3R3k0ZEYxSFQva1BZM2ZVVTZZR0FIN3Q4dmJSYmRXVDI1UXNkNFhsTWx1Kzc1cjlmT3cyQU1CK2pVdnFmK3l5Z1dLMThNTlcyRUFIVW1YTnNsZTUrZmNrNVdLM0FBQXdDNk9lMmlrZHBmNHRzVVBxS2RvQWdNVStBRFNscXFRQnVkK3F4SDVTVFJaOGYvR3FPM2JHamtKdDdibGkyVkc1MU11U2pvdmRBZ0RBYkpocGRhRzdmRVhzam5xcnl3REFiemduTjNiZkw1WllDQytSL0NVbSszWHRQWTIvclI3UER3Q0lKa2k2VTY2YkUvT2JGM1lVZjJ3WDNsYUpIWVhaYzVkVjFuVjlWZEpiWTdjQUFEQkx2eXlraDU5bXBWc21Zb2ZVMjd3TUFNWXVYMzZzZlByWDVjbHlrNVpMZXJta0krYmp1UUFBRGFVcWFjQ2xiOGlUcnhmRCtuNHJLY1NPd3FFYlg3dnNyeVQvU093T0FBQm16OTlaN0JuNDk5Z1ZNY3g1QU9BZlBxTmpvcEw3ZFRkL3NXVC9qK1F2bHZUY0dyUUJBSnJmb09UZk05Zk5ucVEzRjd2djJoUTdDQWMydG03WnI1djdyWklXeEc0QkFHQldURDhvZHBkL00zWkdMRE1lQUl5V2Z1TTUxamI1RythNWwwditDa20vSWQ0SUFBQnF3ZlNBU2Q5MTZidVRWZDE4UktrOEhEc0plM2xwU1djbGFlK1Q2ZVRZTFFBQXpGSWFrdVRNenRYck44UU9pZVVaQndCZVVqTGFmc1pwU1pwN2hWbDRtV1N2a1BTQ09yVUJBRnBiVmJMYlRMbzV1SDJ6MkxOK3ZaazhkbFNyR2wvYjlRVkp2eGU3QXdDQTJUTHpUeFc2Qjk0WHV5T21KdzBBdktSa1BGbTYxQko3bFZ5dmtmUktjZTArQUNBYkhqSHpiNFEwK1ZyUkQvdEJLMjdjRTh2WXVxNjNtZXVyc1RzQUFKaURvV3FhTzNseHFXOUg3SkNZYlBUeXJxN0U5V29XL0FDQUJqSW0yWCthKzllcmJYYlRvbFg5ZzdHRG10VklhZm16MjNMcFhaS09pZDBDQU1Dc21WMVE3TzYvSm5aR2JHMzdGdjhmangwQ0FNQU1kRWorRGplOUk1ZDZHRi9iMWYvWW5RVTZldGYzeFk1ckptMjU5Ty9FNGg4QTBNQmMrbG54cU9UdlkzZGtnVW5TMk5xdUsweTZKSFlNQUFBMThFc3ozUndVdmxHc3B2OXBwWTFUc1lNYTFmaTZaZStXK3hkamR3QUFNQmRCeVJzNmU5Wi9PM1pIRmp5K0I4RDR1bVdma1B2L2pSa0RBRUNON1pMMExabDlwVkRNZjlNdXZLMFNPNmhSN0xsaTJWRzUxTytTZEhUc0ZnQUFaczN0NjhYZS9yZkd6c2lLeHdjQTdyTHhkVXMvWTdMM3hnd0NBR0NlVkNSOXo5eHV6QmZTTDlzSE5vekZEc3F5OGJYTHZpejVPMkozQUFBd0IxTkp6ay9QcnhxNE4zWklWano1TGdBM25KT3IzSFBmRnlXZEc2a0hBSUI2R0pkMGsxdTRuc3NFbnE2eXB1dDMzZlRQc1RzQUFKZ1QxMGVLdmVVUHhNN0lFbnZxSDNocHlZS0pwUDJyYm5wRGpDQUFBT3BzV1BLdnUvbU54YVBhdjIzbjlVM0hEb3JKUzBzNks3bjJleVFkRjdzRkFJQTUyRDdSbmp2NXlKVjl1Mk9IWk1uVEJnQ1M1S1hseFVvdS9aYWsvMVhuSGdBQVl0b2wrVTF1Zm1PeGV1UzNySFJMTlhaUXZZMnQ2YnJjVEt0aWR3QUFNQmNtKzVOQ1QvL25ZbmRrelg0SEFKTGtwWmNzcnVRbXZ5OXBlUjE3QUFESWlwMlNmN09WaGdHVnRXZTh3R1YzUzVhUDNRSUF3QnowRjlMeXIxdEpJWFpJMWh4d0FDRHQzUUU0U2YySEpyMndYa0VBQUdUUUkzTC9RcTR0dVg3aHF2NjdZOGZNRnpiK0F3QTBBek43VmFHNy8wZXhPN0xvR1FjQWtqUytidW12eU8zSGtsNVFoeDRBQURMTlhYZWIrVCtGSlAxODUrcTd0c1h1cVpYS1pVdGY0NGw5UDNZSEFBQno0LzlhN0JsNGQreUtyRHJvQUVDU0p0WXVQeUVvL1pIWUVBZ0FnTWVrTHYwZ2NicytINUl2V2FsdlBIYlFiTzI3QzlCNlNXZkViZ0VBWUE0cVp2YkNRbmYvUTdGRHN1cVFCZ0NTTkxIMmpGT0NraDlLT21ZZWV3QUFhRVREWnJvaEJQOVVSKzlBZit5WW1ScGIwL1huWnZwazdBNEFBT2JDcGNzNmVzcWwyQjFaZHNnREFFa2F2YnlyS3duNmdhVEQ1NmtIQUlCRzF5ZnArdWwwK3ZyRFNodDN4WTQ1bU9FclR6OWlRVFYzcjZSbngyNEJBR0FPSGlua3c2bjJnUTFqc1VPeUxKbkpCM2V1THBkbGVwTWsvcU1DQUxCL3l5VmQzWjVyMnp5K3R1dUdpYlhMWHVzK3M0RjdQUzJZVGtwaThROEFhSFJ1SDJEeGYzQ3pla015ZHRteU4xamlYNVcwb01ZOUFBQTBvM3RrL3VucGF2WHpXVG9yWUhMdG1TOU1GUVlrdGNkdUFRQmdEdjZyMEYxK2haazhka2pXemVnTWdNZDBYTnIvTFpuL2pxU212eWN5QUFBMWNJcmNQdHFlYTkveTJGa0JzWU1rS1NqOW1GajhBd0FhVzNEWENoYi9oMlpPcHlSVzFpeDdqNXYvbzJZNVNBQUFvRlc1OURPVFh6ZlZGajU5K0NWM0R0WDcrY2ZXTG51cnlmK2ozczhMQUVBdG1lbXpoZTd5bjhidWFCUnp2aVp4ZkczWEJaS3Vya0VMQUFDdGFJOUpYMGlVZkdKaHovcWYxZU1KdmJSa1FTVnB2MU9tayt2eGZBQUF6Sk05bnVSTzZWamQ5Mmpza0VZeDV5UDN4Wjd5MzVqWnBiV0lBUUNnQlMxeTZYMnB3dDNqYTd0K01yNnU2eHkvNFp6Y2ZENWhwYTE5Qll0L0FFQVRXTXZpZjJacXRpdngrSnF1cTJTNnVGYVBCd0JBeXpJOUlQZFBUNmZWejlSNjA4QTlwVE9PYnNzbDk3cDBXQzBmRndDQU92dEY0YkRSSlhiKy9aT3hReHBKemE3ZEwvU1VWNXJwMDdWNlBBQUFXcGJyZU1rKzFKNXJmMmg4WGRjbko2OVlmbXF0SGpwcHkxM0o0aDhBME9qY3d2dFovTTljVGU5TDdDVWxsVnpYRnlTOXU1YVBDd0JBaTNPWHZpY0wxM1IwYi9qNmJCOWtiTTNTWldiMlU3RjVMd0Nna1psL3I5ZzlrSWs3NmpTYW1nNEFKTW12WGQ1ZTJSYStMUE8zMVBxeEFRQ0F5dWIyOGZ3eHliL1llWDNUTS9uRThiWExmaVQ1SytjckRBQ0FPcWptY3JaMDRhcit1Mk9ITktLYUR3Q2t2YnNMVDdRdCtKcTduejBmanc4QUFQU29TNStlU25YMUVhWHk4TUUrdUhMWjB0ZDRZdCt2UnhnQUFQUG9iNG85NVJXeEl4clZ2QXdBSk1sTFN6b3J1ZmJ2U25ySmZEMEhBQUN0enFUZDd2NzNJWmRlM2JuNnJtMzcreGkvNFp6YytEMzNmZE9rcytyZEJ3QkFEZTJjVHFkUHJ2VUd1YTFrM3E0QnROTEcwWW4yM05tUyt1ZnJPUUFBYUhVdUhTYXpsVWxvZTNoODdkSi9tbGpiZGRKVFAyYmkzbnN2WWZFUEFHaDA3dXBsOFQ4MzgzWUd3R1AyWExIc3FGdzEvRWhtTmR2QkdBQUFIRkNROU9YVS9iSkZ2UU1ieDljdC9SVzUzU09wSTNZWUFBQ3o1YTY3aStId3BWYTZwUnE3cFpITit3QkFrc1pMWnp4WGJjbVA1WHArUFo0UEFBRElKZDJrYVZ1a2RuOVY3QmdBQU9ZaWtaK2Q3eG40VHV5T1JsZVhBWUFrVFpUT1BESGswaDlMOXB4NlBTY0FBSzNNSjZTd0taRjF1SkpuU1Zyb3NaTUFBSmdGKy9kaVQvODdZMWMwZzdyZEJ6aGZXbjkvOEhDV0pLN1pBQUNnRHNMMnZTL3pQbVpLTjVuQ0ZwTW02emI3QndDZ0ZxWVMrY3JZRWMyaWJnTUFTZXJzdmZOT2VYaWpwRDMxZkY0QUFGcE4yQzFwOGdsLzRQc0dBUTh6Q0FBQU5BNTNmU1RmVTc0dmRrZXpxT3NBUUpLS3ZSdHVONFgvdmZmRVJBQUFVR3NlVEw3cndDL3hEQUlBQUExaVd6RXN2Q3AyUkRPcCt3QkFrZ285Rzc3dlNuNWIwblNNNXdjQW9LbnRrblFJZXlRekNBQUFaSm01WFd5bDIwZGlkelNUS0FNQVNlcm82Zithek40dEtZM1ZBQUJBcy9GcEtRelBiREgvK0NCZ3E4a1p6UU1Bc3FFdkgvcS9FRHVpMlVRYkFFaFNzYnYveXliL1UrMjlWUkVBQUpnakgweG0vYXJxZTB6aG9VUmhtekdlQndERTVHYSt3a29Lc1VPYVRkUUJnQ1FWZWdiK1VkSUhZM2NBQU5Eb3ZDTDUyRndmUlBJUlUzZ3drZTh3T1crOUFBQjE1MThvZEEvOEpIWkZNNG8rQUpDa1lrLzV3KzYyTG5ZSEFBQU55Nld3dlhiWDhYdVF3dERlUVVBWU1zN1ZBd0RVeTdpbGJkMnhJNXBWSmdZQWt0VFIyOThqK1VkamR3QUEwSWg4dDBsVDg3Q1JYeXI1RGxQNllDSWZZUkFBQUpoZkpsMVJLUFU5SEx1aldXVm1BQ0JKaGU2QkQ1anBzN0U3QUFCb0tLa1Vkczd6YzFTbHNNMlVia3JrNDl3eEFBQXdMeDdPcDdtUHg0NW9acGthQUpqSjh5ZWY5UDlLOW0reFd3QUFhQlJocDBtaFRvdnlTU2xzTm9YTkNiY09CQURVbHRtRlZ1b2JqNTNSekRMNXl1M1hMbStmMko1KzFhVTN4bTRCQUNETGZGSUttMmEvOC8rY21HU0xYTW16WGNwRmVINEFRUE13L2FEWVhmN04yQm5OTGxObkFEekd6dXViem5jVTNpWHBoN0ZiQUFESU10OFI4YnI4ZlhjTVNCODBOZ29FQU14RkdvSzlQM1pFSzhqa0FFQ1M3TUxiS29WMDRWc2wvVFIyQ3dBQVdlU2psbzNyOFlQSmQ1akN3eVlmeTBBUEFLQ2htUGxuT252N0IySjN0SUxNRGdBa3lVcTNqMVRUM0J0TTJoaTdCUUNBVFBGOVIvOHp4S2RNWWN1Ky9RR21ZdGNBQUJyRWNEVkplbU5IdElwTUR3QWthWEdwYjBkSTdTeVpIb2pkQWdCQVZvUmhrMC9IcnRnL0g1ZlNoeE9GUVpPSDJEVUFnRXd6WGJab1ZmOWc3SXhXa2ZrQmdDUjFsUHEzV0RYM0drbmNEeElBZ0twSnU3SjE5UDlwWFBKaFUzZ3drZThSK3dNQUFKN08vZWVGbzNLZmpKM1JTaHBpQUNCSmhWTGZ3MG5PWHlkcFcrd1dBQUJpQ2p2Vk9FZldVeWxzVFJRMkovTEoyREVBZ0N4eFR5NjA4L295ZWo1YmMycVlBWUFrNVZjTjNCdmN6cFkwRkxzRkFJQW9Ka3cra3ZHai8vdmhsYjIzSytTeUFBREFQdC9vdUxUL1c3RWpXazFERFFBa3FiTzNmOERNM3lwcFBIWUxBQUIxNVZMWUVUdGlEdlpkRnVBUG1jVGRBZ0NnbFUwbENoZkZqbWhGRFRjQWtLUkM5OEJQRXRuYkpIRXlJUUNnWmZpb3lTdU52M0QycWluZHN2ZU9BZUxFVHdCb1BhNXI4ajBiN29tZDBZb2FjZ0FnU2ZtZS91KzY5RHVTcXJGYkFBQ1lieDZra0xIYi9zMlZqNW5DdzRsOHlOZ2tFQUJheC9hSkJibDFzU05hVmNNT0FDU3BvNmY4VlRQN1kwbGNUUWdBYUc1RDFwUy9saUZJQUFBZ0FFbEVRVlFqNzhjR0crbW1SSnFJWFFNQW1HOHVkUis1c205MzdJNVcxZEFEQUVrcWRQZGY3OUw1c1RzQUFKZzNWVk1ZYXE2ai8wOHpLYVdQSlBJZG5BMEFBRTJzWER6bHBIK0lIZEhLR240QUlFa2RQZVZQbXRRZHV3TUFnUGtRQmx0a1VleFNHREtGaHhKNUpYWU1BS0RXekcyRm5YdGpHcnVqbFRYRkFFQ1NDajNseXlXN0tuWUhBQUMxNUJXVGo4V3VxQytmbHNMbVJHRWJ0d3dFZ09aaC8xYm83ZjloN0lwVzF6UURBRWtxZFBkZll1YWZpdDBCQUVDdHRNelIvNmR5eVVkTS9sQWk1OGEvQU5Eb0twYjZ5dGdSYUxJQmdKazh2M3JnejEzNng5Z3RBQURNbGUrMmxyL2hyVmVsc0NWUjJKWklvY24zUVFDQUp1WFNYeGRLNVFkamQ2REpCZ0RTM2lGQThaU1QvbFRTbDJLM0FBQXdhMEVLTzFud1N0cDNOb0NVUG1SU2kxME9BUUJONEpGaVBudzRkZ1QyYXJvQmdDVFp1VGVtaGZUd1A1RDU5MkszQUFBd0cyR25TV3lUOUdSVktkMTNOZ0I3QXdCQWd6QzcyRDZ3Z2ZGdFJqVDFvUVV2TFM5V2N1SGJrcjh5ZGdzQUFJZktwNlR3Y05LYTEvNGZJbXR6MmJHUzVmbVBCQUFaZGx1aHUveHlNMTdSc3FJcHp3QjRqSlg2eGlmYWs3ZEl0ajUyQ3dBQWh5b01zdmcvR0srYXdpTW0zOUdpbXlRQ1FQWUZtYTlnOFo4dFRUMEFrS1FqVi9idFRuTjZ2VXMvaTkwQ0FNREIrSmhKN0hwL2FGd0tRNlowVXlLZmF1cVRHZ0dnNGJqWjU0dmRBM2ZFN3NDVE5mMEFRSklXcmVvZnREU2NKZE9Ec1ZzQUFEZ2dsM3hIN0lnR05DbUZUU1lmNW13QUFNaUlQYktrTzNZRW5xNGxCZ0NTVkN4dGVDUnhuU1g1MXRndEFBRHNqdzhiUjdKbkswaGgwQlMyc0hraUFFUm5XdGV4dXUvUjJCbDR1cFlaQUVoU3ZxZDhYL0J3bHFTZHNWc0FBSGlTVkFxN1dQelBsWStiMG9jUytTai9MUUVna2w4VUZvLytUZXdJN0Y5TERRQWtxYlAzemp0bC9rWkplMkszQUFEd21MRERKRzV0Vnh1cEZMYWF3aUNYQkFCQXZibnNRanYvL3NuWUhkaS9saDJQVnk1YitocFA5RTNKOHJGYkFBQXRibEpLTjdIei83eklTOGx6Z3F3OWRnZ0F0QUR6N3hXN0IxNGJPd01IMW5KbkFEeW1jT25BRHhMcGJaS1lUZ0VBb3VLMmYvTm9RdktIRXpubi9RSEFmRXREQ08rUEhZRm4xcklEQUVuSzl3eDhSMjUvS0xZTEFnQkU0cU1tcjhTdWFHNGVwTEExVWRqR29BVUE1by8vWFdmdm5YZkdyc0F6YStrQmdDUVZlL3YvMVV6dkZXOEpBQUQxRmlRZmJObXI4ZXJPUjZUMDRVU2FpbDBDQUUxbnFKcGJlRm5zQ0J4Y3l3OEFKS25RWGI1T1ppdGlkd0FBV2tzWU1uazFka1dMbVpMQ0pwUHZZZkFDQUxYaVVzL2lWWGR3cDdVR3dBQmduMkozL3pYdXZpWjJCd0NnUlZRbERiTUlqY0dES1d3MStYWXVDUUNBdVhMWDNjWDA4R3RqZCtEUThNN2pLY2JYZEgxWXBvdGlkd0FBbWx2WXlsSG9URmdvSmNkeWx3QUFtSzFFZm5hK1orQTdzVHR3YURnRDRDa0tQZVdMVGZwTTdBNEFRUFB5aWIyYi95RURKcVd3S1pHUDgvVUFnQmx6ZllYRmYyTmhBUEFVWnZMOEtTZTlUL0ovamQwQ0FHaE9QbWljZXA0bHFSUzJtTUlRWHhjQW1JR3B4UFRCMkJHWUdRWUErMkhuM3BnV2ptNTdqN2x1aXQwQ0FHZ3VZY1RrRXh4dHpoeVhmSWNwYkRONWlCMERBTm5uMGtmelBlWDdZbmRnWmhnQUhJQ2QxemVkN3l5Y0krbVcyQzBBZ09iZ3dlUTdXZnhubWU4eCthWkV6cTBDQWVDWmJDdW1DejhVT3dJenh3RGdHZGlGdDFVSzZjSzNTZnFmMkMwQWdDYXdTM3QzLzBlbStaVDJEZ0ZHWTVjQVFEYVphNldWYmgrSjNZR1pZd0J3RUZhNmZXUXkxVm1TeXJGYkFBQ055NnVtd0czL0dvWUhLV3hONUR2NG1nSEFrOW42ZkNqL1Urd0t6QTREZ0VOd1JLazg3RW51alpKK0Vic0ZBTkNZZkZCc01OZG9YQXBEcHZCb3d0Y09BUFp5czNDQmxjUnVLUTJLQWNBaDZsamQ5NmlzK2hwSkQ4VnVBUUEwRmg4M2J2dlh3SHhVU2pjbFVwV3ZJWUNXOTgrRjdvR2Z4STdBN0RFQW1JRmk5MTJiRXVsMWtyYkZiZ0VBTkFpWHdtRHNDTXpacEpRK2JOSms3QkFBaUdiYzB0enEyQkdZR3dZQU01VHZLZDhYa3VRc1NVT3hXd0FBMmVjakprMXg1TGdwcEZKNGhNMEJBYlFtTTcreVVPcDdPSFlINW9ZQndDeDBybDYvUVphOFVSSnZBUUFBQjVaS2dkditOWlhITndmazZ3cWdwZGltZkxYdFk3RXJNSGNNQUdhcDJMMyt2eTNZLzVaOEluWUxBQ0Nid2s2VDB0Z1ZxRG1Yd2k1VDJHWnNEZ2lnVlZ4b3BiN3gyQkdZTzhiWGN6UytidW5iNVhhRHBMYllMUUNBN1BCSktXeGk5L2htWjBVcE9UWndTQVZBTTd1MTBGMStwUm12YU0yQWw2czVLbllQZk1YYy8wamlWaGdBZ1A5ZjJNSFI0VmJnNDFKNE9KR3p6d09BNWhUY2t3dFkvRGNQQmdBMVVPZ2QrSUs3L2pKMkJ3QWdHM3hNMGpnTHdsYmgwMUo0eE9RVGZNMEJOQmVUZmFhamQzMWY3QTdVRGdPQUd1bm9MZitkU2F0aWR3QUFJblBKQjNsNWJUbXA1SnROR29zZEFnQzE0ZEpJbXJhVlluZWd0bmlIVWtPRm52S1ZjdjlRN0E0QVFEeGgyT1RUc1NzUWd3Y3BmVFJSR09GTUFBQ056K1NsenRML2JJM2RnZHBpQUZCanhkNkJTeVI5UEhZSEFDQ0Nxc2wzc2ZocmFTNzVkbE1ZNHZzQVFBTXozVjlJcTUrTW5ZSGFZd0F3RHdwcCtTTEpyNC9kQVFDb0w5OHB0b1RGM2lIQURsTVlaQWdBb0RGNWF1ZGJhZU5VN0E3VUhnT0FlV0FsaGNJcEovK1JwQnRqdHdBQTZtVENPUFViVCtMRHByQ1Z1MEVBYUN6bXVxbmowdjV2eGU3QS9HQUFNRS9zM0J2VFFqcjkrK2JpaHdjQW1wMUxZVWZzQ0dTUjd6R0Z6WWs4TUJ3QzBCQ216Y0pmeFk3QS9HRUFNSStzdEhFcUgzTHZrdXpIc1ZzQUFQUEhSMDFlWVlHSC9mT0tGRGFibE1ZdUFZQ0RjUHRFdm1mRFBiRXpNSDhZQU13eksvV05UN1FuYjVIRS9UTUJvQmx4OUIrSFlrSUtqNWhVWlZBRUlMTUdKNE92alIyQitjVUFvQTZPWE5tM084M1pHOXgxZCt3V0FFQnQrUzRXZFRnMFBtVktOM0diU0FEWjVLN3VJMHJsNGRnZG1GOE1BT3BrMGFyK1FRdmhiSmtlak4wQ0FLaVJLcmQ3d3d4VnBiQXBrZGhiRzBDMmxJdW5udlM1MkJHWWZ3d0E2cWhZMnZCSTRyblhTdG9TdXdVQU1IZGhVT3p3anBsTHBYU3pTVk1NandCa2c3bXRzSE52WktlU0ZzQUFvTTd5UFgyL1NKTnd0cVNkc1ZzQUFMUG5FeVlmWXdHSFdhcWEwa2RNbW93ZEFnQzZvZERiLzhQWUVhZ1BCZ0FSTEZxOTRhNlE2TFdTdU1ZR0FCcFVHT1QrN3BpalZFb2ZTZVFUc1VNQXRMQ0twZnBnN0FqVUR3T0FTRHBYbDhzeXZVblNXT3dXQU1ETStJaEpMTnBRQzBIeXpRbTNrUVFRaGNzL1VpaVZINHpkZ2ZwaEFCQlJzYnY4WDBuUTI4VUpnQURRTUR4SVlRZUxOZFNPQnlsc052azQzMWNBNm1wek1lOVh4WTVBZlRFQWlDeC9hZmxtdWI5SEVwdHVBRUFEOEYzR2IyelVua3RoaThsSFk0Y0FhQlZtK3FCOVlBTm5JN2NZUnMwWlVWblg5WC9jOVkvaWF3SUFtZVZUVW5nNDRkcC96QitUY3NjR3FTTjJDSUFtZDF1aHUveHlNMTdSV2cxbkFHUkVvYnQ4bldRWHhPNEFBQnhZMk1IR2Y1aG5McVdQSnV3UUJHQStCWm12WVBIZm1oZ0FaRWl4cC84VEpwVmlkd0FBbnM3SEpYSGJQOVREdmlFQUd3TUNtQTh1WFZmc0hyZ2pkZ2ZpWUFDUU1ZV2U4bVdTUGh5N0F3RHdCQzZGUVY0eVVVY3UrUlpqQ0FDZzF2WW95YTJPSFlGNGVEZVRRWVh1OGdmTjlPbllIUUNBdlh5M1NWT3hLOUJxUE96ZEdKQmJUZ0tvSGIrOFkzWGZvN0VyRUE4RGdBd3lrK2VyNWZkSi9xK3hXd0NnNVFWVDJCazdBaTByU09ubVJKcmtUQUFBYzJSNm9IRFkyTld4TXhBWEE0Q01zcEpDNGVpMjk1anJwdGd0QU5ES3dnNUpnY1VYSWdwU3V0bmtrN0ZEQURReWx5NjA4Ky9uTjBtTFl3Q1FZWFplMzNTK3MzQ09wRnRpdHdCQVM1cVNmSVRGUHpJZzNYczVnSE1wQ29CWnNlOTNkSmYvSTNZRjRtTUFrSEYyNFcyVlFqNjhXZEt0c1ZzQW9OV0U3ZHoyRHhsU05ZWE5KcCtPSFFLZ3dhVEJxeXRpUnlBYkdBQTBBUHZBaHJISlZHK1cxQis3QlFCYWhZK0tIZGlSUFZXVGIwNmtLdCtiQUE2UjJkOTM5dDU1Wit3TVpBTURnQVp4UktrOG5LYmg5WEwvZWV3V0FHaDZMdmtPWGlLUlRUNHRwVnRNQ3JGTEFEU0FvV28xdVN4MkJMS0RkemNOWkZGcHczWWw2Vm1TSG9yZEFnRE5MQXh4bWpVeWJuTGZMUUs1UkFYQU0zSHZYVnpxMnhFN0E5bkJBS0RCRkx2djJwUW9uQzFwZSt3V0FHaEtWVWxEbkY2TjdQT0tLV3pqZXhYQS9ybnI3c0l4YmRmRzdrQzJNQUJvUVBtZURmZUVKSG1kcEYyeFd3Q2cyWVFkSnVmVWFqUUkzMk43TjZzRWdLZHc5d3Z0dkQ3T1o4T1RNQUJvVUoycjEyK1FoemRLR28zZEFnRE53aWNrSDJVeGhjYml1MDJCczFZQVBKSHJQem92SGZqUDJCbklIZ1lBRGF6WXUrRjJVM2piM3Jlc0FJQTVjY2tIdWFZYWpjbDNtc0x1MkJVQU1tSXFhZk9MWTBjZ214Z0FOTGhDejRidnU1TGYxdDZyVmdFQXN4VDJtSHlDbzZob1VDNzVZTUlaTEFBazJjZnpxd2J1alYyQmJHSUEwQVE2ZXZxL1pxWS9GRGNFQW9CWjhTRDVEaFpPYUhBdWhXMG1yL0M5RExTd2JSUHR5Wld4STVCZERBQ2FSS0c3L004bS94Tng4aW9Bek53dWs5TFlFVUFOQkNsc2tYd3FkZ2lBR0V4K3laRXIrN2dnQ0FmRUFLQ0pGSG9HL2xHbWxiRTdBS0NSZU5VVWhqbGlpaVlTVEw0bFlhZ0Z0QnhibjA4SHJvdGRnV3hqQU5Ca2l0M2x2M2JYRmJFN0FLQlIrS0E0ZHdwTng2ZWw4Q2liV2dJdHhNM1RGVmJpa21BOE13WUFUYWlqdDd4YWJoK0wzUUVBV2VmanhxWnBhRnBlTVlYdGZIOERMZUtMaGQ0TlA0NGRnZXhqQU5Da0NqMzlGN244YzdFN0FDQ3pYQXBzL0ljbTV5T21zSXZ2YzZESlZTek5yWW9kZ2NiQUFLQkptY21McDV4OG5xUWJZcmNBUUJiNWJwTW1ZMWNBODg5M21Yd1BRd0NnV1puWmh3cWx2b2RqZDZBeE1BQm9ZbmJ1aldraG5mNERrNzRadXdVQU1pVVZSMFhST2x3SzIwMCt3ZmM4MEh4c1U3NmFmQ1IyQlJvSEE0QW1aNldOVS9tT3dyc2svU2gyQ3dCa1JkakZEdWxvTVdIZnBvQlZoZ0JBVS9Gd2taWDZ4bU5ub0hFd0FHZ0JkdUZ0bFluMjNGc2xXeCs3QlFCaTh5bkp1VU15V2xGVlNyZEl6aDdoUUxPNHRkQXpjR1BzQ0RRV0JnQXQ0c2lWZmJ1cmFYSzJ1KzZPM1FJQU1ZWEJoRnVqb1hWTm1ud3J0d2NFbWtCd3N4Vm0vRFJqWmhnQXRKREZwYjRkbHZoWmtuNFp1d1VBWXZCUmt6aFJFaTNPeDB6T0hoaEFRelBUWnp1NiszOGF1d09OaHdGQWl5bDJEMnhPbEh1ZHBDMnhXd0Nncmx6eW5TeDZBRWtLUXlZZmpWMEJZRFpjR2ttcjdaZkc3a0JqWWdEUWd2STlmYjlJY3Y0YVNkdGl0d0JBdllRaGswL0ZyZ0F5d2lYZmxzaTVGU2JRY016OHNzN1MvMnlOM1lIR3hBQ2dSZVZYRGR3YkVyMWUwbERzRmdDWWQ2bmtReHo5QjU3SWcrUmJqVTBCZ1VaaXVyK3dlT3lUc1RQUXVCZ0F0TERPMWVXeTNONGthU3gyQ3dETUo5OWhFb3NjNEdsOHl1VGIyQmdUYUJSdVdtSG4zOCs1TzVnMUJnQXRydGpiZjFzUzlIWkovQ0lCMEp3bVRXR0VvLy9BZ2ZqbzNrdGtBR1NiUzkvdFdGMitLWFlIR2hzREFDaC9hZmxteVg1ZlVocTdCUUJxTFF6R0xnQ3l6M2VhTk00UUFNaXdhbkJmRVRzQ2pZOEJBQ1JKeFo3K0w1bmJINHVUWkFFMEVkOGplWVZGRFhBbzBrY2xuNDVkQWVBQVByR29kMkJqN0FnMFBnWUFlRnlodC8rZjVINUI3QTRBcUlrZ2haMjh6QUdITEpqQ293bUhBb0RzMlRXZFRxK0xIWUhtd0RzalBFbXhkK0J2VGRZYnV3TUE1c3FIVE9Kb0pqQXprMUlZNU8waGtDVXVYM1ZZYWVPdTJCMW9EdnlHeDlNVWV2clh5dlhYc1RzQVlOYXFiR29HekphUFNNN0dtVUFtbUxTeG1CN3h1ZGdkYUI0TUFMQmZoWjd5U3BOZEc3c0RBR1lqN0RCdWF3Yk1RZGh1M0I4SXlJYi9hNlZicXJFajBEd1lBR0Mvek9UNXRQL1BKWDB4ZGdzQXpJUlhKQi9sNkNVd0p5NmxXeE1HYVVCY1h5cjBsRytKSFlIbXdnQUFCMlFsaGNMUnVUK1UyOWRqdHdEQW9RbzdXTFFBTlRFbGhVR0dhVUFjUG1FS0Y4ZXVRUE5oQUlCblpPZjFUUmZDMUx2TTdEOWp0d0RBd2ZpSVNST3hLNERtNGJ0TnZpZDJCZEI2M0pPUEZIbzIvREoyQjVvUEF3QWNsSlUyVHVXcnlUc2svU1IyQ3dBY2lBZFQyTW5SU3FEV3d2WkV6aDAxZ0hyYVhBeFRWOFdPUUhOaUFJQkRZcVcrOFluMjNKc2w5Y2R1QVlEOThWMlMyQ1lKcUwwZ2hVZTV0QWFvRjNOZmFhV05vN0U3MEp3NFZJSVoyWFBGc3FOeTFmQWptWjBhdXdVQUh1UFRVbmlJQlFvd241SWpYUFpzZnNpQStlWC9YZWdlZUprWnIyaVlINXdCZ0JsWnRLcC9VTUZmSjlPRHNWc0E0REUreUczL2dQa1doazAreHJFallCNjVUQmV3K01kOFlnQ0FHU3VXTmp5U1ZKUFhTWG8wZGdzQStMaFlsQUQxNEZMWVpseHFBOHdUTjExWDdCNjRJM1lIbWhzREFNeEt2clQrL3VEcDJaSjJ4VzRCME1KY0NqdFkvQU4xazBwaEsyZmNBUE5nVkZWYkhUc0N6WThCQUdhdHMvZk9PMlhKbXlTeFNRbUFLSHkzU1pNTUFJQjY4b3JKaC9tNUEyckpwQ3M2U3YxYlluZWcrVEVBd0p3VXU5Zi90d1YvcStUY2VSdEFmUVZUMk1VaUJJZ2g3R1Q0QnRTTTZZRjhldmpIWTJlZ05UQUF3SndWTGgzNGdadWZLNG03QkFPb203QkRVaHE3QW1oUkxxWGJ4S1VBUUUzNFJWYTZoWU5wcUFzR0FLaUpqdTROWDVmWnU4WGJjUUQxTUNYNUNFY2ZnYWdtVFdHSW4wTmdidXo3eGU2QnI4U3VRT3RnQUlDYUtYYjNmOWxjZnlLT0J3Q1laNEhiL2dHWjRMdE1tb3hkQVRTc05DVDIvdGdSYUMwTUFGQlRoZDd5NXlYeGl3ekF2UEZSeWNjNTZnaGtna3RoYThKQURwaWRUM1d1WHI4aGRnUmFDd01BMUZ5eHAvdzM3cll1ZGdlQUp1U1M3K0NsQzhnU241SjhKME01WUlhR3FtbXVGRHNDcllkM1VaZ1hIYjM5UFpKL05IWUhnT1lTaGt6T2RxTkE1b1FoazFkaVZ3Q054QzVkWE9yYkVic0NyWWNCQU9aTm9YdmdBMjc2Zk93T0FFMGlsY1NHWTBCbStiWkVIdmdaQlE3R3BaOFZqazQrRmJzRHJZa0JBT2FObWJ4NDhrbC9JdG0veFc0QjBQakNqa1FlWWxjQU9CQ2ZscHpqbWNCQnVaSUw3Yncrem1kREZBd0FNSy9zM0J2VHd0SEpINWpycHRndEFCcllwT1Fqc1NNQUhJeVBtRFFXdXdMSXRLOTE5cXovZHV3SXRDNEdBSmgzZGw3ZmRMNnpjSTZrSDhadUFkQ0FYQXJiT2EwWWFBZ3VwZHM1V3djNGdLa2s1eCtJSFlIV3hnQUFkV0VYM2xZcHBBdmZLdW1uc1ZzQU5CWWZsWHlDQVFEUU1LcmNGUURZTDlmVitWVUQ5OGJPUUd0akFJQzZzZEx0STlVMDl3YVROc1p1QWRBWVBFaGhrSmNxb05INHNNa25ZbGNBbWJKOVlrSHVpdGdSQU8rcVVGZUxTMzA3MHFUNlc1THVpZDBDb0FFTTJkN2Qvd0UwbkxBOWtUeDJCWkFONW43SmtTdjdkc2Z1QUJnQW9PNDZWOSsxemRMY1daSWVqdDBDSUx0OGV1Kzl4UUUwcUVrcERQTXpERWpxejRlQno4ZU9BQ1FHQUlpa1VPcDdPS2ZrOVpJR1k3Y0F5Q2JmWVJ3OUJCcWM3ekk1Tnp0RGl6TVBGMWhKYkkySlRHQUFnR2dXOXF6L1dYQjduYVNoMkMwQXNzVXJKaC9seUNIUThJTGsyeGptb2FYOVM2RjN3NDlqUndDUFlRQ0FxRHA3K3dmazlpWkpvN0ZiQUdTRVMyR1F4VC9RTEJqb29ZVlZ6T3lTMkJIQUV6RUFRSFRGM3Y3YkV0bmJKVTNHYmdFUW40OFl2dzJBSmhNRzJkQVRyY2VrcXdyZC9RL0Y3Z0NlaUFFQU1pSGYwLzlkbDM1SFVqVjJDNENJVWlsdy8zQ2crYVQ3OXZVQVdzY2orWHo0U093STRLa1lBQ0F6T25yS1h6V3pQNWJZSkFWb1ZXRVhSd21CWmhWR1RENGV1d0tvRS9PTDdBTWJ4bUpuQUUvRkFBQ1pVdWp1djk1ZGZ4bTdBMEQ5K1pUa3V6bENDRFF6MzU2d0lTQmF3WDhWVmcvY0VEc0MyQjhHQU1pY2p0N3kzNW5VSGJzRFFIMkZRUllHUUxQemFTa01NK2hEVXd0dWRvRVpyMmpJSmdZQXlLUkNUL2x5eWE2SzNRR2dQbnpVSkU0TkJscUM3elIyL0VIVE10TS9kSFQzL3pSMkIzQWdEQUNRV1lYdS9rdk0vRk94T3dETU05KzNJQURRR2x3S2JBaUk1clFuV0s0M2RnVHdUQmdBSUxQTTVQblZBMy91WnY4UXV3WEEvUEZoazAvRnJnQlFUNzdINUpYWUZVQ05tZFowck81N05IWUc4RXdZQUNEVHpPVEZrMC84TTBsZml0MENZQjZrKzNiK0I5QnkyUGNEVGVZWGhjV2puNGdkQVJ3TUF3QmtucDE3WTFwSXAzL1A1TitPM1FLZ3RzSU80OGFmUUt1YWxId2tkZ1JRR3k1ZlllZmZQeG03QXpnWUJnQm9DRmJhT0pWUDI5NHAyWTlqdHdDb2tVbVQ3K0hvUDlES3dnNlQwdGdWd055NDlOMk9ub0Z2eE80QURnVURBRFFNSy9XTlQ3UW5iNUZzZmV3V0FITVhCbzNUZjRGV0Y0ekxnTkRvcWlFSjc0OGRBUndxQmdCb0tFZXU3TnVkNXZSNmwzNFd1d1hBN1BrZXNRRVlBRW1TN3phSkU2ZlJxRngvdTJqMWhydGlad0NIaWdFQUdzNmlWZjJEbG9helpIb3dkZ3VBV1FoUzJNbkxENEI5bkRPQzBMQjJWZHNXcklzZEFjd0U3OERRa0lxbERZOGtyck1rM3hxN0JjRE0rSkJKMDdFckFHU0pWMHcreXFVQWFDenV0bnJ4cWp0Mnh1NEFab0lCQUJwV3ZxZDhYNXI0NnlUeGl4ZG9GRlZUR09KTlBvQ25DenM0Q3dDTnc2U054WERZWjJOM0FEUEZBQUFOYmRIcURYZkovSTJTOXNSdUFYQnd2TUVIY0VCVktRd3pJRVJqc0tEM1crbVdhdXdPWUtZWUFLRGhGYnNIN3BEckRaTEdZcmNBT0RDZmtIdzBkZ1dBTFBOZDNCWVFEY0Q5eS9sTHl6Zkh6Z0JtZ3dFQW1rS3h0M3hySW4rSDJFY1l5S3l3UGVIb1A0Qm5Gc1JsUXNpNnlTVGtWc2FPQUdhTEFRQ2FScjVuNER1Uy82NDRkZ0JrVHRndHhuTUFEb2tQbThTSjFjZ29sejZTTDYyL1AzWUhNRnNNQU5CVWlqMEQvMjZtOTRyampFQm1lREQ1TGw1dUFCd2lsOEpPemdKQUZ2bldZcnJ3cjJOWEFIUEJPekkwblVKMytUcVpyWWpkQVdDZlhlSm9Ib0FaOFJHVEpoa0NJRnZNa291dGRQdEk3QTVnTGhnQW9Da1Z1L3V2Y2ZjMXNUdUFWdWZUN09vTllIWlNidktMYk9uTFYvdi9PWFlFTUZjTUFOQzBPbm9ITHBYcjZ0Z2RRQ3R6YnZzSFlMYkdURjZKSFFGSWtsd2Uvc0pLQ3JGRGdMbGlBSUNtVnVncFgyalNaMkozQUszSUs1S1BjdlFmd095RlFlNGVndmhjdXI3WXUrSDIyQjFBTFRBQVFGTXprK2RQT2VsOWt2OXI3QmFncGJnVXRyUDRCekJIazVLUDhic0VVWTBxdFV0aVJ3QzF3Z0FBVGMvT3ZURXRITjMySG5QZEZMc0ZhQlcrMjZRcDNyUURtRHN1SlVKTVpycXlvOVMvSlhZSFVDc01BTkFTN0x5KzZYeG40UnhKdDhSdUFacGVLZ1UyN3dKUUl6Njk3NjRBUVAzOU1sODkvR094STRCYVlnQ0FsbUVYM2xZcExLaThWZEwveEc0Qm1sbllhVkxnelRxQTJnbTdUR3kvaHZyemk2eDB5MFRzQ3FDV0dBQ2dwZGdINzlrem1lb3NTZVhZTFVBejh2K1B2VHNQaytzczc3ei91NS9xcmFvM2RjdElzZ1NURFhBbUJ0dkNrOHlRdkpPTEpUWm1od0FPU1NDQkNZbXpBYll4eHRqZGNsbVNWNHd0UStJWlNKaE15RHFZbDBrbSswTEdnVEFPbUZaM0M4d2VFck1GTE5tU0xLbTdwZTQ2OS93aFE3eElWaTlWZFovbCsva3YyRlovcjF4MmRkV3Z6bm5PVWI2cEE5QUJTNUlmNHJVRlhXVDZQNDNKMlE5Rlp3RHR4Z0NBeWhscnpoeG90YkxuU2ZwOGRBdFFOdHlyQzZCVHN2dDVmVUhYdERKTEYwZEhBSjNBQUlCS0dtN3V1VSsyZEo2a2U2TmJnTEx3d3lhZjR4czZBQjNTNGdvamRJZEo3eDI2YXZlZTZBNmdFeGdBVUZtTmlVOS90VmFyWFNEcHZ1Z1dvUEQ4b1cvL0FhQ0RzZ2ZFVlFEb3RQMkxyZHEyNkFpZ1V4Z0FVR245VjA1OUxrdnBQRW43bzF1QUlzc09tSHd4dWdKQTZTMFpWd0dnMDY0WmFVN3RpNDRBT29VQkFKVTNkTlh1UGJMMEFrbUhvMXVBUWxveTZRSGVrQVBvRHE0Q1FLZTQ5Tm42aHRydDBSMUFKekVBQUpJYUU3di8wVEo3bWVRODZnVllvZXgreVhrOEY0QnU0U29BZElnclhXb1hUWEU5RzBxTkFRQjRTUDNxNlErNzJhc2xMVVczQUlYQlkvOEFCT0FxQUxTZDI1OE1UZTcreStnTW9OTVlBSUNIR1p5WStXTnpmNzBrdnM4RVRzV2xiQzhmL2dFRTRDb0F0TmV4MUpOZEZoMEJkQU1EQVBBbzlXMnp2K3V1TjBaM0FIbm5oeVNmNXcwNGdCaGNCWUEydW0zZ3l0a3ZSRWNBM2NBQUFKekE0TGFaMjJXNkpMb0R5QzJYc3Z2NUZRSWcwSkxKSDR5T1FBbmN0OUJidXpZNkF1Z1czcjBCSjlHWW1Oa2w5eHVpTzRBODhnZU0weklBaE12Mko2NEN3SnE0NjZyeEs2WU9SbmNBM2NJQUFEeU94cmJadDh2RTQyQ0FoMXN5WmZ1NTlCOUFEaXhLZnBqWEk2emFkT1A3bi9KYjBSRkFOekVBQUtkUXYycm1WMTMrdnVnT0lDK3l2Y1kzYmdCeUk5dlBheEpXeDh3dXRndnZhRVYzQU4zRUFBQ2NncG04Y2NaVEw1SjBSM1FMRU0zblRYNGt1Z0lBSHVZb0I1SmlOZndQNnhQVEg0bXVBTHFOQVFCWUJydndqbGE5dGZnYWMvMUZkQXNRaVcvL0FlU1I3NDh1UU1ITW02VXJvaU9BQ0F3QXdESlo4NTVqQTFudGxaSjlOTG9GaU9BSEpSMk5yZ0NBeC9JNWs0NXlGUUNXeDZXYjZoUFQ5MFozQUJFWUFJQVZzT2JVM0VKdmVyR2txZWdXb0tzeUh2c0hJTjh5cmdMQThueXRNWkM5SXpvQ2lNSzdPV0NGeHErWU9yalVxbDNncnM5RXR3RGRrajFnRXNja0FjZ3hQMnpTWW5RRmNzL3RyZmJXUFp4bWc4cmlXaWxnbGVaMm5yMUZiaCtWOUQzUkxVQW4rVEVwK3dyUDJnYVFmemJtU3FmeFlvV1R1cXMrTWZNalp2eEdRM1Z4QlFDd1NvMkoyYThuMWM2VDlJM29GcUNUc3IxOCtBZFFFQWU1V2drbmxibnJ6WHo0UjlVeEFBQnJNREE1OVUrdGxEMVAwdjNSTFVBbitCR1Q1cUlyQUdCNVBKT3lnMXpnaXNkeStXOE5icHU1TzdvRGlNWUFBS3pSOEZWN1B1MnU1N3YwWUhRTDBGWXUrYjdvQ0FCWUdUOWdVaFpkZ1p3NXBOUXpHUjBCNUFFREFOQUdnOXRtN2piVDh5VnhxQXhLd3crWS9CamZwQUVvbUpia2gzanR3aVBzR0x4cTZsK2pJNEE4WUFBQTJxUXhNZk4vVTZhWGl5ZWxvd3hhRDUzOER3QUY1QWVNczB2d2JmOVVIejM4cnVnSUlDOFlBSUEyR3JoNjVtOWsvcE9TbHFKYmdMWEk3dWNTV2dERjVjY2tYNGl1UUI2NFpaZlltNzdFbHpQQVF4Z0FnRFpyVE16K0x6TzlRWHg4UWxFZGxmeEJ2djBIVUd4K2dOZXh5alAvOE9ERW5qK0p6Z0R5aEFFQTZJRDZ4TXh2eS8zTjBSM0FhdkRZUHdCbDRFZE16dlY0VmJiVU1yODRPZ0xJR3dZQW9FTWEyMlovemFSbWRBZXdFbjdZNVBQUkZRRFFCaTZKUndKV2wvdnR3MWZ0K1hSMEJwQTNEQUJBQjlVblo2NlI5STdvRG1CWk1zbjM4bVlaUUhsa0J6a01zS0llV09ycDN4NGRBZVFSQXdEUVlmV0ptYmVaNmIzUkhjQ3BaUHU1WEJaQXliU09YOW1FYW5IWDVNaVZuN2cvdWdQSUl3WUFvTVBNNUFOTE03OGs2UStpVzRDVFdwTEVnVmtBU29qREFLdkZYWjlwWk92NDRnVTRDUVlBb0F1c3FheStvZmF6a3Y0MHVnVTRrV3lmeVhsdUJZQVM4Z1ZKUEJLd01tcm1sMWp6VHE1bkEwNkNBUURvRXJ0b2FySGVXbnlGbWYxVmRBdndjTDdBSmJJQXlzMDVETEFpN0VNRGs3Ti9IVjBCNUJrREFOQkYxcnpuMk1CUytuRkpINHR1QWI3TjkzSklGb0J5eXc2YjFJcXVRSWNkUy9Jcm9pT0F2R01BQUxyTW1sTnpSMXQ2a2FUcDZCWWdlOURrQzN3ekJxRGtNc2tmNUxXdXpGeDY1OERrekJlak80QzhZd0FBQXEvczZwNEFBQ0FBU1VSQlZJdzFadzYwV3RrRmN2OWNkQXVxeXpPVDM4OGJZZ0RWd0NNQlMrMWJqVmIvRGRFUlFCRXdBQUJCaHB0NzdsTnFuUy9wM3VnV1ZOUURPbjc2UHdCVXdhTGtjNHllWldTbXQxbno0dzlHZHdCRndBQUFCR3BNZlBxclNUcFA4bTlHdDZCYWZNbVU4V2dzQUJYamZFUXNvNm1CcFpuZmlZNEFpb0lCQUFnMk1Ebnp4Y3l6ODNYOCsxaWdLemo0RDBBVitSRU9BeXdaTi9PTHJTa2VaQXNzRXdNQWtBTkQyejcxS1huMkFrbUhvMXRRZmo1bmN2NU5BMUJGem1HQTVlSy9XNStZL1lmb0NxQklHQUNBbkdoczIvTnhVL2JTNDA5bEJ6ckVwV3h2ZEFRQXhHRUFLSTA1YS9WTVJFY0FSY01BQU9SSWZYTFAzN25acThYUmJPZ1FQeWpwR0c5K0FWU1hIeE9QUHkwQms2NnJONmUrRXQwQkZBMERBSkF6Z3hNemYyeW0xMG5jejRZMmEwblpBN3pzQXdDSEFSYmVWd1phdFZ1akk0QWk0cDBna0VQMWlabmZNL2tieERGdGFLUHNmZzYvQWdCSjBpRU9RaTAwczB1dE9UVVhuUUVVRVFNQWtGUDF5ZG5ma25SSmRBZkt3WTl5M3lzQWZKdG5raC9tTmJHZy9xRisxZlNIb2lPQW9tSUFBSEtzTVRsem03dXVpKzVBOFdYNytMWUxBQjZPMndBS3FaVzUvYW9adjlHQTFXSUFBSEp1Y052TVZYSzdKYm9EeGVXSFRacmpteTRBZURpZk4vbGlkQVZXd3N4L1kyamI5R3gwQjFCa0RBQkFBZFFucHk5eitmdWlPMUJBTHZrK1B2d0R3R080anA4RmdLSTRzSlRTdHVnSW9PZ1lBSUFDTUpNM3puanFSWkkrRU4yQ1lzbjI4dzBYQUp4TWRwRGJvd3JEZE0zd2xkTjdvek9Bb21NQUFBckNMcnlqVlc4dHZ0YWtQNDl1UVVFc21iU2ZiN2NBNEtTV2p0OEtnSnh6LzF6OUNiVmZqODRBeW9BQkFDZ1FhOTV6YkdDdy9rcEpINGx1UWY3NS9jZFB1Z1lBbkJ4UFNNay85M1NwWFRURjlXeEFHekFBQUFWamw5NDF2OUJiZTRsa3U2TmJrR01McG93M3RRQndTbjZZc1RUUHpQVm5nMWRQLzBWMEIxQVdEQUJBQVkxZk1YVndxWldlNTY3UFJMY2doMXpLOWtWSEFFQkJ1S1FqREtZNXRXaVd2U1U2QWlnVEJnQ2dvRWFhVS9zcytma3lmVG02QmZuaWg0MTdXZ0ZnQmZ4UWRBRk96TjgxTUxubjg5RVZRSmt3QUFBRjFwaVkvYm90MVo0dDZTdlJMY2lKVE1wNDdCOEFySWpQbWRTS3JzQ2ozSGUwWlR1akk0Q3lZUUFBQ3E3ZW5QcEtxdmw1a3I0VjNZSjR2dCtrcGVnS0FDZ1lsNXpiQUhMRnBZbXg1c3lCNkE2Z2JCZ0FnQklZdUhMMkM1bmI4eVR0ajI1Qm9DVlR4bVAvQUdCVi9NSG9BanpNVE9PTXAvejM2QWlnakJnQWdKSVkyalk5SzdjWFNqb1MzWUlZMlQ0ZFA4d0tBTEJpUHM4VlZIbGhiaGZiaFhkd1V3YlFBUXdBUUlrMHRrM2ZsV1F2azNRMHVnWGQ1UXNtUDh5My93Q3dGcnlPNW9IOXovcTI2YitQcmdES2lnRUFLSm1CeWVtL2RlblY0bnVNU3NudU03NzlCNEExOGtNTUFNSG1yZVZYUkVjQVpjWUFBSlRRNE9UTUg1bmJ6MG5Lb2x2UWVmNmdjYzBIQUxTQkwwaStHRjFSWGU3K2pucHo1bCtpTzRBeVl3QUFTcXErYmZyOU1yc2t1Z09kNVR6MkR3RGFpdHNBd255OVVmZWJvaU9Bc21NQUFFcXNNVEg5THBOdGkrNUE1L2dEUExzYUFOcUoyd0JpbU90eWUrc2VEaklHT293QkFDaTUrdVQwRHJsWTFFdklGeVUvd0J0VkFHaXJvNUtPUlVkVXpsMERrek4vRUIwQlZBRURBRkFCOWNtWks4ejh2MFYzb0wyeXZSejhCd0Nkd0ZVQVhaWEovR0l6ZnFNQjNjQUFBRlNBbVh4Z2FmWlhKUDErZEF2YVpFN1NFZDZnQWtBbitPSG9ndXB3cy8vUm1KajlSSFFIVUJVTUFFQkZXRk5aL1l5bi9JeWtEMGEzWUkxY2F1M2w1UnNBT3NXUG1aemJBTHJoa0N4TlJFY0FWY0k3U0tCQzdNSTdXdlhXNGsrYjJWOUZ0MkQxL0tCeGZ5b0FkSmh6bFZYbm1YWU9YalgxcjlFWlFKVXdBQUFWWTgxN2pnMHNwUitYOUEvUkxWaUZ6SlRkSHgwQkFCWEFiUUNkWmZweWZlVHdiZEVaUU5Vd0FBQVZaTTJwdVlYZTJvc2syeDNkZ3BYSjlrbksrRllLQURyTmo1cTBGRjFSWGk1ZGFtLzYwdEhvRHFCcUdBQ0FpaHEvWXVwZ3E2WUw1UDY1NkJZczAxSEpIK1REUHdCMGhVdk9VK2s3eFA1dWNHTG1qNk1yZ0NwaUFBQXFiUGpLNmIzSy9EeVovaVc2QmFmR1kvOEFvTHV5dzd4VjdvQlc1a3NYUjBjQVZjV3JHbEJ4amVhZXJ5WFgrWksrRmQyQ2svTkRKcC9uMjM4QTZLcDV5YlBvaUxMeDI0ZTJmZXBUMFJWQVZURUFBTkRBNU13WE0yK2RKK21CNkJhY2dFdStqdy8vQU5CMUxvbW5BYlRUL3FWYS96WFJFVUNWTVFBQWtDUU5iZnZVcDJUK2ZFbUhvbHZ3U05sK2szTVFGUUNFNEhHQTdlUFM1TWlWbitCWk5rQWdCZ0FBMzlHWW1QMkVaZjVTeVJlaVcvQ1FKVW43ZWZNSkFGSDhpRGgvcFEzYzlabEdhOTE3b2p1QXFtTUFBUEFJOWF0bi8wK1c2V1dTamtXM1FNcjJHZmVmQWtDa1RKekIwZ1kxODB1c2VTZlhzd0hCR0FBQVBNYlExYk4vSmJPZmt0U0ticWt5WDVEOE1HODZBU0NhSDQ0dUtMdy9HcGljL2V2b0NBQU1BQUJPb2pFeC9mK2I2dzNpd3NjWUxqbVAvUU9BWFBBanZCNnZ3YkVrWFI0ZEFlQTRCZ0FBSjFYZk52TS9aTWF6ZWdOa2gweSt3TGYvQUpBTFMrTEd1TlZ5djJWZ2N1YUwwUmtBam1NQUFQQzRHaFBUNzNMNWp1aU9LdkZNOHZ2NThBOEFlY0l0V2F2eXJYbzJjSDEwQklCL3d3QUE0SlFHSjJlM1NmN082STdLMkcvSHYyMENBT1NHejBVWEZJKzVyckRteHgrTTdnRHdieGdBQUN4TGZXTDJyV2I2emVpT3N2TWxVOFpqL3dBZ2QzekJPQnAzUld6M1FEYnovdWdLQUkvRUFBQmdXY3prQTA5OXlpOUsrbUIwUzVuNVhuSFFGQURrbE04eDBDNlRtMlZ2dHFaNGtDMlFNd3dBQUpiTkxyeWpWZDlRK3lsei9WbDBTeG41bkhHUEtRRGtHYmNCTE5mdjFTZG0veUU2QXNCak1RQUFXQkc3YUdweFlLaitLa2wvSDkxU0tpNWwrL2p3RHdCNWxzM3hPTUJsbUxkVzdhcm9DQUFueGdBQVlNWHMwcnZtNjYzK2wwajZaSFJMV2ZoQms0NUdWd0FBSHRlU3BFWEcyc2Rqc3V2cnphbXZSSGNBT0RFR0FBQ3JZczJQUDdqVXFqM2ZwSHVpV3dxdkpXVVA4SVlTQUlyQWowUVg1Smw5ZGFDVmVHb1FrR01NQUFCV2JhUTV0VytwbFQxSDB1ZWpXNG9zZXlCeHNqUUFGQVFIQVQ0Tzg3ZFljNHFURW9BY1l3QUFzQ2JEelQzM1dhdDJ2cVI3bzF1S3lJOUpmakM2QWdDd1hENHZPV2ZibjhqSDZsZk44S1FnSU9jWUFBQ3NXYjA1OVpVa25TZnBXOUV0UlpQdDVVQXBBQ2dVbDJ3K09pSjNNdmYwWmpOK293RjV4d0FBb0MwR0ptZSttTGs5VDlMKzZKYWk4TU9TdUpRVUFBb240N1g3RVV6Mkc0UGJkazlGZHdBNE5RWUFBRzB6dEcxNlZtNHZsSFE0dWlYM1hQTDdlUWtHZ0VKaUFQZ09seDVzdFhxYTBSMEFsb2QzbndEYXFyRnQrcTRrZTdsNHFOM2p5dmFiL0ZoMEJRQmdOZnlZNUl2UkZmbGc4dVpROCs1dlJuY0FXQjRHQUFCdE56QTUvYmVTLzVTT1B6RVpqOWFTZkQvZkhnRkFvYzN6T2k3VGwrcXRwVitQemdDd2ZBd0FBRHFpTVRuN0lYTi92U1RPU240VTMyZjhmd1VBQ3M2UFJCZkVjOWViclhrUDE3TUJCY0lBQUtCajZ0dG1mOWRkYjR6dXlKV2pwdXhCdmpVQ2dLTHppai90M2sxL016ZzU4K2ZSSFFCV2hnRUFRRWNOYnB1NTNVeFhSWGZrZ2t2WjN1Z0lBRUJiWkNZZHEreWd1MWp6aklFZktDQUdBQUFkVjUrWXVVNnlHNk03b3ZsaGszUFBLQUNVaHM5SEZ3UnhlL2ZBNUo3UFIyY0FXRGtHQUFCZDBaaWN2a0t1WGRFZFlUSXB1NThQL3dCUUpsN054d0h1UFpyNWp1Z0lBS3ZEQUFDZ2ErcVRNNWU2MlgrUDdvamdCMHppa1ZFQVVDbytMOG1qSzdyTFhSTmp6WmtEMFIwQVZvY0JBRURYbU1rYlQzM3lMMGk2STdxbHE1WjQ3QjhBbEZKTDhtcU51ek9ONzMvSys2SWpBS3dlQXdDQXJySUw3MmpWVzR1dk1mbGZScmQwUzdiUDVEejJEd0RLcVVMbkFKamJ4WGJoSGEzb0RnQ3J4d0FBb091c2VjK3hnVmJQS3lUN2FIUkxwL244OGNQL0FBRGw1UE9WZVR0OVIzM2I5TjlIUndCWW04cThZZ0hJRjJ0T3pTMzBwaGRMdGp1NnBaT3lmYWx5OTRjQ1FKWDRYSFJCTi9pQ3RYUjVkQVdBdFdNQUFCQm0vSXFwZzYyYUxuRHBzOUV0bmVBSFRWcUlyZ0FBZEZSTDhtUFJFWjNsMGp2cXpabC9pZTRBc0hZTUFBQkNEVjg1dmRkczZYbVM3bzF1YVNmUGpNZitBVUJWekpmNjlmN3JqUUcvTVRvQ1FIc3dBQUFJMTVqNDlGZVRhcytWOUsvUkxlM2lEMGppbUNRQXFBUXY4VUdBWm5xYnZYWFBrZWdPQU8zQkFBQWdGd1ltcC82cGxiTHpKZDBmM2JKV3ZpajVnVkovR3dRQWVCZ3Y3eFVBZHcxY05mUDcwUkVBMm9jQkFFQnVERisxNTlNeWY0R2tROUV0YStGN2pZUC9BS0JLbGlSZkt0MElrTW44WWpOK293Rmx3Z0FBSUZjYUU3T2ZrT3Y1a2dwNXVhSFBTWDZrZEc4Q0FRQ25VTGFuQWJqcC9ZMkoyVTlFZHdCb0x3WUFBTG5UMkRienNTVC9jVWxIbzF0V3hDWGZ5OHNxQUZSU3VjNEJPS3dsdXlvNkFrRDc4VTRWUUM0TlRNNyt0ZVEvSldrcHVtVzUvSUNWL2xGUUFJQ1RXQ2pQMVY5bWR1MWdjL29iMFIwQTJvOEJBRUJ1TlNablAyU21ONmdJZDlSbnBteC9lZDc4QVFCV3hoZFZqcWUvbUw0OHNEUzZLem9EUUdjd0FBREl0ZnJFekc5TDl1Ym9qbFBKOWxrNTN2Z0JBRmJISlIwdC9oRHNycmRZODg2RjZBNEFuY0VBQUNEM0dwUFQ3M2JwbXVpT2t6b20rWVBSRVFDQWFGbmhQemJiM3cxT3p2eFJkQVdBem1FQUFGQUlnNU16VGJsdWp1NDRrWXpIL2dFQUpQbDhvYThBYUdXK2RIRjBCSURPWWdBQVVCajF5Wm5MemZUZTZJNkg4OE9TenhYNkRSOEFvRjBXdkxpRHNObC9IZHIycVU5Rlp3RG9MQVlBQUlWaEpoOVltdmtseWY4d3VrWFM4Y2YrN2VObEZBRHdrTXpraFhsMnpTUHNYMXBLK2IzVkRrRGI4TTRWUUtGWVUxbDlROC9QU1ByVDZKWnN2eDAvOVJrQWdHOHI0dU1BM2JlTk5LZjJSV2NBNkR3R0FBQ0ZZeGROTGRZSDZ4ZEt1ak1zb2lXSngvNEJBQjdGQ3pZQXVQVForc2FlOTBSM0FPZ09CZ0FBaFdTWDNqVmY3NXQvaWFTN0kzNSt0aS9KczRpZkRBREl0WVZpSFFMZ21WOWlGMDF4UFJ0UUVRd0FBQXJMM3ZiNVEwZGJPbC9TVERkL3JpOUlmcWliUHhFQVVCUit0RUJQaG5IOThkRFZzMzhWblFHZ2V4Z0FBQlRhV0hQbVFLdVZQVS9TNTd2eUExMXlIdnNIQURnWmwveG9kTVN5SEVzOWZubDBCSUR1WWdBQVVIakR6VDMzeVpiT2szUnZwMytXSHk3ZS9aMEFnQzRyeE84SnUzWGd5dGt2UkZjQTZDNEdBQUNsMEpqNDlGZVRkSjdrMyt6VXovQk15dmJ5c2drQWVId0ZHSXEvdGRDYnJvK09BTkI5dkpNRlVCb0Rrek5mekZMdGVaSWU2TWdQMkcvSFQvOEhBT0R4ek9mN1BqR1R2MzM4aXFtRDBSMEF1bzhCQUVDcERGMjFlNDhzdlZEUzRYYit1YjRvWlR6MkR3Q3dETDVrMGxKdWYyZE1EN1JtZnpzNkFrQU1CZ0FBcGRPWTJQMlBsdG5ManAvWDN4NitqNFAvQUFBcmNDeVh2elRjUEh1ek5jV0RiSUdLWWdBQVVFcjFxNmMvN0dhdmxyUzAxai9MNTAxK09MZmY1QUFBY2lqTDV6a0FmMURmdHVlajBSRUE0akFBQUNpdHdZbVpQemIzMTB0citLYkRwV3h2THQvRUFRRHk3Rmp1Zm5mTW05bVYwUkVBWWpFQUFDaTErcmJaMzNYWEcxZjd6L3VESmhYamVjNEFnRHpKMmU4T003dWhQakhkOGNmbEFzZzNCZ0FBcFRlNGJlWjJtUzVaOFQvWWtyTDdjL2NORGdDZ0FIeFJPVG83eHI0NnNKUnVqcTRBRUk4QkFFQWxOQ1ptZHJtMG9tY2Vady93MkQ4QXdDcTU1RWR6TWlKN2RwazFwK2FpTXdERVl3QUFVQm1Ea3pOWFNycDFPWCt2SDVQOFlFN2V1QUVBaXVsWWRJQWs2V1AxeWRrN29pTUE1QU1EQUlCS3FVL012TVhsN3p2VjM1ZnRUVG02ZEJNQVVFVHRleGp0cW1WdWRyRVp2OUVBSE1jQUFLQlN6T1NOTTU1NmthU1RmaHZpaDAzaVFra0F3Rm9GUHduQXBQY05Ua3gvTWpRQ1FLNHdBQUNvSEx2d2psYTl0ZmdhYy8zRlkvNmlTODdCZndDQWRvaDlFc0NoVnF0M1cyZ0JnTnhoQUFCUVNkYTg1OWhBVm51bHBJODgvSC9QRHBnOEgvZHNBZ0FLenJPSG5nWVF3cTRaYXQ3OXphaWZEaUNmR0FBQVZKWTFwK2JxcmY0WFM1cVNKTFVrZjRCdi93RUFiYlFROEh2RjlLWDY2S0ZmNi80UEJwQjNEQUFBS3MyYUgzOXdxVlc3d0YyZjhmdVRsRVVYQVFCS0plQ3FNamRkYkcvNlV1d05DQUJ5aVFFQVFPV05OS2YyS2ZPM09RZi9BUURhekx2OE1keWx2eDI4YXViUHV2dFRBUlFGQXdDQXluT1hXUzFkYmxzeXFTZTZCZ0JRSm42MHE3Y0FMR1h1RjNmekJ3SW9GZ1lBQUpXM3NPT2NuNVQ4UDF1dlZOdmlVdUp4eVFDQU5sbVMxT3JhVDN2MzhMYlplN3IyMHdBVURnTUFnRXJ6VzU1WmQ5TjEzL2tmK2x4cGkyU01BQUNBTnVuU2JRQVBMTFlXZDNibEp3RW9MQVlBQUpVMmQzanVDa25mOWZEL3pRWmN0bGtTRHdRQUFMVERzYzcvUW5HM3EwYWI5enpROFI4RW9OQVlBQUJVMXR6T3B6M0p6QzQ3MFYrenVpdHRka1lBQU1DYWVZZWZCR0RTUFkxczlEYzcrMU1BbEFFREFJRHE4cDZiSlRWTzlwZXQ0VXFiR0FFQUFHdlU2UUVnMHlYV3ZIT3BzejhGUUJrd0FBQ29wTG50NS95SXBGZWQ2dSt6SVpkdFlBUUFBS3llZC9ZV2dBOE9YRDN6TjUzOEFRREtnd0VBUU9WNFUwbW1YVnJteC9vMDRrcW5jU2dnQUdDVld1clFrd0I4d1pSZDNvay9HVUE1TVFBQXFKeTVkTTRiSlAySGxmd3p0czZWeGhrQkFBQ3I0NHNkK0RNOTNWeWYzUFBQN2YrVEFaUVZBd0NBU3ZFYnp4ZzI4MnRXODgvYWVwZU5NUUlBQUZhdUE3Y0JmTDJSSGJ1eDNYOG9nSEpqQUFCUUtmUEhCcTZXYk5OcS8vbTAzbVdqakFBQWdKV3hOaDhFYU81WFdQT2V3KzM5VXdHVUhjZGFBYWlNaGVZem5welZzazlMNmwvVEgrUlM5cTBrUDlTZUxnQkErZG1nbERabmJmclQvQi9yRTdNL2JDWVdhUUFyd2hVQUFDckRVN1pMYS8zd0wwa21wWTJaYkpEM1hRQ0FaV3JmR1FBdTk0djU4QTlnTlJnQUFGVEN3bzZ0UCthbUY3YnREelFwYlhKWm5mZGZBSUJUODBXcEhSL1pYWHAvWTl1ZWo2LzlUd0pRUlF3QUFFclBtOC9xY2ZtdXR2L0JTYkxOM281ckNnQUFaZWVTci8wY2dNTnEyWlZ0cUFGUVVRd0FBRXB2dnJiL2pTNmQyWWsvMjVKVWUyTEdDQUFBT0xVMTNnWmcwbldEemVsdnRDY0dRQlV4QUFBb3RZUE5NOGNsbStqb0QwbFNiVXNtNitOMkFBREF5YTNwVVlDbUx3KzAxdDNhdmhvQVZjUUFBS0RVK21wOTEwa2E3L2dQcWtscGk2VGVqdjhrQUVCUnJla1dBTC9NbW5jdXRDc0ZRRFh4R0VBQXBYVm8rOWxuMXN4bUpQVjA2MmY2b3BSOXphUWxYbDRCQUk4eUlOV2V0SnBIQWRyZk5TYW5uOXYySGdDVnd4VUFBRW9ySmJ0VlhmendMMG5XSzlVMnUxVHI1azhGQUJTQkhkTnFuZ1RReXBKZDB2NGFBRlhFQUFDZ2xPWjJiSDJsdWM0TCtlSDlVdHJzTWw1aEFRQVA0NW1rMWdyL0lkTjdocTdhdmFjVFBRQ3FoN2VuQUVySG04OGFrUHlteUFZYmNObm1qQnV0QUFDUDRJc3Irc1d3ZjJtcGRuV25XZ0JVRHdNQWdOSlo2TmwvbWFUdmllNnd1cFEyTVFJQUFCNW1jUVgzQUpnMVI1cFQrem9YQTZCcUdBQUFsTXJjenJPM3VOdmJvanUrellha3RKSEhBd0lBanZObEhoTHIwbWZyVDBqL3RjTTVBQ3FHQVFCQXViamRJR2tvT3VQaGJOaVZOakFDQUFBa0xTN3ZiM09sUysyaXFXWCszUUN3UEF3QUFFcGpidWN6L3BPa240N3VPQkViZGRscGpBQUFVSG5MT3dQZ2Z3OU43djdMVHFjQXFCNEdBQUNsNEM2VFo3Y3B4M2ZjcHpGWEdtY0VBSUFxODFPZkFYQXMxZnl0M1dnQlVEME1BQUJLWWVIYWMzNUcwZzlGZDV5S3JYZlpPa1lBQUtpc0paTWU3OWVBYTlmQWxiTmY2Rm9QZ0VwaEFBQlFlTjQ4YzhoZDEwVjNMRmM2elpWR0dBRUFvS3A4NmFSLzZiNkZ2bHBoZnA4QktCNEdBQUNGTjFmcnZWTFM1dWlPWlRQSk5yaHNtQkVBQUtySVRuSU9nTW11SEw5aTZtQ1hjd0JVQ0FNQWdFSmJhRDc5ZTAxK1NYVEhpdGxEandkc1JJY0FBTHJ0Sk9jQVRBKzBwbityMnkwQXFvVUJBRUNoWmFsMnMyUUQwUjJyWWxKdGN5YXJjeVVBQUZUS0NhNEFNTE9McmFrc29BWkFoVEFBQUNpcytSMW5QVWVtbDBkM3JJbEphYk5ML2RFaEFJQnU4Y2NPQUg5UW41aitTRVFMZ0dwaEFBQlFTUDZCVjlWYzZkYm9qclpJVW0xTEptTUVBSUJLOE1WSC9KL3padmIyb0JRQUZjTUFBS0NRNWo3L3hWK1VkRlowUjl2VXBMUTVrL1ZHaHdBQU91NWhad0NZZEdOOVl2cmV3Qm9BRmNJQUFLQndEbHovOURHVG10RWRiZGNqMlpaTXFrV0hBQUE2S2pNOWRMZi8xd1lHc3B1RGF3QlVDQU1BZ01McFcwclhTRG90dXFNVHJGZXFiWEZHQUFBb3UwVko1cGZaVy9jY2lVNEJVQjBuZmdncEFPVFUwUjNQK1BjdFpiT1N5bjJ4L0ZHcDliVWt6b01HZ0hKS0cvMGJqWnVtbjJnbUhnVURvR3U0QWdCQW9XUnEzYUt5Zi9pWHBQN2pad0x3S2cwQUpaWDB0M3o0QjlCdHZMVUVVQmhIZG14OWljc3VpTzdvRnF0TDZYVG5XaTBBS0prMDdLMmpZK2xOMFIwQXFvY0JBRUFoZVBQTVBuTi9SM1JIdDFuRGxUWXhBZ0JBV1ZoeXBUSGJPWDdGMU1Ib0ZnRFZ3d0FBb0JEbWUzb3ZsdW1wMFIwUmJNaVZOakFDQUVBcGpPbkJnWjdkMjZNekFGUVRBd0NBM0R2VVBHdUR1YTZNN29oa0k2NTBHaWNDQWtDUldZK3JaMTEyb1RVNTRoVkFEQVlBQUxtWGVtclh1elFhM1JITjFrbTJudk9pQUtDdzF2czlBMWZQL2xWMEJvRHFZZ0FBa0d0SHRwKzkxZHhmRjkyUkYybmNsY1lZQVFDZ2FLenVYaHUxRjBaM0FLZzJCZ0FBdVdhV2JoT3ZWWTlnNjEwMndnZ0FBSVZoVWpwTmYxaWZtTDQzT2dWQXRmR21Ha0J1emUzYytwT1MvK2ZvanR3eEtXMTAyWEIwQ0FCZ09kS29qdFY3MHh1aU93Q0FBUUJBTHZrdHo2ekwvZnJvamp4TEd6UFpJRmNDQUVDdTFhUnMxTjVxemFtNTZCUUFZQUFBa0V0elIrYmZKdW03b2p0eXphUzB5V1YxUmdBQXlDc2I4MzFEMjZmZUhkMEJBQklEQUlBY21tdWU5VVNUTG92dUtJUWsyV2FYRFRBQ0FFRGVXTCtVUm5wZWFpWmVwQUhrQWdNQWdQeXAxVzZXTkJpZFVSU1dwTFRGcFg3ZVh3SkFucVIxMmNjYnpidi9iM1FIQUh3YkF3Q0FYSm5iZWM0UFMzNWhkRWZoSkttMnhXVjkwU0VBQUVsS1E1NjF4dXpGMFIwQThIQU1BQUJ5dzV0S2N0MG15YUpiQ3FuMjBKVUF2ZEVoQUZCeEptbWR2MmY0eXVtOTBTa0E4SEFNQUFCeVk2NTJ6czlKK2cvUkhZWFc0MHBiTXFrV0hRSUExWlhXK1h6anUycHZqdTRBZ0VkakFBQ1FDMzdqR2NNbTN4N2RVUWJXSzlXZTZGTGlUQUFBNkxvZVZ4cTFuN2VMcGhhalV3RGcwUmdBQU9UQy9OSDZOc2syUlhlVVJwOHJiVGwrUUNBQW9IdlNPdDFiMzc3Nzk2STdBT0JFZUdzSUlOekNqbk8vVDZZM1JuZVVqUTI0N0hUblJBVUE2SlorVjg5cHgxNFFuUUVBSjhNQUFDQmNwdFl1U2YzUkhXVmtEVmM2UFdNRUFJQk9NOG5HOWJmOVY5N3ptZWdVQURnWkJnQUFvUloyYlAweFNTK0s3aWd6RzVUU1JzNERBSUJPc2tHMWpvMmxWMFozQU1EallRQUFFTWFieitweCthM1JIVlZnd3k3YnlPMEFBTkFSU2JKUnYzNzhpcW1EMFNrQThIZ1lBQUNFbWU4NThLc3VQUzI2b3lyU2lDdXQ1MG9BQUdnM1c2ZERqZjdwcTZNN0FPQlVHQUFBaERqWVBITmNyb25vanFxeE1WY2Fad1FBZ0xicGNmV3N5MTV0VFdYUktRQndLZ3dBQUVMMDlmUmNLMmw5ZEVjVjJYcVhqVEVDQUVBN3BISDc3RUJ6NXMrak93QmdPUmdBQUhUZG9lMW5uK2x1YjRqdXFMSzAzcFZHb3lzQW9PQUdYS25mbngrZEFRREx4UUFBb090U3Nsc2w5VVIzVkpwSjlvUk1Oc1NWQUFDd1dyVnh1Nk4rN2ZTOTBSMEFzRndNQUFDNmFtN24xbGVZNjd6b0RrZ3lLVzF5YVpBUkFBQldLbzFvc1Q1Z3I0dnVBSUNWWUFBQTBEWCtyaWYzUzM1RGRBY2V4cVRhSnBmVm8wTUFvRGdzU1RhcXk2MDVOUmZkQWdBcndRQUFvR3NXRGc1ZEp0ZVRvenZ3S0VteXpaazBFQjBDQU1WZ1kzNS9mZWZ1MjZJN0FHQ2xHQUFBZE1YaDVnOXV5cVRMb3p0d1lwYWsydVpNMWg5ZEFnRDVacjJTRGVuRlp1TCtLUUNGd3dBQW9DdFM3ZGhOSm8xRWQrQngxS1MwT1pQMThKNFdBRTRtamZ2ZGpSM1RkMFYzQU1CcU1BQUE2TGk1bmMvNFQ1SzlKcm9EeTlBanBTYzV6MmdBZ0JOcHVDOE5waGRFWndEQWFqRUFBT2dvZDVrODJ5WEpvbHV3VEQxUzJwSkpYQWtBQVAvR0pJM3B2U1BOcVgzUktRQ3dXZ3dBQURwcVljZlcxMHI2ajlFZFdCbnJrMnFiWGFwRmx3QkFQdGlJRm9hK083MHh1Z01BMW9JQkFFREhlUFBNSVRlL1Byb0RxOVQvMEprQS9LWUFVSFUxcWJYT0w3S0xwaGFqVXdCZ0xYaGJCNkJqNWxMdjJ5VnRqdTdBNnRtQVpLZG4zTUFCb05Kc1BQdmE2STdwOTBkM0FNQmFNUUFBNklqNUhXZDlqNWxmR3QyQnRiT0dsRFk1SXdDQWF1cVRlc2Q3bmgrZEFRRHR3QUFBb0NOY3RadVBmMytNTXJBaFY5cVlSV2NBUU5mWnVIKzQvNnBQZmpxNkF3RGFnUUVBUU52TlgzUDJzeVgvOGVnT3RKY05TK2tKUEJrQVFIV2tJYldPamFkWFJIY0FRTHN3QUFCb0svL0FxMnFlYkZkMEJ6ckQxcmxzUFNNQWdBb3dLWTFsTjQ1Zk1YVXdPZ1VBMm9VQkFFQmJ6WDN1aXhkSk9pdTZBNTJUeGwxcGpCRUFRTG1sZFg1NG9IZG1Ncm9EQU5xSkFRQkEyeHk0L3Vsalpyb211Z09kWit0ZE5ocGRBUUFkMGlOcHRQVlQxaFNIbndBb0ZRWUFBRzNUdDVpYWtrNkw3a0FYbUpRMlpMSmhyZ1FBVUQ2MU1mL0M0UFk5ZnhMZEFRRHR4Z0FBb0MyTzduakd2NWZaTDBWM29MdlNScGNOUlZjQVFCc05TRGJzejR2T0FJQk9ZQUFBMEJhWldyZEk2bzN1UUplWmxEWmxVb01yQVFDVVF4cnpEOVdiTS84UzNRRUFuY0FBQUdETmp1dzg2OFV1dXlDNkEwRk1xbTEyV1owUkFFQ3gyWWd2TmVycHRkRWRBTkFwREFBQTFzU2JaL1pabG02TzdrQXdrOUptbHdZWUFRQVVreVVwcmRNVjFweWFpMjRCZ0U1aEFBQ3dKdk8xM2pmTDlOVG9EdVJBZXVoS2dMN29FQUJZaFhXNnY3RnorcDNSR1FEUVNRd0FBRmJ0VVBPc0RTWmRGZDJCSEtsSmFVc202NGtPQVlEbHN4NVhHazR2amU0QWdFNWpBQUN3YXFsbTE3bkUwK0R4U0QyU1BURTcvaHh0QUNnQUc5ZnV4bzVQZml5NkF3QTZqUUVBd0tvYzJYNzJWcE85UHJvRCtXUzlVbTJMUzRrekFRRGttOVhkVzBPSngvNEJxQVFHQUFDclltYTd4R3NJSGsrZksyMlJqQkVBUUY2WnBQWDZyWkhtMUw3b0ZBRG9CdDY4QTFpeHVlMWJYeTNwUjZNN2tIODI0TExOT3Y0bUd3QnlKbzFvWWZDNzBpOUdkd0JBdHpBQUFGZ1J2K1daZFpuZkVOMkI0ckM2SDM5RUlDTUFnRHlwU1JwTnYyb1hUUzFHcHdCQXR6QUFBRmlSdVNQemI1UDBYZEVkS0JacnVOS21qQkVBUUc2a3NlenJnenMvK2I3b0RnRG9KZ1lBQU1zMjF6enJpU1pkRnQyQllySWh5VFp3SlFDQUhPaVhlamJVbmgrZEFRRGR4Z0FBWVBscTlnNUpnOUVaS0s0MDRrcW5jU2dnZ0ZpMU1mOUkveFZUbjRydUFJQnVZd0FBc0N4ek84LzVZY2wrSXJvRHhXZnJYR21jRVFCQURCdFV0akNlWGhMZEFRQVJHQUFBbkpJM2xlVGFKUzdlUnB2WWVwZU5NUUlBNkRLVDBycnNsdkVycGc1R3B3QkFCQVlBQUtjMGw4NzVMNUorTUxvRDVaTFd1MnlVRVFCQTk2UjFPbEx2bjNsYmRBY0FGMFhEMVFBQUc0cEpSRUZVUkdFQUFQQzQvTVl6aHMyMFBib0RKV1JTZW9MTGhoa0JBSFJCajh1R1d6OWpUV1hSS1FBUWhRRUF3T09hUDFhZmxIUjZkQWRLeXFTMDBXV0RqQUFBT2l1TjZVdU5uYk1maXU0QWdFZ01BQUJPYW1ISHVkOG42VTNSSFNnNWs5SW1sOVdqUXdDVVZyK3JOcnowdk9nTUFJakdBQURncERMUGJwWFVIOTJCQ2tpU2JjNzR0dzFBKzVtVTF1bFBCcHFmK25KMENnQkVZd0FBY0VMejEyeDlyc3hmSE4yQjZyQWsxYlprVWw5MENZQXlzU0ZmYWd5bVYwZDNBRUFlTUFBQWVBeHZQcXRIeVhkRmQ2Q0NhbEx0aVptc2p6TUJBTFJCa21vam1yVG0xRngwQ2dEa0FRTUFnTWVZcngzNEZaZWVGdDJCaXFwSmFZdEx2ZEVoQUlyT1JuMS8vZnJwRzZJN0FDQXZHQUFBUE1MQjVwbmpraWFqTzFCeFBWTGFra2s5WEFrQVlKVjZYTFd4bnBkRlp3QkFuakFBQUhpRXZscnZUa25yb3pzQTY1VnFtMTJxUlpjQUtLSTBydGw2OCs2UFJIY0FRSjR3QUFENGpxUFhiZjBCbDM0K3VnUDRqbjRwYmM1ay9MWUNzQUkyNEo0TnRjNlA3Z0NBdk9FdEZZRHZXR3I1clpKNm9qdUFoN01CeVU3UEpJc3VBVkFVYVZ5L085emNjMTkwQndEa0RRTUFBRW5TM0k2emY5d2t2aTFCTGxsRFNwc1lBUUNjV2hyeG8vWHZTVDhYM1FFQWVjUUFBRURlUExOUE1rNUpScTdaa0pRMmNpZ2dnSk96SkdXai9pYTdhR294dWdVQThvZ0JBSUFXZW5vdmsvU1U2QTdnVkd6WWxUWXdBZ0E0aVRILzV2QzFNKytOemdDQXZHSUFBQ3J1OExWUDI1aTUzaGJkQVN5WGpicHNQU01BZ0VleVhxbHZUQmRFZHdCQW5qRUFBQlZuV2M5TkpvMUVkd0Fya2NaZGFad1JBTUREak91amZkdW1aNk16QUNEUEdBQ0FDanV5L1Jubm12U2E2QTVnTld5OXk4WVlBUUJJMWxBMk9OajdvdWdPQU1nN0JnQ2dvdHhsWnRsdDRuVUFCWmJXdTlJSUl3QlFhU2FsOGRadDF2ejRnOUVwQUpCM3ZQRUhLbXBoeDliWFN2cVI2QTVnVFV5eURTNGJaZ1FBcXNwR2ZLN2VOM3RaZEFjQUZBRURBRkJCM2p5MzRhYWQwUjFBVzloRGp3ZHNSSWNBNkxyazhoRi9uVFdWUmFjQVFCRXdBQUFWTkZkclhTbjVrNkk3Z0xZeHFiWTVrOVc1RWdDb0VodjNmeDYrZHVhTzZBNEFLQW9HQUtCaTVuZWM5VDBtZjB0MEI5QjJKcVhOTHZWSGh3RG9pajZwWjZSK2ZuUUdBQlFKQXdCUU1lNzJEc2tHb2p1QWpraFNiVXNtNjRzT0FkQnBhYjMrYktCNTE1ZWlPd0NnU0JnQWdBcVp2K2JzWjh2c0ZkRWRRRWZWcExRbGsvVkdod0RvRkJ2U1VxTSs4c3JvRGdBb0dnWUFvQ0w4QTYrcWViSmJvenVBcnVpUmJFc205VVNIQUdnN2szeTRkWTAxNzF5SVRnR0FvbUVBQUNwaTd2TmYrZ1ZKWjBkM0FOMWl2Vkp0czB1MTZCSUE3V1NqZm1ENHhsbWVaQU1BcThBQUFGVEFnZXVmUG1ieTdkRWRRTmYxdTlKbWx5V2VEZ0NVUW85VUcvZVhSMmNBUUZFeEFBQVYwTGRVdTFyU2FkRWRRQVFiY05sbWwvRWJEeWk4TkpaOXV0NmN1VE82QXdDS2lyZERRTWtkdmU3Yzc1ZjB5OUVkUUNTclMzYTZTeFpkQW1DMXJOODlHODZlRzkwQkFFWEdBQUNVWExiVXVrVVM1NkdqOHF6aFNwc1lBWUJDTWtsai92dkR6VDMzUmFjQVFKRXhBQUFsZG1USDJTOXkwL09qTzRDOHNDRlgyc0FJQUJSTkd2WmpnOTlYZTMxMEJ3QVVIUU1BVUZMZVBMUFBaRGRIZHdCNVl5T3VkRm9XblFGZ21TeEoyWkJmWWhkTkxVYTNBRURSTVFBQUpUWGYwL3NtU1dkRWR3QjVaT3VrTk02VEFZQWlzSFgrcmVFYlptNlA3Z0NBTW1BQUFFcm9VUE9zRGVhYWlPNEE4c3pXdTlJWUl3Q1FaOWJqNm0ya0YwUjNBRUJaTUFBQUpkVFRrNjUxYVRTNkE4ZzdXKyt5RVVZQUlLOXNYSGYxWFRlMU83b0RBTXFDQVFBb21TUGJ6OTdxTGc1S0FwYkRwTFRSWmNQUklRQWV6UnFlTlliNkxvanVBSUF5WVFBQVNzYk1ka21xUlhjQVJaSTJackpCcmdRQWNzT2t0RTYzVy9QakQwYW5BRUNaTUFBQUpUSzM4K3lma1BTajBSMUE0WmlVTnJtc3pnZ0E1SUdOK0h4OVlQck4wUjBBVURZTUFFQkorQzNQckV0MlEzUUhVRmhKc3MwdUcyQUVBRUxWSkkzbzU2d3BudGNKQUczR0FBQ1V4TUtSK2N2bCt1N29EcURJTEVscGkwdjlqQUJBRkZ1WDNUdDA3ZlFmUkhjQVFCa3hBQUFsTU5jODY0a3V2VFc2QXlpRkpOVzJ1S3lQRVFEb3VqNnBaMFB2YzZJekFLQ3NHQUNBTXFpbG15UU5SbWNBcFZHVDBoWkp2ZEVoUUxXa2RmcnJnYmZmL2VYb0RnQW9Ld1lBb09EbXRtOTlwcVJYUjNjQXBkUGpTbHN5bnFrQmRJa05xdFVZR25scGRBY0FsQmtEQUZCZzNsU1MrVzJTTExvRktDUHJsV3BiTWlseE93RFFVU2JWeHJLZDFyeHpJVG9GQU1xTUFRQW9zSVhhMXRkTCtzSG9EcURVK284ZkRHajh4Z1E2eGtiOHdmcDFNODNvRGdBb085N09BQVhsTjU0eDdQSWQwUjFBRmRpQVpLYzcxOW9BblZDVE5PYXZqTTRBZ0NwZ0FBQUthdjVZZlZMUzZkRWRRRlZZdzVWT3p4Z0JnSFliODg4T2JaLzVtK2dNQUtnQ0JnQ2dnQloyblB0OWt0NFUzUUZValExS2FTUG5BUUR0WXYzdU5uS014LzRCUUpjd0FBQUZsS2wxaTZUKzZBNmdpbXpZWlJ1NUhRQllNNU5zblg5d3FIblBONk5UQUtBcUdBQ0FncG0vWnV0ekpiMGt1Z09vc2pUaVN1dTVFZ0JZQ3h2MHhjYVRhejhkM1FFQVZjSUFBQlNJTjUvVm82UmJvenNBU0RibVN1T01BTUNxSkNrTitlVjIwZFJpZEFvQVZBa0RBRkFnOHowSGY5bmxUNC91QUhDY3JYZlpHQ01Bc0ZJMm9yMk5tMloyUlhjQVFOVXdBQUFGY2JCNTVyamN0MFYzQUhpa3RONlZScU1yZ0FMcGtkS2d2VGc2QXdDcWlBRUFLSWplbnQ0ZGt0Wkhkd0I0RkpQc0NabHNpQ3NCZ09WSVkzNTM0L3FwajBkM0FFQVZNUUFBQlhEMHVxMC9JTmN2UkhjQU9BbVQwaWFYR3RFaFFMN1pnTHd4N09kSGR3QkFWVEVBQUFXdzFQSmJKZlZFZHdCNEhDYlZObWV5ZW5RSWtGKzFVWCt2TldjT1JIY0FRRlV4QUFBNU43Zno3SmVieExjbFFCR1laSnN6cVQ4NkJNaWZOT0lMQTRQVHZ4emRBUUJWeGdBQTVKZzN6K3lUMjQzUkhRQ1d6NUpVMjVMSkdBR0E3N0RrOGlGN2d6V1ZSYmNBUUpVeEFBQTV0bERyZll1a3AwUjNBRmlobXBRMlo3TGU2QkFnSDJ5ZGZYWG9odDIvRjkwQkFGWEhBQURrMU9Gcm43WXhrNjZJN2dDd1NqMlNiY21rV25RSUVLeFhxbTFvL1ZoMEJnQ0FBUURJTGN0NmJqUnBKTG9Ed09wWnI1U2VtRWs5UENJUTFXWGovdUdCSzJlL0VOMEJBR0FBQUhMcHlQWm5uR3ZTYTZNN0FLeWQ5VW0xemM2VkFLaW1ockxCd2RFWFJXY0FBSTVqQUFCeXhsMW1sdTBTLzMwQzVkSC8wSmtBL0ZlTktqSEpodjBtYTk2NUVKMENBRGpPb2dNQVBOTDh6cTJ2ZGZmM1IzY0FhRCtmTTJYZk1JazdBbEFGNjNSbytGMjd1WlVOQUhLRTd5S0FIUEhtdVExMzN4bmRBYUF6ck9GS201ejVIZVdYWE5uUTRrOUVad0FBSG9rQkFNaVJ1WlM5WGRLL2krNEEwRGsyNUVvYmVSUTZ5czNHL0F1ajEzM3FMNkk3QUFDUHhBQUE1TVRjenFjOXljd3ZqZTRBMEhrMkxLVU4zQWVBY3JJK3VZME9QanU2QXdEd1dBd0FRRjU0enkyU0d0RVpBTHJEUmwyMm5oRUE1V1ByOUVlRHpZOTlJN29EQVBCWURBQkFEc3p2UFB2L2svU0s2QTRBM1pYR1hXbU1FUURsWVVOYWJBeU5YQmpkQVFBNE1RWUFJSmczbGR4dGx6Z1dES2drVysreVVVWUFsSUJKR3M2dXRPYWRTOUVwQUlBVFl3QUFnczJscmI4ZzZkem9EZ0JCN1BoNUFEYk1DSUJpczNXNmYrakdtWnVqT3dBQUo4Y0FBQVRhM3p4bm5abHZqKzRBRUM5dGRObFFkQVd3U2oxU0d0S0xvak1BQUkrUEFRQUkxSjkwdGFRblJIY0F5QUdUMHFaTWFuQWxBSW9uamZydXhyVzcvekc2QXdEdytCZ0FnQ0JIcnp2MysyWDZsZWdPQURsaVVtMnp5K3FNQUNnTzYzZHZqUHB6b3pzQUFLZkdBQUFFeVpaYXQwanFqZTRBa0RNbXBjMHU5VE1Db0FCTThqRzl6NW96QjZKVEFBQ254cW5qUUlBajE1N3pRc3YwcDlFZEFIS3NKV1ZmUy9KajBTSEF5ZG13THd6KzJuVERUQ3hXQUZBQVhBRUFkSm0vNTl4ZXkvVE82QTRBT1ZlVDBwWk0xaE1kQXB5WUphbHZSTC9BaDM4QUtBNEdBS0RMNXUvTDNpVHBqT2dPQUFYUUk5a1RNNGtSQUhrMDZ0L291Mzc2ZDZJekFBREx4d0FBZE5HaDVsa2JKSitJN2dCUUhOWXIxYmE0bFBpU0ZmbGhQYTdleGdBSC93RkF3VEFBQUYzVVUwczdKYTJMN2dCUU1IMnV0RVV5UmdEa3hiait2di82dXo0WG5RRUFXQmtHQUtCTERsOTd6amt1L1pmb0RnREZaQU11Mnl5TzcwVzh1bWVEUTZNWFJHY0FBRmFPQVFEb2twUnBsNlJhZEFlQTRySzZLMjF5UmdERU1hazJwbmRZODg2RjZCUUF3TXJ4RmdMb2dybnRaMThvcy84WjNRR2dIUHl3bEgwemliUFgwVzFwMUE4UHZudDZPTG9EQUxBNlhBRUFkSmpmOHN5Nmt0MFkzUUdnUEd4SXNnMWNDWUF1cTBrYXluNHlPZ01Bc0hvTUFFQ0hMY3d0dkZXdTc0N3VBRkF1YWNTVlR1TVNBSFJQR3ZWL0dyeCs5aytqT3dBQXE4Y0FBSFRRM002enQ3ajc1ZEVkQU1ySjFyblNPQ01BdXFCUHN0TjZuaDJkQVFCWUd3WUFvSlBjYnBJMEdKMEJvTHhzdmN2R0dBSFFXYlV4LzkrTmlidS9HdDBCQUZnYkJnQ2dRK2EyYjMybUpPNlZCTkJ4YWIzTFJoZ0IwQmsycUtYNjRPZ3JvanNBQUd2SEFBQjBnRGVWWkw1TEhORUZvQnRNU2h0Y05zd0lnRFl6cVRhNnRNMmFkeTVGcHdBQTFvNEJBT2lBaFhUMjZ5VDlVSFFIZ0FveEtXMTAyU0FqQU5ySFJueC8vWVk5MTBkM0FBRGFnd0VBYURPLzhZeGhOOXNaM1FHZ2dreEttMXhXanc1QktkU2tiSjI5TkRvREFOQStEQUJBbTgwZnJVOUlPajI2QTBCRkpjazJaOUpBZEFpS3prWjl6OGlPM1IrTjdnQUF0QThEQU5CR0M4Mm5mNjlNYjQ3dUFGQnRscVRhNWt6cWl5NUJZZlc3RDY0N3htUC9BS0JrR0FDQU5zcFM3UlpKL2RFZEFLQ2FWTnZpc2o3T0JNREtwWFgrTzlhODU0SG9EZ0JBZTNGQ09kQW04enZPZW80cmZUaTZBd0FlWVVscWZUVkpuT0dPWmJJaFB6cjQ2OU4xTTdFZUFVREpjQVVBMEFiK2dWZlZwTnF1NkE0QWVJd2VLVzNKcEI0K3kyRVprbFFiOFYvbHd6OEFsQk1EQU5BRzg1Ly8waSs3L09uUkhRQndJdFluMVRhN1ZJc3VRZDZsVWYxci9ZYVozNHp1QUFCMEJnTUFzRVlIcm4vNm1PUlhSM2NBd09QcWw5TG1UTVp2ZnB4TWo5VFRtODZQemdBQWRBNXZBNEExNmx1cTdaQzBQcm9EQUU3RkJpUTdQZU1FSUp4UUdzMCsxbi96Sno4ZDNRRUE2QndHQUdBTmpsNjM5UWNrWFJUZEFRRExaUTBwYlhKR0FEeUMxWlUxbnJUdnZPZ09BRUJuTVFBQWE3RFU4bHNsOVVSM0FNQksySkFyYmVTTU4veWJOSmE5Mnk3OTJueDBCd0NnczlqL2dWVTZzdU9jbDVuMHY2STdBR0MxL0tBcHU0KzNBbFdYUnZ6STRLOU5EMFYzQUFBNmp5c0FnRlh3NXBsOUp0MFUzUUVBYTJHakxsdlBsUUJWWnNtVk5mUzY2QTRBUUhjd0FBQ3JzTkRUZDZta3AwUjNBTUJhcFhGWEdtTUVxQ29iMVQ4UDN6VDl3ZWdPQUVCM01BQUFLM1Q0MnFkdHpOemZIdDBCQU8xaTYxMDJ5Z2hRT2IxU2VwS2VIWjBCQU9nZUJnQmdoY3g3YmpCcEpMb0RBTnJHcFBRRVZ4cGhCS2dTSC9NL3IxODJmVzkwQndDZ2V4Z0FnQlU0Y3UxWnp6RFh6MFIzQUVEYm1XUWJYRGJNQ0ZBRlZsZHJlR2owcGRFZEFJRHVZZ0FBbHNsZFpsbTZUZngzQTZDc1RNY2ZEOWlJRGtGSG1XU2oybW5OTzVlaVV3QUEzY1d6ZjRCbG10OSs5bXZjN0hlaU93Q2c0MXpLdm03eWVkNG1sSkdOK29HaGQwK1BSWGNBQUxxUGJ6S0JaZkJibmxsM3MydWpPd0NnSzB4S20xMGE0SGFBMGtrdURldVYwUmtBZ0JnTUFNQXl6QjJaZTd1a2Z4ZmRBUUJkazZUYVpwZjFSWWVnbld3czNUTjAzZlNIb3pzQUFERVlBSUJUbU52NXRDZVo3QzNSSFFEUWRUVXBiY2xrdmRFaGFBZnJrdzhtUFN1NkF3QVFod0VBT0JYdmVhYzRFZ3RBVmZWSXRpV1RlcUpEc0ZacHhEOWc3NXphRjkwQkFJakQ2VDdBNDVqYmZzNlB5UFJSOGQ4S2dLbzdhbXA5M2FSV2RBaFd3d2I5Mk9EdDB3Tm00bUFIQUtnd3JnQUFUc0tiU2pMZEpqNzhBNERVNzBxYlhaYjQvRmc0SnZVTXAwdjQ4QThBWUFBQVRtS3VkdmJQU3pvM3VnTUE4c0lHWExaRk10NDlGSXF0ODI4TjNEUjFlM1FIQUNBZXY4S0JFL0RtZnh3eHFSbmRBUUI1WXdNdU85MjVOcW9vYXBMNmVpNkl6Z0FBNUFNREFIQUM4N1dqVGNrMlJYY0FRQjVadzVVMk1RSVVRVnFYZlh6b0hYZlBSSGNBQVBLQkFRQjRsSVhtTTU0czZWZWlPd0FnejJ6SWxUWXdBdVNaOVh2VytQNzduaFBkQVFESUR3WUE0Rkc4bHQwbXFTKzZBd0R5emtaYzZiUXNPZ01uWXBLTjJIK3ppNzR4RjUwQ0FNZ1BkbnZnWVJhdU9lZThMT212b3pzQW9FajhmbFAyQUc4cGNtVlk4OE8vdnJzUm5RRUF5QmV1QUFBZTR1ODV0emRMZW5kMEJ3QVVqYTEzMlJoUG1Nc0xTMUp0WGZhejBSMEFnUHhoQUFBZU1yOTM2WTJTem9qdUFJQWlTdXRkTnNJSWtBdWovcFhHdFROM1JHY0FBUEtIQVFDUWRPaTZyVStRMjJSMEJ3QVVsa2xwbzh1R28wT3F6WHFsMm1uRHo0cnVBQURrRXdNQUlLa244NTJTMWtWM0FFRFJwWTJaYkpBckFjS3M4NytwVDM3a242TXpBQUQ1eEFDQXlqdDg3VG5udU92bm9qc0FvQlJNU3B0Y1ZtY0U2RGFycXpVNFBQcUM2QTRBUUg0eEFLRHlVcVpka21yUkhRQlFHa215elM0YllBVG9HcE5zMUsrejVwMUwwU2tBZ1B6aW1UMm90TG1kNTd4S3JnOUVkd0JBS1dWUzYydEpPaG9kVWdFai91RHdyMDJQUm1jQUFQS05Ld0JRV2Q1ODFvQ2ttNkk3QUtDMGtsVGJrc242dUJLZ28ycFN6MURyNWRFWkFJRDhZd0JBWlMzVURyNVZydStPN2dDQVVxdEphWXVrM3VpUThxcXQwK2ZxTit6NXUrZ09BRUQrTVFDZ2t1WjJucjNGNVcrTDdnQ0FTdWh4cFMwWnA2MTBnUFhKNjAvd0g0M3VBQUFVQXdNQXFzbnRSa21EMFJrQVVCWFdlL3gyQUNWdUIyaW5OS1lQMnBYVGU2TTdBQURGd0NHQXFKeTU3VnVmS2ZPUGlYLy9BYURyZkVIeXJ5ZDVGbDFTZkRhb3hjSGJkL2ViaVZVRkFMQXNYQUdBU3ZHbWtzeDNpUS8vQUJEQ0JpVGJuUEVxdkZZbXBSRi9DeC8rQVFBcndRQ0FTbG1vbmYyemtuNG91Z01BcXN6cVVqcWRFV0F0MHFqdmJkdzQvZTdvRGdCQXNUQUFvREw4eGpPR1hYWnRkQWNBUUxKQktXM2t5K3RWcVVtTHc3MHZpTTRBQUJRUEF3QXFZLzVZNHlwSnAwZDNBQUNPczJGWDJzQUlzRkpwblUrdHUvWVRuNHp1QUFBVUR3TUFLbUdoK2ZUdmxmemk2QTRBd0NQWnFDdWR4Z2l3YlAzdWpkRmp6NHJPQUFBVUV3TUFLaUdyMWQ0cHFUKzZBd0R3V0RibVNtT01BTXVSMXZsdldQT2V3OUVkQUlCaTR2Z2RsTjc4anJPZTQwb2ZqdTRBQUR5K2JLL0pEL0RXNUdSc1NBdER0Kyt1UjNjQUFJcUxLd0JRYXY2QlY5V2sycTdvRGdEQXFhWFRYR2swdXVML3RYZDNJWExkWlJ6SGY4Ly9UUFpsZGw2U1RVMlQzYlNVVXJ3d1Rib05nb3BnaTdYb1ZiMHFDQ0o2WVZHUkZ0OUFRcFN1NlNZMUlZMnBKSzNnaFNERml5cW9JTjZJZUZGSmtacHNTaXRhSzcyeGFTTWlhVWwzZHZPeS84ZUw5cUxFMk94dVp2WTU1OHozY3hlUzNma0dCbWJPYjg0NVUxSkpLdHJMRDBSbkFBQ3FqUUVBdGJiNHQ3OS94ZVU3b3pzQUFDdGdrcjB2eTlwY0RuQWw2K1F6NHdlZmZ5cTZBd0JRYlF3QXFLMDNIdDI1U1dZUFIzY0FBRmJCM3ZsNndHWjBTSWswcE54cDNCT2RBUUNvUGdZQTFOYkljbU9mcEJ1aU93QUFxMlJTTVpWbFhPMHVTYkt1L3RDWisvTkwwUjBBZ09wakFFQXRYVGh3NXdmay9xWG9EZ0RBR3Bsa1Uzbm92Ny9GeGoxUGRDOThLcm9EQUZBUERBQ29wWngxUk5LRzZBNEF3TnBaa29ycExCdmlFU0IxOGlHYi9jdkY2QTRBUUQzd1hUdW9uWVc1bVUrYjYxZlJIUUNBUHJrczVWZVQvRkoweVBxeXRzNjNqcC9xUkhjQUFPcURNd0JRS3o2N1k4U3lEa1YzQUFENnFDSFpkSmFLNkpCMWxGdzJtajhUblFFQXFCY0dBTlRLWXRINHVrenZqKzRBQVBTWGJaRFNkaCtlRWFDcmx5ZU9uUDV0ZEFZQW9GNFlBRkFiYisyLy9VYVQ3WW51QUFBTWhvMjRpdWxjKzNjdnRzRzl0V1hwcnVnT0FFRDkxUHdsRk1QRWN1TlJsN3JSSFFDQUFScVYwbFNXMWZnZGpIZjkxN2IzcjY5SGR3QUE2b2ViQUtJV0Z2YnYybTA1UFNkR0xRQVlDdDR6NWRkTTh1aVMvckttTGs4OGVXckVyRzcvTXdCQUdYQ3doTXB6bDFrdWpvcm5Nd0FNRFd1NjBsYXYxMGNaSnVWMjNzdkJQd0JnVU9yMHNva2h0VGczODFsM1BSWGRBUUJZZjM1ZXltZnJzZjlheC8vVE9qWi9RM1FIQUtDKzZ2R0tpYUhsUno0eTdxNEQwUjBBZ0JqV2x0S1dHbnhnbmx4NW9uRmZkQVlBb040WUFGQnB2WVhlSGtrM1IzY0FBT0pZMTJXVDFSNEJiS09lN3h4ODdrUjBCd0NnM2hnQVVGbTl1ZHR2TXRrM296c0FBUEhTWmxmYVZNMFJ3RWJrRTZPSnIvMERBQXdjQXdDcXl4dUhKVFdqTXdBQTVXQ2JYZGF0M2doZ1hmK3BIVHo1Wm5RSEFLRCt1QWtnS3FtM2IrYWpNajBqbnNNQWdDdmtzMGwrUHJwaVphemxGMXBQekk5RmR3QUFoZ05uQUtCeWZGWkpwcVBpNEI4QWNCWHB4aXlicU1DWkFDWloyeCtNemdBQURBOEdBRlJPTDgxOFVkSUhvenNBQUNWbFV0cm1VclBjSTBEcStHc1RCMC8vT0xvREFEQThHQUJRS1Q3N29ZNlpmeSs2QXdCUWNpWVZVeTRiTCtrSTBIRGwwZkZQUm1jQUFJWUxBd0FxWlRGZGZGaXlyZEVkQUlBS01DbE51VFJhdmhHZzJLaG4yb2RQdkJqZEFRQVlMZ3dBcUl5bDJkMjN5ZnlyMFIwQWdBcEpVakh0c3BIb2tIY1o5VHgreS9sN296TUFBTU9IQVFDVjRVVitYTkpvZEFjQW9HSUtLVTFuV1NNNlJHL2YrSy9yUDdTSC9uRWhPZ1VBTUh5NGl6b3FZZW1ST3orUjViK0w3Z0FBVkpkZmt2SS9rN1FjMTJCdFgyZ2RuMi9GRlFBQWhobG5BS0QwZlBidWhzdVBSbmNBQUtyTk5rakZkcGRTMEQwQlRFcmo5cm1ZQndjQWdBRUFGYkJZbkh2UXBSM1JIUUNBR2hoeHBXbkpBa2FBMU0ydk5BK2YrdVc2UHpBQUFPOWdBRUNwdlRtN1kxS3k3MFIzQUFEcXc4WmN0azNyZXlGa1EycE9qdDYxam84SUFNRC9ZQUJBcVkwVUl3Y2tUVVozQUFEcXhacXV0QzJ2MndpUU51WGYyT3lmWGwyZlJ3TUE0T3E0Q1NCSzYveStPM1lVWnFjbGxlRyt6UUNBR3ZLM3BIdzJTUU84SXNDYWZubml5ZmtSczBFK0NnQUExOFlaQUNpdHd1eVlPUGdIQUF5UXRTVGI0b1A3U01Ta29xM3ZjdkFQQUNnRHpnQkFLZlhtWnU2WDYrbm9EZ0RBY1BBM1RQbmYvWDliWk8xOHJuWDhOSmV5QVFCS2dUTUFVRG8rZS9lWXBFUFJIUUNBNFdFYlhXbXl6eC9TSnltUEZmZjE5NWNDQUxCMkRBQW9uYVhHdVcvSmRVdDBCd0JndU5obWwyM3Ezd2hnWGIzWWVlemtIL3YyQ3dFQXVFNE1BQ2lWM3R3ZDArNzI3ZWdPQU1Cd1NwdGQxcm4rRWNBMnVFOXN2ZlN4UGlRQkFOQTNEQUFvRjdmdlMycEZad0FBaHBSSmFZdkwydGM1QW5UOVo3Ym5oWFA5aVFJQW9EKzRDU0JLb3plMys4UHlmRUk4THdFQTBWeGFmdDJraGRXL0pGblRMN1orTkQ4NmdDb0FBSzRMWndDZ0ZOeGw4dnk0T1BnSEFKU0JTY1ZXbDQydi91ZXNaUThOcEFrQWdPdkV3UlpLWVhIZnpCZmM5SlBvRGdBQTNzMnpsTThrYVdtRlA5RHhmN1dQelc4ZGFCUUFBR3ZFR1FBSTU3TTdXbTdhSDkwQkFNQ1ZMRW5GVkpaR1Z2Q1BDK25TUkxwMzRGRUFBS3dSQXdEQ0xhYkdYa2xUMFIwQUFGeFZJUlhiczZ6eDNqY0dURjEvZHZMZ3lSZldxUW9BZ0ZWakFFQ29wZG1kdDhyMHRlZ09BQURlVXlHbG0xeHFYUDJ2YlZTNWVmTnQ5Nnh2RkFBQXE4TUFnRkE1RlljbEc0dnVBQURnbWhwU21zN1NWYzRFU0cwL2J0LzQrV0pBRlFBQUs4Wk5BQkZtOFpGZEgzZWwzMGQzQUFDd0toZWs1VE5KV243N2o5WlNyL1hFcVluWUtBQUFybzB6QUJEQ243Ni9jS1VmUkhjQUFMQnFvMUtheXJJa0tVbHAzRDhmblFRQXdFcjhueXZaZ01IcXZmVHlsMDNhRmQwQkFNQmEySmhrMjF5KzRLODBIenY5aStnZUFBQlc0cis4MWk0amJlODFqQUFBQUFCSlJVNUVya0pnZ2c9PSIgcHJlc2VydmVBc3BlY3RSYXRpbz0ibm9uZSIgaGVpZ2h0PSI3NDQiIHdpZHRoPSIxMDI0IiBpZD0iaW1hZ2UwXzMzMTlfOTExMyIvPiYjeGE7ICAgIDwvZGVmcz4mI3hhOzwvc3ZnPg==;fontColor=#FFFFFF;spacingTop=-6;" parent="1" vertex="1">
          <mxGeometry x="364" y="623" width="29.009999999999984" height="34.99999999999998" as="geometry" />
        </mxCell>
        <mxCell id="tk96eruObW772T1n_iph-26" value="192.168.1.51" style="text;html=1;align=center;verticalAlign=middle;whiteSpace=wrap;rounded=0;fontSize=10;fontColor=#FFFFFF;flipH=0;" parent="1" vertex="1">
          <mxGeometry x="565" y="491.67" width="60" height="30" as="geometry" />
        </mxCell>
        <mxCell id="fFz2IB4M-ZeV7vwJNDiT-2" value="LAN server" style="fontColor=#FFFFFF;verticalAlign=bottom;verticalLabelPosition=top;labelPosition=center;align=center;html=1;outlineConnect=0;fillColor=#CCCCCC;strokeColor=#6881B3;gradientColor=none;gradientDirection=north;strokeWidth=2;shape=image;flipH=0;imageAspect=0;aspect=fixed;image=data:image/svg+xml,PHN2ZyB4bWxucz0iaHR0cDovL3d3dy53My5vcmcvMjAwMC9zdmciIGZpbGw9Im5vbmUiIHZpZXdCb3g9IjAuNSAwLjUgNjMgNTcuNjc0NDk5NTExNzE4NzUiIGhlaWdodD0iNTcuNjc0NDk5NTExNzE4NzUiIHdpZHRoPSI2MyI+JiN4YTsgICAgPHBhdGggc3Ryb2tlLWxpbmVqb2luPSJyb3VuZCIgc3Ryb2tlLWxpbmVjYXA9InJvdW5kIiBzdHJva2Utd2lkdGg9IjMiIHN0cm9rZT0idXJsKCNwYWludDBfbGluZWFyXzY1MzNfMTA2NykiIGQ9Ik02MiAxNS45MjA4TDMyLjAxNDcgMjkuNDk1N0wyIDE1LjkyMDhMMzIuMDE0NyAyTDYyIDE1LjkyMDhaIi8+JiN4YTsgICAgPHBhdGggc3Ryb2tlLWxpbmVqb2luPSJyb3VuZCIgc3Ryb2tlLWxpbmVjYXA9InJvdW5kIiBzdHJva2Utd2lkdGg9IjMiIHN0cm9rZT0idXJsKCNwYWludDFfbGluZWFyXzY1MzNfMTA2NykiIGQ9Ik0yIDI5LjQ5NDFMMzIuMDE0NyA0My4wOTc5TDYyIDI5LjQ5NDEiLz4mI3hhOyAgICA8cGF0aCBzdHJva2UtbGluZWpvaW49InJvdW5kIiBzdHJva2UtbGluZWNhcD0icm91bmQiIHN0cm9rZS13aWR0aD0iMyIgc3Ryb2tlPSJ1cmwoI3BhaW50Ml9saW5lYXJfNjUzM18xMDY3KSIgZD0iTTIgNDMuMDk5NkwzMi4wMTQ3IDU2LjY3NDVMNjIgNDMuMDk5NiIvPiYjeGE7ICAgIDxkZWZzPiYjeGE7ICAgICAgICA8bGluZWFyR3JhZGllbnQgZ3JhZGllbnRVbml0cz0idXNlclNwYWNlT25Vc2UiIHkyPSIyOS40OTU3IiB4Mj0iMzIiIHkxPSIyIiB4MT0iMzIiIGlkPSJwYWludDBfbGluZWFyXzY1MzNfMTA2NyI+JiN4YTsgICAgICAgICAgICA8c3RvcCBzdG9wLWNvbG9yPSIjRjY4MzMwIi8+JiN4YTsgICAgICAgICAgICA8c3RvcCBzdG9wLWNvbG9yPSIjRjM1RTMyIiBvZmZzZXQ9IjEiLz4mI3hhOyAgICAgICAgPC9saW5lYXJHcmFkaWVudD4mI3hhOyAgICAgICAgPGxpbmVhckdyYWRpZW50IGdyYWRpZW50VW5pdHM9InVzZXJTcGFjZU9uVXNlIiB5Mj0iNDMuMDk3OSIgeDI9IjMyIiB5MT0iMjkuNDk0MSIgeDE9IjMyIiBpZD0icGFpbnQxX2xpbmVhcl82NTMzXzEwNjciPiYjeGE7ICAgICAgICAgICAgPHN0b3Agc3RvcC1jb2xvcj0iI0Y2ODMzMCIvPiYjeGE7ICAgICAgICAgICAgPHN0b3Agc3RvcC1jb2xvcj0iI0YzNUUzMiIgb2Zmc2V0PSIxIi8+JiN4YTsgICAgICAgIDwvbGluZWFyR3JhZGllbnQ+JiN4YTsgICAgICAgIDxsaW5lYXJHcmFkaWVudCBncmFkaWVudFVuaXRzPSJ1c2VyU3BhY2VPblVzZSIgeTI9IjU2LjY3NDUiIHgyPSIzMiIgeTE9IjQzLjA5OTYiIHgxPSIzMiIgaWQ9InBhaW50Ml9saW5lYXJfNjUzM18xMDY3Ij4mI3hhOyAgICAgICAgICAgIDxzdG9wIHN0b3AtY29sb3I9IiNGNjgzMzAiLz4mI3hhOyAgICAgICAgICAgIDxzdG9wIHN0b3AtY29sb3I9IiNGMzVFMzIiIG9mZnNldD0iMSIvPiYjeGE7ICAgICAgICA8L2xpbmVhckdyYWRpZW50PiYjeGE7ICAgIDwvZGVmcz4mI3hhOzwvc3ZnPg==;" parent="1" vertex="1">
          <mxGeometry x="577" y="449" width="36" height="40" as="geometry" />
        </mxCell>
        <mxCell id="tk96eruObW772T1n_iph-25" value="100.XX.1.123" style="text;html=1;align=center;verticalAlign=middle;whiteSpace=wrap;rounded=0;fontSize=10;fontColor=#FFFFFF;" parent="1" vertex="1">
          <mxGeometry x="122" y="491.67" width="60" height="30" as="geometry" />
        </mxCell>
        <mxCell id="kU3IDCsIoFBLPOvx1m8k-9" value="" style="shape=image;verticalLabelPosition=bottom;verticalAlign=top;imageAspect=0;aspect=fixed;image=data:image/svg+xml,PHN2ZyB4bWxucz0iaHR0cDovL3d3dy53My5vcmcvMjAwMC9zdmciIGZpbGw9Im5vbmUiIHZpZXdCb3g9IjAgMCA4MCA1OCIgaGVpZ2h0PSI1OCIgd2lkdGg9IjgwIj4mI3hhOyAgICA8cmVjdCBoZWlnaHQ9IjUzIiB3aWR0aD0iNzUiIHk9IjIuNSIgeD0iMi41Ii8+JiN4YTsgICAgPHBhdGggZmlsbD0iI0Y2ODMzMCIgZD0iTTgwIDU4TDc0LjYzNTEgNDAuODQyOVYwSDUuMzY0ODhWMzkuNjI4M0wwIDU4SDgwWk0yLjIwOTA2IDU2LjQ4MTdMNi42MjcxOSA0MS4xNDY2SDczLjA1NzJMNzcuNzkwOSA1Ni40ODE3SDIuMjA5MDZaTTYuOTQyNzkgMS41MTgzMkg3My4wNTcyVjM5LjYyODNINi45NDI3OVYxLjUxODMyWiIvPiYjeGE7ICAgIDxwYXRoIGZpbGw9IiNGNjgzMzAiIGQ9Ik00Ny4wMjE5IDUyLjY4NkgzMi45Nzg1VjU0LjIwNDRINDcuMDIxOVY1Mi42ODZaIi8+JiN4YTsgICAgPHBhdGggZmlsbD0iI0Y2ODMzMCIgZD0iTTQ0Ljg5NzMgMTIuMzgxOEM0Mi4yNDI2IDEyLjYyNTkgNDAuOTIxMyAxNC4xNTcxIDQwLjQyMjEgMTQuOTMxOUwzMi42NjUgMjguMzk2MUg0Mi4wMjM0TDUxLjI1MzkgMTIuMzgxOEg0NC44OTczWiIvPiYjeGE7ICAgIDxwYXRoIGZpbGw9IiNGNjgzMzAiIGQ9Ik00Mi4wMzA1IDI4LjM5NjJMMjkuMjY4NiAxNC44MzQzQzI5LjI2ODYgMTQuODM0MyA0My42OTg4IDEwLjk0ODIgNDUuMTA1MyAyMy4wNzAzTDQyLjAzMDUgMjguMzk2MloiLz4mI3hhOyAgICA8cGF0aCBmaWxsPSIjRjM1RTMyIiBkPSJNNDAuMTM0OCAxNS40MzM4TDM2LjIxOTcgMjIuMjNMNDIuMDIyMyAyOC4zOTc4TDQ1LjA5NzEgMjMuMDU5N0M0NC42MSAxOC44OTI5IDQyLjU4MjQgMTYuNjE3NCA0MC4xMzQ4IDE1LjQyNzciLz4mI3hhOzwvc3ZnPg==;" parent="1" vertex="1">
          <mxGeometry x="126.19" y="454.24" width="51.62" height="37.43" as="geometry" />
        </mxCell>
      </root>
    </mxGraphModel>
  </diagram>
</mxfile>
